<?xml version="1.0" encoding="UTF-8"?>
<!DOCTYPE svg PUBLIC "-//W3C//DTD SVG 1.1//EN" "http://www.w3.org/Graphics/SVG/1.1/DTD/svg11.dtd">
<!-- Creator: CorelDRAW 2021.5 -->
<svg xmlns="http://www.w3.org/2000/svg" xml:space="preserve" width="200px" height="200px" version="1.1" style="shape-rendering:geometricPrecision; text-rendering:geometricPrecision; image-rendering:optimizeQuality; fill-rule:evenodd; clip-rule:evenodd"
viewBox="0 0 16.72 16.72"
 xmlns:xlink="http://www.w3.org/1999/xlink"
 xmlns:xodm="http://www.corel.com/coreldraw/odm/2003">
 <defs>
  <style type="text/css">
   <![CDATA[
    .fil2 {fill:none}
    .fil0 {fill:#7D3C98;fill-opacity:0.149020}
    .fil1 {fill:#E67E22;fill-opacity:0.301961}
   ]]>
  </style>
   <clipPath id="id0">
    <path d="M0 0l16.72 0 0 16.72 -16.72 0 0 -16.72z"/>
   </clipPath>
   <clipPath id="id1">
    <path d="M0 0l16.72 0 0 16.72 -16.72 0 0 -16.72z"/>
   </clipPath>
 </defs>
 <g id="Camada_x0020_1">
  <metadata id="CorelCorpID_0Corel-Layer"/>
  <g style="clip-path:url(#id0)">
   <polygon class="fil0" points="0,0 16.72,0 16.72,16.72 0,16.72 "/>
  </g>
  <g style="clip-path:url(#id1)">
   <g id="_2119141138368">
    <g>
     <path id="_1" class="fil1" d="M5.19 2.45c0.01,-0.17 0.04,-0.34 0.05,-0.52 0.01,-0.18 -0.01,-0.36 0.01,-0.54l0.65 0c0.02,0.17 0,0.38 0.01,0.55 0.01,0.17 0.05,0.36 0.05,0.51 -0.26,0.04 -0.51,0.03 -0.77,0zm0.83 -0.3c0,-0.17 -0.04,-0.4 -0.01,-0.57l0.12 0c0.03,0.1 0.04,0.21 0.05,0.33 0,0.16 -0.02,0.19 -0.16,0.24zm0.03 0.15c0.17,-0.16 0.28,-0.06 0.25,-0.44 0,-0.09 -0.02,-0.22 -0.04,-0.3 -0.05,-0.13 -0.1,-0.11 -0.25,-0.11l-0.01 -0.15c-0.16,-0.01 -0.71,-0.02 -0.84,0 -0.04,0.17 -0.01,0.46 -0.02,0.64 -0.02,0.57 -0.27,0.66 0.56,0.63 0.47,-0.01 0.36,-0.09 0.35,-0.27z"/>
     <path class="fil1" d="M5.38 2.33c-0.05,-0.07 0.01,-0.31 0.01,-0.53 0,-0.11 0.01,-0.1 -0.05,-0.12 -0.06,0.03 -0.02,-0.03 -0.04,0.06 0,0.01 0,0.09 0,0.1 0,0.22 -0.03,0.36 -0.05,0.57 0.24,0.02 0.42,0.01 0.64,0l-0.05 -0.73 -0.4 0c0,0.17 0.02,0.52 -0.06,0.65z"/>
     <path class="fil1" d="M5.19 1.22c0.09,-0.04 0.01,-0.18 0.13,-0.23 0.1,-0.02 0.1,0.01 0.18,0 0.23,-0.02 0.03,0.03 0.26,0.05 0.22,0.03 0.08,0.11 0.19,0.18 0.1,-0.05 0,-0.21 -0.08,-0.24l-0.32 -0.08c-0.13,0.01 -0.33,-0.03 -0.38,0.16 -0.02,0.07 -0.03,0.12 0.02,0.16z"/>
    </g>
    <g>
     <path class="fil1" d="M15.43 14.65c0,0.27 -0.04,0.18 -0.11,0.31 -0.06,0.11 -0.04,0.99 -0.02,1.09 0.1,0.01 0.36,0.02 0.45,-0.01l0.01 -0.27 -0.2 -0.01 0 -0.57 0.2 0c0.03,-0.36 -0.14,-0.16 -0.14,-0.54 0,-0.16 0.05,-0.11 -0.02,-0.26 -0.26,-0.02 -0.17,0.08 -0.17,0.26z"/>
     <path class="fil1" d="M14.76 15.32c0.07,-0.02 0.18,-0.01 0.26,-0.01l0.02 0.09 -0.3 0 0.02 -0.08zm0.09 0.4l0 0.19c-0.09,0.02 -0.16,0.04 -0.17,0.12 0.06,0.04 0.35,0.04 0.42,0.01 0.02,-0.09 -0.09,-0.1 -0.16,-0.14l0 -0.18c0.07,-0.06 0.16,-0.08 0.19,-0.18 0.04,-0.1 0,-0.24 -0.06,-0.31l-0.36 -0.01c-0.12,0.29 -0.08,0.36 0.1,0.48 0.02,0.01 0.02,0.01 0.04,0.02z"/>
    </g>
    <g>
     <path class="fil1" d="M8.45 9.85l0.08 0.23 -0.31 0 -0.03 -0.15 0.26 -0.08zm-0.36 0.02c-0.02,0.21 0.14,0.5 0.3,0.62 0.03,0.03 0.08,0.05 0.11,0.08 0.04,0.05 0.09,0.22 0.1,0.28 -0.05,0.06 -0.16,0.15 -0.14,0.22 0.06,0.02 0.47,-0.1 0.49,-0.2 -0.05,-0.05 -0.16,-0.05 -0.25,-0.06 -0.03,-0.07 -0.08,-0.18 -0.09,-0.24 -0.01,-0.07 0.04,-0.18 0.05,-0.28 0,-0.18 -0.08,-0.43 -0.17,-0.54 -0.11,-0.01 -0.29,0.08 -0.4,0.12z"/>
     <path class="fil1" d="M7.65 9.85l0.26 0.08 -0.03 0.15 -0.31 -0.01 0.08 -0.22zm-0.25 0.96l-0.2 0.03c-0.05,0.02 -0.02,0 -0.06,0.03 0.03,0.09 0.21,0.13 0.36,0.18 0,0 0.06,0.02 0.06,0.02 0.01,0.01 0.04,0.03 0.07,-0.01 0.04,-0.1 -0.15,-0.13 -0.13,-0.25 0.04,-0.2 0.1,-0.24 0.19,-0.3 0.12,-0.07 0.34,-0.39 0.32,-0.64 -0.11,-0.04 -0.29,-0.13 -0.4,-0.13 -0.08,0.09 -0.16,0.35 -0.17,0.51 0,0.14 0.05,0.21 0.05,0.29 0,0.06 -0.07,0.2 -0.09,0.27z"/>
     <path class="fil1" d="M7.72 9.5c-0.01,0.11 0.16,0.25 0.21,0.2 0.05,-0.05 -0.03,-0.1 -0.06,-0.13 -0.05,-0.05 -0.05,-0.09 -0.15,-0.07z"/>
     <path class="fil1" d="M8.03 9.69c0.08,0.01 0.07,-0.03 0.07,-0.11 0,-0.11 0.02,-0.15 -0.07,-0.17 -0.04,0.05 -0.04,0.14 -0.03,0.21 0.01,0.07 0.01,0.04 0.03,0.07z"/>
     <path class="fil1" d="M8.18 9.71c0.06,0.02 0.21,-0.13 0.19,-0.2 -0.05,-0.02 -0.04,-0.02 -0.08,-0.01 0,0 -0.13,0.11 -0.13,0.16 0,0.05 0,0.02 0.02,0.05z"/>
    </g>
    <path class="fil1" d="M14.68 1.33c-0.03,-0.3 -0.1,0.03 -0.06,-0.5 0.11,-0.01 0.52,-0.02 0.61,0.01 0.01,0.09 0.04,0.2 0.01,0.29 -0.03,0.09 -0.06,0.07 -0.07,0.23 -0.02,0.17 -0.03,0.38 -0.06,0.55l-0.37 0c-0.04,-0.17 -0.04,-0.4 -0.06,-0.58zm-0.02 0.66l0.54 0.01c0.05,-0.22 0.02,-0.53 0.07,-0.72 0.04,-0.14 0.1,-0.07 0.07,-0.31 -0.02,-0.28 0.08,-0.24 -0.58,-0.24 -0.21,0 -0.22,-0.04 -0.24,0.16 -0.03,0.29 -0.03,0.21 0.04,0.35 0.06,0.11 0.05,0.59 0.1,0.75z"/>
    <path class="fil1" d="M14.86 1.18c-0.01,0 -0.01,0 -0.02,0l-0.1 0.04 0.07 0.6 0.23 0.01 0.07 -0.63 -0.15 0c-0.01,-0.07 -0.03,-0.12 -0.04,-0.18 -0.03,-0.12 -0.01,-0.13 -0.12,-0.13l0.06 0.29z"/>
    <path class="fil1" d="M15.06 0.66c0.08,-0.02 0.04,-0.03 0.09,-0.12 0.02,-0.04 0.06,-0.09 0.11,-0.11 0.12,-0.06 0.27,-0.02 0.34,0.05 0.13,0.12 0.1,0.37 -0.06,0.45 -0.1,0.06 -0.12,0 -0.12,0.1 0.17,0.08 0.48,-0.28 0.25,-0.58 -0.24,-0.32 -0.74,0.04 -0.61,0.21z"/>
    <path class="fil1" d="M14.47 0.37l-0.01 0.05c0.06,0.07 0.14,0.03 0.2,0.09 0.09,0.08 -0.03,0.15 0.16,0.15 -0.06,-0.32 -0.3,-0.32 -0.35,-0.29z"/>
    <path class="fil1" d="M15.47 0.74c-0.09,-0.01 -0.02,-0.01 -0.04,0.02 0.02,0.07 0.02,0.1 0.06,0.14 0.07,-0.02 0.03,0.01 0.08,-0.05 -0.02,-0.04 0,-0.02 -0.04,-0.06 0,0 -0.01,0 -0.01,-0.01l-0.05 -0.04z"/>
    <path class="fil1" d="M15.43 0.64c0.06,-0.02 0.11,-0.06 0.14,-0.12 -0.03,-0.03 -0.03,-0.03 -0.08,-0.05 -0.04,0.05 -0.05,0.09 -0.06,0.17z"/>
    <path class="fil1" d="M15.25 0.58l0.11 0.06 -0.04 -0.17c-0.08,0.02 -0.06,0.01 -0.1,0.05 0.01,0.02 0.02,0.04 0.03,0.06z"/>
    <path class="fil1" d="M15.38 0.62c0.04,-0.03 0.07,-0.08 0.06,-0.13 0,-0.04 0,-0.01 -0.01,-0.03l-0.07 -0.02c-0.02,0.08 0,0.13 0.02,0.18z"/>
    <path class="fil1" d="M15.46 0.68l0.17 -0.01 -0.03 -0.1c-0.03,0.01 -0.07,0.01 -0.1,0.05 -0.04,0.04 -0.01,0 -0.04,0.06z"/>
    <path class="fil1" d="M15.47 0.74c0.06,0.03 0.07,0.05 0.13,0.06l0.04 -0.09 -0.19 -0.01c0.02,0.02 0.01,0.02 0.02,0.04z"/>
    <path class="fil1" d="M15.25 0.58c-0.09,-0.02 -0.08,-0.01 -0.09,0.08l0.16 0 -0.07 -0.08z"/>
    <g>
     <path class="fil1" d="M1.36 7.94c-0.02,-0.14 -0.03,-0.96 0.01,-1.06l0.48 0c0.03,0.11 0.03,0.93 0.01,1.06l-0.5 0zm-0.08 0.06c0.06,0.06 0.6,0.06 0.65,0 0.07,-0.07 0.03,-0.61 0.03,-0.76 0,-0.47 0.11,-0.45 -0.35,-0.45 -0.45,0 -0.35,-0.03 -0.35,0.43 0,0.15 -0.04,0.7 0.02,0.78z"/>
     <path class="fil1" d="M1.65 7.23c-0.05,-0.31 -0.07,-0.27 -0.16,-0.27 0,0.05 0.13,0.68 0.04,0.81 -0.09,-0.09 0.03,-0.49 -0.07,-0.54 -0.06,0.03 -0.03,0.54 -0.03,0.63l0.36 0 -0.01 -0.63 -0.13 0z"/>
     <path class="fil1" d="M1.69 6.71c0.08,-0.03 0.05,-0.05 0.09,-0.12 0.09,-0.16 0.32,-0.19 0.45,-0.05 0.08,0.07 0.12,0.2 0.06,0.33 -0.09,0.17 -0.22,0.11 -0.25,0.21 0.03,0.01 0,0.01 0.05,0.01 0.05,0.01 0.1,-0.02 0.14,-0.05 0.19,-0.12 0.21,-0.39 0.07,-0.55 -0.25,-0.27 -0.62,-0.01 -0.62,0.16 -0.01,0.1 -0.02,0.02 0.01,0.06z"/>
     <path class="fil1" d="M1.15 6.42c0.01,0.08 -0.04,0.04 0.07,0.07 0.34,0.11 0.04,0.21 0.29,0.22 -0.03,-0.18 -0.09,-0.3 -0.28,-0.31 -0.13,-0.02 -0.04,-0.01 -0.08,0.02z"/>
     <path class="fil1" d="M2.13 6.81c-0.04,-0.02 -0.04,-0.01 -0.07,-0.03 0.01,0.08 0.02,0.13 0.07,0.18 0.07,-0.04 0.04,-0.01 0.07,-0.07l-0.07 -0.08z"/>
     <path class="fil1" d="M2.13 6.81c0.06,0.03 0.04,0.04 0.12,0.04l0.02 -0.09 -0.19 -0.02c0.02,0.04 0.02,0.04 0.05,0.07z"/>
     <path class="fil1" d="M2.06 6.69c0.05,-0.02 0.04,-0.01 0.09,-0.05 0.04,-0.03 0.03,-0.01 0.05,-0.06l-0.07 -0.07c-0.05,0.06 -0.06,0.11 -0.07,0.18z"/>
     <path class="fil1" d="M2.08 6.73l0.19 -0.01 -0.02 -0.1c-0.09,0.01 -0.13,0.05 -0.17,0.11z"/>
     <path class="fil1" d="M2.01 6.68c0.06,-0.06 0.01,0.05 0.06,-0.08 0.01,-0.04 0.01,-0.06 0.01,-0.1l-0.11 -0.01 0.04 0.19z"/>
     <path class="fil1" d="M1.9 6.64c0.05,0.03 0.04,0.03 0.09,0.05l-0.04 -0.17 -0.09 0.07c0,0.01 0.01,0.01 0.01,0.02 0,0 0.01,0.01 0.01,0.01l0.02 0.02z"/>
     <path class="fil1" d="M1.9 6.64c-0.09,-0.03 -0.08,-0.05 -0.11,0.05l0.09 0.02c0.03,0.01 0.05,0.01 0.09,0.01l-0.07 -0.08z"/>
    </g>
    <g>
     <path class="fil1" d="M14.36 6.34c-0.07,-0.02 -0.23,-0.13 -0.28,-0.18 0.02,-0.05 0.09,-0.16 0.14,-0.2 0.09,0.05 0.19,0.13 0.27,0.18l-0.13 0.2zm0.12 -0.48c-0.02,-0.05 -0.02,-0.12 0.03,-0.15 0.1,-0.06 0.11,0.03 0.11,0.11 -0.05,0.03 -0.07,0.05 -0.14,0.04zm-0.54 0.4c0.03,0.05 0.31,0.24 0.37,0.25 0.09,-0.09 0.32,-0.42 0.36,-0.56 0.13,-0.48 0.18,-0.39 0.22,-0.48 0.06,-0.12 -0.11,-0.23 -0.19,-0.1 -0.02,0.02 -0.01,0.04 -0.04,0.08 -0.15,0.22 -0.31,0.19 -0.53,0.51 -0.05,0.07 -0.17,0.23 -0.19,0.3z"/>
     <path class="fil1" d="M15.09 4.92c0.01,0.07 0.02,0.07 0.06,0.11l0.15 -0.09c0.01,-0.07 0.01,-0.06 -0.03,-0.1 -0.07,0 -0.12,0.04 -0.18,0.08z"/>
     <path class="fil1" d="M14.91 5.3c0.05,0 0.1,-0.04 0.15,-0.08 0.04,-0.03 0.1,-0.06 0.12,-0.11 -0.06,0.02 -0.09,0.05 -0.14,0.08 -0.03,0.02 -0.05,0.03 -0.07,0.05 -0.06,0.04 -0.04,0.02 -0.06,0.06z"/>
     <path class="fil1" d="M14.94 5.35c0.07,0 0.06,-0.01 0.12,-0.03 0.08,-0.04 0.07,-0.02 0.08,-0.07 -0.06,0.01 -0.17,0.04 -0.2,0.1z"/>
     <path class="fil1" d="M14.99 5.06c0.01,0.03 0,0.07 0.07,0.02 -0.01,-0.03 0.01,-0.03 -0.02,-0.04 -0.09,-0.02 -0.03,0 -0.05,0.02z"/>
     <path class="fil1" d="M14.83 4.96c0.07,0.03 0.04,0.01 0.06,0 -0.02,-0.1 -0.07,-0.05 -0.06,0z"/>
     <path class="fil1" d="M15.3 5.17c0.03,-0.02 0.04,0.02 0.04,-0.04 -0.01,-0.04 -0.02,-0.02 -0.04,-0.03 -0.01,0.01 -0.05,0.01 0,0.07z"/>
    </g>
    <g>
     <path class="fil1" d="M5.12 9.63l0.64 0c-0.02,0.07 -0.26,0.44 -0.32,0.51l-0.32 -0.51zm0.37 0.89c0,-0.31 -0.02,-0.24 0.12,-0.47 0.08,-0.12 0.14,-0.23 0.22,-0.35 0.15,-0.23 -0.02,-0.16 -0.26,-0.16 -0.16,0 -0.42,-0.02 -0.57,0.01 -0.01,0.08 0.07,0.17 0.11,0.24 0.25,0.39 0.29,0.34 0.29,0.74 -0.08,0.02 -0.28,0.07 -0.27,0.18 0.1,0.03 0.57,0.04 0.63,-0.01 -0.01,-0.09 -0.19,-0.15 -0.27,-0.18z"/>
     <path class="fil1" d="M5.24 9.46c-0.04,-0.13 -0.04,-0.08 0.08,-0.17 0.06,-0.05 0.11,-0.08 0.14,-0.16 -0.08,-0.05 -0.4,-0.08 -0.5,-0.06 -0.04,0.08 -0.2,0.4 -0.18,0.46 0.06,0.01 0.16,-0.03 0.23,-0.06 0.18,-0.08 0.05,-0.01 0.23,-0.01z"/>
     <path class="fil1" d="M5.65 9.46c0.12,-0.01 0.06,-0.1 0.2,-0.16 0.32,-0.12 0.46,0.37 0.16,0.44 -0.12,0.03 -0.1,-0.02 -0.15,0.06 0.03,0.01 0.04,0.02 0.1,0.02 0.04,0 0.07,-0.01 0.1,-0.02 0.06,-0.03 0.1,-0.06 0.13,-0.1 0.28,-0.43 -0.47,-0.7 -0.54,-0.24z"/>
     <path class="fil1" d="M5.45 10.05c0.04,-0.07 0.17,-0.24 0.17,-0.31l-0.36 0.01c0.01,0.06 0.15,0.26 0.19,0.3z"/>
     <path class="fil1" d="M6 9.56l0.12 0.06 0.01 -0.1 -0.11 0c-0.03,0.02 -0.03,-0.04 -0.02,0.04z"/>
     <path class="fil1" d="M6 9.56c0,0 -0.08,-0.02 0.02,0.14l0.06 -0.04c-0.02,-0.07 -0.03,-0.06 -0.08,-0.1z"/>
     <path class="fil1" d="M6.02 9.46c0.03,-0.03 0.03,-0.02 0.07,-0.07 -0.04,-0.03 -0.02,-0.03 -0.08,-0.05l-0.04 0.1c0.03,0.03 -0.04,0.04 0.05,0.02z"/>
     <path class="fil1" d="M5.99 9.32l-0.07 0c-0.03,0.04 -0.03,0.01 0.01,0.14 0.05,-0.05 0.05,-0.03 0.06,-0.14z"/>
     <path class="fil1" d="M5.91 9.47c-0.01,-0.08 -0.01,-0.08 -0.05,-0.13l-0.06 0.04c0.02,0.04 -0.02,0.04 0.11,0.09z"/>
     <path class="fil1" d="M6.02 9.46c-0.01,0.01 -0.02,0.04 -0.03,0.05l0.15 -0.01 -0.02 -0.06c-0.05,-0.02 -0.02,-0.02 -0.1,0.02z"/>
     <path class="fil1" d="M5.92 9.71c0.07,0 0.04,0.02 0.06,-0.02 0.03,-0.06 -0.03,-0.05 -0.03,-0.05l-0.03 0.07z"/>
    </g>
    <g>
     <path class="fil1" d="M9.53 13.32c-0.04,0.05 -0.1,0.09 -0.13,0.15 0.02,0.04 0.03,0.04 0.07,0.07 0.02,0.01 0.04,0.03 0.07,0.05 0.05,0.03 0.09,0.06 0.16,0.09 0.87,0.38 1.82,-0.64 1.15,-1.53 -0.03,-0.04 -0.03,-0.04 -0.07,-0.06 -0.06,0.03 -0.08,0.09 -0.14,0.13l0.02 0.01c0.08,0.05 0.12,0.11 0.17,0.22 0.02,0.05 0.04,0.1 0.05,0.16 0.02,0.12 -0.02,0.12 -0.02,0.16 0,0.02 0.09,0.18 -0.11,0.46 -0.06,0.09 -0.05,0.04 -0.11,0.09 -0.03,0.02 -0.04,0.16 -0.38,0.24 -0.13,0.03 -0.11,-0.01 -0.17,-0.01 -0.06,0 -0.05,0.04 -0.18,0.01 -0.31,-0.07 -0.33,-0.19 -0.38,-0.24z"/>
     <path class="fil1" d="M10.66 13.24c0.07,-0.07 0.19,-0.28 0.15,-0.42 -0.07,-0.02 -0.36,-0.01 -0.46,-0.01 -0.25,0 0.03,0.21 0.16,0.34 0.04,0.04 0.07,0.09 0.15,0.09z"/>
     <path class="fil1" d="M10.04 13.48c0.04,-0.06 0.02,-0.47 0,-0.54 -0.09,-0.02 -0.15,0.08 -0.2,0.13 -0.07,0.07 -0.12,0.12 -0.19,0.19 -0.13,0.14 0.28,0.24 0.33,0.24 0.04,0.01 0.03,0.01 0.06,-0.02z"/>
     <path class="fil1" d="M10.25 12.73c0.08,0.02 0.49,0.03 0.55,0 0.06,-0.05 -0.08,-0.52 -0.22,-0.4 -0.06,0.06 -0.13,0.13 -0.18,0.19 -0.04,0.03 -0.06,0.06 -0.1,0.09 -0.03,0.03 -0.06,0.05 -0.05,0.12z"/>
     <path class="fil1" d="M10.12 13.04l0 0.36c0,0.15 0.1,0.12 0.26,0.05 0.29,-0.12 0.18,-0.15 -0.06,-0.4 -0.04,-0.03 -0.2,-0.23 -0.2,-0.01z"/>
     <path class="fil1" d="M10.01 12.87c0.02,0.01 0.05,0.02 0.08,0.03 0.03,-0.01 0.06,-0.02 0.09,-0.03 0.06,-0.15 0.03,-0.06 0.01,-0.18 -0.06,0.02 -0.16,0.12 -0.18,0.18z"/>
    </g>
    <g>
     <path class="fil1" d="M3.72 7.02c0.03,0.06 0.08,0.03 0.21,0.04 0.05,0.05 0.07,0.1 0.13,0.15 0.05,0.04 0.11,0.08 0.17,0.11 -0.03,0.07 -0.26,0.3 -0.27,0.34 -0.01,0.07 0,-0.06 0,0.02 0,0 0.01,0 0.01,0.01 0.01,0.07 0.16,-0.13 0.17,-0.14 0.05,-0.07 0.1,-0.12 0.16,-0.19 0.08,0.01 0.15,0.04 0.26,0.04 0.11,0 0.18,-0.03 0.26,-0.04l0.24 0.28c0.03,0.03 0.05,0.07 0.09,0.06 0.04,-0.04 -0.06,-0.12 -0.11,-0.19 -0.05,-0.06 -0.1,-0.11 -0.15,-0.17 0.04,-0.05 0.12,-0.08 0.17,-0.12 0.18,-0.16 0.01,-0.16 0.26,-0.16 0.07,0 0.07,0 0.08,-0.05 -0.05,-0.03 -0.05,-0.01 -0.11,-0.02 -0.03,0 -0.02,0.01 -0.05,-0.01l-0.02 -0.01c0,0 -0.01,0 -0.01,0 -0.22,0.12 -0.49,0.14 -0.78,0.13 -0.19,-0.01 -0.34,-0.04 -0.5,-0.12 -0.05,-0.03 -0.04,0 -0.04,0 -0.09,0.04 -0.13,-0.03 -0.17,0.04z"/>
     <path class="fil1" d="M4.38 6.59c0.2,-0.02 0.53,-0.01 0.68,0.07 0.29,0.16 -0.14,0.28 -0.31,0.29 -0.61,0.05 -0.98,-0.15 -0.68,-0.29 0.09,-0.04 0.2,-0.06 0.31,-0.07zm0.05 -0.08c-0.15,0.01 -0.29,0.03 -0.41,0.08 -0.38,0.16 -0.1,0.5 0.68,0.44 0.14,0 0.29,-0.03 0.4,-0.08 0.41,-0.18 0.02,-0.5 -0.67,-0.44z"/>
     <path class="fil1" d="M4.56 6.4c0.12,-0.03 0.01,-0.26 0.01,-0.26 0,-0.06 0.02,-0.05 0,-0.11 -0.08,0 -0.08,0.11 -0.05,0.18 0.06,0.11 -0.02,0.14 0.04,0.19z"/>
     <path class="fil1" d="M4.78 6.4c0.08,0.01 0.06,-0.15 0.06,-0.17 -0.01,-0.04 -0.03,-0.04 -0.04,-0.09 -0.01,-0.06 0.02,-0.05 -0.01,-0.11 -0.07,0.01 -0.08,0.11 -0.05,0.17 0.02,0.03 0.04,0.04 0.04,0.09 0,0.05 -0.03,0.05 0,0.11z"/>
     <path class="fil1" d="M4.34 6.04c-0.12,-0.04 -0.02,0.21 -0.02,0.25 0,0.04 -0.02,0.08 0,0.1 0.06,0.06 0.07,-0.12 0.06,-0.15 -0.01,-0.08 -0.03,-0.01 -0.03,-0.15 0,0 0.01,-0.02 -0.01,-0.05z"/>
     <polygon class="fil1" points="4.52,6.9 4.6,6.9 4.6,6.64 4.52,6.64 "/>
     <path class="fil1" d="M4.37 6.89l0.08 0 0 -0.24 -0.08 0c-0.02,0.06 -0.01,0.17 0,0.24z"/>
     <path class="fil1" d="M4.67 6.89l0.08 0c0.01,-0.07 0.02,-0.18 0,-0.24l-0.08 0 0 0.24z"/>
     <path class="fil1" d="M4.82 6.88l0.09 -0.02c0,-0.03 0.01,-0.1 0,-0.14 0,-0.06 -0.02,-0.05 -0.09,-0.06l0 0.22z"/>
     <path class="fil1" d="M4.21 6.74l0 0.07 0 0.05 0.09 0.02 0 -0.05 0 -0.11 0 -0.06c-0.08,0.01 -0.09,0 -0.09,0.08z"/>
     <path class="fil1" d="M4.98 6.84c0.05,-0.02 0.08,-0.02 0.11,-0.07 -0.02,-0.05 -0.05,-0.05 -0.11,-0.07l0 0.14z"/>
     <path class="fil1" d="M4.04 6.77c0.02,0.05 0.05,0.05 0.1,0.07l0.01 -0.14c-0.06,0.02 -0.09,0.03 -0.11,0.07z"/>
    </g>
    <path class="fil1" d="M2.03 3.73c0.02,-0.03 0.14,-0.02 0.14,0.08 -0.06,0.02 -0.17,-0.01 -0.14,-0.08zm0.5 0.06c-0.06,0.02 -0.14,0 -0.15,-0.07 0.02,-0.02 0.15,-0.05 0.15,0.07zm-0.97 -0.1c0,-0.08 0.07,-0.08 0.15,-0.07 0.01,0.07 0.01,0.07 -0.06,0.08 -0.05,0.01 -0.05,0.01 -0.09,-0.01zm0.45 -0.15c-0.03,0.02 -0.12,0.05 -0.12,-0.05 0.05,-0.03 0.07,-0.02 0.13,-0.01l-0.01 0.06zm0.6 0.01c-0.03,0 -0.19,-0.01 -0.16,-0.09 0.02,-0.01 0,-0.03 0.07,-0.02 0.06,0.01 0.1,0.04 0.09,0.11zm-0.71 -0.23c-0.17,0.03 -0.32,0.08 -0.45,0.16 -0.09,0.06 -0.26,0.25 -0.13,0.4 0.22,0.23 1.28,0.21 1.55,0.05 0.35,-0.22 -0.19,-0.74 -0.97,-0.61z"/>
    <path class="fil1" d="M3.11 4.83c-0.23,0.05 -0.3,0.18 -0.83,0.18 -0.36,-0.01 -0.55,-0.07 -0.84,-0.18 -0.25,0.14 -0.01,0.3 0.16,0.36 0.41,0.14 1.28,0.14 1.55,-0.12 0.1,-0.1 0.02,-0.17 -0.04,-0.24z"/>
    <path class="fil1" d="M1.26 4.67c0.16,-0.02 0.11,-0.07 0.21,-0.13 0.07,-0.01 0.06,0.01 0.12,0 0.05,-0.01 0.02,-0.03 0.1,-0.03 0.06,0.03 0.06,0.06 0.11,0.08 0.05,-0.02 0.1,-0.06 0.13,-0.07 0.1,-0.03 0.07,0.03 0.18,0.01 0.16,-0.04 0.2,-0.03 0.36,0 0.33,0.07 0.13,0.03 0.35,0.03 0.09,-0.01 0.29,0.05 0.37,0.02 0.1,-0.09 -0.02,-0.25 -0.05,-0.32 -0.09,0.03 -0.11,0.1 -0.38,0.15 -0.28,0.04 -0.72,0.04 -1,0 -0.21,-0.04 -0.23,-0.08 -0.37,-0.16 -0.12,0.08 -0.02,0.1 -0.12,0.22 -0.08,0.1 -0.08,0.11 -0.01,0.2z"/>
    <path class="fil1" d="M1.67 4.6c-0.11,0.05 -0.05,0.04 -0.19,0.02 -0.02,0.05 -0.02,0.04 -0.04,0.08 0.2,0.19 0.61,0.23 0.95,0.22 -0.06,-0.07 -0.23,-0.19 -0.32,-0.26 -0.1,-0.08 -0.09,-0.07 -0.18,-0.01 -0.12,0.06 -0.16,0.01 -0.22,-0.05z"/>
    <path class="fil1" d="M2.58 4.65l-0.14 0.26c0.21,0.02 0.59,-0.1 0.66,-0.22 -0.07,-0.05 -0.41,-0.03 -0.52,-0.04z"/>
    <path class="fil1" d="M2.39 4.8c0,0 0.01,-0.01 0.01,-0.01 0,0 0,-0.01 0,-0.01 0.01,0 0.01,0 0.01,-0.01l0.03 -0.05c0.02,-0.03 0.03,-0.06 0.04,-0.09 -0.05,-0.01 -0.32,-0.07 -0.32,-0.01 0.01,0.01 0.21,0.16 0.23,0.18z"/>
    <path class="fil1" d="M2.59 3.77c-0.03,0.08 0.13,0.09 0.16,0.09 0.01,-0.07 -0.04,-0.1 -0.09,-0.11 -0.08,-0.01 -0.05,0.01 -0.07,0.02z"/>
    <path class="fil1" d="M2.52 4.03c0.01,0.07 0.09,0.09 0.15,0.07 0,-0.12 -0.14,-0.09 -0.15,-0.07z"/>
    <path class="fil1" d="M2.31 4.12c0,-0.1 -0.12,-0.11 -0.14,-0.08 -0.03,0.07 0.08,0.1 0.14,0.08z"/>
    <path class="fil1" d="M2.02 3.8c0,0.1 0.09,0.07 0.13,0.05l0.01 -0.06c-0.06,-0.01 -0.08,-0.03 -0.14,0.01z"/>
    <g>
     <path class="fil1" d="M10.93 8.25c-0.05,0.03 -0.11,0 -0.11,-0.05 0.01,-0.02 0.04,-0.02 0.07,-0.01 0.04,0.01 0.04,0.02 0.04,0.06zm0.13 -0.26c0.12,-0.08 0.21,0.11 0.11,0.17 -0.05,0.03 -0.12,0.02 -0.15,-0.02 -0.04,-0.06 -0.01,-0.11 0.04,-0.15zm-0.47 0.06c0.05,0 0.07,0.02 0.06,0.07 -0.06,0 -0.08,-0.01 -0.06,-0.07zm0.11 -0.13c0.05,-0.01 0.08,0.02 0.06,0.08 -0.05,0.01 -0.09,-0.02 -0.06,-0.08zm0.7 0.06c-0.02,-0.05 0.01,-0.09 0.06,-0.07 0.01,0.04 0,0.09 -0.06,0.07zm-0.13 -0.07c-0.03,0.02 -0.08,-0.02 -0.06,-0.05 0.01,-0.01 0.03,-0.03 0.06,0 0.02,0.02 0.02,0.03 0,0.05zm-0.3 -0.01c-0.04,0 -0.09,-0.01 -0.09,-0.06 -0.01,-0.06 0,0 0.01,-0.03 0.05,-0.01 0.08,0.03 0.08,0.09zm-0.44 -0.12c0.07,-0.01 0.1,0.01 0.1,0.07l-0.01 0c-0.04,0.04 -0.09,-0.02 -0.09,-0.07zm0.95 -0.02c-0.02,0.03 -0.1,0.04 -0.1,-0.03 0.02,-0.03 0.12,-0.03 0.1,0.03zm-0.79 -0.18c0.14,-0.08 0.21,0.12 0.09,0.17 -0.06,0.03 -0.11,0 -0.13,-0.04 -0.03,-0.07 0,-0.11 0.04,-0.13zm0.01 -0.12l0 0.04c-0.05,0.02 -0.08,0 -0.07,-0.05 0.05,-0.02 0.03,-0.02 0.07,0.01zm0.26 0.07c-0.03,0.02 -0.08,-0.05 -0.06,-0.1 0.08,-0.01 0.1,0.08 0.06,0.1zm-0.22 -0.21c0.01,-0.02 0.02,-0.03 0.05,-0.04 0.01,0 0.02,0 0.03,0 0.04,0 0.07,0.05 -0.01,0.07 -0.05,0.02 -0.05,0.01 -0.07,-0.03zm0.25 -0.07c0.02,-0.03 0.1,-0.05 0.09,0.04 -0.05,0.02 -0.1,-0.01 -0.09,-0.04zm0.61 0.38l-0.59 0.11 0.21 -0.56c-0.33,-0.09 -0.57,0 -0.71,0.2 -0.17,0.24 -0.15,0.53 0.02,0.74 0.36,0.45 1.14,0.19 1.07,-0.49z"/>
     <path class="fil1" d="M11.77 7.6l-0.1 0.01c0.02,0.33 -0.06,0.57 -0.37,0.74 -0.31,0.16 -0.66,0.01 -0.82,-0.18 -0.3,-0.38 -0.14,-0.91 0.29,-1.06 0.25,-0.09 0.32,-0.02 0.48,0l0.03 -0.1c-0.2,-0.05 -0.32,-0.08 -0.53,-0.01 -0.55,0.19 -0.67,0.86 -0.35,1.23 0.51,0.6 1.46,0.22 1.37,-0.63z"/>
     <path class="fil1" d="M11.44 7.2c0.15,-0.06 0.23,0.17 0.08,0.22 -0.14,0.05 -0.23,-0.16 -0.08,-0.22zm-0.27 0.37l0.56 -0.1c-0.03,-0.21 -0.19,-0.37 -0.35,-0.43l-0.21 0.53z"/>
     <path class="fil1" d="M11.41 6.97c0.09,0.06 0.14,0.06 0.25,0.19 0.07,0.08 0.11,0.16 0.14,0.29l0.14 -0.02c-0.05,-0.26 -0.27,-0.52 -0.49,-0.58l-0.04 0.12z"/>
    </g>
    <g>
     <path class="fil1" d="M2.02 13.65c0.68,-0.16 0.93,0.87 0.25,1.04 -0.69,0.17 -0.96,-0.87 -0.25,-1.04zm-0.06 -0.29c-0.25,0.07 -0.39,0.17 -0.5,0.33 -0.12,0.18 -0.19,0.43 -0.13,0.68 0.09,0.38 0.5,0.74 1,0.61 0.39,-0.1 0.74,-0.49 0.62,-1 -0.09,-0.38 -0.5,-0.75 -0.99,-0.62z"/>
     <path class="fil1" d="M2.04 13.75c-0.58,0.16 -0.33,0.98 0.21,0.84 0.54,-0.14 0.33,-0.98 -0.21,-0.84z"/>
     <path class="fil1" d="M2.95 13.49l0 0.21c0,0.46 0.55,0.45 0.55,0 0,-0.33 0.03,-0.33 -0.09,-0.33 -0.06,0.19 0.07,0.47 -0.13,0.55 -0.01,-0.17 0.03,-0.42 -0.02,-0.55 -0.07,0 -0.07,-0.01 -0.09,0.06 0,0.02 0,0.14 0,0.16 0,0.11 0.01,0.22 0,0.33 -0.23,-0.1 -0.02,-0.38 -0.14,-0.55 -0.09,0.01 -0.08,0.02 -0.08,0.12z"/>
     <path class="fil1" d="M0.86 14.42l0.25 0 0 -1.01c-0.26,0.07 -0.25,0.79 -0.25,1.01z"/>
     <path class="fil1" d="M3.29 14.14l-0.13 0c-0.01,0.14 -0.01,0.29 -0.01,0.42 -0.01,0.12 -0.06,0.38 0.08,0.37 0.13,-0.01 0.08,-0.24 0.08,-0.37 -0.01,-0.13 -0.01,-0.29 -0.02,-0.42z"/>
     <path class="fil1" d="M0.94 14.75c0.01,0.08 0.01,0.22 0.13,0.17 0.09,-0.04 0.05,-0.18 0.06,-0.26 -0.06,-0.12 0.01,-0.13 -0.16,-0.12 0,0.08 0,0.16 -0.03,0.21z"/>
     <path class="fil1" d="M0.94 14.75c0.03,-0.05 0.03,-0.13 0.03,-0.21 0.17,-0.01 0.1,0 0.16,0.12l-0.01 -0.13c-0.07,-0.02 -0.09,-0.02 -0.16,0l-0.02 0.22z"/>
    </g>
    <path class="fil1" d="M4.57 4.69c-0.05,-0.13 -0.08,-0.21 -0.06,-0.28 0.01,-0.02 0.04,-0.06 0.04,-0.06 0.06,-0.12 -0.03,-0.12 0.02,-0.22 0.02,-0.04 0.08,-0.04 0.13,-0.14 0.12,-0.25 0.03,-0.01 0.18,-0.24 0.01,-0.01 0.01,-0.02 0.01,-0.02 0.12,-0.18 0.1,0.07 0.23,-0.19 0.37,0 0.08,0.03 0.34,-0.09 0.1,-0.02 0.09,0.07 0.24,0.03 0.22,-0.07 0.11,0 0.25,0.01 0.13,0.02 0.06,-0.03 0.23,0.05 0.13,0.06 0.15,0.03 0.24,0.12 -0.64,-0.06 -1.12,-0.08 -1.56,0.55 -0.14,0.2 -0.11,0.21 -0.18,0.37 -0.06,0.16 0,0.08 -0.11,0.11zm0.53 -1.17c-0.09,0.17 0.01,0.06 -0.15,0.12 -0.2,0.07 0,0 -0.22,0.2 0,0.01 -0.01,0.01 -0.01,0.02 -0.08,0.08 0,0.06 -0.1,0.17 -0.18,0.19 -0.05,0.09 -0.12,0.31 -0.04,0.14 -0.06,0.05 -0.01,0.23 0.04,0.15 0.1,0.28 0.18,0.4 0.16,0.24 0.61,0.03 0.88,-0.04 0.3,-0.09 0.59,-0.18 0.9,-0.28 1.07,-0.35 0.09,-0.95 -0.47,-0.89 -0.53,0.06 -1.02,0.36 -1.17,0.85 -0.02,0.04 -0.02,0.08 -0.03,0.12l-0.05 0.11c-0.1,-0.25 0.3,-0.77 0.63,-0.94 0.6,-0.32 0.92,-0.17 1.33,-0.02 -0.14,-0.33 -0.75,-0.48 -0.92,-0.47 -0.16,0.02 0,0.06 -0.22,0.01 -0.14,-0.03 -0.1,-0.01 -0.19,0.05 -0.12,0.07 -0.1,0.03 -0.26,0.05z"/>
    <g>
     <path class="fil1" d="M8.4 7.14c-0.11,0.05 -0.08,0.02 -0.32,0.01l-0.66 0c-0.1,0.01 -0.09,0 -0.17,0 -0.11,0.01 -0.04,0.03 -0.18,0 0.03,0.15 0.16,0.52 0.22,0.64 0.19,0.03 0.69,0.03 0.89,0l0.22 -0.65z"/>
     <path class="fil1" d="M7.4 7.09c0.33,0 1.07,-0.47 0.83,-0.6 -0.08,-0.05 -0.41,0.18 -0.52,0.22 -0.19,0.07 -0.42,0.08 -0.56,0.17 -0.01,0.22 0.03,0.21 0.25,0.21z"/>
     <path class="fil1" d="M8.08 6.4c-0.05,-0.19 -0.06,-0.01 -0.25,-0.26 -0.06,0.06 -0.06,0.08 -0.15,0.13 -0.06,0.03 -0.14,0.05 -0.21,0.09 -0.07,0.04 -0.29,0.25 -0.16,0.38 0.12,0.12 0.71,-0.27 0.77,-0.34z"/>
     <path class="fil1" d="M7.78 7.06c0.15,0.01 0.3,0.01 0.42,-0.05 0.08,-0.03 0.27,-0.15 0.15,-0.26 -0.08,-0.07 -0.2,0.08 -0.28,0.13 -0.1,0.06 -0.21,0.1 -0.29,0.18z"/>
    </g>
    <g>
     <path class="fil1" d="M1.84 11.06c0.54,0 0.79,-0.27 0.78,-0.83l-1.58 0c0,0.56 0.25,0.83 0.8,0.83z"/>
     <path class="fil1" d="M0.98 11.11c0.07,0.07 0.08,0.04 0.19,0.05 0.21,0.01 -0.02,0.05 0.64,0.05 0.7,0 0.47,-0.03 0.68,-0.05 0.07,-0.01 0.14,-0.01 0.21,-0.03 -0.12,-0.08 -1.67,-0.03 -1.72,-0.02z"/>
     <path class="fil1" d="M1.74 9.88c-0.48,0 -0.47,0.23 -0.2,0.23 0.12,0 0.23,-0.02 0.33,-0.04 0.07,-0.01 0.11,-0.02 0.17,0.01 0.09,0.05 0.02,0.06 0.1,0.06 0.01,0 0.05,0.03 0.01,-0.07 -0.08,-0.19 -0.5,0.02 -0.67,-0.05 0.02,-0.24 0.71,0.16 0.87,-0.48 -0.14,0.25 -0.24,0.34 -0.61,0.34z"/>
     <path class="fil1" d="M2.57 10.75c0.42,-0.2 0.31,-0.43 0.09,-0.47 0,0.16 -0.01,0.07 0.1,0.14 -0.02,0.22 -0.17,0.13 -0.19,0.33z"/>
    </g>
    <path class="fil1" d="M1.54 2.07c0.12,-0.07 0.19,0.11 0.08,0.17 -0.1,0.05 -0.2,-0.11 -0.08,-0.17zm0.21 0.01c-0.07,-0.23 0.23,-0.23 0.16,0 -0.06,0.02 -0.09,0.02 -0.16,0zm-0.62 -0.17c0.13,-0.07 0.19,0.11 0.08,0.17 -0.1,0.05 -0.21,-0.11 -0.08,-0.17zm0.91 -0.03c-0.19,0.03 -0.17,-0.12 -0.1,-0.16 0.1,-0.06 0.2,0.04 0.1,0.16zm-0.5 -0.07c-0.01,-0.15 0.08,-0.17 0.17,-0.1 0.03,0.16 -0.07,0.2 -0.17,0.1zm-0.18 0c-0.21,0.01 -0.21,-0.2 0,-0.18l0.05 0.1 -0.05 0.08zm-0.33 -0.33c0.11,-0.08 0.2,0.08 0.12,0.15 -0.09,0.07 -0.23,-0.06 -0.12,-0.15zm0.26 -0.1c-0.1,-0.1 -0.06,-0.2 0.1,-0.17 0.07,0.09 0.06,0.19 -0.1,0.17zm0.8 -0.02c-0.17,0.06 -0.06,0.05 -0.1,0.19 -0.09,0.04 -0.11,0.04 -0.18,-0.03l-0.27 0.15c0.02,-0.22 -0.01,-0.09 -0.02,-0.19 -0.01,-0.09 0.05,-0.08 0.1,-0.14 -0.02,-0.08 -0.14,-0.13 -0.01,-0.21 0.08,-0.05 0.03,0.04 0.07,-0.05 0,-0.01 0.05,-0.07 -0.19,-0.05 -0.64,0.05 -0.79,0.83 -0.38,1.15 0.24,0.18 0.6,0.2 0.83,0 0.19,-0.16 0.36,-0.58 0.15,-0.82z"/>
    <path class="fil1" d="M2.21 1.28l-0.08 0.05c0.03,0.17 0.12,0.24 0.06,0.49 -0.1,0.48 -0.69,0.7 -1.08,0.39 -0.53,-0.42 -0.21,-1.25 0.47,-1.21 0.02,0 0.06,0.01 0.07,0.01l0.04 -0.11c-0.12,-0.04 0.1,0.03 -0.03,-0.01 -0.07,-0.02 -0.17,-0.02 -0.23,-0.01 -0.11,0.02 -0.19,0.05 -0.27,0.09 -0.14,0.07 -0.27,0.2 -0.34,0.34 -0.21,0.4 -0.03,0.82 0.23,1.01 0.32,0.23 0.73,0.19 1.01,-0.05 0.11,-0.1 0.21,-0.24 0.25,-0.44 0.02,-0.11 0.02,-0.2 0,-0.31l-0.06 -0.18c-0.02,-0.05 0.01,0 -0.01,-0.03 -0.02,-0.02 -0.02,-0.01 -0.03,-0.03z"/>
    <path class="fil1" d="M1.82 1.16l-0.12 0.06c0.02,0.12 0,-0.01 0.06,0.09 0.04,0.06 0.02,0.06 0.01,0.12 -0.13,0.06 -0.13,-0.02 -0.15,0.12 0.34,-0.12 0.24,-0.21 0.32,-0.26 0.13,-0.04 0.07,0.07 0.21,-0.05 -0.04,-0.12 -0.22,-0.28 -0.39,-0.29 0.01,0.16 0.07,0.03 0.06,0.21z"/>
    <path class="fil1" d="M1.78 0.9l0.05 0.03c0.03,0.01 0.05,0.02 0.07,0.03 0.04,0.02 0.07,0.04 0.11,0.07 0.04,0.03 0.07,0.05 0.1,0.09 0.03,0.04 0.05,0.07 0.1,0.1l0.08 -0.04c-0.04,-0.16 -0.28,-0.33 -0.48,-0.38l-0.03 0.1z"/>
    <g>
     <path class="fil1" d="M11.74 14.67l0.61 -0.3c0.09,-0.05 0.04,0 0.07,-0.07l-0.72 -0.03 0.04 0.4z"/>
     <polygon class="fil1" points="11.77,14.91 11.78,15.09 12.36,14.81 12.38,14.61 "/>
     <path class="fil1" d="M11.82 15.41l0.48 0.02 0.03 -0.35c-0.09,0.04 -0.19,0.09 -0.27,0.13 -0.25,0.12 -0.24,0.1 -0.24,0.2z"/>
     <path class="fil1" d="M11.66 14.25l0.8 0c-0.05,-0.09 -0.02,-0.09 -0.14,-0.1 -0.07,0 -0.18,0 -0.26,0 -0.08,0.01 -0.16,0 -0.24,0 -0.12,0.01 -0.11,0 -0.16,0.1z"/>
     <path class="fil1" d="M12.09 14.13c0.14,0.01 0.11,-0.02 0.16,-0.14 0.03,-0.07 0.09,-0.16 0.08,-0.22 -0.1,-0.04 -0.09,0.03 -0.14,0.14 -0.04,0.07 -0.07,0.14 -0.1,0.22z"/>
    </g>
    <g>
     <path class="fil1" d="M11.11 1.08c-0.21,0.15 -0.88,0.04 -0.99,0.03l0.08 -0.02c0.01,-0.01 0.05,0.1 0.03,-0.16 -0.01,-0.11 0.03,-0.07 -0.1,-0.07 -0.01,0 -0.01,0.01 -0.01,0.02l-0.02 0.06c-0.09,0.26 -0.04,0.23 0.03,0.62 0.04,0.25 0.09,0.51 0.14,0.75 0.19,0.06 0.51,0.07 0.71,-0.01 0.07,-0.11 0.19,-0.99 0.21,-1.19 -0.04,-0.03 0.04,-0.02 -0.08,-0.03z"/>
     <path class="fil1" d="M10.76 0.93l-0.01 0.21 0.24 -0.04 -0.01 -0.32c0,0 -0.01,-0.01 -0.01,-0.01l-0.03 -0.02c-0.08,0.02 -0.07,0.09 -0.07,0.17 -0.01,-0.1 0.01,-0.19 -0.06,-0.24 -0.08,0.05 -0.06,0.15 -0.05,0.25z"/>
     <path class="fil1" d="M10.43 0.79l-0.03 0.35c0.19,-0.01 0.08,-0.01 0.17,-0.09 -0.02,-0.14 0,-0.22 0.01,-0.34l-0.15 0 0 0.08z"/>
     <path class="fil1" d="M10.58 1.07c0.03,0.08 -0.05,0.06 0.1,0.07 0.05,-0.1 0.03,-0.29 0.03,-0.42l-0.11 0.02 -0.02 0.33z"/>
     <path class="fil1" d="M10.24 0.92c0.08,0.08 -0.01,0.14 0.09,0.19 0.05,-0.03 0.02,0.04 0.04,-0.05l0 -0.32 -0.11 0 -0.02 0.18z"/>
     <path class="fil1" d="M11.11 1.08l0.07 -0.01c0,-0.01 -0.01,-0.02 -0.01,-0.02 -0.02,0.06 -0.03,-0.19 -0.03,-0.19l-0.07 -0.02 -0.03 0.25 0.07 -0.01z"/>
    </g>
    <g>
     <path class="fil1" d="M7.33 2.71l0.97 0.01c0.27,0 0.1,-0.21 0.09,-0.22 -0.01,-0.03 0.03,-0.23 -0.21,-0.33 -0.26,-0.11 -0.52,-0.1 -0.73,0.09 -0.11,0.12 -0.05,0.06 -0.08,0.22 -0.03,0.11 -0.1,0.05 -0.04,0.23z"/>
     <path class="fil1" d="M7.96 3.58c0.17,-0.14 0.08,-0.28 0.02,-0.4 -0.08,-0.15 -0.12,-0.27 -0.2,-0.41l-0.19 -0.01 0.37 0.82z"/>
     <path class="fil1" d="M7.88 3.77c0.08,-0.13 -0.05,-0.32 -0.16,-0.55 -0.17,-0.34 -0.14,-0.46 -0.33,-0.46 0,0.09 0.44,0.94 0.49,1.01z"/>
     <path class="fil1" d="M8.11 3.29c0,0 0.01,-0.02 0.01,-0.01 0,0 0.01,-0.01 0.01,-0.02 0.01,0 0.01,-0.01 0.01,-0.01l0.05 -0.08c0.03,-0.05 0.05,-0.09 0.04,-0.15 -0.01,-0.05 -0.1,-0.22 -0.13,-0.26l-0.23 0c0.01,0.09 0.18,0.45 0.24,0.53z"/>
     <path class="fil1" d="M8.29 2.96l0.1 -0.19 -0.19 -0.01c0.02,0.09 0.05,0.14 0.09,0.2z"/>
    </g>
    <g>
     <path class="fil1" d="M11.25 10.88c-0.15,-0.02 -0.12,-0.08 -0.09,-0.16 0.13,-0.06 0.12,-0.04 0.25,0 -0.02,0.11 -0.04,0.17 -0.16,0.16zm1.09 -0.45c0.08,-0.07 0.31,0 0.34,0.12 0.04,0.17 -0.01,0.11 -0.02,0.12 -0.2,0.08 -0.49,-0.09 -0.32,-0.24zm-1.83 0.15l0 0.58c0.38,0.03 0.87,0.12 1.25,0.13 0.23,0 0.22,-0.24 0.49,-0.04 0.14,0.11 0.01,0.12 0.6,0.14l0 -1.08 -2.34 0.27z"/>
     <path class="fil1" d="M10.63 10.47l1.92 -0.24c0,-0.01 -0.01,-0.05 -0.02,-0.06 -0.02,-0.15 -0.05,-0.04 0.01,-0.14 0.17,0.04 0.05,0.07 0.11,0.18 0.13,-0.01 0.1,0.01 0.18,-0.05 -0.1,-0.12 -0.4,-0.4 -0.52,-0.44 -0.23,0.15 -0.02,0.13 -0.4,0.2 -0.16,0.03 -1.16,0.45 -1.28,0.55z"/>
    </g>
    <g>
     <path class="fil1" d="M5.63 15.92c0.3,-0.41 1.56,-0.49 2.08,-0.38 0.11,0.02 0.21,0.05 0.32,0.09 0.21,0.08 0.2,0.11 0.26,0.19 -0.99,0.15 -1.63,0.2 -2.66,0.1zm2.74 -1.28c0.05,0.13 0.09,0.22 0.08,0.4 -0.01,0.25 -0.13,0.17 0.05,0.29 -0.21,-0.03 -0.38,-0.12 -0.61,-0.17 -1.17,-0.26 -1.91,0.09 -2.8,0.43 0.05,0.18 0.16,0.31 0.25,0.43 0.05,0 0.15,-0.04 0.26,-0.04l0.91 0.06c0.7,0 1.73,-0.2 2,-0.15 0.07,-0.14 0.1,-0.17 0.19,-0.32 0.28,-0.48 -0.03,-0.82 -0.33,-0.93z"/>
     <path class="fil1" d="M7.16 14.39c0.21,0.44 0.1,0.11 0.18,0.54l0.02 0.09c0.15,0.05 0.41,0.09 0.52,0.04 0.18,-0.51 -0.18,-0.7 -0.72,-0.67z"/>
     <path class="fil1" d="M6.51 14.59c0.13,0.1 0.12,0.15 0.16,0.29l0.04 0.12 0.55 -0.01c0.01,-0.31 -0.01,-0.42 -0.2,-0.62l-0.61 0.08 0.06 0.14z"/>
     <path class="fil1" d="M6.51 14.59c-0.23,-0.13 -0.45,-0.05 -0.67,0.15 0.01,0.01 0.02,0.03 0.03,0.03l0.17 0.24c0.01,0 0.02,0.11 0.04,0.06 0.01,-0.01 0.02,0.02 0.03,0.03 0.56,-0.07 0.6,0.01 0.4,-0.51z"/>
     <path class="fil1" d="M7.81 14.45c0.15,0.27 0.19,0.3 0.13,0.7 0.2,0.03 0.23,0.08 0.42,0.09 0.03,-0.13 0.06,-0.13 0.06,-0.25 0,-0.42 -0.26,-0.47 -0.61,-0.54z"/>
     <path class="fil1" d="M5.43 15.09c0.12,0.12 0.11,0.18 0.3,0.14 0.16,-0.03 0.24,-0.1 0.27,-0.14 -0.06,-0.22 -0.04,-0.17 -0.23,-0.29 -0.16,0.07 -0.22,0.12 -0.34,0.29z"/>
     <path class="fil1" d="M5.1 15.51c0.17,-0.06 0.36,-0.14 0.45,-0.26l-0.2 -0.08c-0.12,0.09 -0.18,0.18 -0.25,0.34z"/>
    </g>
    <g>
     <path class="fil1" d="M5.87 11.82c0.04,0.05 0.01,0.01 0.02,0.08 -0.09,0.05 -0.06,0.05 -0.15,0 -0.01,-0.11 -0.01,-0.07 0.05,-0.13 0.05,0.01 0.01,-0.06 0.08,0.05zm-0.51 0c0.04,0.05 0.02,0.02 0.02,0.08 -0.08,0.05 -0.08,0.05 -0.15,-0.02 0,-0.09 0,-0.06 0.05,-0.11 0.06,0.01 0.01,-0.06 0.08,0.05zm-0.5 0c0.03,0.06 0.01,0 0.02,0.08 -0.07,0.03 -0.09,0.04 -0.16,-0.02 0,-0.08 0.02,-0.08 0.08,-0.12 0.01,0.01 0.01,0.01 0.02,0.02l0.04 0.04zm-0.02 -0.16c-0.09,0.04 -0.19,0.07 -0.18,0.19 0.02,0.25 0.15,-0.12 0.11,0.44 -0.09,0 -0.33,-0.03 -0.39,0.04 -0.05,0.05 -0.04,0.42 0,0.46 0.21,0.09 0.29,-0.16 0.47,-0.09 0.09,0.03 0.13,0.11 0.22,0.13 0.14,0.03 0.13,-0.04 0.24,-0.04 0.11,0 0.1,0.09 0.26,0.03 0.08,-0.03 0.12,-0.11 0.21,-0.13 0.15,-0.04 0.45,0.32 0.49,-0.02 0,-0.09 0.02,-0.31 -0.06,-0.34 0,-0.01 -0.01,-0.01 -0.02,-0.02 0,0 -0.01,0 -0.02,0 -0.1,-0.04 -0.19,0.01 -0.3,-0.03 -0.1,-0.25 0.06,-0.33 0.1,-0.4 -0.05,-0.14 -0.07,-0.05 -0.13,-0.22 -0.12,0.06 -0.18,0.06 -0.17,0.26 0.13,0.1 0.14,-0.02 0.11,0.37 -0.13,0.01 -0.32,0.02 -0.43,-0.01l-0.01 -0.23c0.05,-0.15 0.13,-0.05 0.11,-0.19 -0.01,-0.11 -0.06,-0.02 -0.1,-0.2 -0.39,0.17 -0.07,0.32 -0.06,0.39l-0.01 0.24c-0.13,0.01 -0.32,0.02 -0.44,-0.01 -0.01,-0.44 0.02,-0.2 0.12,-0.4 -0.05,-0.12 -0.07,-0.05 -0.12,-0.22z"/>
     <path class="fil1" d="M4.35 12.84c-0.01,0.36 -0.05,0.47 0.14,0.48 0.16,0.02 0.42,0 0.59,0 1.35,0 1.2,0.12 1.18,-0.48 -0.31,0.07 -0.31,-0.15 -0.48,-0.1 -0.09,0.03 -0.11,0.1 -0.21,0.13 -0.16,0.06 -0.16,-0.02 -0.26,-0.03 -0.11,0 -0.12,0.09 -0.27,0.04 -0.08,-0.03 -0.11,-0.11 -0.21,-0.14 -0.15,-0.05 -0.18,0.17 -0.48,0.1z"/>
    </g>
    <g>
     <path class="fil1" d="M13.43 4.37c-0.28,-0.54 -0.42,-0.07 -0.48,-1.27 -0.94,-0.24 -1.92,0.92 -2.07,1.48 -0.33,0 -0.52,-0.21 -0.8,-0.2l0.35 0.9c0.18,-0.16 0.25,-0.43 0.4,-0.65 0.19,0.02 0.12,0.03 0.32,0.11 0.91,0.35 1.55,0.12 2.28,-0.37z"/>
     <path class="fil1" d="M13.45 3.42c-0.11,0.15 -0.09,0.14 -0.23,0.03 -0.03,-0.16 0.1,-0.21 0.23,-0.03zm0.06 0.86c0.25,-0.2 0.59,-0.67 0.6,-0.94 -0.33,-0.14 -0.64,-0.27 -1.06,-0.26 -0.1,0.43 0.04,0.97 0.46,1.2z"/>
    </g>
    <g>
     <path class="fil1" d="M14.68 13.15c-0.07,0.04 -0.1,0.03 -0.2,0.03 -0.03,0 -0.09,-0.01 -0.12,0l-0.05 0.06c0,0 0.01,0 0.02,0.01l0.42 0c0.09,0 0.17,0 0.25,0 0.02,0 0.1,0.01 0.12,0l0.12 -0.03c-0.13,-0.1 -0.29,0 -0.42,-0.07 0.03,-0.07 -0.05,-0.04 0.11,-0.05 0.53,-0.05 0.65,0.08 0.6,-0.78 -0.37,0.07 -1.24,0.12 -1.59,-0.01 -0.16,0.85 0.24,0.77 0.6,0.79 0.15,0 0.11,-0.03 0.14,0.05z"/>
     <path class="fil1" d="M15.06 11.81c-0.1,-0.06 -0.18,-0.18 -0.39,-0.15 -0.07,0.01 -0.15,0.04 -0.2,0.09 -0.06,0.07 -0.04,0.01 -0.03,0.11 0.02,0.11 0.05,-0.05 0.01,0.03 -0.29,-0.13 -0.48,0.1 -0.49,0.38l0.4 0.08 0.66 0c0.03,-0.15 -0.01,-0.09 -0.01,-0.22l0.06 0.23c0.1,-0.03 0.3,-0.05 0.42,-0.08 -0.03,-0.27 -0.17,-0.28 -0.32,-0.36 -0.01,-0.01 -0.02,-0.01 -0.02,-0.02 0.05,-0.07 0.2,-0.22 0.12,-0.3 -0.07,-0.07 -0.14,0.08 -0.21,0.21z"/>
    </g>
    <g>
     <path class="fil1" d="M13.66 9.38l-0.36 0.12c-0.04,0.65 1.13,0.08 1.38,-0.02 0.24,-0.09 0.48,-0.18 0.71,-0.28 0.28,-0.11 0.47,-0.15 0.45,-0.53 -0.17,0 -1.71,0.66 -2.18,0.71z"/>
     <path class="fil1" d="M13.62 9.27c-0.1,0.09 -0.21,0.08 -0.33,-0.02 -0.14,-0.11 -0.1,-0.17 -0.35,-0.09 -0.13,0.42 0.49,0.25 0.72,0.22 0.71,-0.42 2.36,-0.51 2.22,-1.23 -0.27,-0.06 -0.32,0.11 -0.5,0.2 -0.25,0.14 -1.32,0.4 -1.59,0.6 0.22,0 0.15,-0.01 0.31,0.06l0.17 0.04c0.07,0.01 0.01,-0.02 0.06,0.01 -0.34,0.11 -0.18,-0.15 -0.51,-0.05 -0.14,0.12 0,0.17 -0.2,0.26z"/>
     <path class="fil1" d="M13.22 9.08c0.15,0.03 1.71,-0.62 2.02,-0.73 0.3,-0.11 0.23,-0.07 0.25,-0.18 -0.33,-0.14 -0.99,0.17 -1.27,0.29 -0.19,0.08 -0.37,0.16 -0.56,0.25 -0.19,0.07 -0.49,0.16 -0.44,0.37z"/>
     <path class="fil1" d="M13.62 9.27c0.06,-0.08 0.1,-0.21 0.16,-0.32l-0.55 0.22c0.15,0.09 0.14,0.13 0.39,0.1z"/>
    </g>
   </g>
  </g>
  <polygon class="fil2" points="0,0 16.72,0 16.72,16.72 0,16.72 "/>
 </g>
</svg>
