<?xml version="1.0" encoding="UTF-8"?>
<!DOCTYPE svg PUBLIC "-//W3C//DTD SVG 1.1//EN" "http://www.w3.org/Graphics/SVG/1.1/DTD/svg11.dtd">
<!-- Creator: CorelDRAW 2021.5 -->
<svg xmlns="http://www.w3.org/2000/svg" xml:space="preserve" width="200px" height="200px" version="1.1" style="shape-rendering:geometricPrecision; text-rendering:geometricPrecision; image-rendering:optimizeQuality; fill-rule:evenodd; clip-rule:evenodd"
viewBox="0 0 20.57 20.57"
 xmlns:xlink="http://www.w3.org/1999/xlink"
 xmlns:xodm="http://www.corel.com/coreldraw/odm/2003">
 <defs>
  <style type="text/css">
   <![CDATA[
    .fil2 {fill:none}
    .fil0 {fill:#E67E22;fill-opacity:0.149020}
    .fil1 {fill:#7D3C98;fill-opacity:0.301961}
   ]]>
  </style>
   <clipPath id="id0">
    <path d="M0 0l20.57 0 0 20.57 -20.57 0 0 -20.57z"/>
   </clipPath>
   <clipPath id="id1">
    <path d="M0 0l20.57 0 0 20.57 -20.57 0 0 -20.57z"/>
   </clipPath>
 </defs>
 <g id="Camada_x0020_1">
  <metadata id="CorelCorpID_0Corel-Layer"/>
  <g style="clip-path:url(#id0)">
   <polygon class="fil0" points="0,0 20.57,0 20.57,20.57 0,20.57 "/>
  </g>
  <g style="clip-path:url(#id1)">
   <g id="_2083231407568">
    <g>
     <path id="_1" class="fil1" d="M6.38 3.01c0.02,-0.21 0.06,-0.41 0.07,-0.64 0.01,-0.22 -0.01,-0.44 0,-0.66l0.81 0c0.03,0.2 0,0.47 0.01,0.68 0.01,0.21 0.06,0.44 0.07,0.62 -0.33,0.06 -0.63,0.04 -0.96,0zm1.03 -0.37c-0.01,-0.2 -0.05,-0.49 -0.01,-0.7l0.14 0.01c0.04,0.12 0.05,0.26 0.06,0.4 0.01,0.2 -0.02,0.24 -0.19,0.29zm0.03 0.2c0.21,-0.21 0.34,-0.08 0.32,-0.55 -0.01,-0.11 -0.03,-0.28 -0.06,-0.38 -0.06,-0.15 -0.13,-0.13 -0.31,-0.13l-0.01 -0.18c-0.19,-0.02 -0.87,-0.03 -1.04,0 -0.04,0.21 0,0.56 -0.01,0.79 -0.03,0.7 -0.34,0.81 0.68,0.77 0.58,-0.02 0.44,-0.11 0.43,-0.32z"/>
     <path class="fil1" d="M6.62 2.86c-0.07,-0.08 0.01,-0.38 0.01,-0.65 0,-0.13 0.02,-0.12 -0.06,-0.15 -0.07,0.04 -0.03,-0.03 -0.05,0.08 0,0.01 0,0.11 0,0.13 0.01,0.26 -0.03,0.44 -0.06,0.69 0.29,0.03 0.51,0.02 0.78,0.01l-0.05 -0.91 -0.5 0c0,0.21 0.03,0.65 -0.07,0.8z"/>
     <path class="fil1" d="M6.39 1.5c0.1,-0.05 0.01,-0.22 0.15,-0.29 0.13,-0.01 0.13,0.02 0.22,0.01 0.29,-0.02 0.05,0.03 0.33,0.06 0.27,0.03 0.1,0.14 0.23,0.22 0.13,-0.06 0,-0.25 -0.1,-0.29l-0.39 -0.1c-0.16,0.01 -0.4,-0.04 -0.47,0.2 -0.03,0.08 -0.03,0.15 0.03,0.19z"/>
    </g>
    <g>
     <path class="fil1" d="M18.98 18.03c0,0.33 -0.04,0.21 -0.13,0.38 -0.07,0.13 -0.05,1.22 -0.02,1.33 0.11,0.02 0.43,0.02 0.55,0l0.01 -0.35 -0.25 0 0 -0.71 0.24 0c0.04,-0.44 -0.16,-0.19 -0.16,-0.65 0,-0.2 0.06,-0.15 -0.03,-0.33 -0.32,-0.02 -0.21,0.1 -0.21,0.33z"/>
     <path class="fil1" d="M18.16 18.85c0.08,-0.03 0.22,-0.02 0.32,-0.01l0.03 0.11 -0.38 0 0.03 -0.1zm0.11 0.5l0 0.22c-0.11,0.03 -0.19,0.05 -0.21,0.15 0.08,0.05 0.43,0.05 0.51,0.01 0.03,-0.1 -0.1,-0.12 -0.19,-0.17l0 -0.21c0.08,-0.08 0.19,-0.11 0.23,-0.23 0.05,-0.13 0,-0.3 -0.07,-0.38l-0.45 -0.01c-0.14,0.35 -0.1,0.43 0.13,0.58 0.03,0.02 0.03,0.02 0.05,0.04z"/>
    </g>
    <g>
     <path class="fil1" d="M10.39 12.12l0.1 0.28 -0.38 0 -0.04 -0.18 0.32 -0.1zm-0.44 0.02c-0.03,0.26 0.18,0.61 0.37,0.77 0.04,0.03 0.1,0.06 0.14,0.1 0.04,0.05 0.11,0.26 0.12,0.34 -0.06,0.08 -0.19,0.18 -0.17,0.27 0.08,0.03 0.57,-0.12 0.6,-0.24 -0.07,-0.07 -0.19,-0.07 -0.31,-0.08 -0.03,-0.09 -0.09,-0.22 -0.11,-0.3 -0.01,-0.09 0.06,-0.22 0.06,-0.34 0,-0.22 -0.1,-0.53 -0.21,-0.67 -0.14,-0.01 -0.35,0.11 -0.49,0.15z"/>
     <path class="fil1" d="M9.41 12.11l0.32 0.11 -0.04 0.18 -0.38 -0.01 0.1 -0.28zm-0.31 1.19l-0.24 0.04c-0.07,0.02 -0.03,0 -0.07,0.04 0.03,0.11 0.25,0.15 0.43,0.22 0,0 0.08,0.02 0.08,0.02 0.01,0.01 0.05,0.03 0.09,-0.01 0.05,-0.13 -0.19,-0.16 -0.16,-0.31 0.05,-0.24 0.11,-0.3 0.23,-0.37 0.15,-0.09 0.42,-0.48 0.39,-0.79 -0.13,-0.04 -0.35,-0.15 -0.49,-0.15 -0.1,0.11 -0.2,0.43 -0.2,0.62 -0.01,0.17 0.05,0.25 0.05,0.36 0,0.07 -0.08,0.25 -0.11,0.33z"/>
     <path class="fil1" d="M9.5 11.69c-0.01,0.13 0.2,0.3 0.25,0.25 0.07,-0.06 -0.03,-0.13 -0.07,-0.17 -0.07,-0.06 -0.06,-0.11 -0.18,-0.08z"/>
     <path class="fil1" d="M9.88 11.92c0.09,0.02 0.08,-0.04 0.08,-0.14 0.01,-0.13 0.03,-0.18 -0.08,-0.2 -0.05,0.06 -0.05,0.17 -0.04,0.25 0.02,0.1 0.01,0.05 0.04,0.09z"/>
     <path class="fil1" d="M10.06 11.94c0.08,0.03 0.26,-0.15 0.24,-0.24 -0.06,-0.03 -0.06,-0.03 -0.1,-0.01 0,0 -0.16,0.14 -0.17,0.19 0,0.06 0.01,0.03 0.03,0.06z"/>
    </g>
    <path class="fil1" d="M18.06 1.64c-0.04,-0.37 -0.12,0.03 -0.08,-0.62 0.14,-0.02 0.65,-0.03 0.76,0.01 0.01,0.12 0.05,0.25 0.01,0.36 -0.04,0.11 -0.07,0.09 -0.09,0.28 -0.02,0.22 -0.03,0.47 -0.07,0.68l-0.45 0c-0.05,-0.21 -0.05,-0.5 -0.08,-0.71zm-0.03 0.81l0.67 0c0.06,-0.26 0.03,-0.64 0.09,-0.87 0.05,-0.18 0.11,-0.09 0.09,-0.38 -0.04,-0.35 0.09,-0.3 -0.73,-0.3 -0.25,0 -0.27,-0.06 -0.29,0.2 -0.03,0.35 -0.03,0.25 0.06,0.43 0.06,0.14 0.06,0.72 0.11,0.92z"/>
    <path class="fil1" d="M18.28 1.45c-0.01,0 -0.02,0 -0.02,0l-0.12 0.05 0.07 0.74 0.3 0.01 0.07 -0.78 -0.18 0c-0.01,-0.08 -0.03,-0.14 -0.05,-0.22 -0.03,-0.14 -0.01,-0.15 -0.15,-0.15l0.08 0.35z"/>
    <path class="fil1" d="M18.53 0.81c0.09,-0.03 0.04,-0.04 0.1,-0.15 0.03,-0.05 0.09,-0.1 0.14,-0.13 0.15,-0.08 0.33,-0.03 0.42,0.06 0.16,0.15 0.13,0.45 -0.07,0.56 -0.13,0.07 -0.15,0 -0.15,0.12 0.21,0.09 0.6,-0.35 0.31,-0.72 -0.3,-0.38 -0.91,0.05 -0.75,0.26z"/>
    <path class="fil1" d="M17.8 0.46l-0.01 0.05c0.08,0.09 0.18,0.04 0.25,0.11 0.11,0.11 -0.04,0.19 0.19,0.19 -0.07,-0.39 -0.36,-0.39 -0.43,-0.35z"/>
    <path class="fil1" d="M19.03 0.91c-0.1,-0.01 -0.02,-0.01 -0.05,0.03 0.03,0.08 0.02,0.11 0.08,0.17 0.08,-0.03 0.04,0.01 0.09,-0.07 -0.02,-0.04 0,-0.02 -0.05,-0.06 0,-0.01 -0.01,-0.01 -0.01,-0.01l-0.06 -0.06z"/>
    <path class="fil1" d="M18.98 0.79c0.08,-0.03 0.14,-0.08 0.18,-0.15 -0.04,-0.03 -0.04,-0.03 -0.1,-0.06 -0.06,0.06 -0.07,0.11 -0.08,0.21z"/>
    <path class="fil1" d="M18.76 0.71l0.13 0.08 -0.05 -0.21c-0.09,0.02 -0.06,0.01 -0.12,0.06 0.02,0.03 0.03,0.05 0.04,0.07z"/>
    <path class="fil1" d="M18.93 0.77c0.04,-0.04 0.07,-0.1 0.07,-0.16 0,-0.05 0,-0.02 -0.02,-0.05l-0.09 -0.01c-0.02,0.09 0.01,0.15 0.04,0.22z"/>
    <path class="fil1" d="M19.02 0.83l0.21 -0.01 -0.03 -0.12c-0.05,0.01 -0.09,0.02 -0.14,0.07 -0.04,0.05 0,-0.01 -0.04,0.06z"/>
    <path class="fil1" d="M19.03 0.91c0.08,0.04 0.09,0.06 0.16,0.08l0.05 -0.12 -0.23 -0.01c0.02,0.03 0.01,0.03 0.02,0.05z"/>
    <path class="fil1" d="M18.76 0.71c-0.1,-0.02 -0.1,-0.01 -0.11,0.1l0.2 0.01 -0.09 -0.11z"/>
    <g>
     <path class="fil1" d="M1.67 9.77c-0.02,-0.17 -0.03,-1.18 0.01,-1.3l0.6 -0.01c0.03,0.13 0.03,1.15 0.01,1.31l-0.62 0zm-0.09 0.08c0.07,0.06 0.73,0.07 0.8,0 0.08,-0.1 0.03,-0.76 0.03,-0.94 0,-0.58 0.13,-0.56 -0.43,-0.56 -0.55,0 -0.43,-0.04 -0.43,0.54 0,0.18 -0.06,0.85 0.03,0.96z"/>
     <path class="fil1" d="M2.03 8.9c-0.06,-0.38 -0.09,-0.34 -0.19,-0.34 0,0.07 0.15,0.84 0.04,1 -0.11,-0.11 0.04,-0.61 -0.08,-0.66 -0.08,0.03 -0.04,0.66 -0.04,0.77l0.44 -0.01 -0.01 -0.76 -0.16 0z"/>
     <path class="fil1" d="M2.08 8.25c0.1,-0.03 0.06,-0.06 0.11,-0.15 0.11,-0.19 0.4,-0.23 0.56,-0.06 0.09,0.1 0.14,0.26 0.07,0.41 -0.11,0.22 -0.27,0.13 -0.31,0.26 0.03,0.02 0,0.01 0.06,0.02 0.06,0 0.12,-0.03 0.18,-0.07 0.23,-0.15 0.25,-0.48 0.08,-0.67 -0.31,-0.34 -0.76,-0.02 -0.77,0.19 0,0.13 -0.01,0.02 0.02,0.07z"/>
     <path class="fil1" d="M1.42 7.89c0,0.11 -0.05,0.06 0.08,0.1 0.42,0.12 0.04,0.25 0.36,0.26 -0.04,-0.22 -0.11,-0.36 -0.34,-0.38 -0.16,-0.02 -0.06,-0.01 -0.1,0.02z"/>
     <path class="fil1" d="M2.61 8.38c-0.03,-0.02 -0.04,-0.02 -0.08,-0.03 0.02,0.1 0.03,0.15 0.09,0.21 0.09,-0.04 0.05,-0.01 0.09,-0.08l-0.1 -0.1z"/>
     <path class="fil1" d="M2.61 8.38c0.08,0.04 0.06,0.05 0.16,0.05l0.02 -0.12 -0.23 -0.01c0.03,0.04 0.03,0.04 0.05,0.08z"/>
     <path class="fil1" d="M2.53 8.23c0.07,-0.02 0.05,-0.01 0.11,-0.06 0.05,-0.03 0.04,-0.01 0.07,-0.07l-0.09 -0.09c-0.06,0.07 -0.07,0.13 -0.09,0.22z"/>
     <path class="fil1" d="M2.56 8.28l0.23 -0.01 -0.02 -0.12c-0.11,0.01 -0.16,0.05 -0.21,0.13z"/>
     <path class="fil1" d="M2.47 8.21c0.07,-0.06 0.01,0.07 0.07,-0.09 0.02,-0.05 0.02,-0.07 0.02,-0.12l-0.13 -0.01 0.04 0.22z"/>
     <path class="fil1" d="M2.34 8.17c0.06,0.04 0.04,0.03 0.11,0.06l-0.06 -0.21 -0.1 0.09c0,0 0.01,0.01 0.01,0.02 0,0 0.01,0.01 0.01,0.02l0.03 0.02z"/>
     <path class="fil1" d="M2.34 8.17c-0.11,-0.03 -0.1,-0.06 -0.14,0.05l0.11 0.04c0.04,0 0.06,0 0.11,0.01l-0.08 -0.1z"/>
    </g>
    <g>
     <path class="fil1" d="M17.66 7.81c-0.08,-0.03 -0.28,-0.17 -0.34,-0.24 0.03,-0.06 0.12,-0.19 0.17,-0.24 0.12,0.06 0.24,0.16 0.34,0.23l-0.17 0.25zm0.16 -0.6c-0.04,-0.07 -0.04,-0.15 0.03,-0.19 0.13,-0.06 0.14,0.04 0.13,0.14 -0.05,0.04 -0.08,0.07 -0.16,0.05zm-0.67 0.49c0.04,0.06 0.38,0.3 0.45,0.31 0.12,-0.11 0.39,-0.52 0.44,-0.69 0.17,-0.59 0.23,-0.49 0.28,-0.59 0.07,-0.15 -0.14,-0.29 -0.24,-0.12 -0.02,0.02 -0.01,0.04 -0.04,0.09 -0.19,0.28 -0.39,0.24 -0.66,0.63 -0.05,0.09 -0.21,0.28 -0.23,0.37z"/>
     <path class="fil1" d="M18.57 6.06c0.01,0.08 0.02,0.07 0.06,0.12l0.2 -0.1c0,-0.09 0,-0.07 -0.05,-0.13 -0.07,0 -0.15,0.05 -0.21,0.11z"/>
     <path class="fil1" d="M18.34 6.53c0.07,-0.02 0.13,-0.07 0.18,-0.1 0.06,-0.05 0.13,-0.08 0.15,-0.14 -0.07,0.01 -0.11,0.06 -0.17,0.1 -0.04,0.02 -0.06,0.03 -0.09,0.05 -0.07,0.06 -0.04,0.03 -0.07,0.09z"/>
     <path class="fil1" d="M18.38 6.59c0.08,-0.01 0.08,-0.02 0.15,-0.05 0.09,-0.04 0.08,-0.02 0.1,-0.08 -0.08,0.01 -0.21,0.05 -0.25,0.13z"/>
     <path class="fil1" d="M18.44 6.22c0.01,0.04 0,0.1 0.08,0.02 -0.01,-0.02 0.02,-0.02 -0.02,-0.04 -0.1,-0.03 -0.04,0.01 -0.06,0.02z"/>
     <path class="fil1" d="M18.24 6.11c0.09,0.02 0.05,0.01 0.08,-0.01 -0.03,-0.12 -0.08,-0.06 -0.08,0.01z"/>
     <path class="fil1" d="M18.82 6.36c0.04,-0.02 0.05,0.03 0.05,-0.05 -0.01,-0.05 -0.02,-0.03 -0.05,-0.04 -0.01,0.01 -0.05,0.02 0,0.09z"/>
    </g>
    <g>
     <path class="fil1" d="M6.3 11.85l0.79 -0.01c-0.03,0.09 -0.33,0.55 -0.39,0.63l-0.4 -0.62zm0.45 1.1c0,-0.39 -0.02,-0.31 0.15,-0.58 0.1,-0.16 0.18,-0.29 0.27,-0.43 0.19,-0.29 -0.03,-0.21 -0.32,-0.21 -0.2,0 -0.51,-0.02 -0.7,0.01 -0.01,0.11 0.08,0.22 0.13,0.3 0.31,0.48 0.36,0.43 0.36,0.91 -0.1,0.03 -0.34,0.09 -0.33,0.22 0.12,0.04 0.7,0.05 0.78,-0.01 -0.02,-0.11 -0.23,-0.18 -0.34,-0.21z"/>
     <path class="fil1" d="M6.44 11.64c-0.05,-0.16 -0.05,-0.1 0.1,-0.21 0.08,-0.06 0.15,-0.09 0.17,-0.2 -0.1,-0.05 -0.48,-0.1 -0.61,-0.08 -0.05,0.1 -0.24,0.5 -0.22,0.57 0.07,0.02 0.2,-0.03 0.28,-0.07 0.22,-0.1 0.06,-0.01 0.28,-0.01z"/>
     <path class="fil1" d="M6.95 11.64c0.15,-0.01 0.07,-0.13 0.25,-0.2 0.39,-0.15 0.56,0.46 0.19,0.55 -0.14,0.03 -0.12,-0.04 -0.18,0.06 0.03,0.02 0.05,0.04 0.12,0.03 0.05,0 0.09,-0.01 0.13,-0.03 0.07,-0.03 0.12,-0.06 0.16,-0.12 0.34,-0.52 -0.59,-0.86 -0.67,-0.29z"/>
     <path class="fil1" d="M6.71 12.36c0.04,-0.08 0.2,-0.29 0.21,-0.37l-0.44 0c0.01,0.08 0.17,0.32 0.23,0.37z"/>
     <path class="fil1" d="M7.38 11.76l0.15 0.07 0.01 -0.11 -0.14 -0.01c-0.03,0.03 -0.04,-0.05 -0.02,0.05z"/>
     <path class="fil1" d="M7.38 11.76c0,0 -0.09,-0.02 0.02,0.17l0.08 -0.05c-0.03,-0.08 -0.04,-0.07 -0.1,-0.12z"/>
     <path class="fil1" d="M7.4 11.64c0.04,-0.04 0.05,-0.03 0.09,-0.09 -0.04,-0.04 -0.02,-0.03 -0.1,-0.06l-0.04 0.13c0.03,0.03 -0.05,0.04 0.05,0.02z"/>
     <path class="fil1" d="M7.36 11.47l-0.08 0c-0.04,0.05 -0.03,0 0.01,0.16 0.07,-0.06 0.06,-0.03 0.07,-0.16z"/>
     <path class="fil1" d="M7.28 11.65c-0.02,-0.09 -0.02,-0.09 -0.07,-0.16l-0.07 0.06c0.02,0.04 -0.03,0.04 0.14,0.1z"/>
     <path class="fil1" d="M7.4 11.64c-0.01,0.01 -0.02,0.05 -0.03,0.06l0.18 -0.01 -0.02 -0.07c-0.06,-0.03 -0.02,-0.03 -0.13,0.02z"/>
     <path class="fil1" d="M7.28 11.95c0.09,-0.01 0.05,0.02 0.08,-0.03 0.03,-0.07 -0.04,-0.07 -0.04,-0.07l-0.04 0.1z"/>
    </g>
    <g>
     <path class="fil1" d="M11.73 16.39c-0.05,0.06 -0.12,0.1 -0.16,0.18 0.02,0.05 0.04,0.05 0.08,0.08 0.03,0.02 0.06,0.05 0.08,0.07 0.06,0.04 0.12,0.07 0.2,0.1 1.07,0.48 2.24,-0.78 1.41,-1.88 -0.03,-0.04 -0.03,-0.04 -0.07,-0.07 -0.08,0.04 -0.11,0.11 -0.18,0.17l0.02 0.01c0.1,0.06 0.15,0.13 0.21,0.27 0.03,0.06 0.05,0.13 0.06,0.2 0.03,0.14 -0.02,0.14 -0.02,0.2 0,0.01 0.11,0.21 -0.13,0.55 -0.08,0.11 -0.06,0.06 -0.14,0.11 -0.03,0.03 -0.04,0.21 -0.46,0.31 -0.16,0.03 -0.15,-0.02 -0.22,-0.02 -0.07,0 -0.06,0.05 -0.21,0.02 -0.39,-0.09 -0.42,-0.24 -0.47,-0.3z"/>
     <path class="fil1" d="M13.11 16.29c0.09,-0.09 0.24,-0.35 0.19,-0.51 -0.09,-0.04 -0.44,-0.02 -0.57,-0.02 -0.3,0 0.04,0.25 0.2,0.42 0.05,0.05 0.08,0.11 0.18,0.11z"/>
     <path class="fil1" d="M12.35 16.59c0.05,-0.08 0.03,-0.58 0,-0.67 -0.11,-0.02 -0.18,0.1 -0.25,0.16 -0.08,0.08 -0.15,0.15 -0.22,0.23 -0.17,0.17 0.34,0.3 0.39,0.3 0.06,0.01 0.05,0.01 0.08,-0.02z"/>
     <path class="fil1" d="M12.62 15.66c0.08,0.02 0.59,0.03 0.67,-0.01 0.07,-0.06 -0.1,-0.62 -0.27,-0.48 -0.08,0.07 -0.16,0.16 -0.23,0.23 -0.04,0.04 -0.07,0.07 -0.12,0.11 -0.04,0.05 -0.07,0.07 -0.05,0.15z"/>
     <path class="fil1" d="M12.45 16.04l0 0.45c0,0.17 0.12,0.14 0.31,0.06 0.36,-0.15 0.23,-0.19 -0.06,-0.49 -0.05,-0.05 -0.25,-0.29 -0.25,-0.02z"/>
     <path class="fil1" d="M12.31 15.83c0.03,0.01 0.07,0.03 0.1,0.05 0.04,-0.02 0.07,-0.03 0.11,-0.05 0.07,-0.18 0.04,-0.07 0.01,-0.22 -0.06,0.03 -0.19,0.15 -0.22,0.22z"/>
    </g>
    <g>
     <path class="fil1" d="M4.58 8.64c0.03,0.07 0.1,0.04 0.25,0.04 0.06,0.07 0.09,0.13 0.16,0.19 0.06,0.05 0.13,0.1 0.22,0.14 -0.04,0.08 -0.33,0.36 -0.33,0.41 -0.02,0.08 -0.01,-0.07 0,0.02 0,0.01 0,0.01 0,0.02 0.01,0.09 0.2,-0.16 0.21,-0.18 0.07,-0.08 0.12,-0.14 0.2,-0.22 0.1,0 0.19,0.04 0.32,0.04 0.13,0 0.22,-0.04 0.32,-0.04l0.3 0.34c0.03,0.04 0.06,0.08 0.11,0.07 0.05,-0.05 -0.08,-0.15 -0.14,-0.23 -0.06,-0.07 -0.12,-0.14 -0.18,-0.21 0.04,-0.06 0.14,-0.1 0.2,-0.15 0.22,-0.19 0.02,-0.19 0.33,-0.2 0.08,0 0.08,0.01 0.09,-0.06 -0.05,-0.03 -0.06,-0.01 -0.13,-0.02 -0.04,0 -0.03,0.01 -0.06,-0.01l-0.03 -0.02c0,0 0,0 -0.01,0 -0.27,0.15 -0.6,0.18 -0.96,0.16 -0.24,-0.01 -0.42,-0.04 -0.61,-0.14 -0.07,-0.04 -0.05,-0.01 -0.06,-0.01 -0.11,0.06 -0.16,-0.02 -0.2,0.06z"/>
     <path class="fil1" d="M5.39 8.11c0.25,-0.02 0.65,-0.02 0.84,0.09 0.35,0.2 -0.17,0.34 -0.38,0.35 -0.76,0.07 -1.21,-0.18 -0.85,-0.36 0.11,-0.05 0.26,-0.07 0.39,-0.08zm0.06 -0.1c-0.18,0.01 -0.35,0.04 -0.5,0.1 -0.47,0.19 -0.13,0.61 0.84,0.54 0.16,-0.01 0.35,-0.04 0.49,-0.1 0.5,-0.23 0.02,-0.62 -0.83,-0.54z"/>
     <path class="fil1" d="M5.61 7.88c0.15,-0.05 0.02,-0.32 0.02,-0.32 -0.01,-0.08 0.02,-0.06 -0.01,-0.14 -0.1,0 -0.09,0.14 -0.05,0.22 0.07,0.14 -0.03,0.17 0.04,0.24z"/>
     <path class="fil1" d="M5.88 7.87c0.1,0.01 0.08,-0.18 0.07,-0.2 -0.01,-0.05 -0.04,-0.06 -0.04,-0.11 -0.02,-0.09 0.02,-0.07 -0.01,-0.14 -0.1,0.01 -0.1,0.13 -0.06,0.2 0.02,0.05 0.04,0.05 0.04,0.11 0,0.07 -0.04,0.07 0,0.14z"/>
     <path class="fil1" d="M5.34 7.43c-0.15,-0.04 -0.02,0.26 -0.02,0.31 -0.01,0.05 -0.04,0.09 0,0.13 0.07,0.07 0.08,-0.15 0.07,-0.19 -0.02,-0.1 -0.04,-0.02 -0.04,-0.18 0,-0.01 0.01,-0.03 -0.01,-0.07z"/>
     <polygon class="fil1" points="5.56,8.49 5.66,8.49 5.66,8.17 5.56,8.17 "/>
     <path class="fil1" d="M5.37 8.48l0.11 0 0 -0.3 -0.1 0c-0.03,0.08 -0.02,0.21 -0.01,0.3z"/>
     <path class="fil1" d="M5.74 8.48l0.11 0c0.01,-0.08 0.02,-0.22 -0.01,-0.3l-0.09 0 -0.01 0.3z"/>
     <path class="fil1" d="M5.93 8.46l0.11 -0.02c0,-0.04 0.01,-0.13 0,-0.17 0,-0.07 -0.02,-0.06 -0.11,-0.07l0 0.26z"/>
     <path class="fil1" d="M5.18 8.29l0 0.09 0 0.06 0.11 0.02 0 -0.06 0 -0.13 0 -0.07c-0.1,0.01 -0.11,0 -0.11,0.09z"/>
     <path class="fil1" d="M6.12 8.41c0.07,-0.02 0.11,-0.03 0.14,-0.08 -0.03,-0.06 -0.06,-0.06 -0.14,-0.08l0 0.16z"/>
     <path class="fil1" d="M4.97 8.33c0.02,0.05 0.06,0.06 0.13,0.08l0 -0.16c-0.07,0.02 -0.11,0.03 -0.13,0.08z"/>
    </g>
    <path class="fil1" d="M2.5 4.59c0.03,-0.04 0.17,-0.03 0.17,0.09 -0.07,0.03 -0.21,0 -0.17,-0.09zm0.62 0.07c-0.08,0.03 -0.18,0.01 -0.19,-0.09 0.02,-0.02 0.18,-0.05 0.19,0.09zm-1.2 -0.12c0,-0.1 0.09,-0.1 0.18,-0.09 0.02,0.08 0.02,0.09 -0.07,0.11 -0.06,0.01 -0.06,0.01 -0.11,-0.02zm0.56 -0.19c-0.05,0.03 -0.16,0.07 -0.16,-0.06 0.07,-0.04 0.1,-0.02 0.16,0l0 0.06zm0.73 0.01c-0.03,0.01 -0.23,0 -0.19,-0.11 0.02,-0.01 -0.01,-0.03 0.08,-0.02 0.07,0.01 0.12,0.06 0.11,0.13zm-0.87 -0.27c-0.22,0.04 -0.4,0.09 -0.55,0.2 -0.11,0.07 -0.33,0.3 -0.16,0.48 0.27,0.29 1.57,0.27 1.9,0.06 0.43,-0.26 -0.24,-0.91 -1.19,-0.74z"/>
    <path class="fil1" d="M3.82 5.94c-0.28,0.07 -0.36,0.22 -1.02,0.22 -0.44,0 -0.68,-0.08 -1.03,-0.22 -0.31,0.17 -0.02,0.37 0.2,0.44 0.5,0.18 1.58,0.17 1.9,-0.15 0.13,-0.12 0.03,-0.2 -0.05,-0.29z"/>
    <path class="fil1" d="M1.55 5.74c0.2,-0.02 0.14,-0.08 0.26,-0.15 0.08,-0.01 0.07,0.01 0.15,-0.01 0.05,-0.01 0.02,-0.03 0.12,-0.03 0.07,0.04 0.07,0.07 0.14,0.09 0.06,-0.02 0.11,-0.07 0.16,-0.08 0.11,-0.03 0.08,0.03 0.22,0.01 0.19,-0.04 0.25,-0.03 0.44,0 0.4,0.08 0.16,0.04 0.43,0.03 0.11,0 0.36,0.07 0.45,0.04 0.13,-0.12 -0.02,-0.32 -0.06,-0.4 -0.11,0.04 -0.14,0.13 -0.46,0.18 -0.35,0.06 -0.89,0.06 -1.23,0 -0.26,-0.04 -0.29,-0.1 -0.46,-0.19 -0.15,0.1 -0.02,0.12 -0.15,0.27 -0.1,0.12 -0.1,0.13 -0.01,0.24z"/>
    <path class="fil1" d="M2.06 5.66c-0.14,0.07 -0.07,0.05 -0.23,0.03 -0.03,0.06 -0.04,0.04 -0.06,0.09 0.25,0.24 0.75,0.29 1.17,0.27 -0.08,-0.09 -0.28,-0.23 -0.4,-0.32 -0.11,-0.09 -0.1,-0.08 -0.22,-0.01 -0.14,0.08 -0.19,0.02 -0.26,-0.06z"/>
    <path class="fil1" d="M3.17 5.72l-0.17 0.32c0.26,0.02 0.72,-0.12 0.81,-0.27 -0.09,-0.06 -0.5,-0.04 -0.64,-0.05z"/>
    <path class="fil1" d="M2.94 5.9c0,0 0.01,-0.01 0.01,-0.01 0,0.01 0.01,0 0.01,-0.01 0,0 0.01,-0.01 0.01,-0.01l0.03 -0.06c0.02,-0.05 0.04,-0.07 0.05,-0.12 -0.06,-0.01 -0.4,-0.08 -0.39,-0.01 0,0.01 0.25,0.21 0.28,0.22z"/>
    <path class="fil1" d="M3.19 4.63c-0.04,0.11 0.16,0.12 0.19,0.11 0.01,-0.07 -0.04,-0.12 -0.11,-0.13 -0.09,-0.01 -0.06,0.01 -0.08,0.02z"/>
    <path class="fil1" d="M3.1 4.95c0.01,0.1 0.11,0.12 0.19,0.09 -0.01,-0.14 -0.17,-0.11 -0.19,-0.09z"/>
    <path class="fil1" d="M2.84 5.06c0,-0.12 -0.14,-0.13 -0.17,-0.09 -0.04,0.09 0.1,0.12 0.17,0.09z"/>
    <path class="fil1" d="M2.49 4.67c0,0.13 0.11,0.09 0.16,0.06l0 -0.06c-0.06,-0.02 -0.09,-0.04 -0.16,0z"/>
    <g>
     <path class="fil1" d="M13.45 10.15c-0.07,0.03 -0.14,0.01 -0.14,-0.06 0.01,-0.03 0.05,-0.03 0.09,-0.01 0.04,0.01 0.04,0.02 0.05,0.07zm0.15 -0.32c0.15,-0.1 0.26,0.13 0.14,0.21 -0.06,0.04 -0.14,0.03 -0.18,-0.03 -0.05,-0.07 -0.02,-0.14 0.04,-0.18zm-0.58 0.07c0.07,0 0.09,0.02 0.08,0.09 -0.07,0 -0.09,-0.02 -0.08,-0.09zm0.14 -0.16c0.07,0 0.1,0.03 0.08,0.1 -0.06,0.02 -0.11,-0.02 -0.08,-0.1zm0.87 0.08c-0.04,-0.07 0,-0.11 0.07,-0.09 0.02,0.05 0,0.11 -0.07,0.09zm-0.17 -0.09c-0.03,0.03 -0.1,-0.02 -0.07,-0.06 0.02,-0.02 0.03,-0.04 0.07,0 0.03,0.02 0.03,0.04 0,0.06zm-0.36 -0.01c-0.05,0 -0.11,-0.01 -0.12,-0.07 0,-0.07 0,-0.01 0.02,-0.04 0.06,-0.02 0.1,0.04 0.1,0.11zm-0.54 -0.15c0.07,-0.02 0.11,0.02 0.12,0.08l-0.02 0.01c-0.04,0.04 -0.11,-0.02 -0.1,-0.09zm1.16 -0.03c-0.02,0.04 -0.11,0.05 -0.12,-0.03 0.02,-0.03 0.15,-0.04 0.12,0.03zm-0.97 -0.22c0.17,-0.09 0.26,0.16 0.12,0.22 -0.08,0.03 -0.14,-0.01 -0.17,-0.06 -0.04,-0.08 0,-0.13 0.05,-0.16zm0.02 -0.15l0 0.05c-0.07,0.03 -0.1,0.01 -0.09,-0.06 0.05,-0.02 0.03,-0.02 0.09,0.01zm0.32 0.09c-0.05,0.02 -0.1,-0.06 -0.08,-0.12 0.1,-0.01 0.13,0.1 0.08,0.12zm-0.27 -0.25c0.01,-0.03 0.01,-0.04 0.05,-0.05 0.02,0 0.03,0 0.04,0 0.05,0 0.09,0.06 -0.01,0.08 -0.06,0.02 -0.06,0.01 -0.08,-0.03zm0.3 -0.09c0.02,-0.04 0.12,-0.06 0.11,0.05 -0.06,0.03 -0.13,-0.01 -0.11,-0.05zm0.75 0.47l-0.73 0.13 0.26 -0.69c-0.4,-0.11 -0.69,0.01 -0.87,0.25 -0.21,0.29 -0.18,0.65 0.03,0.91 0.44,0.55 1.4,0.23 1.31,-0.6z"/>
     <path class="fil1" d="M14.48 9.35l-0.13 0.01c0.03,0.41 -0.06,0.7 -0.45,0.91 -0.37,0.2 -0.82,0.02 -1,-0.22 -0.38,-0.47 -0.17,-1.12 0.35,-1.31 0.31,-0.1 0.39,-0.02 0.59,0l0.04 -0.12c-0.25,-0.06 -0.39,-0.1 -0.66,-0.01 -0.67,0.23 -0.82,1.06 -0.43,1.52 0.63,0.73 1.81,0.27 1.69,-0.78z"/>
     <path class="fil1" d="M14.08 8.85c0.17,-0.07 0.28,0.21 0.1,0.28 -0.18,0.06 -0.3,-0.2 -0.1,-0.28zm-0.33 0.46l0.68 -0.12c-0.04,-0.26 -0.23,-0.45 -0.43,-0.53l-0.25 0.65z"/>
     <path class="fil1" d="M14.03 8.58c0.12,0.07 0.18,0.07 0.31,0.23 0.09,0.1 0.14,0.2 0.17,0.35l0.17 -0.02c-0.05,-0.32 -0.32,-0.64 -0.59,-0.71l-0.06 0.15z"/>
    </g>
    <g>
     <path class="fil1" d="M2.49 16.79c0.83,-0.2 1.14,1.08 0.3,1.28 -0.84,0.21 -1.18,-1.06 -0.3,-1.28zm-0.08 -0.35c-0.3,0.08 -0.48,0.2 -0.62,0.41 -0.15,0.21 -0.23,0.51 -0.16,0.82 0.12,0.48 0.62,0.92 1.24,0.76 0.48,-0.12 0.91,-0.61 0.76,-1.23 -0.11,-0.47 -0.62,-0.92 -1.22,-0.76z"/>
     <path class="fil1" d="M2.51 16.92c-0.71,0.19 -0.41,1.2 0.26,1.03 0.67,-0.18 0.41,-1.2 -0.26,-1.03z"/>
     <path class="fil1" d="M3.63 16.6l0 0.25c0,0.57 0.68,0.56 0.68,0 0,-0.4 0.03,-0.4 -0.11,-0.41 -0.08,0.24 0.08,0.58 -0.16,0.68 -0.02,-0.2 0.03,-0.51 -0.03,-0.68 -0.09,0.01 -0.09,0 -0.11,0.08 0,0.02 0,0.17 0,0.2 0,0.13 0.01,0.27 -0.01,0.4 -0.27,-0.12 -0.02,-0.47 -0.17,-0.67 -0.1,0.01 -0.09,0.02 -0.09,0.15z"/>
     <path class="fil1" d="M1.06 17.74l0.31 0 -0.01 -1.24c-0.31,0.08 -0.3,0.97 -0.3,1.24z"/>
     <path class="fil1" d="M4.04 17.39l-0.15 0.01c-0.01,0.17 -0.01,0.35 -0.02,0.52 -0.01,0.14 -0.07,0.46 0.1,0.45 0.16,-0.02 0.1,-0.3 0.1,-0.45 -0.01,-0.17 -0.01,-0.36 -0.03,-0.53z"/>
     <path class="fil1" d="M1.16 18.15c0.01,0.1 0.01,0.27 0.16,0.21 0.11,-0.05 0.06,-0.22 0.07,-0.32 -0.07,-0.16 0.02,-0.16 -0.19,-0.15 -0.01,0.09 -0.01,0.19 -0.04,0.26z"/>
     <path class="fil1" d="M1.16 18.15c0.03,-0.07 0.03,-0.17 0.04,-0.26 0.21,-0.01 0.12,-0.01 0.19,0.15l-0.01 -0.16c-0.09,-0.04 -0.12,-0.04 -0.2,0l-0.02 0.27z"/>
    </g>
    <path class="fil1" d="M5.63 5.77c-0.07,-0.16 -0.11,-0.26 -0.08,-0.35 0.01,-0.02 0.05,-0.06 0.05,-0.06 0.07,-0.16 -0.04,-0.16 0.02,-0.27 0.03,-0.06 0.1,-0.05 0.16,-0.19 0.15,-0.3 0.04,0 0.23,-0.29 0,-0.01 0.01,-0.02 0.01,-0.03 0.14,-0.21 0.12,0.09 0.28,-0.22 0.45,-0.01 0.1,0.04 0.41,-0.12 0.13,-0.03 0.11,0.09 0.3,0.04 0.28,-0.08 0.14,0 0.3,0.02 0.17,0.02 0.08,-0.05 0.3,0.05 0.15,0.07 0.18,0.04 0.29,0.15 -0.78,-0.07 -1.38,-0.09 -1.92,0.68 -0.18,0.25 -0.14,0.26 -0.22,0.45 -0.08,0.2 -0.01,0.1 -0.13,0.14zm0.64 -1.44c-0.11,0.21 0.02,0.07 -0.18,0.15 -0.24,0.09 0,0 -0.27,0.25 0,0 -0.01,0.01 -0.01,0.02 -0.1,0.1 0,0.07 -0.13,0.21 -0.22,0.24 -0.06,0.11 -0.14,0.38 -0.05,0.17 -0.08,0.06 -0.02,0.28 0.05,0.19 0.12,0.35 0.22,0.49 0.2,0.3 0.75,0.05 1.08,-0.05 0.38,-0.11 0.74,-0.21 1.11,-0.34 1.32,-0.43 0.12,-1.17 -0.57,-1.09 -0.66,0.07 -1.26,0.44 -1.45,1.04 -0.01,0.05 -0.02,0.1 -0.03,0.15l-0.06 0.14c-0.13,-0.31 0.37,-0.96 0.77,-1.17 0.74,-0.38 1.13,-0.2 1.65,-0.02 -0.19,-0.4 -0.93,-0.59 -1.14,-0.57 -0.2,0.02 -0.01,0.07 -0.27,0.01 -0.17,-0.04 -0.13,-0.01 -0.24,0.06 -0.14,0.08 -0.12,0.03 -0.32,0.06z"/>
    <g>
     <path class="fil1" d="M10.33 8.79c-0.13,0.06 -0.09,0.01 -0.39,0.01l-0.81 0c-0.12,0.01 -0.12,-0.01 -0.22,0 -0.13,0.01 -0.04,0.04 -0.21,0 0.03,0.18 0.19,0.63 0.27,0.78 0.23,0.05 0.84,0.04 1.09,0.01l0.27 -0.8z"/>
     <path class="fil1" d="M9.1 8.72c0.41,0 1.32,-0.57 1.03,-0.73 -0.11,-0.06 -0.51,0.21 -0.65,0.27 -0.22,0.09 -0.51,0.1 -0.68,0.21 -0.02,0.27 0.03,0.25 0.3,0.25z"/>
     <path class="fil1" d="M9.94 7.87c-0.07,-0.23 -0.08,-0.01 -0.3,-0.31 -0.08,0.06 -0.08,0.1 -0.19,0.16 -0.08,0.04 -0.18,0.06 -0.26,0.11 -0.09,0.05 -0.36,0.3 -0.2,0.46 0.15,0.15 0.88,-0.33 0.95,-0.42z"/>
     <path class="fil1" d="M9.57 8.68c0.18,0.01 0.36,0.01 0.52,-0.05 0.1,-0.04 0.33,-0.19 0.19,-0.32 -0.1,-0.1 -0.25,0.1 -0.35,0.16 -0.12,0.07 -0.26,0.12 -0.36,0.21z"/>
    </g>
    <g>
     <path class="fil1" d="M2.26 13.6c0.67,0 0.98,-0.33 0.97,-1.01l-1.95 0c0,0.68 0.31,1.01 0.98,1.01z"/>
     <path class="fil1" d="M1.2 13.66c0.09,0.09 0.1,0.06 0.23,0.07 0.26,0.01 -0.01,0.06 0.8,0.06 0.86,0 0.57,-0.04 0.83,-0.06 0.1,-0.01 0.18,-0.01 0.26,-0.03 -0.14,-0.1 -2.06,-0.04 -2.12,-0.04z"/>
     <path class="fil1" d="M2.14 12.15c-0.59,0 -0.58,0.29 -0.25,0.29 0.16,0 0.28,-0.03 0.41,-0.05 0.08,-0.01 0.13,-0.02 0.21,0.01 0.11,0.06 0.03,0.08 0.13,0.08 0,-0.01 0.06,0.03 0.01,-0.09 -0.1,-0.23 -0.62,0.02 -0.83,-0.07 0.02,-0.28 0.88,0.21 1.08,-0.59 -0.18,0.32 -0.3,0.42 -0.76,0.42z"/>
     <path class="fil1" d="M3.16 13.22c0.52,-0.24 0.38,-0.53 0.11,-0.57 0,0.19 -0.01,0.08 0.12,0.17 -0.02,0.27 -0.21,0.16 -0.23,0.4z"/>
    </g>
    <path class="fil1" d="M1.89 2.55c0.15,-0.08 0.24,0.13 0.1,0.21 -0.12,0.06 -0.25,-0.13 -0.1,-0.21zm0.27 0.01c-0.1,-0.28 0.28,-0.29 0.19,0 -0.08,0.03 -0.12,0.03 -0.19,0zm-0.77 -0.21c0.15,-0.08 0.24,0.14 0.1,0.21 -0.12,0.06 -0.26,-0.13 -0.1,-0.21zm1.12 -0.03c-0.23,0.03 -0.21,-0.16 -0.13,-0.21 0.13,-0.07 0.25,0.06 0.13,0.21zm-0.61 -0.09c-0.02,-0.19 0.09,-0.21 0.21,-0.12 0.04,0.19 -0.09,0.24 -0.21,0.12zm-0.23 0c-0.25,0.01 -0.25,-0.24 0.01,-0.23l0.05 0.13 -0.06 0.1zm-0.4 -0.4c0.14,-0.11 0.24,0.09 0.15,0.17 -0.12,0.1 -0.29,-0.07 -0.15,-0.17zm0.32 -0.13c-0.12,-0.12 -0.07,-0.25 0.12,-0.22 0.09,0.12 0.07,0.24 -0.12,0.22zm0.98 -0.03c-0.21,0.07 -0.07,0.06 -0.12,0.24 -0.11,0.05 -0.14,0.05 -0.23,-0.05l-0.32 0.19c0.01,-0.27 -0.02,-0.1 -0.03,-0.23 -0.01,-0.11 0.06,-0.1 0.12,-0.17 -0.02,-0.1 -0.16,-0.16 -0.01,-0.26 0.1,-0.07 0.03,0.05 0.09,-0.06 0,-0.02 0.05,-0.09 -0.24,-0.06 -0.79,0.06 -0.96,1.02 -0.46,1.41 0.29,0.23 0.73,0.25 1.02,0 0.23,-0.2 0.44,-0.71 0.18,-1.01z"/>
    <path class="fil1" d="M2.72 1.58l-0.1 0.05c0.03,0.22 0.15,0.3 0.08,0.61 -0.13,0.59 -0.86,0.86 -1.33,0.48 -0.65,-0.52 -0.26,-1.54 0.57,-1.49 0.02,0 0.08,0.01 0.09,0.01l0.05 -0.13c-0.15,-0.05 0.12,0.03 -0.04,-0.01 -0.09,-0.03 -0.2,-0.02 -0.28,-0.01 -0.13,0.02 -0.24,0.05 -0.33,0.1 -0.18,0.09 -0.34,0.25 -0.43,0.42 -0.24,0.49 -0.02,1.01 0.29,1.24 0.4,0.29 0.9,0.24 1.24,-0.05 0.14,-0.12 0.26,-0.31 0.31,-0.55 0.03,-0.13 0.03,-0.24 0,-0.38l-0.07 -0.22c-0.03,-0.06 0.01,0 -0.02,-0.03 -0.02,-0.03 -0.02,-0.03 -0.03,-0.04z"/>
    <path class="fil1" d="M2.23 1.42l-0.14 0.08c0.03,0.15 0,-0.01 0.07,0.11 0.05,0.07 0.03,0.08 0.01,0.15 -0.15,0.07 -0.16,-0.03 -0.18,0.15 0.42,-0.15 0.3,-0.27 0.39,-0.32 0.17,-0.05 0.1,0.08 0.27,-0.06 -0.05,-0.16 -0.28,-0.35 -0.48,-0.36 0.01,0.2 0.08,0.03 0.06,0.25z"/>
    <path class="fil1" d="M2.19 1.1l0.06 0.04c0.04,0.02 0.06,0.03 0.09,0.04 0.05,0.03 0.09,0.05 0.14,0.09 0.04,0.03 0.07,0.06 0.11,0.11 0.05,0.04 0.07,0.09 0.13,0.12l0.09 -0.05c-0.05,-0.2 -0.34,-0.4 -0.58,-0.46l-0.04 0.11z"/>
    <g>
     <path class="fil1" d="M14.44 18.04l0.75 -0.36c0.11,-0.06 0.05,0 0.09,-0.09l-0.88 -0.04 0.04 0.49z"/>
     <polygon class="fil1" points="14.49,18.35 14.5,18.57 15.21,18.22 15.23,17.98 "/>
     <path class="fil1" d="M14.54 18.95l0.59 0.03 0.04 -0.42c-0.11,0.04 -0.24,0.11 -0.34,0.16 -0.3,0.14 -0.28,0.11 -0.29,0.23z"/>
     <path class="fil1" d="M14.35 17.53l0.97 0c-0.05,-0.11 -0.02,-0.11 -0.16,-0.12 -0.1,0 -0.22,0 -0.32,0 -0.1,0 -0.2,0 -0.29,0 -0.16,0 -0.15,0 -0.2,0.12z"/>
     <path class="fil1" d="M14.88 17.38c0.16,0.02 0.13,-0.02 0.19,-0.17 0.04,-0.09 0.11,-0.19 0.1,-0.27 -0.12,-0.04 -0.11,0.03 -0.17,0.17 -0.05,0.09 -0.09,0.18 -0.12,0.27z"/>
    </g>
    <g>
     <path class="fil1" d="M13.67 1.33c-0.26,0.18 -1.08,0.04 -1.22,0.04l0.09 -0.03c0.02,-0.01 0.07,0.13 0.04,-0.2 -0.01,-0.13 0.04,-0.09 -0.12,-0.08 -0.01,0 -0.01,0.01 -0.01,0.02l-0.03 0.07c-0.1,0.33 -0.04,0.29 0.04,0.77 0.06,0.3 0.11,0.62 0.17,0.92 0.24,0.07 0.63,0.09 0.88,-0.01 0.08,-0.14 0.23,-1.22 0.25,-1.46 -0.05,-0.05 0.06,-0.03 -0.09,-0.04z"/>
     <path class="fil1" d="M13.23 1.14l-0.01 0.26 0.3 -0.04 -0.01 -0.4c0,0 -0.01,-0.01 -0.02,-0.01l-0.03 -0.03c-0.1,0.02 -0.09,0.11 -0.09,0.22 -0.01,-0.13 0.02,-0.24 -0.08,-0.3 -0.09,0.06 -0.06,0.18 -0.06,0.3z"/>
     <path class="fil1" d="M12.83 0.97l-0.03 0.43c0.22,-0.01 0.1,-0.01 0.2,-0.11 -0.02,-0.17 0,-0.27 0.01,-0.42l-0.18 0 0 0.1z"/>
     <path class="fil1" d="M13.01 1.32c0.04,0.1 -0.06,0.07 0.13,0.08 0.06,-0.12 0.04,-0.36 0.04,-0.51l-0.14 0.02 -0.03 0.41z"/>
     <path class="fil1" d="M12.59 1.13c0.11,0.1 -0.01,0.17 0.11,0.24 0.07,-0.04 0.03,0.05 0.05,-0.07l0.01 -0.4 -0.14 0.01 -0.03 0.22z"/>
     <path class="fil1" d="M13.67 1.33l0.09 -0.02c-0.01,0 -0.01,-0.02 -0.02,-0.02 -0.02,0.07 -0.04,-0.23 -0.04,-0.23l-0.09 -0.03 -0.03 0.31 0.09 -0.01z"/>
    </g>
    <g>
     <path class="fil1" d="M9.02 3.33l1.2 0.01c0.33,0.01 0.11,-0.25 0.11,-0.27 -0.02,-0.04 0.03,-0.28 -0.26,-0.4 -0.33,-0.14 -0.65,-0.13 -0.9,0.12 -0.14,0.13 -0.06,0.07 -0.11,0.26 -0.03,0.14 -0.11,0.06 -0.04,0.28z"/>
     <path class="fil1" d="M9.79 4.41c0.21,-0.17 0.1,-0.34 0.02,-0.5 -0.09,-0.19 -0.14,-0.33 -0.24,-0.51l-0.24 0 0.46 1.01z"/>
     <path class="fil1" d="M9.7 4.64c0.09,-0.16 -0.06,-0.39 -0.21,-0.68 -0.2,-0.41 -0.17,-0.56 -0.4,-0.56 0.01,0.1 0.54,1.15 0.61,1.24z"/>
     <path class="fil1" d="M9.98 4.05c0,-0.01 0.01,-0.02 0.01,-0.02 0,0.01 0.01,-0.01 0.02,-0.01 0,-0.01 0.01,-0.02 0.01,-0.02l0.05 -0.1c0.04,-0.06 0.06,-0.11 0.06,-0.18 -0.01,-0.07 -0.13,-0.28 -0.16,-0.32l-0.29 0c0.01,0.11 0.23,0.55 0.3,0.65z"/>
     <path class="fil1" d="M10.2 3.64l0.12 -0.23 -0.23 -0.01c0.02,0.11 0.06,0.17 0.11,0.24z"/>
    </g>
    <g>
     <path class="fil1" d="M13.83 13.38c-0.18,-0.02 -0.13,-0.1 -0.1,-0.19 0.16,-0.08 0.14,-0.05 0.3,0 -0.02,0.13 -0.04,0.21 -0.2,0.19zm1.36 -0.55c0.1,-0.09 0.37,0.01 0.41,0.15 0.05,0.2 -0.02,0.13 -0.02,0.14 -0.25,0.11 -0.6,-0.1 -0.39,-0.29zm-2.26 0.18l0 0.72c0.47,0.04 1.07,0.15 1.54,0.16 0.28,0 0.27,-0.29 0.6,-0.05 0.18,0.13 0.02,0.14 0.74,0.17l0 -1.33 -2.88 0.33z"/>
     <path class="fil1" d="M13.08 12.88l2.36 -0.3c0,-0.01 -0.02,-0.06 -0.02,-0.07 -0.03,-0.18 -0.07,-0.05 0,-0.17 0.21,0.05 0.07,0.09 0.14,0.22 0.16,-0.01 0.12,0.01 0.22,-0.06 -0.12,-0.15 -0.48,-0.5 -0.63,-0.55 -0.29,0.19 -0.03,0.16 -0.5,0.25 -0.2,0.04 -1.42,0.56 -1.57,0.68z"/>
    </g>
    <g>
     <path class="fil1" d="M6.92 19.58c0.38,-0.5 1.92,-0.59 2.57,-0.46 0.13,0.03 0.26,0.06 0.38,0.11 0.26,0.09 0.26,0.13 0.33,0.23 -1.21,0.19 -2.01,0.25 -3.28,0.12zm3.38 -1.57c0.05,0.16 0.11,0.28 0.1,0.49 -0.02,0.31 -0.16,0.21 0.06,0.36 -0.26,-0.04 -0.47,-0.15 -0.75,-0.21 -1.45,-0.31 -2.35,0.11 -3.45,0.53 0.07,0.22 0.19,0.38 0.31,0.52 0.06,0 0.18,-0.04 0.32,-0.05l1.12 0.09c0.87,0 2.12,-0.26 2.46,-0.19 0.09,-0.17 0.13,-0.21 0.23,-0.39 0.35,-0.6 -0.04,-1.01 -0.4,-1.15z"/>
     <path class="fil1" d="M8.81 17.7c0.25,0.55 0.12,0.14 0.22,0.67l0.03 0.11c0.17,0.06 0.5,0.1 0.64,0.05 0.21,-0.63 -0.22,-0.86 -0.89,-0.83z"/>
     <path class="fil1" d="M8.01 17.95c0.16,0.12 0.14,0.18 0.19,0.36l0.05 0.15 0.68 -0.02c0.02,-0.38 -0.01,-0.51 -0.25,-0.76l-0.75 0.09 0.08 0.18z"/>
     <path class="fil1" d="M8.01 17.95c-0.29,-0.17 -0.55,-0.06 -0.82,0.19 0.01,0.01 0.02,0.03 0.03,0.03l0.21 0.3c0.01,0 0.03,0.13 0.06,0.07 0,-0.01 0.01,0.03 0.02,0.04 0.7,-0.09 0.74,0.01 0.5,-0.63z"/>
     <path class="fil1" d="M9.61 17.78c0.18,0.33 0.23,0.37 0.16,0.86 0.25,0.04 0.28,0.1 0.51,0.11 0.04,-0.16 0.07,-0.16 0.07,-0.3 0,-0.52 -0.31,-0.59 -0.74,-0.67z"/>
     <path class="fil1" d="M6.68 18.57c0.15,0.14 0.13,0.21 0.37,0.17 0.2,-0.04 0.29,-0.13 0.34,-0.17 -0.09,-0.27 -0.06,-0.22 -0.29,-0.36 -0.2,0.08 -0.27,0.14 -0.42,0.36z"/>
     <path class="fil1" d="M6.28 19.08c0.21,-0.07 0.44,-0.18 0.55,-0.32l-0.24 -0.1c-0.15,0.12 -0.23,0.22 -0.31,0.42z"/>
    </g>
    <g>
     <path class="fil1" d="M7.22 14.54c0.05,0.06 0.02,0.01 0.02,0.1 -0.1,0.06 -0.07,0.06 -0.18,0 -0.01,-0.13 -0.02,-0.09 0.06,-0.16 0.06,0.01 0.01,-0.08 0.1,0.06zm-0.62 0c0.04,0.07 0.02,0.02 0.02,0.1 -0.1,0.06 -0.1,0.06 -0.19,-0.03 0,-0.1 0.01,-0.07 0.06,-0.13 0.08,0.02 0.02,-0.08 0.11,0.06zm-0.62 0c0.04,0.08 0.01,0 0.02,0.1 -0.08,0.04 -0.11,0.05 -0.19,-0.03 0,-0.1 0.02,-0.09 0.1,-0.14 0,0.01 0.01,0.01 0.02,0.02l0.05 0.05zm-0.02 -0.19c-0.12,0.04 -0.24,0.08 -0.23,0.23 0.03,0.31 0.18,-0.14 0.14,0.54 -0.12,0.01 -0.41,-0.03 -0.49,0.05 -0.05,0.06 -0.04,0.52 0.01,0.56 0.26,0.11 0.36,-0.2 0.58,-0.11 0.1,0.04 0.16,0.13 0.26,0.16 0.19,0.05 0.16,-0.05 0.3,-0.05 0.13,0.01 0.12,0.12 0.32,0.04 0.09,-0.04 0.15,-0.13 0.26,-0.16 0.18,-0.05 0.56,0.39 0.6,-0.03 0.01,-0.1 0.02,-0.37 -0.07,-0.42 0,0 -0.01,-0.01 -0.02,-0.01 -0.01,0 -0.02,-0.01 -0.03,-0.01 -0.12,-0.04 -0.24,0.01 -0.37,-0.04 -0.12,-0.29 0.08,-0.4 0.12,-0.49 -0.05,-0.16 -0.08,-0.06 -0.15,-0.27 -0.16,0.08 -0.23,0.08 -0.21,0.32 0.16,0.13 0.17,-0.02 0.14,0.46 -0.17,0.01 -0.4,0.03 -0.54,-0.02l-0.01 -0.28c0.06,-0.18 0.16,-0.06 0.14,-0.23 -0.02,-0.14 -0.08,-0.03 -0.13,-0.25 -0.48,0.21 -0.08,0.39 -0.07,0.48l-0.02 0.3c-0.16,0.01 -0.39,0.03 -0.53,-0.02 -0.02,-0.54 0.02,-0.23 0.14,-0.49 -0.06,-0.15 -0.09,-0.06 -0.14,-0.26z"/>
     <path class="fil1" d="M5.35 15.79c-0.01,0.45 -0.06,0.58 0.17,0.6 0.2,0.02 0.52,0 0.73,0 1.65,0 1.47,0.14 1.46,-0.6 -0.39,0.09 -0.4,-0.17 -0.6,-0.11 -0.11,0.03 -0.14,0.11 -0.26,0.16 -0.19,0.06 -0.19,-0.04 -0.32,-0.04 -0.14,0 -0.14,0.1 -0.32,0.04 -0.11,-0.04 -0.15,-0.13 -0.26,-0.16 -0.2,-0.06 -0.23,0.2 -0.6,0.11z"/>
    </g>
    <g>
     <path class="fil1" d="M16.52 5.38c-0.34,-0.67 -0.52,-0.09 -0.59,-1.56 -1.15,-0.31 -2.36,1.13 -2.55,1.82 -0.4,-0.01 -0.63,-0.26 -0.98,-0.25l0.43 1.11c0.22,-0.21 0.31,-0.53 0.49,-0.8 0.23,0.02 0.15,0.04 0.4,0.13 1.12,0.43 1.91,0.15 2.8,-0.45z"/>
     <path class="fil1" d="M16.54 4.2c-0.13,0.19 -0.11,0.18 -0.28,0.05 -0.03,-0.21 0.13,-0.26 0.28,-0.05zm0.08 1.07c0.31,-0.25 0.72,-0.83 0.74,-1.16 -0.41,-0.17 -0.79,-0.34 -1.31,-0.32 -0.12,0.53 0.05,1.19 0.57,1.48z"/>
    </g>
    <g>
     <path class="fil1" d="M18.07 16.18c-0.1,0.05 -0.14,0.03 -0.26,0.03 -0.04,0 -0.11,0 -0.15,0l-0.06 0.07c0.01,0.01 0.02,0.01 0.03,0.01l0.52 0.01c0.1,0 0.2,0 0.3,0.01 0.03,0 0.13,0 0.15,0l0.15 -0.05c-0.16,-0.11 -0.36,0 -0.52,-0.08 0.04,-0.09 -0.06,-0.05 0.14,-0.07 0.64,-0.05 0.8,0.1 0.73,-0.96 -0.45,0.1 -1.52,0.15 -1.95,0 -0.2,1.04 0.29,0.95 0.74,0.96 0.18,0.01 0.13,-0.03 0.18,0.07z"/>
     <path class="fil1" d="M18.53 14.53c-0.13,-0.08 -0.23,-0.23 -0.49,-0.19 -0.08,0.01 -0.17,0.05 -0.23,0.12 -0.08,0.08 -0.06,0.01 -0.05,0.14 0.02,0.13 0.07,-0.07 0.02,0.03 -0.36,-0.17 -0.59,0.13 -0.6,0.47l0.48 0.09 0.82 0.01c0.04,-0.19 -0.01,-0.12 -0.01,-0.27l0.07 0.28c0.13,-0.05 0.37,-0.06 0.52,-0.1 -0.03,-0.34 -0.21,-0.35 -0.4,-0.45 -0.01,0 -0.02,-0.01 -0.02,-0.02 0.05,-0.09 0.24,-0.28 0.15,-0.37 -0.09,-0.08 -0.17,0.1 -0.26,0.26z"/>
    </g>
    <g>
     <path class="fil1" d="M16.8 11.54l-0.43 0.15c-0.06,0.8 1.39,0.1 1.69,-0.02 0.29,-0.12 0.59,-0.23 0.87,-0.35 0.35,-0.14 0.58,-0.19 0.56,-0.66 -0.21,0.01 -2.1,0.82 -2.69,0.88z"/>
     <path class="fil1" d="M16.76 11.41c-0.13,0.11 -0.26,0.09 -0.41,-0.03 -0.18,-0.13 -0.13,-0.21 -0.43,-0.11 -0.16,0.51 0.6,0.3 0.88,0.27 0.88,-0.52 2.91,-0.63 2.73,-1.52 -0.33,-0.07 -0.39,0.14 -0.6,0.26 -0.31,0.17 -1.64,0.49 -1.96,0.74 0.27,-0.01 0.17,-0.03 0.37,0.07l0.21 0.04c0.09,0.01 0.02,-0.02 0.08,0.01 -0.41,0.15 -0.22,-0.18 -0.63,-0.06 -0.17,0.15 0.01,0.22 -0.24,0.33z"/>
     <path class="fil1" d="M16.26 11.17c0.18,0.03 2.11,-0.76 2.49,-0.9 0.37,-0.13 0.28,-0.08 0.31,-0.21 -0.41,-0.18 -1.22,0.2 -1.57,0.35 -0.23,0.1 -0.46,0.2 -0.69,0.3 -0.22,0.1 -0.6,0.2 -0.54,0.46z"/>
     <path class="fil1" d="M16.76 11.41c0.08,-0.11 0.12,-0.26 0.19,-0.39l-0.68 0.27c0.19,0.1 0.18,0.15 0.49,0.12z"/>
    </g>
   </g>
  </g>
  <polygon class="fil2" points="0,0 20.57,0 20.57,20.57 0,20.57 "/>
 </g>
</svg>
