<?xml version="1.0" encoding="UTF-8"?>
<!DOCTYPE svg PUBLIC "-//W3C//DTD SVG 1.1//EN" "http://www.w3.org/Graphics/SVG/1.1/DTD/svg11.dtd">
<!-- Creator: CorelDRAW 2021.5 -->
<svg xmlns="http://www.w3.org/2000/svg" xml:space="preserve" width="200px" height="200px" version="1.1" style="shape-rendering:geometricPrecision; text-rendering:geometricPrecision; image-rendering:optimizeQuality; fill-rule:evenodd; clip-rule:evenodd"
viewBox="0 0 26.25 26.25"
 xmlns:xlink="http://www.w3.org/1999/xlink"
 xmlns:xodm="http://www.corel.com/coreldraw/odm/2003">
 <defs>
  <style type="text/css">
   <![CDATA[
    .fil2 {fill:none}
    .fil1 {fill:#FEFEFE;fill-opacity:0.501961}
    .fil0 {fill:#E67E22}
   ]]>
  </style>
   <clipPath id="id0">
    <path d="M0 0l26.25 0 0 26.25 -26.25 0 0 -26.25z"/>
   </clipPath>
   <clipPath id="id1">
    <path d="M0 0l26.25 0 0 26.25 -26.25 0 0 -26.25z"/>
   </clipPath>
 </defs>
 <g id="Camada_x0020_1">
  <metadata id="CorelCorpID_0Corel-Layer"/>
  <g style="clip-path:url(#id0)">
   <polygon class="fil0" points="0,0 26.25,0 26.25,26.25 0,26.25 "/>
  </g>
  <g style="clip-path:url(#id1)">
   <g id="_1951942669472">
    <g>
     <path id="_1" class="fil1" d="M8.14 3.85c0.02,-0.28 0.08,-0.53 0.09,-0.82 0.01,-0.28 -0.01,-0.57 0,-0.85l1.03 0c0.04,0.26 0.01,0.6 0.02,0.87 0.01,0.26 0.08,0.56 0.08,0.79 -0.42,0.07 -0.8,0.05 -1.22,0.01zm1.31 -0.48c-0.01,-0.26 -0.06,-0.62 -0.01,-0.89l0.18 0c0.05,0.16 0.07,0.33 0.08,0.51 0.01,0.26 -0.03,0.31 -0.25,0.38zm0.04 0.25c0.27,-0.26 0.44,-0.1 0.4,-0.69 0,-0.14 -0.02,-0.36 -0.07,-0.49 -0.07,-0.19 -0.16,-0.16 -0.39,-0.16l-0.02 -0.24c-0.24,-0.02 -1.11,-0.04 -1.31,0.01 -0.06,0.26 -0.01,0.71 -0.03,1 -0.04,0.89 -0.43,1.03 0.87,0.99 0.75,-0.03 0.57,-0.15 0.55,-0.42z"/>
     <path class="fil1" d="M8.45 3.66c-0.09,-0.11 0.01,-0.49 0,-0.84 0,-0.17 0.03,-0.15 -0.07,-0.19 -0.09,0.05 -0.03,-0.04 -0.06,0.1 0,0.02 0,0.13 0,0.16 0.01,0.34 -0.04,0.57 -0.07,0.89 0.36,0.03 0.64,0.02 0.99,0.01l-0.07 -1.16 -0.63 0c-0.01,0.27 0.03,0.83 -0.09,1.03z"/>
     <path class="fil1" d="M8.15 1.92c0.13,-0.07 0.01,-0.28 0.19,-0.37 0.17,-0.02 0.17,0.02 0.29,0 0.37,-0.03 0.06,0.05 0.41,0.09 0.35,0.03 0.13,0.17 0.3,0.27 0.16,-0.08 -0.01,-0.32 -0.13,-0.37l-0.5 -0.12c-0.2,0 -0.51,-0.05 -0.6,0.25 -0.03,0.11 -0.04,0.19 0.04,0.25z"/>
    </g>
    <g>
     <path class="fil1" d="M24.22 23c0,0.43 -0.06,0.27 -0.17,0.49 -0.09,0.16 -0.06,1.55 -0.03,1.7 0.15,0.03 0.56,0.03 0.7,-0.01l0.02 -0.43 -0.32 -0.01 0 -0.9 0.31 0c0.05,-0.57 -0.21,-0.25 -0.21,-0.84 0,-0.26 0.08,-0.18 -0.03,-0.41 -0.42,-0.03 -0.27,0.12 -0.27,0.41z"/>
     <path class="fil1" d="M23.17 24.05c0.11,-0.04 0.28,-0.02 0.41,-0.01l0.03 0.14 -0.48 0 0.04 -0.13zm0.14 0.63l0 0.29c-0.14,0.04 -0.25,0.07 -0.26,0.19 0.09,0.07 0.54,0.06 0.65,0.02 0.03,-0.14 -0.14,-0.16 -0.26,-0.22l0 -0.28c0.12,-0.1 0.26,-0.13 0.31,-0.29 0.05,-0.16 -0.01,-0.38 -0.1,-0.49l-0.57 0c-0.18,0.45 -0.12,0.55 0.17,0.74 0.04,0.02 0.03,0.02 0.06,0.04z"/>
    </g>
    <g>
     <path class="fil1" d="M13.26 15.46l0.13 0.36 -0.49 0 -0.05 -0.23 0.41 -0.13zm-0.56 0.03c-0.04,0.34 0.22,0.78 0.47,0.98 0.05,0.04 0.13,0.08 0.17,0.12 0.06,0.07 0.15,0.35 0.15,0.45 -0.07,0.09 -0.24,0.22 -0.21,0.33 0.1,0.04 0.73,-0.15 0.77,-0.3 -0.09,-0.08 -0.25,-0.08 -0.4,-0.1 -0.03,-0.11 -0.12,-0.28 -0.14,-0.38 -0.02,-0.11 0.07,-0.28 0.08,-0.44 0,-0.28 -0.12,-0.67 -0.26,-0.85 -0.18,-0.01 -0.46,0.13 -0.63,0.19z"/>
     <path class="fil1" d="M12.01 15.45l0.41 0.14 -0.06 0.23 -0.49 -0.01 0.14 -0.36zm-0.39 1.52l-0.32 0.05c-0.08,0.03 -0.03,0 -0.09,0.05 0.04,0.14 0.32,0.2 0.56,0.28 0,0 0.09,0.03 0.09,0.03 0.02,0 0.08,0.04 0.12,-0.02 0.07,-0.16 -0.24,-0.2 -0.2,-0.4 0.06,-0.3 0.14,-0.37 0.29,-0.46 0.19,-0.12 0.54,-0.62 0.5,-1.01 -0.17,-0.05 -0.44,-0.2 -0.62,-0.2 -0.13,0.15 -0.26,0.55 -0.27,0.79 -0.01,0.22 0.07,0.33 0.07,0.46 0,0.1 -0.1,0.33 -0.13,0.43z"/>
     <path class="fil1" d="M12.13 14.91c-0.02,0.18 0.24,0.39 0.32,0.32 0.08,-0.08 -0.05,-0.16 -0.1,-0.21 -0.08,-0.08 -0.08,-0.14 -0.22,-0.11z"/>
     <path class="fil1" d="M12.61 15.21c0.12,0.02 0.1,-0.05 0.1,-0.18 0.01,-0.17 0.04,-0.23 -0.11,-0.26 -0.05,0.08 -0.06,0.22 -0.04,0.33 0.02,0.12 0.01,0.06 0.05,0.11z"/>
     <path class="fil1" d="M12.83 15.23c0.11,0.04 0.33,-0.19 0.31,-0.3 -0.07,-0.04 -0.07,-0.04 -0.12,-0.01 0,0 -0.22,0.17 -0.22,0.24 0,0.08 0.01,0.04 0.03,0.07z"/>
    </g>
    <path class="fil1" d="M23.05 2.09c-0.05,-0.47 -0.17,0.04 -0.11,-0.79 0.18,-0.02 0.83,-0.03 0.97,0.02 0.02,0.14 0.06,0.31 0.01,0.45 -0.05,0.15 -0.09,0.11 -0.11,0.37 -0.03,0.27 -0.04,0.59 -0.08,0.85l-0.59 0c-0.06,-0.26 -0.06,-0.63 -0.09,-0.9zm-0.05 1.04l0.86 0c0.07,-0.34 0.03,-0.82 0.11,-1.12 0.06,-0.22 0.15,-0.11 0.11,-0.48 -0.04,-0.45 0.12,-0.38 -0.92,-0.38 -0.33,0 -0.34,-0.07 -0.37,0.25 -0.05,0.44 -0.04,0.32 0.07,0.55 0.09,0.17 0.08,0.93 0.14,1.18z"/>
    <path class="fil1" d="M23.32 1.85c0,0 -0.02,0 -0.02,0.01l-0.16 0.05 0.1 0.95 0.37 0.01 0.1 -0.99 -0.23 0c-0.02,-0.1 -0.04,-0.18 -0.07,-0.29 -0.04,-0.18 -0.01,-0.19 -0.18,-0.19l0.09 0.45z"/>
    <path class="fil1" d="M23.64 1.04c0.12,-0.04 0.06,-0.06 0.13,-0.19 0.04,-0.07 0.11,-0.14 0.18,-0.18 0.19,-0.09 0.42,-0.03 0.53,0.08 0.21,0.19 0.17,0.58 -0.09,0.72 -0.16,0.08 -0.18,-0.01 -0.19,0.15 0.27,0.12 0.76,-0.45 0.4,-0.92 -0.39,-0.49 -1.16,0.07 -0.96,0.34z"/>
    <path class="fil1" d="M22.71 0.59l-0.01 0.06c0.09,0.12 0.22,0.05 0.32,0.15 0.14,0.13 -0.05,0.24 0.24,0.24 -0.09,-0.5 -0.47,-0.5 -0.55,-0.45z"/>
    <path class="fil1" d="M24.29 1.17c-0.14,-0.03 -0.03,-0.02 -0.07,0.03 0.03,0.11 0.03,0.15 0.1,0.22 0.1,-0.04 0.05,0.01 0.12,-0.09 -0.03,-0.05 -0.01,-0.03 -0.07,-0.08 0,-0.01 -0.01,-0.01 -0.01,-0.02l-0.07 -0.06z"/>
    <path class="fil1" d="M24.22 1.01c0.1,-0.04 0.18,-0.1 0.22,-0.2 -0.05,-0.04 -0.04,-0.04 -0.12,-0.07 -0.08,0.08 -0.09,0.14 -0.1,0.27z"/>
    <path class="fil1" d="M23.93 0.91l0.18 0.09 -0.07 -0.27c-0.12,0.04 -0.08,0.03 -0.16,0.09 0.03,0.03 0.04,0.06 0.05,0.09z"/>
    <path class="fil1" d="M24.15 0.98c0.05,-0.05 0.1,-0.13 0.09,-0.21 0,-0.06 0,-0.02 -0.02,-0.06l-0.12 -0.01c-0.03,0.11 0.01,0.19 0.05,0.28z"/>
    <path class="fil1" d="M24.27 1.06l0.27 -0.01 -0.05 -0.16c-0.06,0.01 -0.11,0.02 -0.17,0.09 -0.05,0.06 0,-0.01 -0.05,0.08z"/>
    <path class="fil1" d="M24.29 1.17c0.09,0.04 0.1,0.06 0.19,0.09l0.07 -0.15 -0.29 -0.02c0.02,0.04 0.01,0.05 0.03,0.08z"/>
    <path class="fil1" d="M23.93 0.91c-0.13,-0.03 -0.12,-0.02 -0.14,0.13l0.26 0 -0.12 -0.13z"/>
    <g>
     <path class="fil1" d="M2.13 12.47c-0.02,-0.22 -0.04,-1.51 0.02,-1.67l0.76 0c0.04,0.17 0.04,1.46 0.01,1.67l-0.79 0zm-0.12 0.09c0.09,0.09 0.94,0.09 1.03,0 0.1,-0.12 0.04,-0.96 0.04,-1.19 0,-0.74 0.16,-0.72 -0.55,-0.72 -0.71,0 -0.56,-0.04 -0.56,0.69 0,0.24 -0.06,1.09 0.04,1.22z"/>
     <path class="fil1" d="M2.58 11.35c-0.07,-0.48 -0.1,-0.42 -0.24,-0.42 0.01,0.08 0.2,1.06 0.06,1.27 -0.14,-0.14 0.05,-0.78 -0.1,-0.85 -0.1,0.05 -0.06,0.85 -0.05,0.99l0.55 -0.01 0 -0.98 -0.22 0z"/>
     <path class="fil1" d="M2.66 10.53c0.12,-0.04 0.07,-0.07 0.13,-0.19 0.15,-0.24 0.51,-0.3 0.72,-0.08 0.11,0.12 0.18,0.32 0.08,0.52 -0.13,0.28 -0.34,0.17 -0.39,0.33 0.04,0.03 0,0.02 0.07,0.03 0.08,0 0.16,-0.04 0.24,-0.09 0.29,-0.19 0.32,-0.62 0.1,-0.86 -0.4,-0.43 -0.97,-0.02 -0.98,0.24 -0.01,0.17 -0.02,0.03 0.03,0.1z"/>
     <path class="fil1" d="M1.81 10.07c0,0.13 -0.07,0.07 0.11,0.12 0.52,0.16 0.05,0.33 0.45,0.34 -0.05,-0.29 -0.14,-0.47 -0.43,-0.49 -0.21,-0.02 -0.07,-0.02 -0.13,0.03z"/>
     <path class="fil1" d="M3.34 10.69c-0.05,-0.03 -0.06,-0.02 -0.11,-0.04 0.02,0.13 0.04,0.19 0.11,0.27 0.11,-0.05 0.07,-0.02 0.12,-0.1l-0.12 -0.13z"/>
     <path class="fil1" d="M3.34 10.69c0.09,0.05 0.07,0.06 0.19,0.07l0.03 -0.16 -0.29 -0.01c0.03,0.06 0.03,0.05 0.07,0.1z"/>
     <path class="fil1" d="M3.23 10.51c0.09,-0.04 0.06,-0.02 0.14,-0.08 0.07,-0.05 0.04,-0.02 0.09,-0.1l-0.11 -0.1c-0.08,0.08 -0.1,0.16 -0.12,0.28z"/>
     <path class="fil1" d="M3.27 10.56l0.29 0 -0.03 -0.16c-0.14,0.01 -0.2,0.07 -0.26,0.16z"/>
     <path class="fil1" d="M3.15 10.48c0.09,-0.08 0.01,0.09 0.09,-0.12 0.02,-0.06 0.02,-0.09 0.03,-0.15l-0.17 -0.02 0.05 0.29z"/>
     <path class="fil1" d="M2.98 10.43c0.09,0.04 0.06,0.03 0.15,0.07l-0.08 -0.27 -0.13 0.12c0.01,0 0.01,0.02 0.01,0.02 0.01,0.01 0.01,0.02 0.02,0.02l0.03 0.04z"/>
     <path class="fil1" d="M2.98 10.43c-0.13,-0.05 -0.12,-0.09 -0.17,0.06l0.13 0.04c0.06,0.01 0.08,0.01 0.15,0.02l-0.11 -0.12z"/>
    </g>
    <g>
     <path class="fil1" d="M22.54 9.96c-0.11,-0.03 -0.36,-0.22 -0.44,-0.3 0.04,-0.08 0.15,-0.25 0.22,-0.31 0.15,0.08 0.3,0.2 0.42,0.29l-0.2 0.32zm0.19 -0.76c-0.04,-0.09 -0.04,-0.19 0.05,-0.24 0.15,-0.09 0.17,0.04 0.16,0.17 -0.07,0.06 -0.1,0.09 -0.21,0.07zm-0.85 0.62c0.05,0.08 0.48,0.38 0.58,0.4 0.14,-0.14 0.5,-0.67 0.56,-0.88 0.21,-0.75 0.29,-0.62 0.36,-0.76 0.08,-0.18 -0.18,-0.36 -0.31,-0.15 -0.02,0.03 -0.02,0.06 -0.06,0.12 -0.24,0.35 -0.49,0.3 -0.83,0.81 -0.07,0.11 -0.27,0.35 -0.3,0.46z"/>
     <path class="fil1" d="M23.69 7.73c0.01,0.1 0.02,0.1 0.08,0.16l0.25 -0.14c0,-0.1 0.01,-0.08 -0.06,-0.16 -0.09,0 -0.19,0.07 -0.27,0.14z"/>
     <path class="fil1" d="M23.4 8.33c0.09,-0.02 0.17,-0.08 0.23,-0.13 0.08,-0.05 0.17,-0.09 0.19,-0.18 -0.09,0.02 -0.14,0.08 -0.22,0.13 -0.05,0.03 -0.07,0.04 -0.11,0.07 -0.09,0.07 -0.06,0.03 -0.09,0.11z"/>
     <path class="fil1" d="M23.45 8.4c0.11,-0.01 0.1,-0.02 0.19,-0.06 0.12,-0.05 0.11,-0.02 0.13,-0.1 -0.11,0.02 -0.27,0.06 -0.32,0.16z"/>
     <path class="fil1" d="M23.52 7.94c0.03,0.05 0,0.12 0.11,0.03 -0.01,-0.04 0.02,-0.04 -0.03,-0.05 -0.13,-0.04 -0.05,0 -0.08,0.02z"/>
     <path class="fil1" d="M23.28 7.79c0.11,0.04 0.06,0.01 0.1,-0.01 -0.04,-0.15 -0.11,-0.07 -0.1,0.01z"/>
     <path class="fil1" d="M24.02 8.11c0.04,-0.02 0.06,0.04 0.05,-0.06 0,-0.07 -0.02,-0.03 -0.05,-0.05 -0.02,0.02 -0.08,0.03 0,0.11z"/>
    </g>
    <g>
     <path class="fil1" d="M8.04 15.12l1 -0.01c-0.04,0.12 -0.41,0.7 -0.49,0.8l-0.51 -0.79zm0.57 1.4c0,-0.5 -0.03,-0.39 0.19,-0.74 0.13,-0.2 0.23,-0.37 0.35,-0.55 0.24,-0.36 -0.04,-0.26 -0.41,-0.26 -0.25,0 -0.65,-0.02 -0.89,0.01 -0.02,0.14 0.1,0.28 0.17,0.38 0.39,0.61 0.45,0.54 0.45,1.16 -0.12,0.04 -0.43,0.12 -0.42,0.29 0.16,0.05 0.89,0.06 1,-0.02 -0.03,-0.14 -0.3,-0.23 -0.44,-0.27z"/>
     <path class="fil1" d="M8.22 14.85c-0.07,-0.21 -0.06,-0.13 0.12,-0.27 0.1,-0.07 0.19,-0.12 0.22,-0.25 -0.12,-0.07 -0.62,-0.12 -0.78,-0.1 -0.06,0.13 -0.31,0.63 -0.27,0.72 0.09,0.03 0.25,-0.04 0.35,-0.08 0.28,-0.13 0.08,-0.02 0.36,-0.02z"/>
     <path class="fil1" d="M8.86 14.85c0.2,-0.01 0.1,-0.16 0.33,-0.25 0.5,-0.2 0.71,0.58 0.24,0.69 -0.18,0.04 -0.16,-0.04 -0.23,0.09 0.04,0.03 0.06,0.04 0.15,0.04 0.06,0 0.12,-0.02 0.16,-0.04 0.1,-0.04 0.16,-0.09 0.21,-0.16 0.43,-0.67 -0.75,-1.09 -0.86,-0.37z"/>
     <path class="fil1" d="M8.56 15.77c0.06,-0.1 0.26,-0.37 0.26,-0.47l-0.56 0c0.01,0.1 0.23,0.41 0.3,0.47z"/>
     <path class="fil1" d="M9.42 15.01l0.18 0.09 0.02 -0.15 -0.17 -0.01c-0.05,0.04 -0.05,-0.06 -0.03,0.07z"/>
     <path class="fil1" d="M9.42 15.01c0,0 -0.12,-0.03 0.03,0.21l0.09 -0.06c-0.03,-0.11 -0.05,-0.09 -0.12,-0.15z"/>
     <path class="fil1" d="M9.44 14.85c0.05,-0.05 0.06,-0.04 0.11,-0.11 -0.05,-0.05 -0.02,-0.04 -0.12,-0.07l-0.05 0.15c0.04,0.05 -0.07,0.06 0.06,0.03z"/>
     <path class="fil1" d="M9.4 14.63l-0.11 0c-0.05,0.06 -0.04,0.01 0.01,0.21 0.09,-0.07 0.08,-0.04 0.1,-0.21z"/>
     <path class="fil1" d="M9.28 14.86c-0.02,-0.12 -0.01,-0.11 -0.08,-0.2l-0.09 0.07c0.02,0.05 -0.04,0.05 0.17,0.13z"/>
     <path class="fil1" d="M9.44 14.85c-0.01,0.02 -0.03,0.06 -0.03,0.07l0.22 0 -0.02 -0.09c-0.08,-0.05 -0.03,-0.04 -0.17,0.02z"/>
     <path class="fil1" d="M9.29 15.25c0.11,-0.01 0.06,0.03 0.1,-0.04 0.04,-0.09 -0.05,-0.09 -0.05,-0.09l-0.05 0.13z"/>
    </g>
    <g>
     <path class="fil1" d="M14.96 20.91c-0.06,0.08 -0.15,0.14 -0.2,0.23 0.03,0.06 0.05,0.07 0.11,0.11 0.03,0.02 0.06,0.05 0.1,0.08 0.08,0.05 0.15,0.09 0.25,0.14 1.36,0.6 2.86,-1 1.8,-2.4 -0.04,-0.06 -0.04,-0.07 -0.09,-0.1 -0.1,0.05 -0.14,0.14 -0.23,0.22l0.03 0.01c0.13,0.08 0.19,0.17 0.27,0.35 0.03,0.08 0.06,0.16 0.07,0.25 0.04,0.19 -0.02,0.18 -0.02,0.25 0,0.02 0.13,0.27 -0.17,0.71 -0.1,0.14 -0.08,0.07 -0.17,0.14 -0.05,0.04 -0.06,0.27 -0.6,0.39 -0.2,0.04 -0.19,-0.02 -0.27,-0.02 -0.09,0 -0.08,0.06 -0.28,0.02 -0.5,-0.11 -0.53,-0.31 -0.6,-0.38z"/>
     <path class="fil1" d="M16.72 20.79c0.12,-0.12 0.31,-0.45 0.25,-0.66 -0.12,-0.04 -0.56,-0.02 -0.72,-0.02 -0.39,0 0.04,0.32 0.25,0.53 0.07,0.07 0.1,0.14 0.22,0.15z"/>
     <path class="fil1" d="M15.76 21.16c0.06,-0.09 0.04,-0.73 0,-0.84 -0.14,-0.03 -0.24,0.12 -0.32,0.2 -0.1,0.1 -0.19,0.19 -0.29,0.29 -0.21,0.22 0.44,0.38 0.51,0.39 0.08,0 0.06,0 0.1,-0.04z"/>
     <path class="fil1" d="M16.1 19.98c0.11,0.03 0.76,0.04 0.85,-0.01 0.1,-0.07 -0.13,-0.8 -0.34,-0.61 -0.1,0.08 -0.2,0.19 -0.29,0.29 -0.06,0.05 -0.1,0.09 -0.15,0.14 -0.06,0.06 -0.1,0.08 -0.07,0.19z"/>
     <path class="fil1" d="M15.89 20.46l0 0.58c0,0.22 0.15,0.18 0.4,0.08 0.45,-0.19 0.28,-0.25 -0.09,-0.63 -0.06,-0.06 -0.31,-0.37 -0.31,-0.03z"/>
     <path class="fil1" d="M15.71 20.19c0.04,0.02 0.09,0.05 0.13,0.07 0.04,-0.02 0.09,-0.04 0.14,-0.07 0.09,-0.22 0.05,-0.08 0.01,-0.27 -0.08,0.03 -0.25,0.19 -0.28,0.27z"/>
    </g>
    <g>
     <path class="fil1" d="M5.85 11.02c0.04,0.09 0.12,0.05 0.31,0.06 0.08,0.08 0.12,0.16 0.21,0.24 0.08,0.07 0.17,0.13 0.27,0.18 -0.04,0.09 -0.41,0.46 -0.42,0.52 -0.02,0.11 -0.01,-0.09 0,0.03 0,0 0,0.01 0,0.01 0.02,0.12 0.26,-0.19 0.28,-0.21 0.08,-0.11 0.15,-0.19 0.25,-0.29 0.13,0 0.24,0.05 0.41,0.05 0.17,0 0.28,-0.05 0.41,-0.05l0.37 0.43c0.04,0.05 0.08,0.11 0.15,0.09 0.06,-0.06 -0.1,-0.19 -0.18,-0.29 -0.08,-0.09 -0.15,-0.18 -0.24,-0.27 0.06,-0.08 0.19,-0.13 0.27,-0.19 0.28,-0.24 0.02,-0.24 0.41,-0.25 0.11,0 0.11,0 0.12,-0.08 -0.07,-0.04 -0.07,-0.02 -0.16,-0.02 -0.06,-0.01 -0.04,0 -0.09,-0.02l-0.03 -0.02c0,0 0,0 -0.01,-0.01 -0.35,0.2 -0.77,0.24 -1.23,0.21 -0.3,-0.01 -0.53,-0.05 -0.78,-0.19 -0.08,-0.04 -0.06,0 -0.07,0 -0.14,0.07 -0.2,-0.03 -0.25,0.07z"/>
     <path class="fil1" d="M6.88 10.34c0.31,-0.02 0.82,-0.02 1.07,0.12 0.45,0.25 -0.22,0.43 -0.49,0.45 -0.97,0.08 -1.54,-0.23 -1.08,-0.46 0.14,-0.06 0.33,-0.09 0.5,-0.11zm0.07 -0.13c-0.22,0.02 -0.45,0.05 -0.64,0.14 -0.59,0.25 -0.16,0.78 1.07,0.69 0.21,-0.01 0.45,-0.05 0.63,-0.13 0.64,-0.29 0.02,-0.79 -1.06,-0.7z"/>
     <path class="fil1" d="M7.16 10.05c0.19,-0.05 0.02,-0.41 0.02,-0.41 -0.01,-0.09 0.02,-0.07 -0.01,-0.17 -0.12,0 -0.12,0.17 -0.07,0.27 0.09,0.18 -0.03,0.22 0.06,0.31z"/>
     <path class="fil1" d="M7.5 10.04c0.13,0.02 0.1,-0.23 0.1,-0.26 -0.02,-0.06 -0.05,-0.07 -0.07,-0.14 -0.01,-0.1 0.04,-0.09 0,-0.17 -0.12,0.01 -0.13,0.16 -0.08,0.26 0.02,0.05 0.05,0.06 0.05,0.14 0,0.09 -0.05,0.08 0,0.17z"/>
     <path class="fil1" d="M6.81 9.47c-0.19,-0.05 -0.03,0.34 -0.03,0.4 0,0.07 -0.04,0.12 0.01,0.17 0.09,0.09 0.1,-0.19 0.09,-0.24 -0.03,-0.13 -0.05,-0.03 -0.06,-0.24 0,0 0.02,-0.03 -0.01,-0.09z"/>
     <polygon class="fil1" points="7.09,10.83 7.23,10.83 7.23,10.43 7.09,10.43 "/>
     <path class="fil1" d="M6.85 10.81l0.14 0.01 0 -0.38 -0.13 0c-0.03,0.1 -0.01,0.27 -0.01,0.37z"/>
     <path class="fil1" d="M7.33 10.81l0.13 0.01c0.01,-0.11 0.03,-0.29 -0.01,-0.38l-0.12 0 0 0.37z"/>
     <path class="fil1" d="M7.57 10.8l0.14 -0.03c0,-0.06 0.01,-0.17 0,-0.22 -0.01,-0.09 -0.03,-0.08 -0.14,-0.09l0 0.34z"/>
     <path class="fil1" d="M6.61 10.57l0 0.13 0 0.07 0.13 0.03 0.01 -0.08 0 -0.17 0 -0.09c-0.13,0.02 -0.14,0 -0.14,0.11z"/>
     <path class="fil1" d="M7.81 10.73c0.09,-0.02 0.14,-0.03 0.17,-0.1 -0.03,-0.07 -0.07,-0.08 -0.17,-0.11l0 0.21z"/>
     <path class="fil1" d="M6.34 10.63c0.03,0.07 0.08,0.08 0.17,0.11l0 -0.22c-0.09,0.03 -0.14,0.04 -0.17,0.11z"/>
    </g>
    <path class="fil1" d="M3.19 5.86c0.03,-0.06 0.22,-0.04 0.22,0.12 -0.09,0.03 -0.27,-0.01 -0.22,-0.12zm0.79 0.09c-0.1,0.04 -0.23,0.01 -0.24,-0.12 0.02,-0.02 0.23,-0.06 0.24,0.12zm-1.53 -0.16c0,-0.12 0.11,-0.13 0.23,-0.11 0.02,0.11 0.02,0.11 -0.08,0.13 -0.09,0.02 -0.09,0.02 -0.15,-0.02zm0.71 -0.24c-0.06,0.04 -0.2,0.09 -0.2,-0.07 0.08,-0.06 0.12,-0.04 0.21,-0.01l-0.01 0.08zm0.94 0.02c-0.05,0.01 -0.29,-0.01 -0.25,-0.14 0.02,-0.02 -0.01,-0.05 0.1,-0.03 0.09,0.01 0.16,0.07 0.15,0.17zm-1.12 -0.35c-0.27,0.04 -0.51,0.11 -0.7,0.25 -0.14,0.09 -0.42,0.38 -0.2,0.62 0.34,0.36 2,0.33 2.42,0.08 0.56,-0.34 -0.3,-1.17 -1.52,-0.95z"/>
    <path class="fil1" d="M4.87 7.58c-0.36,0.08 -0.46,0.28 -1.29,0.28 -0.57,-0.01 -0.87,-0.11 -1.32,-0.28 -0.39,0.21 -0.02,0.46 0.26,0.56 0.63,0.23 2.01,0.22 2.42,-0.19 0.16,-0.15 0.04,-0.26 -0.07,-0.37z"/>
    <path class="fil1" d="M1.98 7.33c0.25,-0.03 0.18,-0.11 0.33,-0.2 0.1,-0.01 0.09,0.02 0.18,0 0.08,-0.02 0.04,-0.04 0.16,-0.05 0.09,0.05 0.09,0.09 0.18,0.12 0.08,-0.03 0.15,-0.1 0.21,-0.11 0.14,-0.04 0.1,0.05 0.28,0.01 0.24,-0.05 0.31,-0.04 0.55,0.01 0.52,0.1 0.21,0.05 0.55,0.04 0.15,0 0.47,0.08 0.58,0.04 0.17,-0.15 -0.03,-0.4 -0.08,-0.51 -0.13,0.05 -0.17,0.17 -0.58,0.24 -0.45,0.07 -1.13,0.07 -1.57,0 -0.34,-0.05 -0.37,-0.13 -0.59,-0.25 -0.18,0.13 -0.03,0.16 -0.19,0.35 -0.13,0.15 -0.13,0.16 -0.01,0.31z"/>
    <path class="fil1" d="M2.63 7.23c-0.18,0.08 -0.09,0.06 -0.3,0.02 -0.03,0.08 -0.04,0.06 -0.07,0.13 0.32,0.3 0.96,0.36 1.49,0.34 -0.09,-0.11 -0.36,-0.3 -0.5,-0.41 -0.16,-0.11 -0.14,-0.1 -0.29,-0.02 -0.18,0.11 -0.24,0.03 -0.33,-0.06z"/>
    <path class="fil1" d="M4.05 7.3l-0.22 0.4c0.33,0.03 0.92,-0.15 1.03,-0.34 -0.11,-0.08 -0.64,-0.05 -0.81,-0.06z"/>
    <path class="fil1" d="M3.75 7.53c0,0 0.01,-0.01 0.01,-0.01 0,0 0.01,-0.01 0.01,-0.01 0.01,-0.01 0.01,-0.01 0.02,-0.02l0.04 -0.08c0.03,-0.06 0.05,-0.09 0.06,-0.15 -0.08,-0.01 -0.51,-0.11 -0.49,-0.01 0,0.02 0.31,0.26 0.35,0.28z"/>
    <path class="fil1" d="M4.07 5.91c-0.05,0.13 0.2,0.15 0.24,0.14 0.01,-0.1 -0.05,-0.15 -0.14,-0.17 -0.11,-0.01 -0.08,0.02 -0.1,0.03z"/>
    <path class="fil1" d="M3.96 6.32c0.01,0.12 0.14,0.15 0.23,0.11 0,-0.18 -0.21,-0.14 -0.23,-0.11z"/>
    <path class="fil1" d="M3.62 6.46c0,-0.15 -0.18,-0.17 -0.21,-0.11 -0.06,0.1 0.12,0.14 0.21,0.11z"/>
    <path class="fil1" d="M3.18 5.96c0,0.16 0.14,0.11 0.2,0.08l0 -0.09c-0.08,-0.02 -0.12,-0.04 -0.2,0.01z"/>
    <g>
     <path class="fil1" d="M17.16 12.94c-0.08,0.05 -0.17,0.02 -0.18,-0.07 0.02,-0.03 0.07,-0.03 0.12,-0.02 0.05,0.03 0.05,0.04 0.06,0.09zm0.19 -0.39c0.2,-0.14 0.34,0.16 0.18,0.26 -0.07,0.05 -0.18,0.04 -0.23,-0.03 -0.06,-0.1 -0.02,-0.18 0.05,-0.23zm-0.73 0.09c0.08,-0.01 0.11,0.02 0.09,0.11 -0.08,0 -0.11,-0.03 -0.09,-0.11zm0.17 -0.21c0.09,-0.01 0.13,0.04 0.1,0.12 -0.08,0.03 -0.14,-0.02 -0.1,-0.12zm1.11 0.09c-0.05,-0.08 0,-0.14 0.09,-0.11 0.02,0.07 -0.01,0.14 -0.09,0.11zm-0.21 -0.1c-0.04,0.03 -0.13,-0.03 -0.09,-0.08 0.02,-0.02 0.04,-0.06 0.09,-0.01 0.03,0.04 0.03,0.06 0,0.09zm-0.46 -0.02c-0.08,0 -0.15,-0.01 -0.15,-0.09 -0.01,-0.09 -0.01,-0.01 0.01,-0.04 0.08,-0.03 0.14,0.04 0.14,0.13zm-0.7 -0.19c0.1,-0.02 0.15,0.02 0.16,0.11l-0.03 0c-0.05,0.06 -0.13,-0.03 -0.13,-0.11zm1.48 -0.03c-0.02,0.04 -0.14,0.06 -0.15,-0.05 0.03,-0.04 0.2,-0.04 0.15,0.05zm-1.23 -0.29c0.21,-0.11 0.32,0.2 0.15,0.28 -0.1,0.04 -0.18,-0.01 -0.21,-0.07 -0.06,-0.1 0,-0.17 0.06,-0.21zm0.02 -0.19l0 0.07c-0.08,0.04 -0.13,0.01 -0.12,-0.08 0.08,-0.03 0.05,-0.03 0.12,0.01zm0.41 0.11c-0.06,0.03 -0.13,-0.07 -0.09,-0.15 0.12,-0.01 0.15,0.12 0.09,0.15zm-0.35 -0.32c0.02,-0.04 0.02,-0.04 0.07,-0.06 0.02,0 0.04,0 0.06,0 0.05,0 0.11,0.07 -0.02,0.11 -0.08,0.02 -0.08,0.01 -0.11,-0.05zm0.39 -0.12c0.03,-0.04 0.16,-0.06 0.14,0.08 -0.07,0.03 -0.16,-0.02 -0.14,-0.08zm0.96 0.61l-0.93 0.17 0.33 -0.89c-0.51,-0.14 -0.89,0.01 -1.11,0.33 -0.27,0.37 -0.23,0.83 0.03,1.16 0.57,0.7 1.8,0.29 1.68,-0.77z"/>
     <path class="fil1" d="M18.48 11.94l-0.17 0.01c0.03,0.52 -0.08,0.89 -0.58,1.15 -0.47,0.26 -1.04,0.03 -1.28,-0.27 -0.47,-0.61 -0.21,-1.44 0.46,-1.67 0.39,-0.14 0.5,-0.03 0.75,-0.01l0.05 -0.15c-0.32,-0.07 -0.5,-0.12 -0.84,-0.01 -0.85,0.29 -1.05,1.35 -0.55,1.93 0.8,0.93 2.3,0.34 2.16,-0.98z"/>
     <path class="fil1" d="M17.96 11.3c0.23,-0.1 0.36,0.26 0.13,0.34 -0.22,0.08 -0.37,-0.24 -0.13,-0.34zm-0.42 0.58l0.87 -0.16c-0.05,-0.32 -0.3,-0.57 -0.55,-0.66l-0.32 0.82z"/>
     <path class="fil1" d="M17.9 10.94c0.15,0.1 0.23,0.09 0.4,0.3 0.11,0.13 0.18,0.25 0.22,0.45l0.21 -0.03c-0.07,-0.41 -0.41,-0.82 -0.76,-0.91l-0.07 0.19z"/>
    </g>
    <g>
     <path class="fil1" d="M3.17 21.43c1.07,-0.26 1.46,1.37 0.39,1.63 -1.07,0.27 -1.5,-1.36 -0.39,-1.63zm-0.1 -0.46c-0.38,0.11 -0.61,0.27 -0.79,0.52 -0.18,0.28 -0.29,0.67 -0.2,1.06 0.16,0.61 0.78,1.16 1.58,0.97 0.61,-0.16 1.16,-0.78 0.97,-1.58 -0.14,-0.59 -0.79,-1.17 -1.56,-0.97z"/>
     <path class="fil1" d="M3.2 21.59c-0.91,0.24 -0.51,1.53 0.33,1.31 0.86,-0.23 0.52,-1.53 -0.33,-1.31z"/>
     <path class="fil1" d="M4.63 21.18l0 0.32c0,0.72 0.86,0.71 0.86,0 0,-0.51 0.05,-0.51 -0.13,-0.52 -0.1,0.31 0.11,0.74 -0.21,0.86 -0.02,-0.26 0.04,-0.65 -0.03,-0.86 -0.12,0.01 -0.11,-0.01 -0.14,0.1 0,0.03 0,0.22 0,0.26 0,0.16 0.01,0.34 -0.01,0.5 -0.35,-0.15 -0.03,-0.59 -0.22,-0.86 -0.13,0.02 -0.12,0.04 -0.12,0.2z"/>
     <path class="fil1" d="M1.35 22.64l0.39 0 0 -1.58c-0.4,0.09 -0.39,1.23 -0.39,1.58z"/>
     <path class="fil1" d="M5.16 22.19l-0.19 0.01c-0.02,0.21 -0.02,0.44 -0.03,0.66 -0.01,0.18 -0.1,0.59 0.13,0.57 0.2,-0.01 0.13,-0.37 0.12,-0.57 -0.01,-0.22 -0.01,-0.45 -0.03,-0.67z"/>
     <path class="fil1" d="M1.48 23.16c0.01,0.12 0.01,0.34 0.21,0.26 0.14,-0.06 0.07,-0.28 0.08,-0.4 -0.09,-0.2 0.02,-0.21 -0.24,-0.2 -0.01,0.13 -0.01,0.25 -0.05,0.34z"/>
     <path class="fil1" d="M1.48 23.16c0.04,-0.09 0.04,-0.21 0.05,-0.34 0.26,-0.01 0.15,0 0.24,0.2l-0.01 -0.21c-0.12,-0.04 -0.15,-0.04 -0.26,0l-0.02 0.35z"/>
    </g>
    <path class="fil1" d="M7.18 7.36c-0.08,-0.2 -0.14,-0.33 -0.09,-0.44 0.01,-0.04 0.05,-0.09 0.05,-0.09 0.1,-0.19 -0.04,-0.19 0.03,-0.34 0.04,-0.08 0.12,-0.06 0.21,-0.23 0.19,-0.39 0.05,-0.01 0.28,-0.38 0.01,-0.01 0.02,-0.02 0.02,-0.03 0.18,-0.28 0.16,0.11 0.36,-0.29 0.57,-0.01 0.12,0.05 0.53,-0.15 0.15,-0.03 0.14,0.12 0.37,0.05 0.36,-0.11 0.18,0 0.39,0.02 0.21,0.03 0.1,-0.06 0.38,0.07 0.19,0.09 0.23,0.05 0.37,0.19 -1,-0.09 -1.76,-0.11 -2.45,0.87 -0.23,0.31 -0.18,0.33 -0.28,0.57 -0.1,0.26 -0.01,0.14 -0.17,0.18zm0.82 -1.84c-0.14,0.27 0.03,0.1 -0.23,0.19 -0.31,0.12 0,0.01 -0.34,0.32 0,0.01 -0.02,0.02 -0.02,0.03 -0.13,0.13 0,0.1 -0.16,0.27 -0.28,0.3 -0.08,0.14 -0.18,0.48 -0.07,0.22 -0.1,0.08 -0.03,0.36 0.06,0.24 0.16,0.45 0.28,0.63 0.26,0.37 0.96,0.06 1.38,-0.07 0.49,-0.14 0.94,-0.27 1.42,-0.43 1.68,-0.55 0.15,-1.49 -0.73,-1.39 -0.84,0.09 -1.61,0.56 -1.85,1.33 -0.02,0.06 -0.03,0.12 -0.04,0.19l-0.07 0.17c-0.17,-0.4 0.46,-1.21 0.98,-1.48 0.95,-0.49 1.44,-0.27 2.1,-0.03 -0.23,-0.51 -1.18,-0.76 -1.46,-0.73 -0.25,0.02 0,0.08 -0.34,0.01 -0.22,-0.04 -0.16,-0.01 -0.3,0.07 -0.19,0.11 -0.16,0.05 -0.41,0.08z"/>
    <g>
     <path class="fil1" d="M13.19 11.21c-0.18,0.08 -0.13,0.02 -0.51,0.02l-1.04 0c-0.15,0.01 -0.14,-0.01 -0.27,0 -0.17,0.02 -0.06,0.05 -0.27,0 0.04,0.23 0.25,0.8 0.34,0.99 0.3,0.06 1.08,0.06 1.39,0.01l0.36 -1.02z"/>
     <path class="fil1" d="M11.61 11.13c0.53,0 1.69,-0.74 1.32,-0.94 -0.14,-0.08 -0.65,0.27 -0.83,0.34 -0.29,0.12 -0.65,0.13 -0.87,0.28 -0.03,0.34 0.03,0.32 0.38,0.32z"/>
     <path class="fil1" d="M12.68 10.05c-0.08,-0.3 -0.1,-0.03 -0.38,-0.41 -0.11,0.09 -0.11,0.13 -0.25,0.21 -0.09,0.05 -0.22,0.08 -0.33,0.14 -0.11,0.06 -0.45,0.38 -0.25,0.58 0.19,0.2 1.12,-0.41 1.21,-0.52z"/>
     <path class="fil1" d="M12.21 11.08c0.23,0.01 0.47,0.01 0.66,-0.07 0.13,-0.05 0.42,-0.24 0.24,-0.41 -0.12,-0.12 -0.32,0.13 -0.44,0.2 -0.16,0.1 -0.34,0.16 -0.46,0.28z"/>
    </g>
    <g>
     <path class="fil1" d="M2.88 17.35c0.86,0 1.26,-0.42 1.23,-1.29l-2.47 0c-0.01,0.87 0.39,1.29 1.24,1.29z"/>
     <path class="fil1" d="M1.53 17.43c0.11,0.11 0.13,0.08 0.3,0.09 0.33,0.01 -0.02,0.07 1.02,0.07 1.09,0 0.72,-0.05 1.05,-0.07 0.13,-0.01 0.24,-0.02 0.33,-0.05 -0.18,-0.12 -2.62,-0.05 -2.7,-0.04z"/>
     <path class="fil1" d="M2.73 15.5c-0.76,0 -0.74,0.37 -0.31,0.37 0.19,0 0.35,-0.04 0.52,-0.06 0.1,-0.02 0.17,-0.03 0.26,0.01 0.14,0.07 0.04,0.1 0.17,0.1 0,-0.01 0.07,0.04 0.01,-0.11 -0.12,-0.3 -0.79,0.03 -1.06,-0.09 0.03,-0.36 1.12,0.26 1.37,-0.75 -0.22,0.4 -0.38,0.53 -0.96,0.53z"/>
     <path class="fil1" d="M4.03 16.87c0.66,-0.3 0.49,-0.67 0.15,-0.73 0,0.24 -0.02,0.1 0.15,0.22 -0.02,0.34 -0.27,0.21 -0.3,0.51z"/>
    </g>
    <path class="fil1" d="M2.41 3.25c0.19,-0.1 0.3,0.18 0.13,0.27 -0.16,0.08 -0.32,-0.17 -0.13,-0.27zm0.34 0.02c-0.12,-0.37 0.36,-0.37 0.25,0 -0.1,0.03 -0.15,0.03 -0.25,0zm-0.98 -0.28c0.2,-0.1 0.31,0.18 0.14,0.27 -0.16,0.08 -0.33,-0.16 -0.14,-0.27zm1.43 -0.03c-0.29,0.04 -0.27,-0.2 -0.16,-0.26 0.16,-0.1 0.32,0.06 0.16,0.26zm-0.78 -0.12c-0.02,-0.24 0.12,-0.27 0.27,-0.15 0.05,0.25 -0.11,0.31 -0.27,0.15zm-0.28 0c-0.33,0.02 -0.33,-0.31 0,-0.29l0.07 0.16 -0.07 0.13zm-0.52 -0.51c0.17,-0.14 0.31,0.12 0.19,0.22 -0.15,0.13 -0.37,-0.08 -0.19,-0.22zm0.41 -0.17c-0.16,-0.15 -0.09,-0.31 0.15,-0.27 0.12,0.15 0.09,0.3 -0.15,0.27zm1.24 -0.02c-0.25,0.09 -0.08,0.07 -0.15,0.3 -0.14,0.06 -0.17,0.06 -0.28,-0.06l-0.42 0.23c0.02,-0.34 -0.02,-0.12 -0.04,-0.29 -0.01,-0.14 0.08,-0.12 0.16,-0.21 -0.03,-0.13 -0.21,-0.2 -0.01,-0.33 0.13,-0.09 0.04,0.05 0.11,-0.09 0,-0.01 0.07,-0.11 -0.31,-0.08 -1,0.09 -1.23,1.31 -0.59,1.81 0.37,0.29 0.94,0.32 1.31,0 0.29,-0.25 0.56,-0.9 0.22,-1.28z"/>
    <path class="fil1" d="M3.47 2.01l-0.13 0.07c0.05,0.28 0.19,0.38 0.1,0.77 -0.17,0.77 -1.09,1.1 -1.69,0.62 -0.83,-0.66 -0.33,-1.96 0.73,-1.9 0.03,0 0.09,0.01 0.11,0.01l0.07 -0.16c-0.19,-0.07 0.14,0.03 -0.05,-0.02 -0.12,-0.03 -0.27,-0.03 -0.37,-0.01 -0.16,0.02 -0.3,0.06 -0.42,0.13 -0.22,0.11 -0.42,0.32 -0.54,0.54 -0.32,0.62 -0.04,1.28 0.37,1.58 0.5,0.36 1.14,0.31 1.58,-0.07 0.18,-0.16 0.34,-0.39 0.4,-0.7 0.03,-0.17 0.03,-0.31 0,-0.48l-0.09 -0.29c-0.04,-0.07 0.01,0.01 -0.03,-0.04 -0.02,-0.03 -0.02,-0.03 -0.04,-0.05z"/>
    <path class="fil1" d="M2.85 1.81l-0.18 0.11c0.04,0.19 0,-0.01 0.09,0.13 0.06,0.09 0.04,0.1 0.01,0.2 -0.19,0.08 -0.2,-0.04 -0.23,0.19 0.53,-0.19 0.38,-0.34 0.5,-0.41 0.21,-0.06 0.12,0.1 0.34,-0.08 -0.07,-0.2 -0.36,-0.44 -0.62,-0.46 0.02,0.26 0.12,0.04 0.09,0.32z"/>
    <path class="fil1" d="M2.8 1.41l0.07 0.05c0.05,0.02 0.08,0.03 0.11,0.05 0.07,0.03 0.12,0.06 0.18,0.11 0.06,0.04 0.1,0.08 0.15,0.13 0.05,0.06 0.08,0.12 0.16,0.16l0.12 -0.06c-0.06,-0.25 -0.44,-0.51 -0.75,-0.59l-0.04 0.15z"/>
    <g>
     <path class="fil1" d="M18.43 23.02l0.96 -0.46c0.13,-0.08 0.06,0 0.1,-0.12l-1.12 -0.04 0.06 0.62z"/>
     <polygon class="fil1" points="18.48,23.41 18.49,23.69 19.41,23.25 19.43,22.94 "/>
     <path class="fil1" d="M18.56 24.18l0.74 0.04 0.05 -0.54c-0.14,0.05 -0.3,0.14 -0.43,0.2 -0.38,0.19 -0.36,0.14 -0.36,0.3z"/>
     <path class="fil1" d="M18.31 22.36l1.24 0c-0.07,-0.14 -0.02,-0.13 -0.21,-0.14 -0.12,-0.01 -0.28,0 -0.41,0 -0.12,0 -0.25,-0.01 -0.37,0 -0.2,0 -0.18,-0.01 -0.25,0.14z"/>
     <path class="fil1" d="M18.98 22.18c0.22,0.01 0.17,-0.03 0.25,-0.22 0.05,-0.11 0.14,-0.25 0.12,-0.35 -0.15,-0.05 -0.13,0.05 -0.22,0.22 -0.05,0.11 -0.11,0.23 -0.15,0.35z"/>
    </g>
    <g>
     <path class="fil1" d="M17.44 1.7c-0.33,0.23 -1.38,0.05 -1.56,0.04l0.12 -0.03c0.02,-0.01 0.09,0.16 0.05,-0.26 -0.02,-0.16 0.06,-0.11 -0.16,-0.1 0,0.01 -0.01,0.01 -0.01,0.03l-0.03 0.09c-0.13,0.42 -0.06,0.37 0.05,0.98 0.07,0.38 0.14,0.79 0.21,1.17 0.31,0.09 0.8,0.12 1.13,-0.01 0.1,-0.18 0.29,-1.55 0.32,-1.86 -0.06,-0.06 0.07,-0.04 -0.12,-0.05z"/>
     <path class="fil1" d="M16.88 1.46l-0.01 0.32 0.38 -0.05 -0.01 -0.5c-0.01,-0.01 -0.02,-0.02 -0.03,-0.02l-0.04 -0.04c-0.13,0.03 -0.11,0.15 -0.11,0.28 -0.01,-0.17 0.02,-0.31 -0.1,-0.38 -0.12,0.08 -0.08,0.23 -0.08,0.39z"/>
     <path class="fil1" d="M16.37 1.23l-0.04 0.56c0.29,-0.01 0.12,-0.01 0.26,-0.14 -0.03,-0.22 0,-0.34 0.01,-0.53l-0.23 -0.01 0 0.12z"/>
     <path class="fil1" d="M16.6 1.68c0.05,0.13 -0.07,0.1 0.16,0.1 0.08,-0.14 0.06,-0.45 0.05,-0.64l-0.17 0.02 -0.04 0.52z"/>
     <path class="fil1" d="M16.07 1.44c0.13,0.13 -0.02,0.22 0.14,0.31 0.08,-0.06 0.03,0.06 0.06,-0.09l0.01 -0.51 -0.18 0.01 -0.03 0.28z"/>
     <path class="fil1" d="M17.44 1.7l0.12 -0.03c-0.01,0 -0.02,-0.02 -0.02,-0.02 -0.04,0.09 -0.06,-0.3 -0.06,-0.3l-0.11 -0.04 -0.05 0.39 0.12 0z"/>
    </g>
    <g>
     <path class="fil1" d="M11.51 4.25l1.53 0.02c0.42,0 0.14,-0.33 0.14,-0.35 -0.02,-0.05 0.04,-0.36 -0.33,-0.52 -0.42,-0.17 -0.83,-0.16 -1.15,0.16 -0.18,0.17 -0.08,0.08 -0.14,0.33 -0.04,0.18 -0.14,0.08 -0.05,0.36z"/>
     <path class="fil1" d="M12.49 5.62c0.27,-0.21 0.13,-0.43 0.03,-0.63 -0.12,-0.24 -0.18,-0.42 -0.31,-0.65l-0.3 0 0.58 1.28z"/>
     <path class="fil1" d="M12.38 5.92c0.11,-0.21 -0.09,-0.5 -0.27,-0.87 -0.26,-0.53 -0.21,-0.72 -0.52,-0.71 0.02,0.13 0.7,1.47 0.79,1.58z"/>
     <path class="fil1" d="M12.73 5.17c0.01,-0.01 0.02,-0.03 0.02,-0.02 0,0 0.01,-0.02 0.02,-0.03 0,0 0.01,-0.01 0.01,-0.02l0.07 -0.12c0.05,-0.09 0.08,-0.14 0.07,-0.23 -0.01,-0.09 -0.16,-0.36 -0.2,-0.41l-0.36 0c0.01,0.14 0.28,0.7 0.37,0.83z"/>
     <path class="fil1" d="M13.01 4.65l0.15 -0.3 -0.29 -0.01c0.03,0.14 0.07,0.21 0.14,0.31z"/>
    </g>
    <g>
     <path class="fil1" d="M17.65 17.07c-0.23,-0.02 -0.17,-0.12 -0.13,-0.24 0.2,-0.1 0.18,-0.07 0.38,0 -0.03,0.17 -0.05,0.26 -0.25,0.24zm1.72 -0.7c0.13,-0.11 0.48,0.01 0.53,0.19 0.07,0.26 -0.02,0.17 -0.03,0.19 -0.31,0.13 -0.76,-0.14 -0.5,-0.38zm-2.87 0.23l0 0.92c0.59,0.05 1.37,0.19 1.96,0.2 0.36,0.01 0.35,-0.37 0.77,-0.06 0.22,0.17 0.02,0.18 0.94,0.21l0 -1.69 -3.67 0.42z"/>
     <path class="fil1" d="M16.68 16.43l3.02 -0.38c0,-0.01 -0.02,-0.07 -0.03,-0.08 -0.04,-0.24 -0.08,-0.07 0.01,-0.23 0.26,0.07 0.08,0.12 0.18,0.28 0.19,-0.01 0.15,0.02 0.27,-0.07 -0.15,-0.2 -0.61,-0.63 -0.81,-0.7 -0.37,0.24 -0.03,0.21 -0.63,0.32 -0.25,0.04 -1.81,0.71 -2.01,0.86z"/>
    </g>
    <g>
     <path class="fil1" d="M8.83 24.99c0.48,-0.65 2.46,-0.77 3.28,-0.6 0.17,0.04 0.33,0.08 0.49,0.14 0.33,0.13 0.32,0.18 0.41,0.31 -1.54,0.23 -2.56,0.31 -4.18,0.15zm4.31 -2.01c0.07,0.2 0.14,0.35 0.13,0.63 -0.02,0.39 -0.21,0.27 0.07,0.46 -0.32,-0.06 -0.59,-0.2 -0.95,-0.28 -1.85,-0.4 -3,0.15 -4.4,0.68 0.08,0.28 0.24,0.49 0.39,0.67 0.08,0 0.24,-0.06 0.41,-0.06l1.43 0.1c1.1,0 2.71,-0.32 3.13,-0.23 0.12,-0.23 0.17,-0.28 0.3,-0.5 0.45,-0.77 -0.05,-1.3 -0.51,-1.47z"/>
     <path class="fil1" d="M11.25 22.59c0.31,0.69 0.14,0.17 0.27,0.85l0.03 0.13c0.23,0.08 0.65,0.14 0.82,0.08 0.28,-0.81 -0.28,-1.11 -1.12,-1.06z"/>
     <path class="fil1" d="M10.22 22.9c0.2,0.15 0.18,0.23 0.25,0.46l0.06 0.19 0.86 -0.02c0.03,-0.49 -0.01,-0.66 -0.31,-0.97l-0.96 0.12 0.1 0.22z"/>
     <path class="fil1" d="M10.22 22.9c-0.37,-0.21 -0.71,-0.07 -1.05,0.24 0.01,0.02 0.03,0.04 0.04,0.05l0.27 0.37c0.01,0.01 0.04,0.17 0.07,0.1 0.01,-0.01 0.02,0.03 0.04,0.05 0.89,-0.12 0.94,0.01 0.63,-0.81z"/>
     <path class="fil1" d="M12.27 22.68c0.22,0.43 0.28,0.48 0.2,1.11 0.31,0.04 0.36,0.12 0.65,0.13 0.05,-0.19 0.09,-0.2 0.09,-0.39 0,-0.65 -0.4,-0.74 -0.94,-0.85z"/>
     <path class="fil1" d="M8.53 23.69c0.18,0.19 0.16,0.27 0.47,0.22 0.25,-0.05 0.37,-0.17 0.43,-0.22 -0.11,-0.35 -0.08,-0.28 -0.37,-0.46 -0.26,0.11 -0.35,0.19 -0.53,0.46z"/>
     <path class="fil1" d="M8.01 24.35c0.27,-0.1 0.56,-0.23 0.7,-0.42l-0.31 -0.12c-0.19,0.15 -0.28,0.28 -0.39,0.54z"/>
    </g>
    <g>
     <path class="fil1" d="M9.22 18.55c0.05,0.08 0.02,0.01 0.02,0.12 -0.13,0.08 -0.09,0.08 -0.23,0 -0.02,-0.16 -0.02,-0.11 0.07,-0.19 0.09,0.01 0.02,-0.1 0.14,0.07zm-0.8 0.01c0.06,0.08 0.02,0.02 0.03,0.11 -0.14,0.08 -0.13,0.09 -0.24,-0.02 0,-0.14 0,-0.1 0.08,-0.17 0.09,0.01 0.01,-0.1 0.13,0.08zm-0.79 0c0.05,0.09 0.01,-0.01 0.03,0.12 -0.11,0.05 -0.15,0.06 -0.25,-0.03 0.01,-0.13 0.03,-0.13 0.13,-0.19 0,0.01 0.02,0.02 0.02,0.03l0.07 0.07zm-0.03 -0.25c-0.15,0.05 -0.3,0.11 -0.29,0.29 0.03,0.4 0.24,-0.18 0.18,0.7 -0.15,0 -0.53,-0.05 -0.62,0.05 -0.08,0.08 -0.06,0.67 0,0.72 0.34,0.14 0.47,-0.25 0.75,-0.14 0.13,0.05 0.2,0.17 0.33,0.2 0.24,0.06 0.21,-0.06 0.38,-0.05 0.17,0 0.16,0.14 0.41,0.04 0.12,-0.05 0.2,-0.17 0.33,-0.2 0.23,-0.07 0.71,0.49 0.77,-0.04 0.01,-0.13 0.03,-0.48 -0.09,-0.53 0,-0.01 -0.02,-0.02 -0.03,-0.02 -0.01,0 -0.02,-0.01 -0.03,-0.02 -0.16,-0.05 -0.31,0.03 -0.48,-0.04 -0.15,-0.38 0.1,-0.52 0.16,-0.62 -0.07,-0.22 -0.11,-0.09 -0.2,-0.35 -0.2,0.09 -0.29,0.1 -0.27,0.4 0.21,0.17 0.22,-0.02 0.18,0.6 -0.21,0 -0.51,0.03 -0.69,-0.03l-0.01 -0.36c0.08,-0.23 0.2,-0.07 0.18,-0.3 -0.03,-0.17 -0.1,-0.03 -0.17,-0.31 -0.61,0.26 -0.1,0.5 -0.08,0.61l-0.03 0.39c-0.2,0 -0.5,0.03 -0.68,-0.03 -0.02,-0.69 0.03,-0.3 0.19,-0.62 -0.08,-0.2 -0.12,-0.09 -0.19,-0.34z"/>
     <path class="fil1" d="M6.83 20.15c-0.01,0.57 -0.08,0.74 0.22,0.76 0.25,0.02 0.65,0 0.93,0 2.11,0 1.87,0.19 1.85,-0.76 -0.49,0.12 -0.5,-0.23 -0.76,-0.15 -0.15,0.04 -0.17,0.15 -0.33,0.21 -0.24,0.08 -0.24,-0.05 -0.41,-0.05 -0.17,0 -0.18,0.13 -0.41,0.05 -0.14,-0.05 -0.19,-0.16 -0.33,-0.21 -0.25,-0.07 -0.3,0.26 -0.76,0.15z"/>
    </g>
    <g>
     <path class="fil1" d="M21.07 6.86c-0.43,-0.85 -0.65,-0.11 -0.74,-1.99 -1.47,-0.39 -3.02,1.45 -3.26,2.32 -0.51,-0.01 -0.81,-0.33 -1.24,-0.31l0.54 1.41c0.28,-0.26 0.4,-0.68 0.63,-1.02 0.29,0.02 0.19,0.05 0.51,0.17 1.42,0.55 2.43,0.2 3.56,-0.58z"/>
     <path class="fil1" d="M21.11 5.36c-0.18,0.24 -0.15,0.22 -0.36,0.06 -0.04,-0.26 0.16,-0.33 0.36,-0.06zm0.1 1.36c0.39,-0.32 0.91,-1.05 0.94,-1.48 -0.53,-0.22 -1.01,-0.43 -1.67,-0.41 -0.15,0.69 0.06,1.53 0.73,1.89z"/>
    </g>
    <g>
     <path class="fil1" d="M23.05 20.65c-0.12,0.06 -0.17,0.03 -0.32,0.03 -0.06,0 -0.14,0 -0.19,0.01l-0.08 0.09c0.01,0 0.02,0.01 0.04,0.01l0.66 0.01c0.13,0 0.25,0 0.38,0 0.04,0.01 0.16,0.01 0.19,0l0.19 -0.06c-0.2,-0.14 -0.45,0.01 -0.66,-0.09 0.05,-0.12 -0.07,-0.07 0.18,-0.09 0.82,-0.08 1.02,0.13 0.94,-1.23 -0.58,0.12 -1.95,0.19 -2.5,0 -0.26,1.33 0.38,1.21 0.95,1.23 0.23,0.01 0.16,-0.04 0.22,0.09z"/>
     <path class="fil1" d="M23.65 18.54c-0.17,-0.1 -0.3,-0.29 -0.63,-0.24 -0.11,0.01 -0.22,0.07 -0.3,0.15 -0.1,0.1 -0.08,0.02 -0.05,0.17 0.02,0.17 0.08,-0.08 0.01,0.05 -0.46,-0.22 -0.75,0.16 -0.76,0.59l0.61 0.13 1.04 0c0.05,-0.24 0,-0.14 -0.01,-0.35l0.1 0.36c0.16,-0.05 0.47,-0.07 0.66,-0.13 -0.05,-0.42 -0.27,-0.44 -0.51,-0.57 -0.01,0 -0.02,-0.01 -0.03,-0.02 0.07,-0.12 0.31,-0.35 0.19,-0.47 -0.11,-0.11 -0.21,0.13 -0.32,0.33z"/>
    </g>
    <g>
     <path class="fil1" d="M21.44 14.72l-0.56 0.2c-0.06,1.01 1.77,0.12 2.16,-0.04 0.37,-0.14 0.75,-0.29 1.12,-0.43 0.44,-0.18 0.74,-0.25 0.7,-0.85 -0.26,0.02 -2.68,1.04 -3.42,1.12z"/>
     <path class="fil1" d="M21.38 14.55c-0.16,0.15 -0.33,0.12 -0.52,-0.03 -0.23,-0.17 -0.16,-0.26 -0.54,-0.14 -0.22,0.65 0.76,0.39 1.12,0.34 1.12,-0.66 3.71,-0.79 3.48,-1.93 -0.42,-0.09 -0.5,0.17 -0.77,0.32 -0.4,0.22 -2.08,0.63 -2.5,0.95 0.34,-0.02 0.22,-0.03 0.48,0.09l0.26 0.05c0.11,0.01 0.03,-0.02 0.1,0.02 -0.52,0.18 -0.27,-0.24 -0.8,-0.08 -0.22,0.19 0.01,0.27 -0.31,0.41z"/>
     <path class="fil1" d="M20.75 14.25c0.23,0.04 2.69,-0.97 3.17,-1.14 0.48,-0.17 0.36,-0.11 0.39,-0.28 -0.52,-0.22 -1.55,0.26 -1.99,0.45 -0.3,0.13 -0.59,0.26 -0.89,0.38 -0.28,0.13 -0.76,0.26 -0.68,0.59z"/>
     <path class="fil1" d="M21.38 14.55c0.1,-0.13 0.16,-0.33 0.25,-0.5l-0.87 0.35c0.24,0.14 0.23,0.19 0.62,0.15z"/>
    </g>
   </g>
  </g>
  <polygon class="fil2" points="0,0 26.25,0 26.25,26.25 0,26.25 "/>
 </g>
</svg>
