<?xml version="1.0" encoding="UTF-8"?>
<!DOCTYPE svg PUBLIC "-//W3C//DTD SVG 1.1//EN" "http://www.w3.org/Graphics/SVG/1.1/DTD/svg11.dtd">
<!-- Creator: CorelDRAW 2021.5 -->
<svg xmlns="http://www.w3.org/2000/svg" xml:space="preserve" width="200px" height="200px" version="1.1" style="shape-rendering:geometricPrecision; text-rendering:geometricPrecision; image-rendering:optimizeQuality; fill-rule:evenodd; clip-rule:evenodd"
viewBox="0 0 20.62 20.62"
 xmlns:xlink="http://www.w3.org/1999/xlink"
 xmlns:xodm="http://www.corel.com/coreldraw/odm/2003">
 <defs>
  <style type="text/css">
   <![CDATA[
    .fil2 {fill:none}
    .fil0 {fill:#7D3C98;fill-opacity:0.149020}
    .fil1 {fill:#7D3C98;fill-opacity:0.301961}
   ]]>
  </style>
   <clipPath id="id0">
    <path d="M0 0l20.62 0 0 20.62 -20.62 0 0 -20.62z"/>
   </clipPath>
   <clipPath id="id1">
    <path d="M0 0l20.62 0 0 20.62 -20.62 0 0 -20.62z"/>
   </clipPath>
 </defs>
 <g id="Camada_x0020_1">
  <metadata id="CorelCorpID_0Corel-Layer"/>
  <g style="clip-path:url(#id0)">
   <polygon class="fil0" points="0,0 20.62,0 20.62,20.62 0,20.62 "/>
  </g>
  <g style="clip-path:url(#id1)">
   <g id="_2083237067600">
    <g>
     <path id="_1" class="fil1" d="M6.4 3.02c0.01,-0.21 0.05,-0.41 0.06,-0.64 0.01,-0.22 -0.01,-0.45 0.01,-0.67l0.81 0c0.02,0.21 0,0.47 0.01,0.69 0.01,0.2 0.06,0.44 0.06,0.62 -0.33,0.05 -0.63,0.04 -0.95,0zm1.02 -0.37c0,-0.21 -0.04,-0.49 0,-0.7l0.13 0c0.05,0.13 0.06,0.26 0.07,0.4 0,0.21 -0.03,0.24 -0.2,0.3zm0.04 0.19c0.21,-0.2 0.34,-0.08 0.31,-0.54 0,-0.11 -0.02,-0.28 -0.06,-0.38 -0.05,-0.15 -0.12,-0.13 -0.3,-0.13l-0.02 -0.19c-0.19,-0.02 -0.87,-0.03 -1.03,0.01 -0.04,0.2 -0.01,0.56 -0.02,0.79 -0.03,0.69 -0.34,0.8 0.68,0.77 0.59,-0.02 0.45,-0.12 0.44,-0.33z"/>
     <path class="fil1" d="M6.63 2.87c-0.06,-0.08 0.01,-0.38 0.01,-0.65 0,-0.14 0.02,-0.12 -0.06,-0.15 -0.07,0.03 -0.02,-0.04 -0.04,0.07 0,0.02 0,0.11 0,0.13 0,0.27 -0.04,0.45 -0.06,0.7 0.28,0.02 0.5,0.02 0.78,0l-0.05 -0.9 -0.51 0c0,0.21 0.03,0.65 -0.07,0.8z"/>
     <path class="fil1" d="M6.4 1.5c0.11,-0.05 0.01,-0.21 0.15,-0.28 0.13,-0.02 0.13,0.01 0.23,0 0.29,-0.02 0.04,0.04 0.32,0.07 0.27,0.02 0.1,0.13 0.23,0.21 0.13,-0.06 0,-0.25 -0.1,-0.29l-0.39 -0.09c-0.16,0 -0.4,-0.05 -0.47,0.19 -0.02,0.09 -0.03,0.15 0.03,0.19z"/>
    </g>
    <g>
     <path class="fil1" d="M19.02 18.07c0,0.33 -0.04,0.21 -0.13,0.38 -0.07,0.13 -0.05,1.22 -0.02,1.33 0.11,0.03 0.43,0.03 0.55,0l0.01 -0.34 -0.25 0 0 -0.72 0.24 0c0.05,-0.44 -0.16,-0.19 -0.16,-0.65 0,-0.21 0.06,-0.15 -0.02,-0.33 -0.33,-0.02 -0.22,0.1 -0.22,0.33z"/>
     <path class="fil1" d="M18.2 18.89c0.08,-0.03 0.22,-0.02 0.32,-0.01l0.03 0.11 -0.38 0 0.03 -0.1zm0.11 0.5l0 0.23c-0.11,0.02 -0.19,0.05 -0.21,0.14 0.08,0.05 0.43,0.05 0.51,0.01 0.03,-0.1 -0.1,-0.12 -0.2,-0.16l0 -0.22c0.09,-0.08 0.2,-0.11 0.24,-0.23 0.05,-0.13 0,-0.3 -0.07,-0.38l-0.45 -0.01c-0.14,0.35 -0.1,0.43 0.13,0.58 0.03,0.02 0.03,0.02 0.05,0.04z"/>
    </g>
    <g>
     <path class="fil1" d="M10.41 12.14l0.11 0.29 -0.39 -0.01 -0.03 -0.17 0.31 -0.11zm-0.44 0.03c-0.03,0.26 0.18,0.61 0.37,0.77 0.04,0.03 0.11,0.06 0.14,0.09 0.05,0.06 0.11,0.27 0.12,0.35 -0.06,0.07 -0.19,0.18 -0.17,0.26 0.08,0.04 0.58,-0.11 0.61,-0.23 -0.07,-0.07 -0.2,-0.07 -0.32,-0.08 -0.03,-0.09 -0.09,-0.22 -0.1,-0.3 -0.02,-0.09 0.05,-0.22 0.05,-0.35 0,-0.21 -0.09,-0.52 -0.2,-0.66 -0.14,-0.01 -0.36,0.1 -0.5,0.15z"/>
     <path class="fil1" d="M9.43 12.14l0.33 0.1 -0.05 0.18 -0.38 0 0.1 -0.28zm-0.31 1.19l-0.24 0.04c-0.07,0.02 -0.03,0 -0.07,0.04 0.03,0.11 0.25,0.15 0.43,0.22 0,0 0.08,0.02 0.08,0.02 0.01,0 0.05,0.03 0.09,-0.01 0.05,-0.13 -0.19,-0.16 -0.16,-0.32 0.05,-0.24 0.11,-0.29 0.23,-0.36 0.15,-0.09 0.42,-0.49 0.39,-0.79 -0.13,-0.04 -0.35,-0.16 -0.49,-0.16 -0.1,0.12 -0.2,0.43 -0.2,0.62 -0.01,0.18 0.05,0.26 0.05,0.36 0,0.08 -0.08,0.26 -0.11,0.34z"/>
     <path class="fil1" d="M9.52 11.71c-0.01,0.14 0.2,0.31 0.26,0.25 0.06,-0.06 -0.04,-0.13 -0.08,-0.16 -0.06,-0.07 -0.06,-0.11 -0.18,-0.09z"/>
     <path class="fil1" d="M9.9 11.94c0.1,0.02 0.08,-0.03 0.08,-0.13 0.01,-0.13 0.03,-0.19 -0.08,-0.21 -0.04,0.06 -0.05,0.17 -0.04,0.26 0.02,0.09 0.02,0.05 0.04,0.08z"/>
     <path class="fil1" d="M10.08 11.97c0.08,0.02 0.26,-0.16 0.24,-0.25 -0.06,-0.02 -0.05,-0.02 -0.09,0 0,0 -0.17,0.13 -0.17,0.19 0,0.06 0,0.03 0.02,0.06z"/>
    </g>
    <path class="fil1" d="M18.1 1.64c-0.04,-0.36 -0.13,0.03 -0.08,-0.62 0.14,-0.01 0.65,-0.02 0.76,0.01 0.01,0.12 0.05,0.25 0.01,0.36 -0.04,0.11 -0.07,0.09 -0.09,0.29 -0.02,0.21 -0.03,0.46 -0.07,0.67l-0.46 0c-0.04,-0.21 -0.04,-0.49 -0.07,-0.71zm-0.03 0.82l0.67 0c0.06,-0.27 0.03,-0.64 0.09,-0.88 0.05,-0.18 0.11,-0.09 0.09,-0.38 -0.04,-0.35 0.09,-0.3 -0.73,-0.3 -0.26,0 -0.27,-0.05 -0.29,0.2 -0.04,0.35 -0.03,0.25 0.06,0.43 0.06,0.14 0.06,0.73 0.11,0.93z"/>
    <path class="fil1" d="M18.32 1.45c-0.01,0 -0.02,0 -0.02,0.01l-0.12 0.04 0.07 0.75 0.3 0.01 0.07 -0.78 -0.18 0c-0.01,-0.08 -0.03,-0.15 -0.05,-0.23 -0.03,-0.14 -0.01,-0.15 -0.15,-0.15l0.08 0.35z"/>
    <path class="fil1" d="M18.57 0.82c0.09,-0.04 0.04,-0.05 0.1,-0.16 0.03,-0.05 0.09,-0.1 0.15,-0.13 0.14,-0.08 0.32,-0.03 0.41,0.06 0.17,0.15 0.13,0.46 -0.07,0.56 -0.13,0.07 -0.15,0 -0.15,0.12 0.21,0.1 0.6,-0.35 0.31,-0.72 -0.3,-0.38 -0.91,0.06 -0.75,0.27z"/>
    <path class="fil1" d="M17.84 0.46l-0.01 0.05c0.07,0.09 0.18,0.04 0.25,0.12 0.11,0.1 -0.04,0.18 0.19,0.19 -0.07,-0.4 -0.37,-0.4 -0.43,-0.36z"/>
    <path class="fil1" d="M19.08 0.92c-0.11,-0.02 -0.03,-0.02 -0.06,0.02 0.03,0.09 0.03,0.12 0.08,0.17 0.08,-0.03 0.04,0.01 0.09,-0.07 -0.02,-0.04 0,-0.02 -0.05,-0.06 0,0 -0.01,-0.01 -0.01,-0.01l-0.05 -0.05z"/>
    <path class="fil1" d="M19.02 0.79c0.08,-0.03 0.14,-0.07 0.18,-0.15 -0.04,-0.03 -0.04,-0.03 -0.1,-0.06 -0.06,0.06 -0.07,0.11 -0.08,0.21z"/>
    <path class="fil1" d="M18.8 0.71l0.13 0.08 -0.05 -0.21c-0.09,0.02 -0.06,0.02 -0.12,0.07 0.02,0.02 0.03,0.04 0.04,0.06z"/>
    <path class="fil1" d="M18.97 0.77c0.04,-0.04 0.07,-0.1 0.07,-0.16 0,-0.05 0,-0.02 -0.02,-0.05l-0.09 -0.01c-0.02,0.09 0.01,0.15 0.04,0.22z"/>
    <path class="fil1" d="M19.06 0.83l0.21 -0.01 -0.03 -0.12c-0.05,0.01 -0.09,0.02 -0.14,0.07 -0.04,0.05 0,-0.01 -0.04,0.06z"/>
    <path class="fil1" d="M19.08 0.92c0.07,0.03 0.08,0.05 0.15,0.07l0.05 -0.12 -0.23 -0.01c0.02,0.03 0.01,0.03 0.03,0.06z"/>
    <path class="fil1" d="M18.8 0.71c-0.1,-0.02 -0.1,-0.01 -0.11,0.11l0.2 0 -0.09 -0.11z"/>
    <g>
     <path class="fil1" d="M1.68 9.79c-0.03,-0.17 -0.04,-1.18 0.01,-1.3l0.59 -0.01c0.04,0.13 0.03,1.15 0.01,1.31l-0.61 0zm-0.1 0.08c0.07,0.06 0.74,0.07 0.8,0 0.09,-0.1 0.04,-0.76 0.04,-0.94 0,-0.58 0.13,-0.56 -0.44,-0.56 -0.55,0 -0.43,-0.04 -0.43,0.54 0,0.18 -0.05,0.85 0.03,0.96z"/>
     <path class="fil1" d="M2.03 8.91c-0.06,-0.38 -0.08,-0.33 -0.19,-0.33 0,0.07 0.16,0.84 0.04,1 -0.11,-0.11 0.04,-0.61 -0.07,-0.66 -0.08,0.03 -0.05,0.66 -0.04,0.77l0.43 0 0 -0.77 -0.17 -0.01z"/>
     <path class="fil1" d="M2.09 8.27c0.09,-0.03 0.05,-0.06 0.1,-0.15 0.12,-0.19 0.4,-0.23 0.56,-0.06 0.1,0.09 0.15,0.25 0.07,0.41 -0.1,0.22 -0.27,0.13 -0.31,0.26 0.04,0.02 0,0.01 0.06,0.02 0.06,0 0.13,-0.03 0.18,-0.07 0.23,-0.15 0.26,-0.48 0.08,-0.67 -0.31,-0.34 -0.76,-0.02 -0.76,0.19 -0.01,0.12 -0.02,0.02 0.02,0.07z"/>
     <path class="fil1" d="M1.42 7.91c0,0.11 -0.05,0.05 0.09,0.1 0.41,0.12 0.04,0.25 0.35,0.26 -0.04,-0.22 -0.11,-0.36 -0.34,-0.39 -0.16,-0.01 -0.05,-0.01 -0.1,0.03z"/>
     <path class="fil1" d="M2.62 8.4c-0.04,-0.02 -0.05,-0.02 -0.08,-0.04 0.01,0.1 0.02,0.16 0.08,0.22 0.09,-0.05 0.06,-0.02 0.1,-0.08l-0.1 -0.1z"/>
     <path class="fil1" d="M2.62 8.4c0.08,0.03 0.06,0.04 0.15,0.05l0.02 -0.12 -0.22 -0.02c0.02,0.05 0.02,0.05 0.05,0.09z"/>
     <path class="fil1" d="M2.54 8.25c0.06,-0.02 0.05,-0.01 0.11,-0.06 0.05,-0.04 0.03,-0.02 0.07,-0.08l-0.09 -0.08c-0.07,0.07 -0.08,0.13 -0.09,0.22z"/>
     <path class="fil1" d="M2.57 8.3l0.23 -0.01 -0.03 -0.12c-0.11,0.01 -0.15,0.05 -0.2,0.13z"/>
     <path class="fil1" d="M2.48 8.23c0.07,-0.06 0.01,0.07 0.07,-0.09 0.01,-0.05 0.01,-0.08 0.02,-0.12l-0.14 -0.01 0.05 0.22z"/>
     <path class="fil1" d="M2.34 8.19c0.07,0.04 0.05,0.03 0.12,0.06l-0.06 -0.21 -0.1 0.09c0,0 0,0.01 0,0.02 0.01,0 0.01,0.01 0.02,0.01l0.02 0.03z"/>
     <path class="fil1" d="M2.34 8.19c-0.1,-0.04 -0.09,-0.07 -0.14,0.05l0.11 0.03c0.05,0.01 0.07,0.01 0.12,0.02l-0.09 -0.1z"/>
    </g>
    <g>
     <path class="fil1" d="M17.7 7.82c-0.09,-0.02 -0.28,-0.17 -0.34,-0.23 0.03,-0.06 0.11,-0.2 0.17,-0.24 0.12,0.06 0.23,0.15 0.33,0.22l-0.16 0.25zm0.15 -0.59c-0.03,-0.07 -0.03,-0.15 0.04,-0.19 0.12,-0.07 0.14,0.03 0.13,0.13 -0.05,0.05 -0.08,0.07 -0.17,0.06zm-0.66 0.49c0.03,0.06 0.37,0.29 0.45,0.31 0.11,-0.11 0.39,-0.53 0.44,-0.7 0.17,-0.59 0.23,-0.48 0.28,-0.59 0.07,-0.14 -0.14,-0.28 -0.24,-0.12 -0.02,0.03 -0.01,0.05 -0.05,0.1 -0.18,0.27 -0.38,0.23 -0.65,0.63 -0.06,0.08 -0.21,0.28 -0.23,0.37z"/>
     <path class="fil1" d="M18.61 6.07c0.01,0.08 0.02,0.08 0.06,0.13l0.2 -0.11c0,-0.08 0,-0.07 -0.05,-0.13 -0.07,0 -0.15,0.06 -0.21,0.11z"/>
     <path class="fil1" d="M18.38 6.54c0.07,-0.01 0.13,-0.06 0.18,-0.1 0.06,-0.04 0.13,-0.07 0.15,-0.14 -0.07,0.02 -0.11,0.06 -0.17,0.1 -0.04,0.03 -0.06,0.04 -0.09,0.06 -0.07,0.05 -0.04,0.02 -0.07,0.08z"/>
     <path class="fil1" d="M18.42 6.6c0.08,-0.01 0.08,-0.02 0.15,-0.05 0.09,-0.04 0.08,-0.02 0.1,-0.08 -0.08,0.02 -0.21,0.05 -0.25,0.13z"/>
     <path class="fil1" d="M18.47 6.24c0.02,0.04 0.01,0.09 0.09,0.02 -0.01,-0.03 0.02,-0.03 -0.02,-0.04 -0.11,-0.03 -0.04,0 -0.07,0.02z"/>
     <path class="fil1" d="M18.28 6.12c0.09,0.03 0.05,0.01 0.08,-0.01 -0.03,-0.12 -0.08,-0.05 -0.08,0.01z"/>
     <path class="fil1" d="M18.86 6.37c0.04,-0.02 0.05,0.03 0.05,-0.05 -0.01,-0.05 -0.02,-0.02 -0.05,-0.03 -0.01,0.01 -0.05,0.02 0,0.08z"/>
    </g>
    <g>
     <path class="fil1" d="M6.31 11.87l0.79 0c-0.03,0.09 -0.32,0.54 -0.39,0.63l-0.4 -0.63zm0.46 1.11c0,-0.4 -0.03,-0.31 0.15,-0.59 0.09,-0.15 0.17,-0.29 0.27,-0.43 0.19,-0.28 -0.03,-0.2 -0.33,-0.2 -0.19,0 -0.51,-0.02 -0.69,0.01 -0.02,0.1 0.08,0.22 0.13,0.29 0.31,0.49 0.36,0.43 0.36,0.92 -0.1,0.03 -0.35,0.09 -0.34,0.22 0.13,0.04 0.7,0.05 0.79,-0.01 -0.02,-0.11 -0.24,-0.18 -0.34,-0.21z"/>
     <path class="fil1" d="M6.46 11.67c-0.06,-0.17 -0.05,-0.11 0.09,-0.22 0.08,-0.06 0.15,-0.09 0.18,-0.19 -0.1,-0.06 -0.49,-0.1 -0.62,-0.08 -0.05,0.1 -0.24,0.49 -0.21,0.57 0.07,0.01 0.19,-0.04 0.28,-0.07 0.21,-0.1 0.06,-0.01 0.28,-0.01z"/>
     <path class="fil1" d="M6.96 11.66c0.16,-0.01 0.08,-0.12 0.26,-0.19 0.39,-0.16 0.56,0.45 0.18,0.54 -0.14,0.03 -0.12,-0.03 -0.17,0.07 0.03,0.02 0.04,0.03 0.12,0.03 0.04,0 0.09,-0.01 0.12,-0.03 0.08,-0.03 0.13,-0.07 0.17,-0.13 0.33,-0.52 -0.59,-0.85 -0.68,-0.29z"/>
     <path class="fil1" d="M6.72 12.39c0.05,-0.08 0.2,-0.29 0.21,-0.38l-0.44 0.01c0.01,0.08 0.18,0.32 0.23,0.37z"/>
     <path class="fil1" d="M7.4 11.79l0.14 0.07 0.02 -0.12 -0.14 -0.01c-0.03,0.03 -0.04,-0.04 -0.02,0.06z"/>
     <path class="fil1" d="M7.4 11.79c0,0 -0.1,-0.02 0.02,0.17l0.07 -0.05c-0.02,-0.09 -0.04,-0.07 -0.09,-0.12z"/>
     <path class="fil1" d="M7.42 11.67c0.04,-0.04 0.04,-0.04 0.08,-0.09 -0.04,-0.04 -0.01,-0.03 -0.09,-0.06l-0.04 0.12c0.03,0.04 -0.06,0.05 0.05,0.03z"/>
     <path class="fil1" d="M7.38 11.49l-0.08 0c-0.04,0.05 -0.04,0.01 0.01,0.17 0.06,-0.06 0.06,-0.03 0.07,-0.17z"/>
     <path class="fil1" d="M7.29 11.67c-0.02,-0.09 -0.01,-0.09 -0.07,-0.16l-0.07 0.06c0.02,0.04 -0.02,0.04 0.14,0.1z"/>
     <path class="fil1" d="M7.42 11.67c-0.01,0.01 -0.03,0.04 -0.03,0.05l0.18 0 -0.02 -0.08c-0.06,-0.03 -0.02,-0.02 -0.13,0.03z"/>
     <path class="fil1" d="M7.3 11.98c0.09,-0.01 0.05,0.02 0.07,-0.03 0.04,-0.08 -0.03,-0.07 -0.03,-0.07l-0.04 0.1z"/>
    </g>
    <g>
     <path class="fil1" d="M11.75 16.42c-0.05,0.07 -0.12,0.11 -0.16,0.19 0.03,0.04 0.04,0.05 0.09,0.08 0.02,0.02 0.05,0.04 0.08,0.06 0.06,0.04 0.12,0.07 0.2,0.11 1.07,0.48 2.24,-0.78 1.41,-1.88 -0.03,-0.05 -0.03,-0.05 -0.08,-0.08 -0.07,0.04 -0.1,0.11 -0.17,0.17l0.02 0.01c0.1,0.06 0.15,0.14 0.21,0.27 0.03,0.06 0.05,0.13 0.06,0.2 0.03,0.15 -0.02,0.14 -0.02,0.2 0,0.02 0.11,0.21 -0.13,0.56 -0.08,0.11 -0.06,0.05 -0.14,0.11 -0.03,0.02 -0.05,0.21 -0.47,0.3 -0.16,0.04 -0.14,-0.01 -0.21,-0.01 -0.07,0 -0.06,0.05 -0.22,0.01 -0.39,-0.09 -0.41,-0.24 -0.47,-0.3z"/>
     <path class="fil1" d="M13.14 16.33c0.09,-0.09 0.24,-0.36 0.19,-0.52 -0.09,-0.03 -0.44,-0.02 -0.57,-0.02 -0.3,0 0.04,0.26 0.2,0.42 0.05,0.06 0.08,0.11 0.18,0.12z"/>
     <path class="fil1" d="M12.38 16.62c0.04,-0.07 0.03,-0.57 0,-0.66 -0.11,-0.03 -0.19,0.09 -0.25,0.16 -0.08,0.08 -0.15,0.14 -0.23,0.22 -0.16,0.18 0.34,0.31 0.4,0.31 0.06,0 0.05,0 0.08,-0.03z"/>
     <path class="fil1" d="M12.64 15.69c0.09,0.03 0.6,0.04 0.67,0 0.08,-0.06 -0.1,-0.63 -0.27,-0.48 -0.07,0.06 -0.15,0.15 -0.22,0.22 -0.05,0.04 -0.08,0.07 -0.12,0.11 -0.04,0.05 -0.07,0.07 -0.06,0.15z"/>
     <path class="fil1" d="M12.48 16.07l0 0.45c0,0.18 0.12,0.15 0.31,0.07 0.36,-0.15 0.23,-0.2 -0.07,-0.5 -0.04,-0.04 -0.24,-0.29 -0.24,-0.02z"/>
     <path class="fil1" d="M12.34 15.86c0.03,0.02 0.07,0.04 0.1,0.05 0.03,-0.01 0.07,-0.03 0.11,-0.05 0.07,-0.17 0.04,-0.06 0.01,-0.21 -0.07,0.02 -0.19,0.15 -0.22,0.21z"/>
    </g>
    <g>
     <path class="fil1" d="M4.59 8.66c0.03,0.06 0.1,0.04 0.25,0.04 0.06,0.07 0.09,0.13 0.16,0.19 0.06,0.05 0.14,0.1 0.22,0.14 -0.04,0.08 -0.33,0.36 -0.33,0.41 -0.02,0.08 -0.01,-0.07 0,0.02 0,0.01 0,0.01 0,0.02 0.01,0.09 0.2,-0.16 0.21,-0.18 0.07,-0.08 0.13,-0.14 0.2,-0.22 0.1,0 0.19,0.04 0.32,0.04 0.13,0 0.22,-0.04 0.33,-0.04l0.29 0.34c0.03,0.04 0.06,0.09 0.11,0.07 0.05,-0.05 -0.07,-0.15 -0.13,-0.23 -0.07,-0.07 -0.13,-0.14 -0.19,-0.21 0.04,-0.06 0.14,-0.1 0.2,-0.15 0.23,-0.19 0.03,-0.19 0.33,-0.2 0.09,0 0.09,0.01 0.09,-0.06 -0.05,-0.03 -0.05,-0.02 -0.12,-0.02 -0.05,0 -0.03,0.01 -0.07,-0.01l-0.03 -0.02c0,0 0,0 0,0 -0.28,0.15 -0.61,0.18 -0.97,0.16 -0.24,-0.01 -0.42,-0.04 -0.61,-0.15 -0.07,-0.03 -0.05,0 -0.06,0 -0.11,0.06 -0.16,-0.03 -0.2,0.06z"/>
     <path class="fil1" d="M5.4 8.12c0.25,-0.02 0.65,-0.01 0.84,0.1 0.36,0.19 -0.17,0.34 -0.38,0.35 -0.76,0.06 -1.21,-0.18 -0.85,-0.36 0.11,-0.05 0.26,-0.08 0.39,-0.09zm0.06 -0.1c-0.18,0.02 -0.35,0.04 -0.5,0.11 -0.47,0.19 -0.13,0.61 0.84,0.54 0.16,-0.01 0.35,-0.04 0.49,-0.1 0.51,-0.23 0.02,-0.62 -0.83,-0.55z"/>
     <path class="fil1" d="M5.62 7.89c0.16,-0.04 0.02,-0.32 0.02,-0.32 -0.01,-0.07 0.02,-0.06 -0.01,-0.13 -0.1,0 -0.09,0.13 -0.05,0.21 0.07,0.14 -0.03,0.17 0.04,0.24z"/>
     <path class="fil1" d="M5.89 7.89c0.11,0.01 0.08,-0.18 0.08,-0.21 -0.02,-0.05 -0.04,-0.05 -0.05,-0.11 -0.01,-0.08 0.02,-0.07 -0.01,-0.14 -0.09,0.02 -0.1,0.14 -0.06,0.21 0.02,0.04 0.04,0.05 0.04,0.11 0,0.07 -0.03,0.07 0,0.14z"/>
     <path class="fil1" d="M5.35 7.44c-0.15,-0.04 -0.02,0.27 -0.02,0.31 0,0.06 -0.03,0.1 0,0.13 0.07,0.07 0.08,-0.14 0.07,-0.18 -0.02,-0.1 -0.04,-0.02 -0.04,-0.19 0,0 0.01,-0.02 -0.01,-0.07z"/>
     <polygon class="fil1" points="5.57,8.5 5.68,8.5 5.68,8.19 5.57,8.19 "/>
     <path class="fil1" d="M5.38 8.49l0.11 0.01 0 -0.3 -0.1 0c-0.02,0.08 -0.01,0.21 -0.01,0.29z"/>
     <path class="fil1" d="M5.76 8.49l0.1 0c0.01,-0.08 0.02,-0.22 -0.01,-0.29l-0.09 0 0 0.29z"/>
     <path class="fil1" d="M5.95 8.48l0.1 -0.02c0.01,-0.05 0.01,-0.13 0.01,-0.17 -0.01,-0.08 -0.03,-0.06 -0.11,-0.07l0 0.26z"/>
     <path class="fil1" d="M5.19 8.3l0 0.1 0 0.06 0.11 0.02 0 -0.06 0 -0.13 0 -0.07c-0.1,0.01 -0.11,-0.01 -0.11,0.08z"/>
     <path class="fil1" d="M6.14 8.43c0.07,-0.02 0.1,-0.03 0.13,-0.08 -0.02,-0.06 -0.06,-0.07 -0.13,-0.09l0 0.17z"/>
     <path class="fil1" d="M4.98 8.35c0.02,0.05 0.06,0.06 0.13,0.08l0 -0.16c-0.07,0.02 -0.1,0.02 -0.13,0.08z"/>
    </g>
    <path class="fil1" d="M2.51 4.6c0.02,-0.04 0.17,-0.03 0.17,0.09 -0.08,0.03 -0.22,0 -0.17,-0.09zm0.61 0.07c-0.07,0.03 -0.18,0.01 -0.18,-0.09 0.01,-0.02 0.18,-0.05 0.18,0.09zm-1.2 -0.12c0,-0.1 0.09,-0.1 0.18,-0.09 0.02,0.08 0.02,0.09 -0.06,0.11 -0.07,0.01 -0.07,0.01 -0.12,-0.02zm0.56 -0.19c-0.04,0.03 -0.15,0.07 -0.15,-0.06 0.06,-0.04 0.09,-0.02 0.16,-0.01l-0.01 0.07zm0.74 0.01c-0.04,0.01 -0.23,0 -0.19,-0.11 0.01,-0.01 -0.01,-0.03 0.07,-0.02 0.08,0.01 0.13,0.06 0.12,0.13zm-0.88 -0.27c-0.21,0.03 -0.4,0.09 -0.55,0.19 -0.11,0.08 -0.33,0.31 -0.16,0.49 0.27,0.29 1.58,0.27 1.9,0.06 0.44,-0.26 -0.23,-0.91 -1.19,-0.74z"/>
    <path class="fil1" d="M3.83 5.95c-0.29,0.07 -0.36,0.22 -1.02,0.22 -0.45,0 -0.68,-0.08 -1.04,-0.22 -0.3,0.17 -0.01,0.37 0.21,0.45 0.5,0.17 1.57,0.17 1.9,-0.15 0.13,-0.13 0.03,-0.21 -0.05,-0.3z"/>
    <path class="fil1" d="M1.55 5.75c0.2,-0.01 0.14,-0.08 0.26,-0.15 0.09,-0.01 0.08,0.01 0.15,0 0.06,-0.02 0.03,-0.03 0.12,-0.04 0.07,0.04 0.07,0.07 0.14,0.09 0.06,-0.02 0.12,-0.07 0.17,-0.08 0.11,-0.03 0.08,0.04 0.22,0.01 0.19,-0.04 0.24,-0.03 0.43,0.01 0.41,0.08 0.17,0.03 0.43,0.03 0.12,-0.01 0.37,0.06 0.46,0.03 0.13,-0.12 -0.02,-0.31 -0.06,-0.4 -0.11,0.04 -0.14,0.13 -0.46,0.18 -0.35,0.06 -0.89,0.06 -1.24,0 -0.26,-0.04 -0.29,-0.1 -0.46,-0.19 -0.14,0.1 -0.02,0.12 -0.15,0.27 -0.1,0.12 -0.1,0.13 -0.01,0.24z"/>
    <path class="fil1" d="M2.07 5.68c-0.15,0.06 -0.08,0.05 -0.24,0.02 -0.03,0.06 -0.03,0.04 -0.06,0.1 0.25,0.23 0.76,0.28 1.17,0.26 -0.07,-0.08 -0.28,-0.23 -0.39,-0.32 -0.12,-0.09 -0.11,-0.08 -0.22,-0.01 -0.15,0.08 -0.19,0.02 -0.26,-0.05z"/>
    <path class="fil1" d="M3.18 5.73l-0.17 0.32c0.26,0.02 0.72,-0.12 0.81,-0.27 -0.09,-0.06 -0.5,-0.04 -0.64,-0.05z"/>
    <path class="fil1" d="M2.95 5.92c0,-0.01 0,-0.02 0.01,-0.01 0,0 0,-0.01 0,-0.01 0.01,-0.01 0.01,-0.01 0.01,-0.02l0.04 -0.06c0.02,-0.04 0.04,-0.07 0.05,-0.12 -0.07,-0.01 -0.4,-0.08 -0.39,-0.01 0,0.02 0.25,0.21 0.28,0.23z"/>
    <path class="fil1" d="M3.2 4.64c-0.04,0.11 0.15,0.12 0.19,0.11 0.01,-0.07 -0.04,-0.12 -0.11,-0.13 -0.09,-0.01 -0.07,0.01 -0.08,0.02z"/>
    <path class="fil1" d="M3.11 4.96c0,0.1 0.11,0.12 0.18,0.09 0,-0.14 -0.17,-0.11 -0.18,-0.09z"/>
    <path class="fil1" d="M2.85 5.08c0,-0.13 -0.15,-0.14 -0.17,-0.1 -0.05,0.09 0.09,0.12 0.17,0.1z"/>
    <path class="fil1" d="M2.5 4.68c0,0.13 0.11,0.09 0.15,0.06l0.01 -0.06c-0.07,-0.02 -0.1,-0.04 -0.16,0z"/>
    <g>
     <path class="fil1" d="M13.48 10.17c-0.07,0.04 -0.14,0.01 -0.15,-0.06 0.02,-0.03 0.06,-0.03 0.1,-0.01 0.04,0.01 0.04,0.02 0.05,0.07zm0.15 -0.32c0.15,-0.1 0.26,0.13 0.14,0.21 -0.06,0.04 -0.14,0.03 -0.18,-0.02 -0.05,-0.08 -0.02,-0.14 0.04,-0.19zm-0.58 0.08c0.07,-0.01 0.09,0.01 0.07,0.08 -0.06,0.01 -0.08,-0.02 -0.07,-0.08zm0.14 -0.17c0.07,0 0.1,0.03 0.08,0.1 -0.06,0.02 -0.11,-0.02 -0.08,-0.1zm0.87 0.08c-0.04,-0.07 0,-0.11 0.07,-0.09 0.02,0.05 0,0.11 -0.07,0.09zm-0.17 -0.09c-0.03,0.03 -0.1,-0.02 -0.07,-0.06 0.02,-0.01 0.03,-0.04 0.07,0 0.03,0.03 0.03,0.04 0,0.06zm-0.36 -0.01c-0.06,0 -0.11,-0.01 -0.12,-0.07 0,-0.07 0,-0.01 0.02,-0.04 0.06,-0.01 0.1,0.04 0.1,0.11zm-0.55 -0.15c0.08,-0.02 0.12,0.02 0.13,0.08l-0.02 0.01c-0.05,0.04 -0.11,-0.02 -0.11,-0.09zm1.17 -0.03c-0.02,0.04 -0.11,0.06 -0.12,-0.03 0.02,-0.03 0.15,-0.03 0.12,0.03zm-0.97 -0.22c0.17,-0.09 0.25,0.16 0.12,0.22 -0.08,0.03 -0.14,-0.01 -0.17,-0.06 -0.04,-0.08 0,-0.13 0.05,-0.16zm0.02 -0.15l-0.01 0.05c-0.06,0.03 -0.1,0.01 -0.09,-0.06 0.06,-0.02 0.04,-0.02 0.1,0.01zm0.32 0.09c-0.05,0.02 -0.1,-0.06 -0.08,-0.12 0.1,-0.01 0.13,0.1 0.08,0.12zm-0.27 -0.25c0.01,-0.04 0.01,-0.04 0.05,-0.05 0.01,0 0.03,-0.01 0.04,0 0.04,0 0.09,0.05 -0.01,0.08 -0.06,0.02 -0.06,0.01 -0.08,-0.03zm0.3 -0.1c0.02,-0.03 0.12,-0.05 0.11,0.06 -0.06,0.02 -0.13,-0.01 -0.11,-0.06zm0.75 0.48l-0.73 0.13 0.26 -0.69c-0.4,-0.11 -0.69,0 -0.87,0.25 -0.21,0.29 -0.18,0.65 0.03,0.91 0.44,0.56 1.4,0.23 1.31,-0.6z"/>
     <path class="fil1" d="M14.51 9.37l-0.13 0.01c0.03,0.41 -0.06,0.7 -0.45,0.91 -0.38,0.2 -0.82,0.02 -1.01,-0.22 -0.37,-0.47 -0.17,-1.12 0.36,-1.31 0.31,-0.11 0.39,-0.02 0.59,0l0.04 -0.12c-0.25,-0.06 -0.39,-0.1 -0.66,-0.01 -0.67,0.23 -0.82,1.06 -0.43,1.52 0.63,0.73 1.81,0.27 1.69,-0.78z"/>
     <path class="fil1" d="M14.11 8.87c0.17,-0.07 0.28,0.21 0.1,0.28 -0.18,0.06 -0.3,-0.2 -0.1,-0.28zm-0.34 0.46l0.69 -0.12c-0.04,-0.26 -0.23,-0.45 -0.43,-0.53l-0.26 0.65z"/>
     <path class="fil1" d="M14.06 8.59c0.12,0.08 0.18,0.08 0.31,0.24 0.09,0.1 0.14,0.2 0.17,0.35l0.17 -0.02c-0.05,-0.32 -0.32,-0.64 -0.59,-0.72l-0.06 0.15z"/>
    </g>
    <g>
     <path class="fil1" d="M2.49 16.83c0.84,-0.2 1.14,1.08 0.31,1.28 -0.85,0.21 -1.18,-1.07 -0.31,-1.28zm-0.08 -0.36c-0.3,0.08 -0.48,0.21 -0.62,0.41 -0.14,0.22 -0.23,0.52 -0.15,0.83 0.12,0.48 0.61,0.92 1.24,0.76 0.48,-0.12 0.91,-0.61 0.76,-1.24 -0.11,-0.46 -0.62,-0.92 -1.23,-0.76z"/>
     <path class="fil1" d="M2.52 16.96c-0.72,0.19 -0.41,1.2 0.25,1.03 0.67,-0.18 0.41,-1.21 -0.25,-1.03z"/>
     <path class="fil1" d="M3.64 16.63l0 0.26c0,0.56 0.68,0.56 0.68,0 0,-0.41 0.03,-0.4 -0.11,-0.41 -0.08,0.24 0.08,0.58 -0.16,0.68 -0.02,-0.21 0.03,-0.51 -0.03,-0.68 -0.09,0.01 -0.09,-0.01 -0.11,0.08 0,0.02 0,0.17 0,0.2 0,0.13 0.01,0.27 -0.01,0.4 -0.27,-0.12 -0.02,-0.47 -0.17,-0.68 -0.1,0.01 -0.09,0.03 -0.09,0.15z"/>
     <path class="fil1" d="M1.06 17.78l0.31 0 0 -1.24c-0.32,0.08 -0.31,0.97 -0.31,1.24z"/>
     <path class="fil1" d="M4.05 17.43l-0.15 0c-0.01,0.18 -0.02,0.36 -0.02,0.52 -0.01,0.15 -0.08,0.47 0.1,0.45 0.16,-0.01 0.1,-0.29 0.1,-0.45 -0.01,-0.17 -0.01,-0.35 -0.03,-0.52z"/>
     <path class="fil1" d="M1.16 18.19c0.01,0.1 0.01,0.27 0.16,0.21 0.12,-0.05 0.06,-0.22 0.07,-0.32 -0.07,-0.16 0.02,-0.16 -0.19,-0.16 -0.01,0.1 0,0.2 -0.04,0.27z"/>
     <path class="fil1" d="M1.16 18.19c0.04,-0.07 0.03,-0.17 0.04,-0.27 0.21,0 0.12,0 0.19,0.16l-0.01 -0.16c-0.09,-0.04 -0.11,-0.04 -0.2,0l-0.02 0.27z"/>
    </g>
    <path class="fil1" d="M5.64 5.78c-0.06,-0.16 -0.11,-0.26 -0.07,-0.35 0.01,-0.02 0.04,-0.06 0.04,-0.06 0.08,-0.16 -0.03,-0.16 0.02,-0.27 0.03,-0.06 0.1,-0.05 0.16,-0.19 0.15,-0.3 0.04,0 0.23,-0.29 0,-0.01 0.01,-0.02 0.01,-0.03 0.15,-0.21 0.13,0.09 0.29,-0.22 0.45,-0.01 0.09,0.04 0.41,-0.12 0.12,-0.03 0.11,0.09 0.3,0.04 0.27,-0.08 0.13,-0.01 0.3,0.02 0.16,0.02 0.08,-0.05 0.29,0.05 0.16,0.07 0.19,0.04 0.3,0.15 -0.79,-0.07 -1.39,-0.09 -1.93,0.68 -0.18,0.25 -0.14,0.26 -0.22,0.45 -0.07,0.2 0,0.11 -0.13,0.14zm0.64 -1.45c-0.11,0.22 0.02,0.08 -0.17,0.16 -0.25,0.09 0,0 -0.27,0.25 -0.01,0 -0.02,0.01 -0.02,0.02 -0.1,0.1 0,0.08 -0.13,0.21 -0.21,0.24 -0.06,0.11 -0.14,0.38 -0.05,0.17 -0.07,0.06 -0.02,0.28 0.05,0.19 0.12,0.35 0.22,0.5 0.2,0.29 0.75,0.04 1.09,-0.06 0.38,-0.11 0.73,-0.21 1.11,-0.33 1.32,-0.44 0.12,-1.18 -0.58,-1.1 -0.65,0.07 -1.26,0.44 -1.45,1.04 -0.01,0.06 -0.02,0.1 -0.03,0.15l-0.05 0.14c-0.13,-0.31 0.36,-0.95 0.77,-1.17 0.74,-0.38 1.13,-0.2 1.64,-0.02 -0.18,-0.4 -0.93,-0.59 -1.14,-0.57 -0.2,0.02 0,0.07 -0.27,0.01 -0.17,-0.04 -0.12,-0.01 -0.24,0.06 -0.14,0.08 -0.12,0.03 -0.32,0.05z"/>
    <g>
     <path class="fil1" d="M10.36 8.81c-0.14,0.06 -0.1,0.01 -0.4,0.01l-0.82 0c-0.12,0.01 -0.11,-0.01 -0.21,0 -0.13,0.01 -0.04,0.04 -0.21,0 0.03,0.18 0.19,0.63 0.27,0.78 0.23,0.05 0.84,0.04 1.09,0.01l0.28 -0.8z"/>
     <path class="fil1" d="M9.12 8.74c0.41,0 1.32,-0.58 1.03,-0.74 -0.11,-0.06 -0.51,0.22 -0.65,0.27 -0.22,0.09 -0.51,0.1 -0.68,0.22 -0.02,0.27 0.03,0.25 0.3,0.25z"/>
     <path class="fil1" d="M9.96 7.89c-0.06,-0.23 -0.08,-0.02 -0.3,-0.32 -0.08,0.07 -0.08,0.1 -0.19,0.16 -0.08,0.04 -0.18,0.07 -0.26,0.11 -0.09,0.05 -0.36,0.3 -0.2,0.47 0.15,0.15 0.88,-0.33 0.95,-0.42z"/>
     <path class="fil1" d="M9.59 8.7c0.18,0.01 0.37,0.01 0.52,-0.05 0.1,-0.04 0.33,-0.19 0.19,-0.32 -0.1,-0.1 -0.25,0.09 -0.35,0.16 -0.12,0.07 -0.26,0.12 -0.36,0.21z"/>
    </g>
    <g>
     <path class="fil1" d="M2.27 13.63c0.67,0 0.98,-0.33 0.96,-1.02l-1.95 0c0,0.69 0.31,1.02 0.99,1.02z"/>
     <path class="fil1" d="M1.2 13.69c0.09,0.09 0.1,0.06 0.24,0.07 0.26,0.01 -0.02,0.06 0.8,0.06 0.85,0 0.57,-0.04 0.82,-0.06 0.1,-0.01 0.19,-0.01 0.26,-0.04 -0.14,-0.09 -2.06,-0.04 -2.12,-0.03z"/>
     <path class="fil1" d="M2.14 12.18c-0.59,0 -0.57,0.29 -0.24,0.29 0.15,0 0.28,-0.04 0.41,-0.05 0.08,-0.01 0.13,-0.03 0.2,0.01 0.12,0.05 0.04,0.08 0.13,0.07 0.01,0 0.06,0.04 0.01,-0.09 -0.09,-0.22 -0.62,0.03 -0.83,-0.06 0.03,-0.29 0.89,0.2 1.08,-0.59 -0.18,0.31 -0.3,0.42 -0.76,0.42z"/>
     <path class="fil1" d="M3.16 13.25c0.53,-0.24 0.39,-0.53 0.12,-0.57 0,0.19 -0.02,0.08 0.12,0.17 -0.02,0.27 -0.21,0.16 -0.24,0.4z"/>
    </g>
    <path class="fil1" d="M1.89 2.55c0.16,-0.08 0.24,0.14 0.11,0.21 -0.13,0.07 -0.25,-0.13 -0.11,-0.21zm0.27 0.02c-0.09,-0.29 0.29,-0.29 0.19,0 -0.07,0.02 -0.11,0.02 -0.19,0zm-0.77 -0.22c0.16,-0.08 0.24,0.14 0.11,0.21 -0.13,0.07 -0.26,-0.13 -0.11,-0.21zm1.12 -0.03c-0.23,0.04 -0.21,-0.15 -0.12,-0.2 0.13,-0.08 0.25,0.05 0.12,0.2zm-0.61 -0.09c-0.02,-0.19 0.1,-0.21 0.21,-0.12 0.04,0.2 -0.09,0.25 -0.21,0.12zm-0.22 0c-0.26,0.02 -0.26,-0.24 0,-0.22l0.06 0.12 -0.06 0.1zm-0.41 -0.4c0.14,-0.11 0.24,0.1 0.15,0.17 -0.12,0.1 -0.29,-0.06 -0.15,-0.17zm0.32 -0.13c-0.12,-0.12 -0.07,-0.25 0.12,-0.21 0.1,0.12 0.07,0.23 -0.12,0.21zm0.98 -0.02c-0.2,0.07 -0.07,0.05 -0.12,0.23 -0.11,0.05 -0.13,0.05 -0.22,-0.04l-0.33 0.18c0.02,-0.27 -0.01,-0.1 -0.03,-0.22 -0.01,-0.12 0.06,-0.1 0.12,-0.17 -0.02,-0.11 -0.16,-0.16 -0.01,-0.27 0.11,-0.06 0.04,0.05 0.1,-0.06 -0.01,-0.01 0.05,-0.09 -0.25,-0.06 -0.79,0.06 -0.96,1.02 -0.46,1.41 0.29,0.23 0.74,0.25 1.03,0 0.22,-0.19 0.44,-0.7 0.17,-1z"/>
    <path class="fil1" d="M2.72 1.58l-0.1 0.06c0.04,0.21 0.15,0.29 0.08,0.6 -0.13,0.6 -0.85,0.87 -1.33,0.49 -0.65,-0.52 -0.25,-1.55 0.58,-1.5 0.02,0 0.07,0.01 0.09,0.01l0.05 -0.13c-0.15,-0.05 0.11,0.03 -0.04,-0.01 -0.09,-0.03 -0.21,-0.02 -0.29,-0.01 -0.13,0.02 -0.24,0.05 -0.33,0.1 -0.18,0.09 -0.33,0.25 -0.42,0.43 -0.25,0.49 -0.03,1 0.29,1.24 0.39,0.29 0.89,0.24 1.24,-0.06 0.14,-0.12 0.26,-0.3 0.31,-0.54 0.03,-0.14 0.03,-0.25 0,-0.38l-0.07 -0.23c-0.03,-0.05 0.01,0.01 -0.02,-0.03 -0.02,-0.03 -0.02,-0.02 -0.04,-0.04z"/>
    <path class="fil1" d="M2.24 1.43l-0.15 0.08c0.03,0.15 0,-0.01 0.08,0.1 0.04,0.07 0.03,0.08 0.01,0.16 -0.16,0.06 -0.16,-0.04 -0.19,0.15 0.42,-0.15 0.3,-0.27 0.4,-0.32 0.17,-0.05 0.09,0.07 0.27,-0.07 -0.06,-0.15 -0.29,-0.34 -0.49,-0.36 0.01,0.2 0.09,0.04 0.07,0.26z"/>
    <path class="fil1" d="M2.2 1.1l0.06 0.05c0.03,0.01 0.05,0.02 0.08,0.03 0.06,0.03 0.09,0.05 0.14,0.09 0.05,0.04 0.08,0.06 0.12,0.11 0.04,0.04 0.06,0.09 0.12,0.12l0.1 -0.05c-0.05,-0.19 -0.35,-0.4 -0.59,-0.46l-0.03 0.11z"/>
    <g>
     <path class="fil1" d="M14.47 18.08l0.76 -0.36c0.1,-0.06 0.05,0 0.08,-0.09l-0.88 -0.04 0.04 0.49z"/>
     <polygon class="fil1" points="14.52,18.38 14.53,18.61 15.24,18.26 15.26,18.02 "/>
     <path class="fil1" d="M14.57 19l0.59 0.03 0.04 -0.43c-0.11,0.04 -0.24,0.11 -0.34,0.16 -0.3,0.14 -0.28,0.11 -0.29,0.24z"/>
     <path class="fil1" d="M14.38 17.56l0.98 0c-0.06,-0.11 -0.02,-0.1 -0.17,-0.11 -0.09,-0.01 -0.22,0 -0.32,0 -0.1,0 -0.2,0 -0.29,0 -0.16,0 -0.15,0 -0.2,0.11z"/>
     <path class="fil1" d="M14.91 17.42c0.17,0.01 0.13,-0.02 0.19,-0.17 0.04,-0.09 0.11,-0.2 0.1,-0.27 -0.12,-0.05 -0.1,0.03 -0.17,0.16 -0.05,0.09 -0.09,0.19 -0.12,0.28z"/>
    </g>
    <g>
     <path class="fil1" d="M13.7 1.33c-0.26,0.19 -1.08,0.05 -1.22,0.04l0.09 -0.03c0.01,0 0.07,0.13 0.04,-0.2 -0.02,-0.13 0.04,-0.08 -0.13,-0.08 0,0.01 -0.01,0.01 -0.01,0.02l-0.02 0.08c-0.1,0.33 -0.05,0.29 0.04,0.76 0.05,0.31 0.11,0.63 0.17,0.92 0.24,0.08 0.62,0.1 0.88,0 0.08,-0.14 0.23,-1.23 0.25,-1.47 -0.05,-0.04 0.06,-0.03 -0.09,-0.04z"/>
     <path class="fil1" d="M13.26 1.14l-0.01 0.26 0.3 -0.04 -0.01 -0.39c0,-0.01 -0.01,-0.02 -0.02,-0.02l-0.03 -0.03c-0.1,0.03 -0.09,0.12 -0.09,0.22 -0.01,-0.13 0.02,-0.24 -0.08,-0.3 -0.09,0.06 -0.06,0.18 -0.06,0.3z"/>
     <path class="fil1" d="M12.86 0.97l-0.03 0.43c0.22,0 0.09,0 0.2,-0.11 -0.03,-0.16 0,-0.26 0.01,-0.41l-0.18 -0.01 0 0.1z"/>
     <path class="fil1" d="M13.04 1.32c0.04,0.1 -0.06,0.08 0.13,0.08 0.06,-0.12 0.04,-0.36 0.03,-0.51l-0.13 0.02 -0.03 0.41z"/>
     <path class="fil1" d="M12.62 1.13c0.1,0.11 -0.01,0.18 0.11,0.24 0.07,-0.04 0.02,0.05 0.05,-0.06l0.01 -0.4 -0.14 0 -0.03 0.22z"/>
     <path class="fil1" d="M13.7 1.33l0.09 -0.02c-0.01,0 -0.02,-0.02 -0.02,-0.01 -0.02,0.07 -0.04,-0.24 -0.04,-0.24l-0.09 -0.03 -0.03 0.31 0.09 -0.01z"/>
    </g>
    <g>
     <path class="fil1" d="M9.04 3.34l1.2 0.01c0.33,0 0.11,-0.26 0.11,-0.27 -0.01,-0.04 0.03,-0.28 -0.26,-0.41 -0.33,-0.14 -0.65,-0.12 -0.9,0.12 -0.14,0.14 -0.06,0.07 -0.11,0.26 -0.03,0.15 -0.11,0.07 -0.04,0.29z"/>
     <path class="fil1" d="M9.81 4.42c0.21,-0.17 0.1,-0.35 0.02,-0.5 -0.09,-0.19 -0.14,-0.33 -0.24,-0.51l-0.24 -0.01 0.46 1.02z"/>
     <path class="fil1" d="M9.72 4.65c0.09,-0.16 -0.06,-0.4 -0.21,-0.68 -0.2,-0.42 -0.17,-0.57 -0.41,-0.56 0.02,0.1 0.55,1.15 0.62,1.24z"/>
     <path class="fil1" d="M10 4.06c0,-0.01 0.01,-0.02 0.01,-0.02 0.01,0.01 0.01,-0.01 0.02,-0.02 0,0 0.01,-0.01 0.01,-0.01l0.06 -0.1c0.03,-0.07 0.06,-0.11 0.05,-0.18 -0.01,-0.07 -0.13,-0.28 -0.16,-0.32l-0.28 0c0.01,0.11 0.22,0.55 0.29,0.65z"/>
     <path class="fil1" d="M10.22 3.65l0.12 -0.24 -0.23 0c0.02,0.11 0.06,0.16 0.11,0.24z"/>
    </g>
    <g>
     <path class="fil1" d="M13.86 13.41c-0.18,-0.02 -0.13,-0.1 -0.1,-0.19 0.16,-0.08 0.14,-0.06 0.3,0 -0.02,0.13 -0.04,0.21 -0.2,0.19zm1.36 -0.55c0.1,-0.09 0.37,0 0.41,0.15 0.06,0.2 -0.01,0.13 -0.02,0.14 -0.25,0.1 -0.6,-0.11 -0.39,-0.29zm-2.26 0.18l0 0.72c0.47,0.04 1.07,0.15 1.54,0.16 0.28,0 0.27,-0.29 0.6,-0.05 0.18,0.13 0.02,0.14 0.74,0.17l0 -1.33 -2.88 0.33z"/>
     <path class="fil1" d="M13.1 12.91l2.37 -0.3c0,-0.01 -0.02,-0.06 -0.02,-0.07 -0.03,-0.18 -0.07,-0.06 0.01,-0.18 0.21,0.06 0.06,0.09 0.14,0.22 0.15,-0.01 0.12,0.02 0.21,-0.05 -0.11,-0.16 -0.48,-0.5 -0.63,-0.55 -0.29,0.19 -0.03,0.16 -0.5,0.25 -0.2,0.03 -1.42,0.55 -1.58,0.68z"/>
    </g>
    <g>
     <path class="fil1" d="M6.94 19.63c0.38,-0.51 1.92,-0.6 2.57,-0.47 0.14,0.03 0.26,0.06 0.39,0.11 0.25,0.1 0.25,0.14 0.32,0.24 -1.21,0.18 -2.01,0.24 -3.28,0.12zm3.38 -1.58c0.06,0.16 0.11,0.27 0.1,0.49 -0.02,0.31 -0.16,0.21 0.06,0.37 -0.25,-0.05 -0.46,-0.16 -0.75,-0.22 -1.45,-0.31 -2.35,0.11 -3.45,0.53 0.06,0.22 0.19,0.39 0.31,0.53 0.05,0 0.18,-0.05 0.32,-0.05l1.11 0.08c0.87,0 2.14,-0.25 2.47,-0.19 0.09,-0.17 0.13,-0.21 0.23,-0.39 0.36,-0.6 -0.03,-1.01 -0.4,-1.15z"/>
     <path class="fil1" d="M8.83 17.74c0.25,0.55 0.12,0.14 0.22,0.67l0.02 0.11c0.18,0.06 0.51,0.1 0.65,0.05 0.22,-0.63 -0.22,-0.87 -0.89,-0.83z"/>
     <path class="fil1" d="M8.03 17.99c0.15,0.12 0.14,0.18 0.19,0.36l0.05 0.15 0.68 -0.02c0.02,-0.38 -0.01,-0.51 -0.25,-0.76l-0.75 0.09 0.08 0.18z"/>
     <path class="fil1" d="M8.03 17.99c-0.29,-0.17 -0.56,-0.06 -0.83,0.19 0.01,0.01 0.03,0.03 0.03,0.03l0.22 0.29c0,0.01 0.03,0.14 0.05,0.08 0.01,-0.01 0.02,0.03 0.03,0.04 0.7,-0.09 0.74,0.01 0.5,-0.63z"/>
     <path class="fil1" d="M9.63 17.82c0.18,0.33 0.23,0.37 0.16,0.86 0.25,0.04 0.28,0.1 0.51,0.11 0.05,-0.16 0.08,-0.16 0.08,-0.31 0,-0.51 -0.32,-0.58 -0.75,-0.66z"/>
     <path class="fil1" d="M6.7 18.61c0.14,0.14 0.13,0.21 0.37,0.17 0.19,-0.04 0.29,-0.13 0.33,-0.17 -0.08,-0.28 -0.05,-0.22 -0.28,-0.36 -0.21,0.08 -0.28,0.14 -0.42,0.36z"/>
     <path class="fil1" d="M6.29 19.12c0.21,-0.07 0.44,-0.18 0.55,-0.32l-0.24 -0.1c-0.15,0.12 -0.22,0.23 -0.31,0.42z"/>
    </g>
    <g>
     <path class="fil1" d="M7.24 14.57c0.04,0.06 0.02,0.01 0.02,0.1 -0.11,0.06 -0.07,0.06 -0.18,0 -0.02,-0.13 -0.02,-0.09 0.05,-0.16 0.07,0.02 0.01,-0.08 0.11,0.06zm-0.63 0c0.05,0.07 0.02,0.02 0.02,0.1 -0.1,0.06 -0.09,0.06 -0.18,-0.02 -0.01,-0.11 0,-0.08 0.06,-0.14 0.07,0.02 0.01,-0.08 0.1,0.06zm-0.62 0.01c0.04,0.07 0.01,-0.01 0.02,0.09 -0.08,0.04 -0.11,0.05 -0.19,-0.02 0,-0.1 0.02,-0.1 0.1,-0.15 0.01,0.01 0.02,0.02 0.02,0.02l0.05 0.06zm-0.02 -0.2c-0.12,0.04 -0.24,0.08 -0.23,0.23 0.03,0.31 0.19,-0.14 0.14,0.55 -0.12,0 -0.41,-0.04 -0.48,0.04 -0.06,0.06 -0.05,0.52 0,0.57 0.26,0.11 0.36,-0.2 0.58,-0.12 0.11,0.04 0.16,0.14 0.26,0.16 0.19,0.05 0.17,-0.04 0.3,-0.04 0.14,0 0.13,0.11 0.33,0.03 0.09,-0.03 0.15,-0.13 0.25,-0.16 0.19,-0.05 0.57,0.39 0.61,-0.02 0.01,-0.11 0.02,-0.38 -0.07,-0.42 0,-0.01 -0.02,-0.01 -0.02,-0.02 -0.01,0 -0.02,-0.01 -0.03,-0.01 -0.12,-0.04 -0.24,0.02 -0.38,-0.03 -0.11,-0.3 0.08,-0.41 0.13,-0.49 -0.06,-0.17 -0.08,-0.07 -0.16,-0.28 -0.15,0.08 -0.22,0.09 -0.21,0.32 0.16,0.13 0.17,-0.02 0.14,0.47 -0.16,0 -0.4,0.02 -0.54,-0.02l0 -0.29c0.05,-0.17 0.15,-0.06 0.13,-0.23 -0.02,-0.14 -0.08,-0.03 -0.13,-0.25 -0.48,0.21 -0.08,0.4 -0.06,0.48l-0.02 0.31c-0.17,0 -0.4,0.02 -0.54,-0.02 -0.01,-0.55 0.03,-0.24 0.15,-0.49 -0.06,-0.15 -0.1,-0.07 -0.15,-0.27z"/>
     <path class="fil1" d="M5.36 15.83c-0.01,0.45 -0.06,0.57 0.17,0.59 0.21,0.02 0.52,0 0.74,0 1.65,0 1.47,0.15 1.45,-0.59 -0.38,0.09 -0.39,-0.18 -0.6,-0.12 -0.11,0.03 -0.13,0.12 -0.25,0.16 -0.2,0.07 -0.2,-0.03 -0.33,-0.03 -0.13,-0.01 -0.14,0.1 -0.32,0.03 -0.11,-0.03 -0.15,-0.12 -0.26,-0.16 -0.19,-0.06 -0.23,0.2 -0.6,0.12z"/>
    </g>
    <g>
     <path class="fil1" d="M16.55 5.39c-0.34,-0.67 -0.51,-0.09 -0.59,-1.56 -1.15,-0.31 -2.36,1.13 -2.55,1.82 -0.41,-0.01 -0.64,-0.26 -0.98,-0.25l0.42 1.11c0.23,-0.2 0.32,-0.53 0.5,-0.8 0.23,0.02 0.15,0.04 0.4,0.13 1.12,0.43 1.91,0.16 2.8,-0.45z"/>
     <path class="fil1" d="M16.58 4.21c-0.14,0.19 -0.11,0.18 -0.28,0.05 -0.03,-0.21 0.13,-0.26 0.28,-0.05zm0.08 1.07c0.31,-0.25 0.72,-0.83 0.74,-1.16 -0.42,-0.17 -0.79,-0.34 -1.31,-0.33 -0.13,0.54 0.04,1.2 0.57,1.49z"/>
    </g>
    <g>
     <path class="fil1" d="M18.1 16.22c-0.09,0.04 -0.13,0.02 -0.25,0.02 -0.04,0 -0.11,0 -0.15,0.01l-0.06 0.07c0.01,0 0.02,0.01 0.03,0.01l0.52 0.01c0.1,0 0.2,0 0.3,0 0.03,0 0.13,0 0.15,0l0.15 -0.05c-0.16,-0.11 -0.36,0.01 -0.52,-0.07 0.04,-0.1 -0.06,-0.05 0.14,-0.07 0.64,-0.06 0.8,0.1 0.74,-0.96 -0.46,0.09 -1.53,0.14 -1.96,-0.01 -0.21,1.05 0.29,0.95 0.74,0.97 0.18,0 0.13,-0.03 0.17,0.07z"/>
     <path class="fil1" d="M18.57 14.56c-0.13,-0.08 -0.23,-0.22 -0.49,-0.19 -0.08,0.02 -0.18,0.06 -0.23,0.12 -0.08,0.08 -0.07,0.01 -0.05,0.14 0.02,0.13 0.07,-0.07 0.01,0.03 -0.36,-0.17 -0.58,0.13 -0.6,0.47l0.49 0.1 0.81 0c0.05,-0.18 0,-0.11 0,-0.27l0.07 0.28c0.13,-0.04 0.37,-0.06 0.52,-0.1 -0.03,-0.34 -0.21,-0.35 -0.4,-0.45 -0.01,0 -0.02,-0.01 -0.02,-0.01 0.05,-0.1 0.24,-0.29 0.15,-0.38 -0.09,-0.08 -0.17,0.1 -0.26,0.26z"/>
    </g>
    <g>
     <path class="fil1" d="M16.84 11.56l-0.44 0.16c-0.05,0.79 1.39,0.09 1.7,-0.03 0.29,-0.11 0.59,-0.23 0.87,-0.34 0.35,-0.14 0.59,-0.19 0.56,-0.66 -0.21,0 -2.1,0.81 -2.69,0.87z"/>
     <path class="fil1" d="M16.8 11.43c-0.13,0.11 -0.27,0.09 -0.42,-0.02 -0.17,-0.14 -0.12,-0.21 -0.42,-0.12 -0.17,0.52 0.59,0.31 0.88,0.27 0.88,-0.52 2.91,-0.62 2.73,-1.52 -0.32,-0.06 -0.39,0.14 -0.6,0.26 -0.31,0.17 -1.64,0.49 -1.97,0.74 0.27,-0.01 0.18,-0.02 0.38,0.07l0.21 0.05c0.08,0 0.02,-0.02 0.08,0.01 -0.42,0.14 -0.22,-0.19 -0.64,-0.07 -0.17,0.16 0.01,0.22 -0.23,0.33z"/>
     <path class="fil1" d="M16.3 11.19c0.18,0.04 2.11,-0.76 2.49,-0.89 0.37,-0.14 0.28,-0.09 0.31,-0.22 -0.41,-0.17 -1.22,0.2 -1.57,0.35 -0.24,0.1 -0.46,0.2 -0.69,0.3 -0.23,0.1 -0.6,0.2 -0.54,0.46z"/>
     <path class="fil1" d="M16.8 11.43c0.07,-0.1 0.12,-0.26 0.19,-0.39l-0.68 0.27c0.18,0.11 0.18,0.15 0.49,0.12z"/>
    </g>
   </g>
  </g>
  <polygon class="fil2" points="0,0 20.62,0 20.62,20.62 0,20.62 "/>
 </g>
</svg>
