<?xml version="1.0" encoding="UTF-8"?>
<!DOCTYPE svg PUBLIC "-//W3C//DTD SVG 1.1//EN" "http://www.w3.org/Graphics/SVG/1.1/DTD/svg11.dtd">
<!-- Creator: CorelDRAW 2021.5 -->
<svg xmlns="http://www.w3.org/2000/svg" xml:space="preserve" width="200px" height="200px" version="1.1" style="shape-rendering:geometricPrecision; text-rendering:geometricPrecision; image-rendering:optimizeQuality; fill-rule:evenodd; clip-rule:evenodd"
viewBox="0 0 26.44 26.44"
 xmlns:xlink="http://www.w3.org/1999/xlink"
 xmlns:xodm="http://www.corel.com/coreldraw/odm/2003">
 <defs>
  <style type="text/css">
   <![CDATA[
    .fil2 {fill:none}
    .fil1 {fill:#FEFEFE;fill-opacity:0.250980}
    .fil0 {fill:#E67E22}
   ]]>
  </style>
   <clipPath id="id0">
    <path d="M0 0l26.44 0 0 26.44 -26.44 0 0 -26.44z"/>
   </clipPath>
   <clipPath id="id1">
    <path d="M0 0l26.44 0 0 26.44 -26.44 0 0 -26.44z"/>
   </clipPath>
 </defs>
 <g id="Camada_x0020_1">
  <metadata id="CorelCorpID_0Corel-Layer"/>
  <g style="clip-path:url(#id0)">
   <polygon class="fil0" points="0,0 26.44,0 26.44,26.44 0,26.44 "/>
  </g>
  <g style="clip-path:url(#id1)">
   <g id="_1952023923968">
    <g>
     <path id="_1" class="fil1" d="M8.2 3.87c0.02,-0.27 0.08,-0.53 0.09,-0.82 0.01,-0.28 -0.01,-0.57 0.01,-0.85l1.03 -0.01c0.04,0.27 0.01,0.61 0.02,0.89 0.01,0.26 0.07,0.56 0.08,0.79 -0.42,0.07 -0.81,0.05 -1.23,0zm1.32 -0.47c-0.01,-0.27 -0.06,-0.63 -0.01,-0.9l0.18 0c0.05,0.16 0.07,0.34 0.08,0.52 0.01,0.26 -0.03,0.31 -0.25,0.38zm0.04 0.24c0.28,-0.26 0.44,-0.09 0.41,-0.69 -0.01,-0.14 -0.03,-0.36 -0.08,-0.49 -0.06,-0.19 -0.16,-0.17 -0.39,-0.17l-0.02 -0.24c-0.24,-0.02 -1.12,-0.03 -1.32,0.01 -0.06,0.26 -0.01,0.72 -0.03,1.01 -0.04,0.9 -0.43,1.04 0.88,1 0.75,-0.03 0.57,-0.15 0.55,-0.43z"/>
     <path class="fil1" d="M8.51 3.68c-0.09,-0.1 0.01,-0.49 0.01,-0.83 0,-0.18 0.03,-0.16 -0.08,-0.2 -0.09,0.05 -0.03,-0.04 -0.05,0.1 -0.01,0.02 0,0.14 0,0.16 0,0.34 -0.05,0.57 -0.08,0.9 0.36,0.03 0.65,0.02 1,0l-0.07 -1.16 -0.64 0c0,0.27 0.03,0.84 -0.09,1.03z"/>
     <path class="fil1" d="M8.21 1.93c0.13,-0.07 0.01,-0.28 0.2,-0.37 0.16,-0.02 0.16,0.02 0.28,0.01 0.37,-0.03 0.06,0.04 0.42,0.08 0.35,0.04 0.13,0.18 0.29,0.27 0.17,-0.07 0,-0.32 -0.12,-0.37l-0.5 -0.12c-0.21,0 -0.52,-0.05 -0.61,0.25 -0.03,0.11 -0.04,0.19 0.04,0.25z"/>
    </g>
    <g>
     <path class="fil1" d="M24.4 23.17c0,0.43 -0.06,0.27 -0.18,0.49 -0.08,0.16 -0.05,1.57 -0.02,1.71 0.15,0.03 0.56,0.03 0.71,0l0.01 -0.44 -0.32 0 0 -0.91 0.31 -0.01c0.06,-0.57 -0.21,-0.24 -0.21,-0.84 0,-0.26 0.08,-0.18 -0.03,-0.41 -0.42,-0.03 -0.27,0.12 -0.27,0.41z"/>
     <path class="fil1" d="M23.34 24.23c0.11,-0.04 0.29,-0.03 0.41,-0.01l0.04 0.14 -0.48 0 0.03 -0.13zm0.14 0.64l0 0.29c-0.14,0.03 -0.24,0.06 -0.26,0.19 0.09,0.06 0.54,0.06 0.65,0.01 0.03,-0.13 -0.13,-0.15 -0.25,-0.21l0 -0.28c0.11,-0.1 0.25,-0.14 0.31,-0.3 0.05,-0.16 -0.01,-0.38 -0.1,-0.49l-0.58 -0.01c-0.18,0.46 -0.12,0.56 0.17,0.75 0.04,0.03 0.03,0.02 0.06,0.05z"/>
    </g>
    <g>
     <path class="fil1" d="M13.36 15.57l0.13 0.37 -0.49 -0.01 -0.05 -0.22 0.41 -0.14zm-0.57 0.04c-0.04,0.33 0.23,0.78 0.47,0.98 0.06,0.05 0.14,0.08 0.18,0.13 0.06,0.07 0.15,0.34 0.15,0.44 -0.07,0.1 -0.24,0.23 -0.21,0.34 0.1,0.04 0.74,-0.15 0.78,-0.31 -0.09,-0.08 -0.26,-0.08 -0.41,-0.09 -0.03,-0.12 -0.12,-0.29 -0.14,-0.39 -0.02,-0.11 0.08,-0.28 0.08,-0.44 0,-0.28 -0.12,-0.67 -0.27,-0.86 -0.17,-0.01 -0.46,0.14 -0.63,0.2z"/>
     <path class="fil1" d="M12.1 15.57l0.41 0.13 -0.05 0.24 -0.5 -0.01 0.14 -0.36zm-0.4 1.53l-0.31 0.04c-0.09,0.03 -0.04,0 -0.09,0.05 0.03,0.15 0.32,0.2 0.55,0.29 0.01,0 0.1,0.03 0.1,0.03 0.01,0 0.07,0.04 0.12,-0.02 0.07,-0.17 -0.24,-0.2 -0.21,-0.4 0.06,-0.31 0.15,-0.38 0.3,-0.47 0.19,-0.11 0.54,-0.62 0.5,-1.01 -0.17,-0.06 -0.44,-0.2 -0.62,-0.2 -0.13,0.14 -0.26,0.55 -0.27,0.79 -0.01,0.22 0.07,0.33 0.07,0.47 0,0.09 -0.11,0.32 -0.14,0.43z"/>
     <path class="fil1" d="M12.22 15.02c-0.02,0.18 0.24,0.4 0.32,0.33 0.08,-0.08 -0.05,-0.17 -0.1,-0.22 -0.08,-0.08 -0.08,-0.14 -0.22,-0.11z"/>
     <path class="fil1" d="M12.7 15.32c0.12,0.02 0.1,-0.04 0.11,-0.17 0,-0.18 0.03,-0.24 -0.11,-0.27 -0.06,0.08 -0.07,0.22 -0.05,0.33 0.02,0.12 0.02,0.06 0.05,0.11z"/>
     <path class="fil1" d="M12.93 15.35c0.1,0.03 0.33,-0.2 0.31,-0.31 -0.08,-0.04 -0.07,-0.04 -0.12,-0.01 0,0 -0.22,0.17 -0.22,0.25 0,0.07 0,0.03 0.03,0.07z"/>
    </g>
    <path class="fil1" d="M23.22 2.11c-0.05,-0.47 -0.17,0.04 -0.11,-0.8 0.18,-0.02 0.84,-0.03 0.98,0.02 0.01,0.14 0.06,0.31 0.01,0.45 -0.05,0.15 -0.09,0.12 -0.12,0.37 -0.02,0.27 -0.03,0.6 -0.08,0.86l-0.59 0c-0.06,-0.26 -0.06,-0.63 -0.09,-0.9zm-0.05 1.04l0.86 0c0.08,-0.34 0.04,-0.82 0.12,-1.12 0.06,-0.23 0.15,-0.11 0.11,-0.49 -0.04,-0.45 0.12,-0.39 -0.93,-0.39 -0.33,0 -0.35,-0.07 -0.38,0.26 -0.04,0.45 -0.03,0.32 0.08,0.56 0.09,0.17 0.08,0.93 0.14,1.18z"/>
    <path class="fil1" d="M23.5 1.86c-0.01,0 -0.03,0 -0.03,0.01l-0.16 0.05 0.1 0.96 0.38 0.01 0.1 -0.99 -0.24 -0.01c-0.02,-0.1 -0.04,-0.18 -0.06,-0.28 -0.05,-0.19 -0.01,-0.2 -0.19,-0.2l0.1 0.45z"/>
    <path class="fil1" d="M23.82 1.05c0.12,-0.04 0.05,-0.06 0.13,-0.2 0.03,-0.06 0.11,-0.13 0.18,-0.17 0.19,-0.1 0.42,-0.03 0.54,0.07 0.21,0.2 0.16,0.59 -0.1,0.73 -0.16,0.09 -0.18,-0.01 -0.19,0.15 0.27,0.12 0.77,-0.45 0.4,-0.92 -0.39,-0.5 -1.17,0.07 -0.96,0.34z"/>
    <path class="fil1" d="M22.88 0.59l-0.02 0.07c0.1,0.12 0.23,0.05 0.33,0.14 0.14,0.14 -0.05,0.24 0.24,0.25 -0.09,-0.51 -0.47,-0.51 -0.55,-0.46z"/>
    <path class="fil1" d="M24.47 1.17c-0.14,-0.02 -0.03,-0.01 -0.07,0.04 0.03,0.11 0.03,0.15 0.1,0.22 0.1,-0.04 0.05,0.01 0.12,-0.09 -0.03,-0.06 -0.01,-0.03 -0.06,-0.08 -0.01,-0.01 -0.02,-0.01 -0.02,-0.02l-0.07 -0.07z"/>
    <path class="fil1" d="M24.4 1.01c0.1,-0.04 0.18,-0.09 0.23,-0.19 -0.05,-0.04 -0.05,-0.04 -0.13,-0.08 -0.08,0.09 -0.09,0.14 -0.1,0.27z"/>
    <path class="fil1" d="M24.11 0.92l0.17 0.09 -0.06 -0.27c-0.12,0.03 -0.09,0.02 -0.16,0.09 0.02,0.03 0.04,0.06 0.05,0.09z"/>
    <path class="fil1" d="M24.33 0.98c0.05,-0.04 0.1,-0.12 0.09,-0.2 0,-0.06 0,-0.03 -0.02,-0.06l-0.12 -0.02c-0.03,0.12 0.01,0.19 0.05,0.28z"/>
    <path class="fil1" d="M24.45 1.07l0.27 -0.01 -0.05 -0.17c-0.06,0.02 -0.11,0.03 -0.17,0.1 -0.05,0.06 0,-0.01 -0.05,0.08z"/>
    <path class="fil1" d="M24.47 1.17c0.09,0.05 0.1,0.07 0.19,0.1l0.07 -0.15 -0.29 -0.02c0.02,0.04 0.01,0.05 0.03,0.07z"/>
    <path class="fil1" d="M24.11 0.92c-0.13,-0.03 -0.12,-0.02 -0.14,0.13l0.26 0 -0.12 -0.13z"/>
    <g>
     <path class="fil1" d="M2.15 12.56c-0.03,-0.22 -0.04,-1.52 0.01,-1.68l0.77 0c0.04,0.17 0.04,1.47 0.01,1.68l-0.79 0zm-0.12 0.1c0.09,0.08 0.94,0.09 1.03,0 0.1,-0.12 0.04,-0.98 0.04,-1.21 0,-0.74 0.17,-0.72 -0.56,-0.72 -0.7,0 -0.55,-0.05 -0.55,0.69 0,0.24 -0.07,1.1 0.04,1.24z"/>
     <path class="fil1" d="M2.6 11.43c-0.07,-0.48 -0.1,-0.42 -0.24,-0.42 0,0.08 0.2,1.07 0.05,1.28 -0.13,-0.14 0.05,-0.78 -0.09,-0.85 -0.11,0.04 -0.06,0.85 -0.05,0.99l0.56 -0.01 -0.01 -0.98 -0.22 -0.01z"/>
     <path class="fil1" d="M2.68 10.61c0.12,-0.04 0.07,-0.08 0.14,-0.19 0.14,-0.25 0.5,-0.3 0.71,-0.08 0.12,0.12 0.18,0.32 0.09,0.52 -0.14,0.28 -0.35,0.17 -0.4,0.33 0.05,0.03 0,0.02 0.08,0.03 0.08,0 0.16,-0.04 0.23,-0.09 0.29,-0.19 0.32,-0.62 0.1,-0.86 -0.39,-0.44 -0.97,-0.03 -0.98,0.24 -0.01,0.17 -0.02,0.03 0.03,0.1z"/>
     <path class="fil1" d="M1.82 10.15c0.01,0.13 -0.06,0.06 0.11,0.12 0.53,0.16 0.06,0.33 0.46,0.34 -0.06,-0.29 -0.15,-0.47 -0.44,-0.5 -0.21,-0.02 -0.07,-0.01 -0.13,0.04z"/>
     <path class="fil1" d="M3.36 10.77c-0.05,-0.03 -0.06,-0.02 -0.1,-0.04 0.01,0.13 0.03,0.19 0.1,0.27 0.12,-0.05 0.08,-0.02 0.12,-0.1l-0.12 -0.13z"/>
     <path class="fil1" d="M3.36 10.77c0.1,0.05 0.07,0.06 0.2,0.07l0.02 -0.16 -0.28 -0.02c0.03,0.06 0.02,0.06 0.06,0.11z"/>
     <path class="fil1" d="M3.25 10.58c0.09,-0.03 0.07,-0.01 0.15,-0.07 0.06,-0.05 0.04,-0.03 0.08,-0.1l-0.11 -0.11c-0.08,0.09 -0.09,0.17 -0.12,0.28z"/>
     <path class="fil1" d="M3.29 10.64l0.3 -0.01 -0.03 -0.16c-0.15,0.02 -0.21,0.08 -0.27,0.17z"/>
     <path class="fil1" d="M3.18 10.56c0.09,-0.09 0.01,0.08 0.09,-0.12 0.02,-0.06 0.02,-0.1 0.02,-0.16l-0.17 -0.01 0.06 0.29z"/>
     <path class="fil1" d="M3 10.51c0.09,0.04 0.06,0.03 0.15,0.07l-0.07 -0.27 -0.14 0.11c0.01,0.01 0.01,0.02 0.02,0.03 0,0.01 0.01,0.02 0.01,0.02l0.03 0.04z"/>
     <path class="fil1" d="M3 10.51c-0.13,-0.05 -0.12,-0.09 -0.17,0.06l0.14 0.04c0.06,0.01 0.08,0.01 0.14,0.02l-0.11 -0.12z"/>
    </g>
    <g>
     <path class="fil1" d="M22.7 10.03c-0.11,-0.03 -0.36,-0.22 -0.44,-0.3 0.04,-0.07 0.15,-0.25 0.23,-0.31 0.14,0.08 0.29,0.2 0.42,0.29l-0.21 0.32zm0.2 -0.76c-0.04,-0.09 -0.04,-0.19 0.05,-0.24 0.15,-0.09 0.17,0.04 0.16,0.17 -0.07,0.05 -0.1,0.09 -0.21,0.07zm-0.86 0.63c0.05,0.08 0.49,0.38 0.58,0.39 0.15,-0.13 0.51,-0.67 0.57,-0.88 0.21,-0.76 0.29,-0.63 0.36,-0.76 0.09,-0.19 -0.18,-0.37 -0.31,-0.16 -0.02,0.04 -0.01,0.06 -0.06,0.12 -0.24,0.36 -0.49,0.31 -0.84,0.82 -0.07,0.11 -0.27,0.35 -0.3,0.47z"/>
     <path class="fil1" d="M23.86 7.78c0.02,0.11 0.03,0.11 0.09,0.17l0.25 -0.14c0,-0.11 0.01,-0.09 -0.06,-0.16 -0.1,0 -0.19,0.07 -0.28,0.13z"/>
     <path class="fil1" d="M23.57 8.39c0.09,-0.02 0.17,-0.08 0.24,-0.13 0.07,-0.05 0.17,-0.09 0.19,-0.18 -0.1,0.02 -0.15,0.08 -0.22,0.13 -0.05,0.03 -0.07,0.04 -0.11,0.07 -0.1,0.07 -0.06,0.03 -0.1,0.11z"/>
     <path class="fil1" d="M23.62 8.46c0.11,0 0.11,-0.02 0.2,-0.05 0.11,-0.06 0.11,-0.03 0.13,-0.11 -0.11,0.02 -0.28,0.07 -0.33,0.16z"/>
     <path class="fil1" d="M23.7 8c0.02,0.05 0,0.12 0.11,0.03 -0.02,-0.04 0.02,-0.04 -0.03,-0.06 -0.14,-0.04 -0.05,0.01 -0.08,0.03z"/>
     <path class="fil1" d="M23.45 7.85c0.11,0.04 0.06,0.01 0.1,-0.01 -0.04,-0.15 -0.11,-0.07 -0.1,0.01z"/>
     <path class="fil1" d="M24.19 8.17c0.05,-0.02 0.07,0.04 0.06,-0.06 0,-0.07 -0.02,-0.04 -0.06,-0.05 -0.01,0.02 -0.07,0.03 0,0.11z"/>
    </g>
    <g>
     <path class="fil1" d="M8.1 15.23l1.01 -0.01c-0.04,0.12 -0.42,0.7 -0.5,0.81l-0.51 -0.8zm0.58 1.41c0,-0.5 -0.03,-0.39 0.19,-0.74 0.12,-0.2 0.23,-0.38 0.35,-0.56 0.24,-0.36 -0.04,-0.26 -0.42,-0.26 -0.25,0 -0.65,-0.02 -0.89,0.01 -0.02,0.14 0.1,0.28 0.17,0.38 0.39,0.62 0.46,0.55 0.46,1.18 -0.13,0.03 -0.44,0.11 -0.43,0.28 0.16,0.05 0.9,0.07 1.01,-0.02 -0.03,-0.14 -0.31,-0.22 -0.44,-0.27z"/>
     <path class="fil1" d="M8.28 14.96c-0.07,-0.21 -0.06,-0.13 0.13,-0.27 0.09,-0.08 0.18,-0.12 0.22,-0.25 -0.13,-0.08 -0.63,-0.13 -0.79,-0.1 -0.06,0.12 -0.31,0.63 -0.28,0.72 0.09,0.03 0.26,-0.04 0.36,-0.08 0.28,-0.13 0.08,-0.02 0.36,-0.02z"/>
     <path class="fil1" d="M8.93 14.96c0.2,-0.01 0.1,-0.16 0.33,-0.25 0.5,-0.2 0.72,0.58 0.24,0.7 -0.18,0.04 -0.16,-0.05 -0.23,0.08 0.04,0.03 0.06,0.04 0.15,0.04 0.06,0 0.12,-0.02 0.16,-0.04 0.1,-0.03 0.16,-0.08 0.21,-0.16 0.44,-0.67 -0.75,-1.1 -0.86,-0.37z"/>
     <path class="fil1" d="M8.62 15.89c0.06,-0.1 0.26,-0.37 0.27,-0.48l-0.57 0c0.02,0.11 0.23,0.42 0.3,0.48z"/>
     <path class="fil1" d="M9.49 15.12l0.18 0.09 0.02 -0.15 -0.17 -0.01c-0.05,0.04 -0.06,-0.06 -0.03,0.07z"/>
     <path class="fil1" d="M9.49 15.12c0,0 -0.12,-0.03 0.03,0.21l0.09 -0.06c-0.03,-0.1 -0.05,-0.09 -0.12,-0.15z"/>
     <path class="fil1" d="M9.51 14.96c0.05,-0.05 0.06,-0.04 0.11,-0.11 -0.05,-0.05 -0.02,-0.04 -0.12,-0.08l-0.05 0.16c0.04,0.05 -0.07,0.06 0.06,0.03z"/>
     <path class="fil1" d="M9.47 14.74l-0.11 0c-0.05,0.06 -0.04,0.01 0.01,0.21 0.09,-0.07 0.08,-0.04 0.1,-0.21z"/>
     <path class="fil1" d="M9.35 14.97c-0.02,-0.12 -0.01,-0.12 -0.08,-0.2l-0.1 0.07c0.03,0.05 -0.03,0.05 0.18,0.13z"/>
     <path class="fil1" d="M9.51 14.96c-0.01,0.02 -0.03,0.06 -0.03,0.07l0.23 0 -0.03 -0.09c-0.08,-0.05 -0.03,-0.04 -0.17,0.02z"/>
     <path class="fil1" d="M9.36 15.36c0.11,-0.01 0.06,0.03 0.09,-0.03 0.05,-0.1 -0.04,-0.09 -0.04,-0.09l-0.05 0.12z"/>
    </g>
    <g>
     <path class="fil1" d="M15.08 21.06c-0.07,0.09 -0.16,0.14 -0.21,0.24 0.03,0.06 0.05,0.06 0.11,0.11 0.03,0.02 0.07,0.05 0.1,0.08 0.08,0.05 0.15,0.09 0.26,0.13 1.37,0.62 2.88,-1 1.81,-2.41 -0.04,-0.06 -0.04,-0.06 -0.1,-0.1 -0.1,0.06 -0.13,0.14 -0.23,0.22l0.03 0.02c0.13,0.07 0.2,0.17 0.27,0.34 0.04,0.08 0.06,0.16 0.08,0.26 0.04,0.18 -0.03,0.18 -0.03,0.25 0,0.02 0.14,0.27 -0.17,0.72 -0.09,0.14 -0.07,0.07 -0.17,0.14 -0.05,0.03 -0.06,0.26 -0.6,0.39 -0.2,0.04 -0.19,-0.02 -0.28,-0.02 -0.09,0 -0.08,0.06 -0.27,0.02 -0.5,-0.11 -0.54,-0.31 -0.6,-0.39z"/>
     <path class="fil1" d="M16.85 20.94c0.12,-0.12 0.31,-0.45 0.24,-0.66 -0.11,-0.04 -0.56,-0.03 -0.72,-0.03 -0.39,0 0.04,0.33 0.25,0.54 0.07,0.07 0.11,0.15 0.23,0.15z"/>
     <path class="fil1" d="M15.87 21.32c0.06,-0.1 0.05,-0.74 0,-0.85 -0.13,-0.03 -0.23,0.12 -0.31,0.2 -0.1,0.1 -0.2,0.19 -0.29,0.29 -0.22,0.23 0.43,0.39 0.5,0.39 0.08,0.01 0.06,0.01 0.1,-0.03z"/>
     <path class="fil1" d="M16.22 20.12c0.11,0.04 0.76,0.05 0.86,0 0.09,-0.08 -0.13,-0.81 -0.35,-0.62 -0.1,0.09 -0.2,0.2 -0.29,0.29 -0.06,0.06 -0.09,0.09 -0.15,0.15 -0.06,0.05 -0.1,0.08 -0.07,0.18z"/>
     <path class="fil1" d="M16.01 20.61l0 0.58c0,0.23 0.14,0.19 0.4,0.08 0.46,-0.19 0.29,-0.25 -0.09,-0.63 -0.06,-0.06 -0.31,-0.37 -0.31,-0.03z"/>
     <path class="fil1" d="M15.82 20.34c0.04,0.02 0.09,0.05 0.13,0.07 0.05,-0.02 0.1,-0.04 0.15,-0.07 0.09,-0.22 0.05,-0.08 0.01,-0.27 -0.09,0.03 -0.25,0.19 -0.29,0.27z"/>
    </g>
    <g>
     <path class="fil1" d="M5.89 11.11c0.04,0.08 0.12,0.05 0.32,0.05 0.08,0.08 0.12,0.16 0.21,0.24 0.07,0.07 0.17,0.13 0.27,0.18 -0.04,0.1 -0.41,0.47 -0.42,0.53 -0.02,0.11 -0.01,-0.1 0,0.03 0,0 0,0.01 0,0.01 0.02,0.12 0.26,-0.19 0.27,-0.22 0.09,-0.1 0.16,-0.18 0.26,-0.29 0.13,0.01 0.24,0.06 0.41,0.06 0.17,0 0.28,-0.05 0.42,-0.06l0.37 0.44c0.04,0.05 0.08,0.11 0.15,0.09 0.06,-0.06 -0.1,-0.19 -0.18,-0.29 -0.08,-0.09 -0.15,-0.18 -0.24,-0.27 0.06,-0.08 0.19,-0.13 0.27,-0.2 0.28,-0.24 0.02,-0.24 0.42,-0.25 0.1,0 0.1,0.01 0.11,-0.07 -0.06,-0.05 -0.07,-0.03 -0.16,-0.03 -0.06,0 -0.04,0 -0.08,-0.02l-0.04 -0.02c0,0 0,0 -0.01,0 -0.35,0.19 -0.77,0.23 -1.24,0.21 -0.3,-0.02 -0.53,-0.06 -0.78,-0.19 -0.09,-0.05 -0.06,-0.01 -0.07,-0.01 -0.15,0.07 -0.21,-0.03 -0.26,0.08z"/>
     <path class="fil1" d="M6.93 10.42c0.32,-0.03 0.83,-0.02 1.08,0.12 0.45,0.25 -0.23,0.43 -0.49,0.45 -0.98,0.08 -1.55,-0.23 -1.09,-0.46 0.14,-0.07 0.33,-0.1 0.5,-0.11zm0.08 -0.13c-0.23,0.02 -0.46,0.05 -0.65,0.13 -0.6,0.25 -0.16,0.79 1.08,0.7 0.21,-0.01 0.45,-0.05 0.63,-0.13 0.65,-0.29 0.02,-0.79 -1.06,-0.7z"/>
     <path class="fil1" d="M7.21 10.12c0.2,-0.05 0.02,-0.41 0.02,-0.41 -0.01,-0.09 0.03,-0.07 -0.01,-0.17 -0.12,0 -0.12,0.18 -0.07,0.28 0.1,0.17 -0.03,0.21 0.06,0.3z"/>
     <path class="fil1" d="M7.56 10.12c0.13,0.01 0.1,-0.24 0.09,-0.26 -0.02,-0.07 -0.05,-0.08 -0.06,-0.15 -0.02,-0.1 0.03,-0.09 -0.01,-0.17 -0.12,0.01 -0.12,0.16 -0.08,0.26 0.03,0.05 0.06,0.06 0.06,0.14 -0.01,0.09 -0.05,0.08 0,0.18z"/>
     <path class="fil1" d="M6.86 9.55c-0.19,-0.06 -0.03,0.33 -0.03,0.39 0,0.07 -0.04,0.13 0.01,0.17 0.09,0.09 0.1,-0.19 0.09,-0.24 -0.03,-0.13 -0.05,-0.03 -0.05,-0.24 0,0 0.01,-0.03 -0.02,-0.08z"/>
     <polygon class="fil1" points="7.14,10.91 7.28,10.91 7.28,10.51 7.14,10.5 "/>
     <path class="fil1" d="M6.91 10.89l0.13 0.01 0 -0.39 -0.12 0.01c-0.04,0.1 -0.02,0.27 -0.01,0.37z"/>
     <path class="fil1" d="M7.38 10.9l0.14 0c0.01,-0.11 0.02,-0.29 -0.01,-0.38l-0.12 -0.01 -0.01 0.39z"/>
     <path class="fil1" d="M7.63 10.88l0.13 -0.03c0.01,-0.06 0.01,-0.17 0.01,-0.22 -0.01,-0.1 -0.04,-0.08 -0.14,-0.09l0 0.34z"/>
     <path class="fil1" d="M6.66 10.65l0 0.12 0 0.08 0.13 0.03 0.01 -0.08 0 -0.17 0 -0.09c-0.13,0.01 -0.14,0 -0.14,0.11z"/>
     <path class="fil1" d="M7.87 10.81c0.09,-0.02 0.13,-0.03 0.17,-0.1 -0.03,-0.08 -0.08,-0.09 -0.17,-0.11l0 0.21z"/>
     <path class="fil1" d="M6.38 10.71c0.04,0.07 0.09,0.08 0.17,0.11l0.01 -0.22c-0.1,0.03 -0.14,0.04 -0.18,0.11z"/>
    </g>
    <path class="fil1" d="M3.22 5.9c0.03,-0.05 0.21,-0.03 0.21,0.12 -0.09,0.03 -0.27,-0.01 -0.21,-0.12zm0.79 0.09c-0.1,0.04 -0.23,0.01 -0.24,-0.11 0.02,-0.03 0.23,-0.07 0.24,0.11zm-1.54 -0.16c0,-0.12 0.11,-0.13 0.23,-0.1 0.02,0.1 0.02,0.1 -0.08,0.13 -0.09,0.01 -0.09,0.01 -0.15,-0.03zm0.71 -0.24c-0.06,0.04 -0.2,0.09 -0.2,-0.07 0.09,-0.06 0.13,-0.04 0.21,-0.01l-0.01 0.08zm0.95 0.02c-0.05,0.01 -0.3,-0.01 -0.25,-0.14 0.02,-0.02 -0.01,-0.05 0.1,-0.03 0.09,0.01 0.16,0.07 0.15,0.17zm-1.13 -0.36c-0.27,0.05 -0.51,0.12 -0.7,0.26 -0.14,0.1 -0.43,0.39 -0.21,0.62 0.35,0.37 2.02,0.34 2.44,0.08 0.56,-0.34 -0.3,-1.17 -1.53,-0.96z"/>
    <path class="fil1" d="M4.91 7.64c-0.36,0.08 -0.47,0.28 -1.31,0.27 -0.57,0 -0.87,-0.1 -1.33,-0.27 -0.39,0.21 -0.02,0.46 0.26,0.56 0.65,0.23 2.03,0.22 2.45,-0.19 0.16,-0.16 0.04,-0.26 -0.07,-0.37z"/>
    <path class="fil1" d="M1.99 7.38c0.25,-0.02 0.18,-0.11 0.33,-0.2 0.11,-0.01 0.1,0.02 0.19,0 0.08,-0.02 0.04,-0.04 0.16,-0.05 0.09,0.05 0.09,0.09 0.18,0.12 0.08,-0.03 0.15,-0.09 0.21,-0.11 0.14,-0.03 0.11,0.05 0.28,0.02 0.25,-0.05 0.32,-0.04 0.56,0 0.52,0.11 0.21,0.05 0.56,0.04 0.14,0 0.46,0.09 0.58,0.05 0.17,-0.16 -0.03,-0.41 -0.08,-0.52 -0.14,0.05 -0.18,0.17 -0.59,0.24 -0.45,0.07 -1.14,0.07 -1.58,0 -0.34,-0.05 -0.37,-0.13 -0.59,-0.25 -0.19,0.13 -0.03,0.16 -0.19,0.35 -0.13,0.15 -0.13,0.16 -0.02,0.31z"/>
    <path class="fil1" d="M2.65 7.28c-0.18,0.08 -0.1,0.06 -0.3,0.03 -0.04,0.08 -0.04,0.06 -0.08,0.13 0.32,0.3 0.97,0.36 1.5,0.34 -0.09,-0.12 -0.36,-0.31 -0.5,-0.41 -0.15,-0.12 -0.14,-0.11 -0.28,-0.02 -0.19,0.11 -0.25,0.02 -0.34,-0.07z"/>
    <path class="fil1" d="M4.08 7.35l-0.22 0.41c0.33,0.03 0.92,-0.15 1.04,-0.35 -0.11,-0.08 -0.64,-0.04 -0.82,-0.06z"/>
    <path class="fil1" d="M3.78 7.59c0,-0.01 0.01,-0.02 0.01,-0.01 0,0 0.01,-0.02 0.01,-0.02 0,0 0.01,-0.01 0.01,-0.01l0.05 -0.09c0.03,-0.05 0.05,-0.09 0.06,-0.14 -0.08,-0.02 -0.51,-0.12 -0.5,-0.02 0.01,0.02 0.32,0.27 0.36,0.29z"/>
    <path class="fil1" d="M4.1 5.96c-0.05,0.13 0.2,0.15 0.24,0.14 0.02,-0.1 -0.05,-0.16 -0.14,-0.17 -0.11,-0.02 -0.08,0.01 -0.1,0.03z"/>
    <path class="fil1" d="M3.99 6.37c0,0.12 0.14,0.15 0.23,0.11 0,-0.18 -0.21,-0.14 -0.23,-0.11z"/>
    <path class="fil1" d="M3.65 6.51c0,-0.16 -0.18,-0.17 -0.21,-0.12 -0.06,0.11 0.12,0.15 0.21,0.12z"/>
    <path class="fil1" d="M3.2 6.01c0,0.16 0.14,0.11 0.2,0.07l0.01 -0.08c-0.09,-0.03 -0.13,-0.05 -0.21,0.01z"/>
    <g>
     <path class="fil1" d="M17.28 13.04c-0.08,0.05 -0.17,0.01 -0.18,-0.08 0.02,-0.03 0.08,-0.03 0.12,-0.01 0.06,0.02 0.06,0.03 0.06,0.09zm0.2 -0.4c0.2,-0.13 0.34,0.16 0.18,0.27 -0.07,0.04 -0.18,0.03 -0.23,-0.04 -0.06,-0.1 -0.03,-0.18 0.05,-0.23zm-0.74 0.09c0.09,-0.01 0.11,0.02 0.09,0.11 -0.08,0.01 -0.11,-0.02 -0.09,-0.11zm0.17 -0.21c0.1,-0.01 0.14,0.04 0.1,0.12 -0.07,0.03 -0.14,-0.02 -0.1,-0.12zm1.12 0.1c-0.04,-0.08 0.01,-0.14 0.09,-0.12 0.02,0.07 0,0.15 -0.09,0.12zm-0.21 -0.11c-0.04,0.04 -0.13,-0.03 -0.09,-0.08 0.02,-0.02 0.04,-0.05 0.09,-0.01 0.03,0.04 0.03,0.06 0,0.09zm-0.47 -0.02c-0.07,0.01 -0.14,-0.01 -0.15,-0.09 0,-0.09 0,-0.01 0.02,-0.04 0.08,-0.03 0.13,0.04 0.13,0.13zm-0.7 -0.19c0.1,-0.02 0.15,0.02 0.16,0.11l-0.02 0.01c-0.06,0.05 -0.14,-0.03 -0.14,-0.12zm1.5 -0.03c-0.03,0.04 -0.15,0.06 -0.16,-0.05 0.03,-0.04 0.2,-0.04 0.16,0.05zm-1.24 -0.29c0.21,-0.12 0.32,0.2 0.14,0.28 -0.09,0.04 -0.18,-0.01 -0.21,-0.07 -0.05,-0.11 0,-0.18 0.07,-0.21zm0.02 -0.19l-0.01 0.06c-0.08,0.04 -0.12,0.02 -0.11,-0.07 0.07,-0.03 0.04,-0.04 0.12,0.01zm0.41 0.11c-0.06,0.03 -0.13,-0.08 -0.1,-0.15 0.13,-0.01 0.16,0.12 0.1,0.15zm-0.35 -0.32c0.01,-0.04 0.02,-0.05 0.07,-0.06 0.02,-0.01 0.03,-0.01 0.05,-0.01 0.06,0.01 0.12,0.08 -0.01,0.11 -0.08,0.03 -0.08,0.02 -0.11,-0.04zm0.39 -0.12c0.02,-0.05 0.16,-0.07 0.14,0.07 -0.07,0.03 -0.16,-0.02 -0.14,-0.07zm0.96 0.61l-0.93 0.17 0.33 -0.89c-0.51,-0.14 -0.89,0.01 -1.12,0.33 -0.26,0.36 -0.23,0.83 0.03,1.16 0.57,0.71 1.81,0.29 1.69,-0.77z"/>
     <path class="fil1" d="M18.61 12.02l-0.16 0.02c0.03,0.52 -0.09,0.89 -0.58,1.16 -0.49,0.25 -1.05,0.02 -1.29,-0.28 -0.48,-0.6 -0.22,-1.44 0.45,-1.68 0.4,-0.14 0.51,-0.03 0.76,0l0.05 -0.15c-0.32,-0.08 -0.5,-0.13 -0.85,-0.02 -0.85,0.29 -1.05,1.36 -0.55,1.95 0.81,0.94 2.32,0.34 2.17,-1z"/>
     <path class="fil1" d="M18.1 11.38c0.22,-0.09 0.35,0.27 0.12,0.35 -0.22,0.08 -0.37,-0.25 -0.12,-0.35zm-0.43 0.58l0.88 -0.15c-0.05,-0.33 -0.3,-0.58 -0.56,-0.67l-0.32 0.82z"/>
     <path class="fil1" d="M18.04 11.02c0.14,0.1 0.23,0.1 0.39,0.3 0.11,0.13 0.19,0.26 0.22,0.46l0.22 -0.04c-0.07,-0.4 -0.41,-0.82 -0.77,-0.91l-0.06 0.19z"/>
    </g>
    <g>
     <path class="fil1" d="M3.2 21.59c1.07,-0.26 1.46,1.38 0.39,1.64 -1.09,0.27 -1.51,-1.37 -0.39,-1.64zm-0.11 -0.46c-0.38,0.1 -0.61,0.26 -0.79,0.52 -0.19,0.28 -0.3,0.67 -0.2,1.07 0.15,0.61 0.79,1.17 1.59,0.97 0.62,-0.15 1.17,-0.78 0.98,-1.59 -0.15,-0.6 -0.8,-1.18 -1.58,-0.97z"/>
     <path class="fil1" d="M3.23 21.75c-0.92,0.24 -0.52,1.54 0.33,1.32 0.86,-0.23 0.52,-1.55 -0.33,-1.32z"/>
     <path class="fil1" d="M4.67 21.33l0 0.33c0,0.72 0.86,0.72 0.86,0 0,-0.52 0.05,-0.51 -0.13,-0.52 -0.1,0.3 0.11,0.74 -0.21,0.86 -0.02,-0.26 0.04,-0.65 -0.03,-0.86 -0.12,0.01 -0.12,-0.01 -0.14,0.1 -0.01,0.02 0,0.22 0,0.26 0,0.16 0.01,0.34 -0.01,0.51 -0.36,-0.15 -0.04,-0.61 -0.22,-0.87 -0.14,0.01 -0.12,0.04 -0.12,0.19z"/>
     <path class="fil1" d="M1.36 22.81l0.4 0 -0.01 -1.6c-0.4,0.1 -0.39,1.25 -0.39,1.6z"/>
     <path class="fil1" d="M5.2 22.36l-0.2 0c-0.02,0.22 -0.02,0.45 -0.03,0.67 0,0.18 -0.09,0.59 0.14,0.58 0.2,-0.02 0.13,-0.38 0.12,-0.58 -0.01,-0.22 -0.01,-0.46 -0.03,-0.67z"/>
     <path class="fil1" d="M1.49 23.33c0.01,0.13 0.01,0.35 0.21,0.26 0.14,-0.06 0.07,-0.28 0.08,-0.4 -0.09,-0.21 0.03,-0.21 -0.24,-0.2 -0.01,0.13 -0.01,0.25 -0.05,0.34z"/>
     <path class="fil1" d="M1.49 23.33c0.04,-0.09 0.04,-0.21 0.05,-0.34 0.27,-0.01 0.15,-0.01 0.24,0.2l-0.01 -0.21c-0.11,-0.04 -0.15,-0.04 -0.26,0l-0.02 0.35z"/>
    </g>
    <path class="fil1" d="M7.23 7.41c-0.08,-0.2 -0.13,-0.32 -0.09,-0.44 0.01,-0.03 0.05,-0.08 0.05,-0.09 0.1,-0.19 -0.04,-0.19 0.04,-0.34 0.03,-0.08 0.12,-0.07 0.2,-0.24 0.19,-0.39 0.05,0 0.29,-0.38 0.01,-0.01 0.01,-0.02 0.02,-0.03 0.18,-0.28 0.16,0.12 0.36,-0.29 0.58,-0.01 0.12,0.05 0.53,-0.15 0.16,-0.03 0.14,0.12 0.38,0.05 0.36,-0.11 0.17,0 0.39,0.02 0.21,0.03 0.1,-0.06 0.38,0.07 0.19,0.1 0.24,0.05 0.37,0.2 -1,-0.1 -1.77,-0.12 -2.47,0.87 -0.22,0.32 -0.18,0.33 -0.27,0.58 -0.1,0.25 -0.02,0.13 -0.18,0.17zm0.83 -1.85c-0.15,0.27 0.02,0.1 -0.23,0.19 -0.31,0.12 0,0.01 -0.34,0.33 -0.01,0.01 -0.02,0.01 -0.03,0.02 -0.12,0.14 0,0.1 -0.16,0.27 -0.28,0.31 -0.08,0.15 -0.18,0.49 -0.07,0.22 -0.1,0.08 -0.02,0.37 0.06,0.23 0.15,0.44 0.28,0.63 0.26,0.37 0.96,0.05 1.39,-0.07 0.49,-0.14 0.95,-0.27 1.43,-0.43 1.69,-0.56 0.15,-1.51 -0.74,-1.41 -0.85,0.09 -1.62,0.57 -1.86,1.34 -0.02,0.07 -0.03,0.12 -0.05,0.19l-0.06 0.18c-0.17,-0.4 0.46,-1.23 0.99,-1.5 0.95,-0.49 1.45,-0.26 2.11,-0.03 -0.24,-0.51 -1.2,-0.76 -1.47,-0.73 -0.25,0.02 0,0.09 -0.34,0.01 -0.23,-0.04 -0.16,-0.01 -0.31,0.07 -0.18,0.11 -0.16,0.05 -0.41,0.08z"/>
    <g>
     <path class="fil1" d="M13.28 11.29c-0.17,0.08 -0.12,0.03 -0.5,0.02l-1.05 0c-0.16,0.01 -0.14,-0.01 -0.27,0 -0.18,0.02 -0.06,0.05 -0.28,0 0.04,0.23 0.25,0.81 0.35,1 0.3,0.06 1.08,0.06 1.4,0.01l0.35 -1.03z"/>
     <path class="fil1" d="M11.7 11.21c0.53,0 1.7,-0.74 1.32,-0.94 -0.14,-0.08 -0.65,0.27 -0.83,0.34 -0.29,0.12 -0.66,0.13 -0.88,0.28 -0.03,0.34 0.04,0.32 0.39,0.32z"/>
     <path class="fil1" d="M12.77 10.12c-0.08,-0.3 -0.09,-0.02 -0.38,-0.41 -0.11,0.09 -0.11,0.13 -0.25,0.21 -0.1,0.05 -0.22,0.08 -0.33,0.14 -0.11,0.06 -0.46,0.38 -0.26,0.59 0.19,0.2 1.13,-0.42 1.22,-0.53z"/>
     <path class="fil1" d="M12.3 11.16c0.24,0.01 0.47,0.01 0.67,-0.07 0.12,-0.05 0.42,-0.24 0.24,-0.41 -0.13,-0.12 -0.32,0.12 -0.45,0.2 -0.15,0.1 -0.34,0.16 -0.46,0.28z"/>
    </g>
    <g>
     <path class="fil1" d="M2.91 17.48c0.86,0 1.26,-0.42 1.24,-1.3l-2.5 0c0,0.88 0.4,1.3 1.26,1.3z"/>
     <path class="fil1" d="M1.54 17.56c0.12,0.11 0.13,0.08 0.3,0.09 0.34,0.01 -0.02,0.07 1.03,0.07 1.1,0 0.73,-0.05 1.06,-0.07 0.13,-0.01 0.24,-0.02 0.33,-0.05 -0.18,-0.12 -2.64,-0.05 -2.72,-0.04z"/>
     <path class="fil1" d="M2.75 15.62c-0.76,0 -0.74,0.37 -0.32,0.37 0.2,0 0.36,-0.04 0.53,-0.06 0.11,-0.02 0.17,-0.03 0.27,0.01 0.14,0.07 0.04,0.1 0.16,0.1 0,-0.01 0.08,0.04 0.01,-0.12 -0.12,-0.29 -0.8,0.03 -1.06,-0.08 0.03,-0.37 1.13,0.26 1.38,-0.76 -0.23,0.41 -0.38,0.54 -0.97,0.54z"/>
     <path class="fil1" d="M4.06 17c0.67,-0.31 0.5,-0.68 0.15,-0.74 0,0.24 -0.02,0.1 0.15,0.22 -0.02,0.35 -0.27,0.21 -0.3,0.52z"/>
    </g>
    <path class="fil1" d="M2.43 3.27c0.19,-0.1 0.3,0.18 0.13,0.27 -0.16,0.09 -0.32,-0.16 -0.13,-0.27zm0.35 0.02c-0.13,-0.37 0.36,-0.37 0.24,0 -0.1,0.04 -0.15,0.04 -0.24,0zm-0.99 -0.27c0.19,-0.11 0.3,0.18 0.13,0.26 -0.16,0.09 -0.33,-0.16 -0.13,-0.26zm1.43 -0.04c-0.29,0.04 -0.26,-0.2 -0.16,-0.26 0.17,-0.1 0.32,0.06 0.16,0.26zm-0.78 -0.12c-0.02,-0.24 0.12,-0.27 0.27,-0.15 0.05,0.25 -0.11,0.31 -0.27,0.15zm-0.29 0c-0.32,0.03 -0.33,-0.31 0.01,-0.29l0.07 0.17 -0.08 0.12zm-0.52 -0.51c0.18,-0.14 0.31,0.12 0.19,0.22 -0.15,0.13 -0.37,-0.09 -0.19,-0.22zm0.42 -0.17c-0.16,-0.15 -0.1,-0.32 0.15,-0.27 0.12,0.15 0.09,0.3 -0.15,0.27zm1.25 -0.03c-0.26,0.09 -0.09,0.07 -0.16,0.3 -0.14,0.07 -0.17,0.07 -0.28,-0.05l-0.42 0.23c0.02,-0.34 -0.02,-0.13 -0.04,-0.29 -0.01,-0.15 0.08,-0.13 0.16,-0.22 -0.03,-0.13 -0.21,-0.2 -0.02,-0.33 0.14,-0.09 0.05,0.06 0.12,-0.08 0,-0.02 0.07,-0.12 -0.31,-0.08 -1.01,0.08 -1.24,1.31 -0.59,1.81 0.37,0.29 0.94,0.32 1.32,0 0.28,-0.25 0.56,-0.9 0.22,-1.29z"/>
    <path class="fil1" d="M3.49 2.03l-0.13 0.07c0.05,0.28 0.2,0.37 0.11,0.77 -0.17,0.77 -1.1,1.11 -1.71,0.63 -0.84,-0.67 -0.33,-1.98 0.74,-1.92 0.02,0 0.09,0.01 0.11,0.01l0.07 -0.16c-0.2,-0.07 0.14,0.03 -0.05,-0.02 -0.12,-0.03 -0.27,-0.03 -0.37,-0.01 -0.17,0.02 -0.3,0.07 -0.43,0.13 -0.22,0.11 -0.42,0.32 -0.54,0.54 -0.32,0.63 -0.04,1.29 0.37,1.59 0.51,0.37 1.15,0.31 1.6,-0.07 0.18,-0.15 0.33,-0.38 0.39,-0.7 0.04,-0.17 0.04,-0.31 0.01,-0.48l-0.1 -0.29c-0.04,-0.07 0.01,0.01 -0.02,-0.04 -0.03,-0.04 -0.03,-0.03 -0.05,-0.05z"/>
    <path class="fil1" d="M2.87 1.83l-0.18 0.1c0.04,0.19 0,-0.01 0.09,0.14 0.06,0.09 0.04,0.1 0.01,0.19 -0.19,0.09 -0.2,-0.04 -0.23,0.2 0.54,-0.2 0.38,-0.35 0.5,-0.41 0.22,-0.07 0.13,0.09 0.35,-0.09 -0.07,-0.19 -0.36,-0.44 -0.62,-0.45 0.01,0.25 0.11,0.04 0.08,0.32z"/>
    <path class="fil1" d="M2.82 1.42l0.07 0.05c0.05,0.02 0.08,0.03 0.12,0.05 0.07,0.03 0.11,0.06 0.17,0.11 0.06,0.04 0.1,0.08 0.15,0.14 0.06,0.06 0.09,0.12 0.16,0.16l0.13 -0.07c-0.07,-0.25 -0.45,-0.51 -0.76,-0.59l-0.04 0.15z"/>
    <g>
     <path class="fil1" d="M18.56 23.19l0.97 -0.46c0.14,-0.09 0.06,0 0.1,-0.12l-1.13 -0.05 0.06 0.63z"/>
     <polygon class="fil1" points="18.62,23.58 18.63,23.87 19.55,23.42 19.58,23.11 "/>
     <path class="fil1" d="M18.69 24.36l0.76 0.04 0.05 -0.55c-0.15,0.06 -0.31,0.15 -0.44,0.21 -0.38,0.19 -0.36,0.14 -0.37,0.3z"/>
     <path class="fil1" d="M18.44 22.53l1.26 0c-0.07,-0.14 -0.03,-0.14 -0.21,-0.15 -0.13,-0.01 -0.29,0 -0.42,0 -0.12,0 -0.25,0 -0.37,0 -0.2,0 -0.19,0 -0.26,0.15z"/>
     <path class="fil1" d="M19.12 22.34c0.22,0.02 0.17,-0.03 0.25,-0.22 0.05,-0.11 0.14,-0.25 0.13,-0.35 -0.16,-0.05 -0.14,0.05 -0.22,0.22 -0.06,0.11 -0.12,0.23 -0.16,0.35z"/>
    </g>
    <g>
     <path class="fil1" d="M17.57 1.71c-0.34,0.23 -1.39,0.05 -1.57,0.05l0.12 -0.04c0.02,-0.01 0.09,0.17 0.05,-0.26 -0.02,-0.16 0.06,-0.11 -0.16,-0.1 -0.01,0.01 -0.01,0.01 -0.01,0.03l-0.03 0.09c-0.13,0.43 -0.06,0.38 0.05,0.99 0.07,0.39 0.14,0.8 0.21,1.18 0.32,0.09 0.81,0.12 1.14,-0.01 0.1,-0.18 0.29,-1.57 0.32,-1.88 -0.06,-0.06 0.07,-0.04 -0.12,-0.05z"/>
     <path class="fil1" d="M17.01 1.47l-0.02 0.33 0.39 -0.06 -0.01 -0.5c-0.01,-0.01 -0.02,-0.02 -0.03,-0.02l-0.04 -0.04c-0.13,0.03 -0.12,0.15 -0.11,0.28 -0.02,-0.17 0.02,-0.31 -0.1,-0.38 -0.12,0.07 -0.09,0.23 -0.08,0.39z"/>
     <path class="fil1" d="M16.49 1.24l-0.04 0.56c0.29,-0.01 0.12,-0.01 0.26,-0.14 -0.03,-0.21 0,-0.34 0.02,-0.54l-0.24 0 0 0.12z"/>
     <path class="fil1" d="M16.73 1.69c0.04,0.14 -0.08,0.1 0.16,0.11 0.07,-0.15 0.05,-0.46 0.05,-0.65l-0.17 0.02 -0.04 0.52z"/>
     <path class="fil1" d="M16.19 1.45c0.13,0.13 -0.02,0.22 0.14,0.31 0.08,-0.05 0.03,0.06 0.06,-0.08l0.01 -0.52 -0.18 0.01 -0.03 0.28z"/>
     <path class="fil1" d="M17.57 1.71l0.12 -0.03c-0.01,0 -0.02,-0.02 -0.03,-0.02 -0.03,0.09 -0.05,-0.3 -0.05,-0.3l-0.11 -0.04 -0.05 0.4 0.12 -0.01z"/>
    </g>
    <g>
     <path class="fil1" d="M11.59 4.28l1.54 0.02c0.43,0 0.15,-0.33 0.14,-0.35 -0.01,-0.05 0.04,-0.36 -0.33,-0.52 -0.42,-0.18 -0.83,-0.16 -1.16,0.15 -0.18,0.18 -0.07,0.09 -0.13,0.34 -0.04,0.18 -0.15,0.08 -0.06,0.36z"/>
     <path class="fil1" d="M12.58 5.67c0.27,-0.22 0.13,-0.44 0.03,-0.64 -0.12,-0.25 -0.18,-0.43 -0.31,-0.66l-0.3 0 0.58 1.3z"/>
     <path class="fil1" d="M12.47 5.96c0.11,-0.2 -0.08,-0.5 -0.27,-0.87 -0.26,-0.53 -0.22,-0.72 -0.52,-0.72 0.01,0.13 0.7,1.48 0.79,1.59z"/>
     <path class="fil1" d="M12.82 5.21c0.01,-0.01 0.02,-0.03 0.02,-0.03 0.01,0.01 0.02,-0.01 0.02,-0.02 0,0 0.01,-0.02 0.02,-0.02l0.07 -0.13c0.04,-0.08 0.08,-0.13 0.07,-0.23 -0.01,-0.09 -0.16,-0.36 -0.21,-0.41l-0.36 0c0.01,0.14 0.28,0.71 0.37,0.84z"/>
     <path class="fil1" d="M13.11 4.68l0.15 -0.3 -0.29 -0.01c0.03,0.14 0.07,0.21 0.14,0.31z"/>
    </g>
    <g>
     <path class="fil1" d="M17.78 17.2c-0.23,-0.03 -0.18,-0.13 -0.13,-0.24 0.2,-0.1 0.18,-0.08 0.39,-0.01 -0.03,0.17 -0.05,0.27 -0.26,0.25zm1.74 -0.71c0.13,-0.11 0.48,0.01 0.53,0.2 0.07,0.25 -0.02,0.16 -0.03,0.18 -0.32,0.13 -0.77,-0.14 -0.5,-0.38zm-2.9 0.23l0 0.93c0.6,0.05 1.38,0.19 1.98,0.2 0.36,0.01 0.35,-0.37 0.77,-0.06 0.23,0.17 0.02,0.19 0.95,0.22l0 -1.71 -3.7 0.42z"/>
     <path class="fil1" d="M16.81 16.55l3.04 -0.38c-0.01,-0.01 -0.03,-0.07 -0.03,-0.09 -0.04,-0.23 -0.09,-0.07 0,-0.22 0.27,0.07 0.08,0.11 0.19,0.28 0.19,-0.01 0.15,0.02 0.27,-0.07 -0.15,-0.2 -0.62,-0.64 -0.81,-0.71 -0.37,0.25 -0.04,0.21 -0.64,0.32 -0.25,0.05 -1.83,0.72 -2.02,0.87z"/>
    </g>
    <g>
     <path class="fil1" d="M8.9 25.17c0.48,-0.65 2.47,-0.77 3.3,-0.59 0.17,0.03 0.33,0.07 0.49,0.13 0.33,0.13 0.33,0.18 0.42,0.31 -1.56,0.24 -2.58,0.32 -4.21,0.15zm4.33 -2.02c0.08,0.2 0.15,0.35 0.14,0.63 -0.03,0.39 -0.21,0.27 0.07,0.47 -0.32,-0.06 -0.59,-0.2 -0.96,-0.28 -1.86,-0.4 -3.02,0.15 -4.43,0.68 0.08,0.28 0.25,0.5 0.4,0.68 0.07,0 0.23,-0.06 0.41,-0.07l1.43 0.11c1.12,0 2.74,-0.33 3.16,-0.24 0.12,-0.22 0.17,-0.28 0.3,-0.5 0.46,-0.77 -0.04,-1.31 -0.52,-1.48z"/>
     <path class="fil1" d="M11.33 22.75c0.32,0.7 0.14,0.18 0.27,0.86l0.04 0.14c0.23,0.08 0.65,0.14 0.83,0.07 0.27,-0.81 -0.29,-1.11 -1.14,-1.07z"/>
     <path class="fil1" d="M10.29 23.07c0.21,0.15 0.19,0.24 0.25,0.47l0.07 0.19 0.86 -0.02c0.03,-0.5 -0.01,-0.67 -0.31,-0.98l-0.97 0.11 0.1 0.23z"/>
     <path class="fil1" d="M10.29 23.07c-0.37,-0.21 -0.71,-0.07 -1.05,0.24 0.01,0.02 0.03,0.04 0.04,0.05l0.27 0.37c0.01,0.01 0.04,0.18 0.07,0.1 0.01,-0.01 0.02,0.04 0.04,0.05 0.89,-0.12 0.95,0.01 0.63,-0.81z"/>
     <path class="fil1" d="M12.36 22.85c0.23,0.43 0.29,0.48 0.2,1.11 0.32,0.05 0.36,0.13 0.65,0.14 0.06,-0.2 0.1,-0.2 0.1,-0.39 0,-0.66 -0.41,-0.75 -0.95,-0.86z"/>
     <path class="fil1" d="M8.59 23.87c0.18,0.18 0.17,0.27 0.48,0.21 0.25,-0.04 0.37,-0.16 0.42,-0.21 -0.1,-0.35 -0.07,-0.28 -0.36,-0.47 -0.26,0.11 -0.36,0.19 -0.54,0.47z"/>
     <path class="fil1" d="M8.07 24.53c0.27,-0.1 0.57,-0.23 0.71,-0.42l-0.31 -0.12c-0.2,0.15 -0.29,0.28 -0.4,0.54z"/>
    </g>
    <g>
     <path class="fil1" d="M9.28 18.69c0.06,0.08 0.03,0.01 0.03,0.12 -0.13,0.08 -0.09,0.08 -0.23,0 -0.02,-0.16 -0.03,-0.11 0.07,-0.2 0.08,0.02 0.01,-0.1 0.13,0.08zm-0.8 0c0.06,0.09 0.02,0.03 0.03,0.12 -0.14,0.08 -0.12,0.09 -0.24,-0.02 0,-0.14 0,-0.1 0.08,-0.17 0.09,0.01 0.01,-0.11 0.13,0.07zm-0.8 0c0.06,0.1 0.02,-0.01 0.03,0.13 -0.1,0.04 -0.14,0.06 -0.24,-0.03 0,-0.13 0.02,-0.13 0.12,-0.19 0.01,0.01 0.02,0.02 0.03,0.02l0.06 0.07zm-0.02 -0.25c-0.16,0.06 -0.31,0.11 -0.29,0.3 0.03,0.4 0.23,-0.18 0.18,0.7 -0.16,0 -0.54,-0.05 -0.63,0.06 -0.08,0.08 -0.06,0.66 0.01,0.72 0.34,0.14 0.46,-0.26 0.75,-0.14 0.13,0.05 0.19,0.17 0.33,0.2 0.24,0.06 0.21,-0.06 0.38,-0.06 0.18,0.01 0.16,0.15 0.42,0.05 0.12,-0.05 0.19,-0.17 0.33,-0.2 0.23,-0.07 0.72,0.49 0.77,-0.04 0.01,-0.13 0.03,-0.48 -0.08,-0.54 -0.01,0 -0.03,-0.01 -0.04,-0.02 -0.01,0 -0.02,-0.01 -0.03,-0.01 -0.16,-0.05 -0.31,0.02 -0.48,-0.05 -0.15,-0.38 0.1,-0.52 0.16,-0.62 -0.07,-0.22 -0.11,-0.09 -0.2,-0.35 -0.2,0.09 -0.29,0.1 -0.27,0.4 0.2,0.17 0.22,-0.02 0.18,0.6 -0.21,0 -0.51,0.03 -0.69,-0.03l-0.01 -0.36c0.07,-0.23 0.2,-0.08 0.17,-0.3 -0.02,-0.17 -0.1,-0.03 -0.17,-0.32 -0.61,0.27 -0.09,0.51 -0.08,0.62l-0.02 0.39c-0.21,0 -0.51,0.03 -0.7,-0.03 -0.01,-0.69 0.04,-0.3 0.19,-0.62 -0.07,-0.2 -0.11,-0.09 -0.18,-0.35z"/>
     <path class="fil1" d="M6.88 20.3c-0.01,0.58 -0.08,0.74 0.22,0.77 0.26,0.02 0.66,-0.01 0.94,-0.01 2.12,0 1.89,0.19 1.86,-0.76 -0.49,0.12 -0.5,-0.23 -0.77,-0.15 -0.14,0.04 -0.16,0.15 -0.32,0.21 -0.25,0.08 -0.25,-0.05 -0.42,-0.05 -0.17,0 -0.18,0.13 -0.41,0.05 -0.14,-0.05 -0.19,-0.16 -0.33,-0.21 -0.26,-0.08 -0.3,0.26 -0.77,0.15z"/>
    </g>
    <g>
     <path class="fil1" d="M21.23 6.92c-0.44,-0.87 -0.66,-0.12 -0.75,-2.01 -1.48,-0.39 -3.04,1.45 -3.28,2.33 -0.52,0 -0.82,-0.32 -1.26,-0.31l0.55 1.42c0.29,-0.26 0.4,-0.68 0.64,-1.02 0.29,0.02 0.19,0.04 0.51,0.16 1.44,0.56 2.45,0.2 3.59,-0.57z"/>
     <path class="fil1" d="M21.26 5.4c-0.17,0.24 -0.14,0.23 -0.36,0.06 -0.04,-0.26 0.17,-0.33 0.36,-0.06zm0.11 1.37c0.39,-0.32 0.92,-1.06 0.94,-1.49 -0.53,-0.22 -1.01,-0.43 -1.68,-0.41 -0.15,0.69 0.06,1.53 0.74,1.9z"/>
    </g>
    <g>
     <path class="fil1" d="M23.22 20.8c-0.12,0.06 -0.17,0.04 -0.32,0.04 -0.06,0 -0.15,-0.01 -0.2,0l-0.08 0.09c0.01,0 0.03,0.01 0.04,0.01l0.67 0.02c0.13,0 0.26,0 0.39,0 0.04,0 0.16,0 0.19,0l0.19 -0.06c-0.2,-0.15 -0.46,0.01 -0.67,-0.1 0.06,-0.12 -0.07,-0.07 0.18,-0.09 0.83,-0.07 1.03,0.13 0.95,-1.23 -0.58,0.12 -1.96,0.19 -2.51,-0.01 -0.27,1.34 0.37,1.22 0.95,1.24 0.23,0.01 0.16,-0.04 0.22,0.09z"/>
     <path class="fil1" d="M23.82 18.68c-0.17,-0.1 -0.3,-0.29 -0.63,-0.25 -0.11,0.02 -0.23,0.07 -0.3,0.15 -0.1,0.11 -0.08,0.02 -0.06,0.18 0.03,0.17 0.09,-0.08 0.02,0.05 -0.46,-0.22 -0.75,0.16 -0.77,0.6l0.62 0.12 1.05 0c0.05,-0.23 -0.01,-0.14 -0.01,-0.34l0.1 0.35c0.15,-0.05 0.47,-0.07 0.66,-0.12 -0.05,-0.43 -0.27,-0.45 -0.51,-0.58 -0.01,0 -0.03,-0.01 -0.04,-0.02 0.08,-0.12 0.32,-0.36 0.2,-0.48 -0.11,-0.11 -0.22,0.13 -0.33,0.34z"/>
    </g>
    <g>
     <path class="fil1" d="M21.6 14.83l-0.56 0.2c-0.07,1.02 1.78,0.12 2.17,-0.03 0.38,-0.15 0.76,-0.3 1.13,-0.44 0.44,-0.18 0.74,-0.25 0.71,-0.85 -0.27,0.01 -2.7,1.04 -3.45,1.12z"/>
     <path class="fil1" d="M21.54 14.66c-0.16,0.15 -0.33,0.12 -0.53,-0.03 -0.22,-0.17 -0.16,-0.27 -0.54,-0.15 -0.22,0.67 0.76,0.4 1.13,0.35 1.12,-0.67 3.73,-0.8 3.5,-1.95 -0.42,-0.09 -0.49,0.17 -0.77,0.33 -0.4,0.22 -2.1,0.63 -2.52,0.95 0.35,-0.01 0.23,-0.03 0.48,0.09l0.27 0.06c0.11,0.01 0.02,-0.03 0.1,0.01 -0.53,0.19 -0.28,-0.24 -0.81,-0.08 -0.22,0.2 0.01,0.28 -0.31,0.42z"/>
     <path class="fil1" d="M20.9 14.35c0.23,0.05 2.72,-0.97 3.2,-1.14 0.48,-0.17 0.36,-0.11 0.39,-0.28 -0.52,-0.22 -1.56,0.26 -2,0.45 -0.31,0.13 -0.6,0.26 -0.9,0.39 -0.28,0.12 -0.77,0.25 -0.69,0.58z"/>
     <path class="fil1" d="M21.54 14.66c0.1,-0.13 0.16,-0.33 0.25,-0.5l-0.88 0.35c0.24,0.13 0.24,0.19 0.63,0.15z"/>
    </g>
   </g>
  </g>
  <polygon class="fil2" points="0,0 26.44,0 26.44,26.44 0,26.44 "/>
 </g>
</svg>
