<?xml version="1.0" encoding="UTF-8"?>
<!DOCTYPE svg PUBLIC "-//W3C//DTD SVG 1.1//EN" "http://www.w3.org/Graphics/SVG/1.1/DTD/svg11.dtd">
<!-- Creator: CorelDRAW 2021.5 -->
<svg xmlns="http://www.w3.org/2000/svg" xml:space="preserve" width="200px" height="200px" version="1.1" style="shape-rendering:geometricPrecision; text-rendering:geometricPrecision; image-rendering:optimizeQuality; fill-rule:evenodd; clip-rule:evenodd"
viewBox="0 0 16.75 16.75"
 xmlns:xlink="http://www.w3.org/1999/xlink"
 xmlns:xodm="http://www.corel.com/coreldraw/odm/2003">
 <defs>
  <style type="text/css">
   <![CDATA[
    .fil2 {fill:none}
    .fil0 {fill:#E67E22;fill-opacity:0.149020}
    .fil1 {fill:#E67E22;fill-opacity:0.301961}
   ]]>
  </style>
   <clipPath id="id0">
    <path d="M0 0l16.75 0 0 16.75 -16.75 0 0 -16.75z"/>
   </clipPath>
   <clipPath id="id1">
    <path d="M0 0l16.75 0 0 16.75 -16.75 0 0 -16.75z"/>
   </clipPath>
 </defs>
 <g id="Camada_x0020_1">
  <metadata id="CorelCorpID_0Corel-Layer"/>
  <g style="clip-path:url(#id0)">
   <polygon class="fil0" points="0,0 16.75,0 16.75,16.75 0,16.75 "/>
  </g>
  <g style="clip-path:url(#id1)">
   <g id="_2083448513680">
    <g>
     <path id="_1" class="fil1" d="M5.2 2.45c0.01,-0.17 0.04,-0.33 0.05,-0.52 0.01,-0.18 -0.01,-0.36 0,-0.54l0.66 0c0.02,0.17 0,0.38 0.01,0.56 0.01,0.17 0.05,0.36 0.05,0.5 -0.26,0.05 -0.51,0.03 -0.77,0zm0.83 -0.3c0,-0.17 -0.04,-0.4 0,-0.57l0.11 0.01c0.03,0.1 0.04,0.21 0.05,0.32 0,0.17 -0.02,0.2 -0.16,0.24zm0.03 0.16c0.17,-0.17 0.28,-0.06 0.25,-0.44 0,-0.09 -0.01,-0.23 -0.04,-0.31 -0.05,-0.12 -0.1,-0.11 -0.25,-0.11l-0.01 -0.15c-0.16,-0.01 -0.71,-0.02 -0.84,0.01 -0.04,0.16 -0.01,0.45 -0.02,0.64 -0.02,0.56 -0.27,0.65 0.56,0.63 0.47,-0.02 0.36,-0.1 0.35,-0.27z"/>
     <path class="fil1" d="M5.39 2.33c-0.05,-0.06 0.01,-0.31 0.01,-0.53 -0.01,-0.11 0.01,-0.09 -0.05,-0.12 -0.06,0.03 -0.02,-0.03 -0.04,0.06 0,0.01 0,0.09 0,0.11 0,0.21 -0.03,0.36 -0.05,0.56 0.23,0.02 0.41,0.02 0.64,0.01l-0.05 -0.74 -0.4 0c0,0.17 0.02,0.53 -0.06,0.65z"/>
     <path class="fil1" d="M5.2 1.22c0.09,-0.04 0.01,-0.18 0.13,-0.23 0.1,-0.01 0.1,0.01 0.18,0 0.23,-0.02 0.03,0.03 0.26,0.05 0.22,0.03 0.08,0.12 0.19,0.18 0.1,-0.05 0,-0.21 -0.08,-0.24l-0.32 -0.07c-0.13,0 -0.33,-0.04 -0.38,0.15 -0.02,0.08 -0.03,0.13 0.02,0.16z"/>
    </g>
    <g>
     <path class="fil1" d="M15.46 14.68c0,0.27 -0.04,0.17 -0.11,0.31 -0.06,0.1 -0.04,0.99 -0.02,1.08 0.09,0.02 0.36,0.02 0.45,0l0.01 -0.28 -0.2 0 0 -0.58 0.19 0c0.04,-0.36 -0.13,-0.15 -0.13,-0.53 0,-0.16 0.05,-0.12 -0.02,-0.26 -0.27,-0.02 -0.17,0.07 -0.17,0.26z"/>
     <path class="fil1" d="M14.79 15.35c0.06,-0.03 0.18,-0.02 0.26,-0.01l0.02 0.09 -0.31 0 0.03 -0.08zm0.08 0.4l0 0.19c-0.08,0.02 -0.15,0.04 -0.16,0.12 0.06,0.04 0.34,0.04 0.41,0.01 0.02,-0.09 -0.08,-0.1 -0.16,-0.14l0 -0.18c0.07,-0.06 0.16,-0.08 0.2,-0.18 0.03,-0.1 -0.01,-0.25 -0.07,-0.31l-0.36 -0.01c-0.11,0.29 -0.08,0.35 0.11,0.47 0.02,0.02 0.02,0.02 0.03,0.03z"/>
    </g>
    <g>
     <path class="fil1" d="M8.46 9.87l0.08 0.23 -0.31 -0.01 -0.03 -0.14 0.26 -0.08zm-0.36 0.02c-0.02,0.21 0.15,0.5 0.3,0.62 0.04,0.03 0.09,0.05 0.11,0.08 0.04,0.04 0.1,0.22 0.1,0.28 -0.05,0.06 -0.15,0.15 -0.13,0.22 0.06,0.02 0.46,-0.1 0.49,-0.2 -0.06,-0.05 -0.16,-0.05 -0.26,-0.06 -0.02,-0.07 -0.07,-0.18 -0.08,-0.24 -0.02,-0.07 0.04,-0.18 0.04,-0.28 0,-0.18 -0.08,-0.43 -0.17,-0.55 -0.11,0 -0.29,0.09 -0.4,0.13z"/>
     <path class="fil1" d="M7.66 9.86l0.27 0.09 -0.04 0.15 -0.31 -0.01 0.08 -0.23zm-0.25 0.97l-0.2 0.03c-0.05,0.02 -0.02,0 -0.05,0.03 0.02,0.09 0.2,0.13 0.35,0.18 0,0 0.06,0.02 0.06,0.02 0.01,0 0.05,0.03 0.08,-0.01 0.04,-0.11 -0.16,-0.13 -0.13,-0.25 0.03,-0.2 0.09,-0.24 0.18,-0.3 0.12,-0.07 0.35,-0.39 0.32,-0.64 -0.1,-0.04 -0.28,-0.13 -0.4,-0.13 -0.08,0.09 -0.16,0.35 -0.16,0.5 -0.01,0.14 0.04,0.21 0.04,0.3 0,0.06 -0.07,0.2 -0.09,0.27z"/>
     <path class="fil1" d="M7.74 9.52c-0.01,0.11 0.16,0.25 0.2,0.2 0.05,-0.05 -0.03,-0.11 -0.06,-0.13 -0.05,-0.06 -0.05,-0.09 -0.14,-0.07z"/>
     <path class="fil1" d="M8.04 9.7c0.08,0.02 0.07,-0.02 0.07,-0.11 0.01,-0.1 0.03,-0.15 -0.07,-0.16 -0.03,0.05 -0.04,0.14 -0.03,0.21 0.02,0.07 0.01,0.04 0.03,0.06z"/>
     <path class="fil1" d="M8.19 9.72c0.07,0.03 0.21,-0.12 0.2,-0.19 -0.05,-0.03 -0.05,-0.03 -0.08,-0.01 0,0 -0.14,0.11 -0.14,0.16 0,0.05 0.01,0.02 0.02,0.04z"/>
    </g>
    <path class="fil1" d="M14.71 1.33c-0.03,-0.29 -0.11,0.03 -0.07,-0.5 0.11,-0.01 0.53,-0.02 0.62,0.01 0.01,0.09 0.04,0.2 0.01,0.29 -0.03,0.09 -0.06,0.07 -0.08,0.23 -0.01,0.18 -0.02,0.38 -0.05,0.55l-0.37 0c-0.04,-0.17 -0.04,-0.4 -0.06,-0.58zm-0.03 0.67l0.55 0c0.04,-0.22 0.02,-0.52 0.07,-0.71 0.04,-0.15 0.09,-0.08 0.07,-0.31 -0.03,-0.29 0.07,-0.25 -0.59,-0.25 -0.21,0 -0.22,-0.04 -0.24,0.16 -0.03,0.29 -0.02,0.21 0.05,0.36 0.05,0.11 0.05,0.59 0.09,0.75z"/>
    <path class="fil1" d="M14.88 1.18c0,0 -0.01,0 -0.01,0l-0.1 0.04 0.06 0.61 0.24 0 0.06 -0.63 -0.14 0c-0.02,-0.07 -0.03,-0.12 -0.05,-0.18 -0.02,-0.12 0,-0.12 -0.12,-0.12l0.06 0.28z"/>
    <path class="fil1" d="M15.09 0.66c0.08,-0.02 0.03,-0.03 0.08,-0.12 0.02,-0.04 0.07,-0.08 0.12,-0.11 0.12,-0.06 0.26,-0.02 0.34,0.05 0.13,0.12 0.1,0.37 -0.06,0.46 -0.1,0.05 -0.12,-0.01 -0.12,0.09 0.17,0.08 0.48,-0.28 0.25,-0.58 -0.25,-0.31 -0.74,0.04 -0.61,0.21z"/>
    <path class="fil1" d="M14.49 0.38l-0.01 0.04c0.07,0.07 0.15,0.03 0.21,0.09 0.09,0.09 -0.03,0.15 0.15,0.15 -0.05,-0.32 -0.29,-0.32 -0.35,-0.28z"/>
    <path class="fil1" d="M15.5 0.74c-0.09,-0.01 -0.02,-0.01 -0.04,0.03 0.02,0.06 0.01,0.09 0.06,0.13 0.07,-0.02 0.03,0.01 0.08,-0.05 -0.02,-0.04 -0.01,-0.02 -0.04,-0.05 -0.01,-0.01 -0.01,-0.01 -0.02,-0.01l-0.04 -0.05z"/>
    <path class="fil1" d="M15.45 0.64c0.07,-0.02 0.12,-0.06 0.15,-0.12 -0.03,-0.03 -0.03,-0.03 -0.08,-0.05 -0.05,0.05 -0.06,0.09 -0.07,0.17z"/>
    <path class="fil1" d="M15.28 0.58l0.1 0.06 -0.04 -0.17c-0.07,0.02 -0.05,0.01 -0.1,0.06 0.02,0.02 0.02,0.03 0.04,0.05z"/>
    <path class="fil1" d="M15.41 0.62c0.03,-0.03 0.06,-0.08 0.06,-0.13 0,-0.04 0,-0.01 -0.01,-0.03l-0.08 -0.02c-0.02,0.08 0.01,0.13 0.03,0.18z"/>
    <path class="fil1" d="M15.49 0.68l0.17 -0.01 -0.03 -0.1c-0.04,0.01 -0.07,0.01 -0.11,0.05 -0.03,0.04 0,0 -0.03,0.06z"/>
    <path class="fil1" d="M15.5 0.74c0.06,0.03 0.07,0.05 0.12,0.06l0.05 -0.09 -0.19 -0.01c0.01,0.02 0.01,0.03 0.02,0.04z"/>
    <path class="fil1" d="M15.28 0.58c-0.09,-0.02 -0.08,-0.01 -0.1,0.08l0.17 0.01 -0.07 -0.09z"/>
    <g>
     <path class="fil1" d="M1.36 7.96c-0.02,-0.14 -0.02,-0.96 0.01,-1.07l0.48 0c0.03,0.11 0.03,0.93 0.01,1.07l-0.5 0zm-0.07 0.06c0.05,0.05 0.59,0.05 0.65,0 0.06,-0.08 0.02,-0.62 0.02,-0.76 0,-0.48 0.11,-0.46 -0.35,-0.46 -0.45,0 -0.35,-0.03 -0.35,0.44 0,0.15 -0.04,0.69 0.03,0.78z"/>
     <path class="fil1" d="M1.65 7.24c-0.05,-0.31 -0.07,-0.27 -0.16,-0.27 0.01,0.06 0.13,0.68 0.04,0.82 -0.09,-0.09 0.03,-0.5 -0.06,-0.55 -0.07,0.03 -0.04,0.54 -0.03,0.64l0.35 -0.01 0 -0.62 -0.14 -0.01z"/>
     <path class="fil1" d="M1.69 6.72c0.08,-0.03 0.05,-0.05 0.09,-0.12 0.09,-0.16 0.33,-0.19 0.46,-0.05 0.07,0.08 0.11,0.2 0.05,0.33 -0.08,0.18 -0.22,0.11 -0.25,0.21 0.03,0.02 0,0.01 0.05,0.02 0.05,0 0.1,-0.03 0.15,-0.06 0.18,-0.12 0.2,-0.39 0.06,-0.54 -0.25,-0.28 -0.62,-0.02 -0.62,0.15 0,0.1 -0.01,0.02 0.01,0.06z"/>
     <path class="fil1" d="M1.16 6.43c0,0.08 -0.05,0.04 0.06,0.07 0.34,0.11 0.04,0.21 0.29,0.22 -0.03,-0.18 -0.09,-0.3 -0.27,-0.31 -0.13,-0.02 -0.05,-0.01 -0.08,0.02z"/>
     <path class="fil1" d="M2.13 6.82c-0.03,-0.01 -0.04,-0.01 -0.07,-0.02 0.01,0.08 0.02,0.12 0.07,0.17 0.07,-0.04 0.05,-0.01 0.08,-0.07l-0.08 -0.08z"/>
     <path class="fil1" d="M2.13 6.82c0.06,0.03 0.04,0.04 0.12,0.05l0.02 -0.1 -0.18 -0.01c0.02,0.03 0.02,0.03 0.04,0.06z"/>
     <path class="fil1" d="M2.06 6.7c0.06,-0.02 0.04,-0.01 0.09,-0.04 0.04,-0.03 0.03,-0.02 0.06,-0.07l-0.07 -0.06c-0.06,0.05 -0.07,0.1 -0.08,0.17z"/>
     <path class="fil1" d="M2.08 6.74l0.19 0 -0.02 -0.11c-0.09,0.01 -0.12,0.05 -0.17,0.11z"/>
     <path class="fil1" d="M2.01 6.69c0.06,-0.05 0.01,0.05 0.06,-0.08 0.01,-0.04 0.01,-0.06 0.01,-0.09l-0.1 -0.01 0.03 0.18z"/>
     <path class="fil1" d="M1.9 6.66c0.06,0.02 0.04,0.02 0.1,0.04l-0.05 -0.17 -0.08 0.07c0,0.01 0,0.02 0,0.02 0,0 0.01,0.01 0.01,0.01l0.02 0.03z"/>
     <path class="fil1" d="M1.9 6.66c-0.08,-0.03 -0.07,-0.06 -0.11,0.04l0.09 0.02c0.04,0.01 0.05,0.01 0.09,0.01l-0.07 -0.07z"/>
    </g>
    <g>
     <path class="fil1" d="M14.38 6.36c-0.07,-0.02 -0.23,-0.14 -0.28,-0.19 0.03,-0.05 0.1,-0.16 0.15,-0.2 0.09,0.05 0.18,0.13 0.26,0.18l-0.13 0.21zm0.13 -0.49c-0.03,-0.05 -0.03,-0.12 0.03,-0.15 0.1,-0.06 0.11,0.03 0.1,0.11 -0.04,0.03 -0.06,0.05 -0.13,0.04zm-0.55 0.4c0.04,0.05 0.31,0.24 0.37,0.25 0.1,-0.09 0.32,-0.42 0.36,-0.56 0.14,-0.48 0.19,-0.4 0.23,-0.48 0.05,-0.12 -0.12,-0.23 -0.2,-0.1 -0.01,0.02 -0.01,0.04 -0.03,0.08 -0.16,0.22 -0.32,0.19 -0.54,0.51 -0.04,0.07 -0.17,0.23 -0.19,0.3z"/>
     <path class="fil1" d="M15.12 4.93c0.01,0.07 0.01,0.07 0.05,0.11l0.16 -0.09c0,-0.07 0.01,-0.06 -0.04,-0.1 -0.06,0 -0.12,0.04 -0.17,0.08z"/>
     <path class="fil1" d="M14.93 5.31c0.06,-0.01 0.11,-0.05 0.15,-0.08 0.05,-0.03 0.11,-0.06 0.12,-0.11 -0.06,0.01 -0.09,0.05 -0.14,0.08 -0.03,0.02 -0.04,0.03 -0.07,0.05 -0.06,0.04 -0.03,0.02 -0.06,0.06z"/>
     <path class="fil1" d="M14.97 5.36c0.06,0 0.06,-0.01 0.12,-0.03 0.07,-0.04 0.07,-0.02 0.08,-0.07 -0.07,0.01 -0.17,0.04 -0.2,0.1z"/>
     <path class="fil1" d="M15.01 5.07c0.02,0.03 0,0.07 0.07,0.01 -0.01,-0.02 0.02,-0.02 -0.02,-0.03 -0.08,-0.02 -0.03,0 -0.05,0.02z"/>
     <path class="fil1" d="M14.86 4.97c0.07,0.03 0.03,0.01 0.06,-0.01 -0.03,-0.09 -0.07,-0.04 -0.06,0.01z"/>
     <path class="fil1" d="M15.33 5.18c0.02,-0.02 0.04,0.02 0.03,-0.04 0,-0.05 -0.01,-0.02 -0.03,-0.03 -0.01,0.01 -0.05,0.01 0,0.07z"/>
    </g>
    <g>
     <path class="fil1" d="M5.13 9.65l0.64 -0.01c-0.02,0.08 -0.26,0.45 -0.32,0.52l-0.32 -0.51zm0.37 0.89c0,-0.32 -0.02,-0.24 0.12,-0.47 0.08,-0.12 0.14,-0.24 0.22,-0.35 0.15,-0.23 -0.02,-0.17 -0.26,-0.17 -0.16,0 -0.42,-0.01 -0.57,0.01 -0.01,0.09 0.07,0.18 0.11,0.24 0.25,0.39 0.29,0.35 0.29,0.75 -0.08,0.02 -0.28,0.07 -0.28,0.18 0.11,0.03 0.58,0.04 0.65,-0.02 -0.02,-0.08 -0.2,-0.14 -0.28,-0.17z"/>
     <path class="fil1" d="M5.25 9.48c-0.05,-0.13 -0.05,-0.09 0.07,-0.17 0.07,-0.05 0.12,-0.08 0.15,-0.16 -0.08,-0.05 -0.4,-0.08 -0.51,-0.07 -0.03,0.08 -0.19,0.4 -0.17,0.46 0.06,0.02 0.16,-0.02 0.23,-0.05 0.18,-0.08 0.05,-0.01 0.23,-0.01z"/>
     <path class="fil1" d="M5.66 9.48c0.13,-0.01 0.06,-0.11 0.2,-0.16 0.32,-0.13 0.46,0.37 0.16,0.44 -0.12,0.03 -0.1,-0.03 -0.15,0.05 0.03,0.02 0.04,0.03 0.1,0.03 0.04,0 0.07,-0.01 0.1,-0.02 0.06,-0.03 0.1,-0.06 0.13,-0.11 0.28,-0.42 -0.47,-0.69 -0.54,-0.23z"/>
     <path class="fil1" d="M5.46 10.07c0.04,-0.07 0.17,-0.24 0.17,-0.31l-0.36 0c0.01,0.07 0.15,0.27 0.19,0.31z"/>
     <path class="fil1" d="M6.01 9.58l0.12 0.05 0.01 -0.09 -0.11 -0.01c-0.03,0.03 -0.03,-0.03 -0.02,0.05z"/>
     <path class="fil1" d="M6.01 9.58c0,0 -0.08,-0.02 0.02,0.13l0.06 -0.03c-0.02,-0.07 -0.03,-0.06 -0.08,-0.1z"/>
     <path class="fil1" d="M6.03 9.48c0.03,-0.03 0.03,-0.03 0.07,-0.07 -0.04,-0.04 -0.02,-0.03 -0.08,-0.05l-0.04 0.1c0.03,0.03 -0.04,0.04 0.05,0.02z"/>
     <path class="fil1" d="M6 9.34l-0.07 0c-0.03,0.04 -0.03,0 0.01,0.13 0.05,-0.05 0.05,-0.02 0.06,-0.13z"/>
     <path class="fil1" d="M5.92 9.49c-0.01,-0.08 -0.01,-0.08 -0.05,-0.13l-0.06 0.04c0.02,0.03 -0.02,0.04 0.11,0.09z"/>
     <path class="fil1" d="M6.03 9.48c-0.01,0.01 -0.02,0.04 -0.03,0.04l0.15 0 -0.02 -0.06c-0.05,-0.03 -0.02,-0.02 -0.1,0.02z"/>
     <path class="fil1" d="M5.93 9.73c0.07,0 0.04,0.02 0.06,-0.02 0.03,-0.06 -0.03,-0.06 -0.03,-0.06l-0.03 0.08z"/>
    </g>
    <g>
     <path class="fil1" d="M9.55 13.34c-0.04,0.06 -0.1,0.09 -0.13,0.15 0.02,0.04 0.03,0.04 0.07,0.07 0.02,0.02 0.04,0.03 0.06,0.05 0.05,0.04 0.1,0.06 0.17,0.09 0.86,0.39 1.82,-0.64 1.14,-1.53 -0.02,-0.04 -0.02,-0.04 -0.06,-0.06 -0.06,0.03 -0.08,0.09 -0.14,0.14l0.01 0.01c0.09,0.05 0.13,0.1 0.18,0.21 0.02,0.05 0.03,0.11 0.05,0.17 0.02,0.11 -0.02,0.11 -0.02,0.16 0,0.01 0.09,0.17 -0.11,0.45 -0.06,0.09 -0.05,0.04 -0.11,0.09 -0.03,0.02 -0.04,0.17 -0.38,0.25 -0.13,0.03 -0.12,-0.02 -0.17,-0.02 -0.06,0.01 -0.05,0.04 -0.18,0.02 -0.32,-0.07 -0.34,-0.2 -0.38,-0.25z"/>
     <path class="fil1" d="M10.67 13.27c0.08,-0.08 0.2,-0.29 0.16,-0.42 -0.07,-0.03 -0.36,-0.02 -0.46,-0.02 -0.25,0 0.03,0.21 0.16,0.34 0.04,0.05 0.07,0.09 0.14,0.1z"/>
     <path class="fil1" d="M10.06 13.51c0.03,-0.07 0.02,-0.47 0,-0.54 -0.09,-0.02 -0.15,0.07 -0.21,0.13 -0.06,0.06 -0.12,0.11 -0.18,0.18 -0.13,0.14 0.28,0.24 0.32,0.25 0.05,0 0.04,0 0.07,-0.02z"/>
     <path class="fil1" d="M10.27 12.75c0.07,0.02 0.49,0.03 0.55,0 0.06,-0.05 -0.08,-0.51 -0.22,-0.39 -0.06,0.05 -0.13,0.12 -0.19,0.18 -0.03,0.03 -0.06,0.06 -0.09,0.09 -0.04,0.04 -0.06,0.05 -0.05,0.12z"/>
     <path class="fil1" d="M10.14 13.06l0 0.37c0,0.14 0.09,0.11 0.25,0.05 0.3,-0.12 0.19,-0.16 -0.05,-0.4 -0.04,-0.04 -0.2,-0.24 -0.2,-0.02z"/>
     <path class="fil1" d="M10.02 12.89c0.03,0.01 0.06,0.03 0.09,0.04 0.02,-0.01 0.05,-0.03 0.09,-0.04 0.06,-0.14 0.03,-0.06 0,-0.18 -0.05,0.02 -0.15,0.12 -0.18,0.18z"/>
    </g>
    <g>
     <path class="fil1" d="M3.73 7.04c0.03,0.05 0.08,0.03 0.2,0.03 0.06,0.05 0.08,0.1 0.14,0.15 0.04,0.05 0.1,0.09 0.17,0.12 -0.03,0.06 -0.26,0.29 -0.27,0.33 -0.01,0.07 -0.01,-0.06 0,0.02 0,0 0,0.01 0,0.01 0.02,0.07 0.16,-0.13 0.18,-0.14 0.05,-0.07 0.1,-0.12 0.16,-0.18 0.08,0 0.15,0.03 0.26,0.03 0.11,0 0.18,-0.03 0.26,-0.03l0.24 0.27c0.03,0.03 0.05,0.07 0.09,0.06 0.04,-0.04 -0.06,-0.12 -0.11,-0.18 -0.05,-0.06 -0.1,-0.12 -0.15,-0.18 0.04,-0.05 0.12,-0.08 0.16,-0.12 0.19,-0.15 0.02,-0.16 0.27,-0.16 0.07,0 0.07,0 0.08,-0.05 -0.05,-0.03 -0.05,-0.01 -0.11,-0.01 -0.03,-0.01 -0.02,0 -0.05,-0.01l-0.02 -0.02c0,0 -0.01,0 -0.01,0 -0.22,0.12 -0.49,0.15 -0.78,0.13 -0.2,-0.01 -0.34,-0.04 -0.5,-0.12 -0.05,-0.03 -0.04,0 -0.04,0 -0.1,0.04 -0.13,-0.02 -0.17,0.05z"/>
     <path class="fil1" d="M4.39 6.6c0.2,-0.02 0.52,-0.01 0.68,0.08 0.29,0.16 -0.14,0.27 -0.31,0.29 -0.62,0.05 -0.98,-0.16 -0.69,-0.3 0.09,-0.04 0.21,-0.06 0.32,-0.07zm0.05 -0.08c-0.15,0.01 -0.29,0.03 -0.41,0.08 -0.38,0.16 -0.1,0.5 0.68,0.45 0.13,-0.01 0.29,-0.04 0.4,-0.09 0.41,-0.18 0.02,-0.5 -0.67,-0.44z"/>
     <path class="fil1" d="M4.57 6.41c0.12,-0.03 0.01,-0.26 0.01,-0.26 -0.01,-0.06 0.02,-0.05 0,-0.11 -0.08,0 -0.08,0.11 -0.05,0.18 0.06,0.11 -0.02,0.14 0.04,0.19z"/>
     <path class="fil1" d="M4.79 6.41c0.08,0.01 0.06,-0.15 0.06,-0.17 -0.01,-0.04 -0.03,-0.04 -0.04,-0.09 -0.01,-0.06 0.02,-0.05 -0.01,-0.11 -0.07,0.01 -0.08,0.11 -0.05,0.17 0.02,0.03 0.04,0.04 0.04,0.09 -0.01,0.05 -0.03,0.05 0,0.11z"/>
     <path class="fil1" d="M4.35 6.05c-0.12,-0.04 -0.02,0.21 -0.02,0.25 0,0.04 -0.03,0.08 0,0.11 0.06,0.05 0.07,-0.12 0.06,-0.16 -0.02,-0.08 -0.03,-0.01 -0.03,-0.15 0,0 0.01,-0.02 -0.01,-0.05z"/>
     <polygon class="fil1" points="4.52,6.91 4.61,6.91 4.61,6.66 4.53,6.65 "/>
     <path class="fil1" d="M4.37 6.9l0.09 0.01 0 -0.25 -0.08 0c-0.02,0.07 -0.01,0.17 -0.01,0.24z"/>
     <path class="fil1" d="M4.68 6.9l0.08 0c0.01,-0.06 0.02,-0.18 0,-0.24l-0.08 0 0 0.24z"/>
     <path class="fil1" d="M4.83 6.89l0.09 -0.02c0,-0.03 0,-0.1 0,-0.14 0,-0.06 -0.02,-0.05 -0.09,-0.05l0 0.21z"/>
     <path class="fil1" d="M4.22 6.75l0 0.08 0 0.04 0.08 0.02 0.01 -0.05 0 -0.11 0 -0.05c-0.08,0.01 -0.09,-0.01 -0.09,0.07z"/>
     <path class="fil1" d="M4.99 6.85c0.05,-0.02 0.08,-0.02 0.11,-0.06 -0.03,-0.05 -0.05,-0.06 -0.11,-0.08l0 0.14z"/>
     <path class="fil1" d="M4.04 6.79c0.03,0.04 0.06,0.05 0.11,0.06l0 -0.13c-0.06,0.01 -0.08,0.02 -0.11,0.07z"/>
    </g>
    <path class="fil1" d="M2.04 3.74c0.02,-0.04 0.13,-0.02 0.13,0.07 -0.05,0.02 -0.17,0 -0.13,-0.07zm0.5 0.06c-0.06,0.02 -0.15,0 -0.15,-0.08 0.01,-0.01 0.14,-0.04 0.15,0.08zm-0.98 -0.11c0,-0.07 0.07,-0.08 0.15,-0.06 0.01,0.06 0.01,0.06 -0.05,0.08 -0.06,0.01 -0.06,0.01 -0.1,-0.02zm0.46 -0.15c-0.04,0.03 -0.13,0.06 -0.13,-0.05 0.05,-0.03 0.08,-0.02 0.13,0l0 0.05zm0.59 0.01c-0.02,0.01 -0.18,0 -0.15,-0.09 0.01,-0.01 -0.01,-0.02 0.06,-0.01 0.06,0 0.1,0.04 0.09,0.1zm-0.71 -0.22c-0.17,0.03 -0.32,0.07 -0.44,0.16 -0.09,0.06 -0.27,0.24 -0.13,0.39 0.21,0.24 1.28,0.22 1.54,0.06 0.36,-0.22 -0.19,-0.75 -0.97,-0.61z"/>
    <path class="fil1" d="M3.11 4.84c-0.23,0.05 -0.29,0.18 -0.83,0.17 -0.36,0 -0.55,-0.06 -0.84,-0.17 -0.25,0.13 -0.01,0.29 0.17,0.36 0.4,0.14 1.28,0.14 1.54,-0.13 0.11,-0.09 0.03,-0.16 -0.04,-0.23z"/>
    <path class="fil1" d="M1.26 4.68c0.16,-0.02 0.12,-0.07 0.21,-0.13 0.07,-0.01 0.06,0.01 0.12,0 0.05,-0.01 0.02,-0.03 0.1,-0.03 0.06,0.03 0.06,0.06 0.11,0.07 0.06,-0.02 0.1,-0.06 0.14,-0.07 0.09,-0.02 0.07,0.04 0.18,0.01 0.15,-0.03 0.2,-0.02 0.35,0.01 0.33,0.06 0.13,0.03 0.35,0.02 0.1,0 0.3,0.06 0.37,0.03 0.11,-0.1 -0.02,-0.25 -0.05,-0.33 -0.08,0.04 -0.11,0.11 -0.37,0.15 -0.29,0.05 -0.72,0.05 -1.01,0 -0.21,-0.03 -0.23,-0.08 -0.37,-0.15 -0.12,0.08 -0.02,0.1 -0.12,0.22 -0.08,0.1 -0.08,0.1 -0.01,0.2z"/>
    <path class="fil1" d="M1.68 4.61c-0.12,0.05 -0.06,0.04 -0.19,0.02 -0.02,0.05 -0.03,0.04 -0.05,0.08 0.2,0.19 0.61,0.23 0.95,0.22 -0.06,-0.07 -0.23,-0.19 -0.32,-0.26 -0.09,-0.08 -0.09,-0.07 -0.18,-0.02 -0.11,0.07 -0.16,0.02 -0.21,-0.04z"/>
    <path class="fil1" d="M2.58 4.66l-0.13 0.25c0.21,0.02 0.58,-0.09 0.65,-0.22 -0.07,-0.04 -0.4,-0.02 -0.52,-0.03z"/>
    <path class="fil1" d="M2.39 4.81c0.01,-0.01 0.01,-0.01 0.01,-0.01 0,0 0.01,-0.01 0.01,-0.01 0,0 0,-0.01 0.01,-0.01l0.02 -0.05c0.02,-0.04 0.03,-0.06 0.04,-0.09 -0.05,-0.01 -0.32,-0.08 -0.31,-0.02 0,0.02 0.2,0.17 0.22,0.19z"/>
    <path class="fil1" d="M2.6 3.77c-0.03,0.09 0.13,0.1 0.15,0.09 0.01,-0.06 -0.03,-0.1 -0.09,-0.1 -0.07,-0.01 -0.05,0 -0.06,0.01z"/>
    <path class="fil1" d="M2.53 4.03c0,0.08 0.09,0.1 0.15,0.08 -0.01,-0.12 -0.14,-0.09 -0.15,-0.08z"/>
    <path class="fil1" d="M2.31 4.12c0,-0.09 -0.11,-0.11 -0.13,-0.07 -0.04,0.07 0.07,0.09 0.13,0.07z"/>
    <path class="fil1" d="M2.03 3.8c0,0.11 0.09,0.08 0.13,0.05l0 -0.05c-0.05,-0.02 -0.08,-0.03 -0.13,0z"/>
    <g>
     <path class="fil1" d="M10.95 8.26c-0.05,0.03 -0.11,0.01 -0.12,-0.05 0.02,-0.02 0.05,-0.02 0.08,-0.01 0.04,0.02 0.04,0.02 0.04,0.06zm0.13 -0.25c0.12,-0.09 0.21,0.1 0.11,0.17 -0.05,0.03 -0.12,0.02 -0.15,-0.03 -0.04,-0.06 -0.01,-0.11 0.04,-0.14zm-0.47 0.05c0.05,0 0.07,0.02 0.05,0.08 -0.05,0 -0.07,-0.02 -0.05,-0.08zm0.1 -0.13c0.06,0 0.09,0.03 0.07,0.08 -0.05,0.02 -0.09,-0.01 -0.07,-0.08zm0.71 0.06c-0.02,-0.05 0.01,-0.09 0.06,-0.07 0.01,0.05 0,0.09 -0.06,0.07zm-0.13 -0.06c-0.03,0.02 -0.09,-0.03 -0.06,-0.06 0.01,-0.01 0.02,-0.03 0.06,0 0.02,0.02 0.02,0.04 0,0.06zm-0.3 -0.01c-0.04,0 -0.09,-0.01 -0.09,-0.06 -0.01,-0.06 0,-0.01 0.01,-0.03 0.05,-0.02 0.08,0.03 0.08,0.09zm-0.44 -0.13c0.06,-0.01 0.09,0.02 0.1,0.07l-0.02 0.01c-0.03,0.03 -0.08,-0.02 -0.08,-0.08zm0.95 -0.02c-0.02,0.03 -0.1,0.04 -0.1,-0.03 0.02,-0.02 0.12,-0.02 0.1,0.03zm-0.79 -0.18c0.14,-0.07 0.21,0.13 0.09,0.18 -0.06,0.02 -0.11,-0.01 -0.13,-0.05 -0.04,-0.06 0,-0.11 0.04,-0.13zm0.01 -0.12l0 0.04c-0.05,0.02 -0.08,0.01 -0.07,-0.05 0.04,-0.02 0.03,-0.02 0.07,0.01zm0.26 0.07c-0.03,0.02 -0.08,-0.05 -0.06,-0.1 0.08,0 0.1,0.08 0.06,0.1zm-0.22 -0.21c0.01,-0.02 0.02,-0.03 0.05,-0.03 0.01,-0.01 0.02,-0.01 0.03,-0.01 0.04,0.01 0.07,0.05 -0.01,0.07 -0.05,0.02 -0.05,0.01 -0.07,-0.03zm0.25 -0.07c0.02,-0.03 0.1,-0.04 0.09,0.05 -0.05,0.01 -0.1,-0.02 -0.09,-0.05zm0.61 0.38l-0.59 0.11 0.21 -0.56c-0.33,-0.09 -0.57,0 -0.71,0.21 -0.17,0.23 -0.15,0.52 0.02,0.74 0.36,0.44 1.15,0.18 1.07,-0.5z"/>
     <path class="fil1" d="M11.79 7.62l-0.1 0.01c0.02,0.33 -0.06,0.56 -0.37,0.73 -0.31,0.16 -0.67,0.02 -0.82,-0.17 -0.3,-0.39 -0.14,-0.92 0.29,-1.07 0.25,-0.09 0.32,-0.02 0.48,0l0.03 -0.1c-0.2,-0.05 -0.32,-0.08 -0.53,-0.01 -0.55,0.19 -0.67,0.87 -0.36,1.24 0.52,0.59 1.48,0.21 1.38,-0.63z"/>
     <path class="fil1" d="M11.46 7.21c0.15,-0.06 0.23,0.17 0.08,0.22 -0.14,0.05 -0.23,-0.16 -0.08,-0.22zm-0.27 0.37l0.56 -0.1c-0.03,-0.2 -0.19,-0.36 -0.35,-0.42l-0.21 0.52z"/>
     <path class="fil1" d="M11.43 6.98c0.09,0.07 0.14,0.06 0.25,0.19 0.07,0.08 0.11,0.16 0.14,0.29l0.14 -0.02c-0.05,-0.26 -0.27,-0.52 -0.49,-0.58l-0.04 0.12z"/>
    </g>
    <g>
     <path class="fil1" d="M2.02 13.68c0.69,-0.17 0.93,0.87 0.25,1.04 -0.68,0.17 -0.96,-0.87 -0.25,-1.04zm-0.06 -0.29c-0.24,0.06 -0.39,0.16 -0.5,0.33 -0.12,0.18 -0.19,0.42 -0.13,0.67 0.1,0.39 0.5,0.74 1.01,0.62 0.39,-0.1 0.74,-0.5 0.62,-1.01 -0.1,-0.38 -0.51,-0.75 -1,-0.61z"/>
     <path class="fil1" d="M2.05 13.78c-0.59,0.15 -0.34,0.98 0.2,0.83 0.55,-0.14 0.34,-0.97 -0.2,-0.83z"/>
     <path class="fil1" d="M2.96 13.51l0 0.21c0,0.46 0.55,0.45 0.55,0 0,-0.33 0.02,-0.32 -0.09,-0.33 -0.06,0.19 0.07,0.47 -0.13,0.55 -0.02,-0.17 0.02,-0.41 -0.02,-0.55 -0.08,0.01 -0.08,-0.01 -0.09,0.06 0,0.02 0,0.14 0,0.17 0,0.1 0.01,0.22 -0.01,0.32 -0.22,-0.09 -0.02,-0.38 -0.14,-0.55 -0.08,0.01 -0.07,0.02 -0.07,0.12z"/>
     <path class="fil1" d="M0.86 14.45l0.25 0 0 -1.01c-0.26,0.06 -0.25,0.79 -0.25,1.01z"/>
     <path class="fil1" d="M3.29 14.16l-0.12 0.01c-0.01,0.13 -0.01,0.28 -0.02,0.42 0,0.11 -0.06,0.38 0.09,0.36 0.12,-0.01 0.08,-0.24 0.07,-0.36 0,-0.14 0,-0.29 -0.02,-0.43z"/>
     <path class="fil1" d="M0.94 14.78c0.01,0.08 0.01,0.22 0.14,0.17 0.09,-0.04 0.04,-0.18 0.05,-0.26 -0.06,-0.13 0.01,-0.13 -0.15,-0.13 -0.01,0.08 -0.01,0.16 -0.04,0.22z"/>
     <path class="fil1" d="M0.94 14.78c0.03,-0.06 0.03,-0.14 0.04,-0.22 0.16,0 0.09,0 0.15,0.13l-0.01 -0.13c-0.07,-0.03 -0.09,-0.03 -0.16,0l-0.02 0.22z"/>
    </g>
    <path class="fil1" d="M4.58 4.69c-0.05,-0.12 -0.08,-0.2 -0.06,-0.27 0.01,-0.03 0.04,-0.06 0.04,-0.06 0.06,-0.12 -0.03,-0.12 0.02,-0.22 0.02,-0.05 0.07,-0.04 0.13,-0.15 0.12,-0.25 0.03,0 0.18,-0.24 0,0 0.01,-0.01 0.01,-0.02 0.12,-0.18 0.1,0.07 0.23,-0.18 0.37,-0.01 0.08,0.03 0.34,-0.1 0.1,-0.02 0.09,0.08 0.24,0.03 0.22,-0.06 0.11,0 0.25,0.02 0.13,0.01 0.06,-0.04 0.23,0.04 0.13,0.06 0.16,0.03 0.24,0.13 -0.64,-0.07 -1.12,-0.08 -1.56,0.55 -0.15,0.2 -0.12,0.21 -0.18,0.37 -0.06,0.16 -0.01,0.08 -0.11,0.1zm0.52 -1.17c-0.09,0.17 0.02,0.06 -0.14,0.13 -0.2,0.07 0,0 -0.22,0.2 0,0.01 -0.01,0.01 -0.01,0.01 -0.08,0.09 0,0.07 -0.1,0.18 -0.18,0.19 -0.05,0.09 -0.12,0.3 -0.04,0.14 -0.06,0.05 -0.01,0.24 0.03,0.15 0.09,0.28 0.17,0.4 0.17,0.24 0.61,0.03 0.88,-0.05 0.31,-0.08 0.6,-0.17 0.91,-0.27 1.07,-0.35 0.1,-0.95 -0.47,-0.89 -0.53,0.06 -1.02,0.36 -1.18,0.85 -0.01,0.04 -0.01,0.08 -0.03,0.12l-0.04 0.11c-0.1,-0.25 0.3,-0.77 0.63,-0.95 0.6,-0.31 0.92,-0.17 1.34,-0.01 -0.15,-0.33 -0.76,-0.49 -0.93,-0.47 -0.16,0.01 0,0.05 -0.22,0.01 -0.14,-0.03 -0.1,-0.01 -0.19,0.04 -0.12,0.07 -0.1,0.03 -0.27,0.05z"/>
    <g>
     <path class="fil1" d="M8.42 7.15c-0.11,0.06 -0.08,0.02 -0.33,0.02l-0.66 0c-0.1,0 -0.09,-0.01 -0.17,0 -0.11,0.01 -0.04,0.03 -0.18,0 0.03,0.14 0.16,0.51 0.22,0.63 0.19,0.04 0.69,0.03 0.89,0.01l0.23 -0.66z"/>
     <path class="fil1" d="M7.41 7.1c0.34,0 1.08,-0.47 0.84,-0.6 -0.09,-0.05 -0.41,0.18 -0.53,0.22 -0.18,0.08 -0.41,0.08 -0.56,0.18 -0.01,0.22 0.03,0.2 0.25,0.2z"/>
     <path class="fil1" d="M8.09 6.41c-0.05,-0.19 -0.06,-0.01 -0.24,-0.26 -0.07,0.06 -0.07,0.08 -0.16,0.13 -0.06,0.04 -0.14,0.06 -0.21,0.09 -0.07,0.04 -0.29,0.25 -0.16,0.38 0.12,0.12 0.71,-0.27 0.77,-0.34z"/>
     <path class="fil1" d="M7.79 7.07c0.15,0.01 0.3,0.01 0.43,-0.04 0.08,-0.04 0.26,-0.16 0.15,-0.27 -0.08,-0.07 -0.2,0.08 -0.29,0.13 -0.09,0.06 -0.21,0.1 -0.29,0.18z"/>
    </g>
    <g>
     <path class="fil1" d="M1.84 11.08c0.55,0 0.8,-0.27 0.79,-0.83l-1.59 0c0,0.55 0.26,0.83 0.8,0.83z"/>
     <path class="fil1" d="M0.98 11.13c0.07,0.07 0.08,0.04 0.19,0.05 0.21,0.01 -0.02,0.05 0.65,0.05 0.69,0 0.46,-0.04 0.67,-0.05 0.08,-0.01 0.15,-0.01 0.21,-0.03 -0.11,-0.08 -1.67,-0.03 -1.72,-0.02z"/>
     <path class="fil1" d="M1.74 9.89c-0.48,0 -0.47,0.24 -0.2,0.24 0.13,0 0.23,-0.03 0.34,-0.04 0.06,-0.01 0.1,-0.02 0.16,0.01 0.09,0.04 0.03,0.06 0.11,0.06 0,-0.01 0.05,0.03 0.01,-0.07 -0.08,-0.19 -0.51,0.02 -0.68,-0.06 0.02,-0.23 0.72,0.17 0.88,-0.48 -0.15,0.26 -0.25,0.35 -0.62,0.34z"/>
     <path class="fil1" d="M2.57 10.77c0.43,-0.2 0.32,-0.43 0.1,-0.47 0,0.15 -0.02,0.07 0.09,0.14 -0.01,0.22 -0.17,0.13 -0.19,0.33z"/>
    </g>
    <path class="fil1" d="M1.54 2.07c0.12,-0.06 0.19,0.12 0.08,0.17 -0.1,0.06 -0.2,-0.1 -0.08,-0.17zm0.22 0.01c-0.08,-0.23 0.23,-0.23 0.15,0 -0.06,0.03 -0.09,0.03 -0.15,0zm-0.63 -0.17c0.13,-0.06 0.2,0.11 0.09,0.17 -0.11,0.05 -0.21,-0.1 -0.09,-0.17zm0.91 -0.02c-0.18,0.02 -0.17,-0.13 -0.1,-0.17 0.1,-0.06 0.2,0.04 0.1,0.17zm-0.49 -0.08c-0.02,-0.15 0.07,-0.17 0.17,-0.09 0.03,0.16 -0.08,0.19 -0.17,0.09zm-0.19 0c-0.2,0.02 -0.21,-0.19 0.01,-0.18l0.04 0.1 -0.05 0.08zm-0.33 -0.32c0.12,-0.09 0.2,0.08 0.12,0.14 -0.09,0.08 -0.23,-0.06 -0.12,-0.14zm0.27 -0.11c-0.1,-0.1 -0.06,-0.2 0.09,-0.17 0.08,0.09 0.06,0.19 -0.09,0.17zm0.79 -0.02c-0.16,0.06 -0.06,0.05 -0.1,0.19 -0.09,0.05 -0.11,0.05 -0.18,-0.03l-0.27 0.15c0.02,-0.22 -0.01,-0.08 -0.02,-0.19 -0.01,-0.09 0.05,-0.08 0.1,-0.13 -0.02,-0.09 -0.13,-0.13 -0.01,-0.22 0.09,-0.05 0.03,0.04 0.08,-0.05 -0.01,-0.01 0.04,-0.07 -0.2,-0.05 -0.64,0.05 -0.79,0.83 -0.38,1.15 0.24,0.19 0.6,0.2 0.84,0 0.18,-0.16 0.35,-0.57 0.14,-0.82z"/>
    <path class="fil1" d="M2.21 1.29l-0.08 0.04c0.03,0.17 0.12,0.24 0.07,0.49 -0.11,0.49 -0.7,0.7 -1.08,0.4 -0.54,-0.43 -0.21,-1.26 0.46,-1.22 0.02,0 0.06,0.01 0.07,0.01l0.05 -0.11c-0.13,-0.04 0.09,0.03 -0.04,-0.01 -0.07,-0.02 -0.16,-0.01 -0.23,0 -0.1,0.01 -0.19,0.04 -0.27,0.08 -0.14,0.07 -0.27,0.2 -0.34,0.34 -0.21,0.4 -0.03,0.82 0.23,1.01 0.32,0.24 0.73,0.2 1.01,-0.04 0.12,-0.1 0.22,-0.25 0.26,-0.45 0.02,-0.11 0.02,-0.19 0,-0.3l-0.06 -0.19c-0.03,-0.04 0,0.01 -0.02,-0.02 -0.02,-0.03 -0.01,-0.02 -0.03,-0.03z"/>
    <path class="fil1" d="M1.82 1.16l-0.12 0.06c0.03,0.13 0,0 0.06,0.09 0.04,0.06 0.03,0.06 0.01,0.12 -0.13,0.06 -0.13,-0.02 -0.15,0.13 0.34,-0.13 0.24,-0.22 0.32,-0.26 0.14,-0.04 0.08,0.06 0.22,-0.06 -0.04,-0.12 -0.23,-0.28 -0.4,-0.29 0.01,0.16 0.08,0.03 0.06,0.21z"/>
    <path class="fil1" d="M1.78 0.9l0.05 0.03c0.03,0.02 0.05,0.02 0.07,0.03 0.05,0.02 0.08,0.04 0.12,0.07 0.03,0.03 0.06,0.05 0.09,0.09 0.04,0.04 0.06,0.08 0.1,0.1l0.08 -0.04c-0.04,-0.16 -0.28,-0.33 -0.48,-0.38l-0.03 0.1z"/>
    <g>
     <path class="fil1" d="M11.76 14.69l0.61 -0.29c0.09,-0.05 0.04,0 0.07,-0.08l-0.72 -0.03 0.04 0.4z"/>
     <polygon class="fil1" points="11.8,14.94 11.8,15.12 12.39,14.84 12.4,14.64 "/>
     <path class="fil1" d="M11.84 15.43l0.48 0.03 0.03 -0.35c-0.09,0.04 -0.19,0.09 -0.27,0.13 -0.25,0.12 -0.24,0.09 -0.24,0.19z"/>
     <path class="fil1" d="M11.68 14.27l0.8 0c-0.05,-0.09 -0.02,-0.09 -0.14,-0.09 -0.07,-0.01 -0.18,0 -0.26,0 -0.08,0 -0.16,0 -0.24,0 -0.12,0 -0.11,0 -0.16,0.09z"/>
     <path class="fil1" d="M12.11 14.15c0.14,0.01 0.11,-0.02 0.16,-0.13 0.04,-0.08 0.09,-0.16 0.08,-0.23 -0.1,-0.03 -0.08,0.03 -0.14,0.14 -0.04,0.07 -0.07,0.15 -0.1,0.22z"/>
    </g>
    <g>
     <path class="fil1" d="M11.13 1.08c-0.21,0.15 -0.88,0.04 -0.99,0.03l0.07 -0.02c0.01,-0.01 0.06,0.11 0.03,-0.16 -0.01,-0.11 0.04,-0.07 -0.1,-0.07 0,0.01 0,0.01 -0.01,0.02l-0.02 0.06c-0.08,0.27 -0.03,0.24 0.04,0.62 0.04,0.25 0.09,0.51 0.13,0.75 0.2,0.06 0.51,0.08 0.72,-0.01 0.07,-0.11 0.19,-0.99 0.21,-1.19 -0.04,-0.03 0.04,-0.02 -0.08,-0.03z"/>
     <path class="fil1" d="M10.77 0.93l-0.01 0.21 0.25 -0.04 -0.01 -0.32c0,0 -0.01,-0.01 -0.01,-0.01l-0.03 -0.02c-0.08,0.02 -0.08,0.09 -0.07,0.17 -0.01,-0.1 0.01,-0.19 -0.07,-0.23 -0.07,0.04 -0.05,0.14 -0.05,0.24z"/>
     <path class="fil1" d="M10.45 0.79l-0.03 0.35c0.18,-0.01 0.08,0 0.17,-0.09 -0.02,-0.13 0,-0.22 0.01,-0.34l-0.15 0 0 0.08z"/>
     <path class="fil1" d="M10.6 1.07c0.03,0.09 -0.05,0.07 0.1,0.07 0.05,-0.1 0.03,-0.29 0.03,-0.41l-0.11 0.01 -0.02 0.33z"/>
     <path class="fil1" d="M10.26 0.92c0.08,0.08 -0.02,0.14 0.09,0.2 0.05,-0.04 0.01,0.04 0.04,-0.06l0 -0.32 -0.11 0 -0.02 0.18z"/>
     <path class="fil1" d="M11.13 1.08l0.07 -0.01c0,-0.01 -0.01,-0.02 -0.01,-0.02 -0.02,0.06 -0.04,-0.19 -0.04,-0.19l-0.06 -0.02 -0.03 0.25 0.07 -0.01z"/>
    </g>
    <g>
     <path class="fil1" d="M7.34 2.71l0.98 0.01c0.27,0 0.09,-0.21 0.09,-0.22 -0.01,-0.03 0.02,-0.23 -0.21,-0.33 -0.27,-0.11 -0.53,-0.1 -0.73,0.1 -0.12,0.11 -0.05,0.06 -0.09,0.21 -0.03,0.12 -0.09,0.06 -0.04,0.23z"/>
     <path class="fil1" d="M7.97 3.59c0.17,-0.14 0.08,-0.28 0.02,-0.41 -0.08,-0.15 -0.12,-0.26 -0.2,-0.41l-0.19 0 0.37 0.82z"/>
     <path class="fil1" d="M7.9 3.77c0.07,-0.12 -0.05,-0.31 -0.17,-0.55 -0.17,-0.33 -0.14,-0.45 -0.33,-0.45 0.01,0.08 0.44,0.94 0.5,1z"/>
     <path class="fil1" d="M8.12 3.3c0.01,-0.01 0.01,-0.02 0.02,-0.02 0,0.01 0.01,-0.01 0.01,-0.01 0,0 0.01,-0.01 0.01,-0.01l0.04 -0.08c0.03,-0.06 0.05,-0.09 0.05,-0.15 -0.01,-0.06 -0.11,-0.23 -0.13,-0.26l-0.23 0c0,0.09 0.18,0.45 0.23,0.53z"/>
     <path class="fil1" d="M8.3 2.97l0.1 -0.2 -0.18 0c0.01,0.09 0.04,0.13 0.08,0.2z"/>
    </g>
    <g>
     <path class="fil1" d="M11.26 10.89c-0.14,-0.01 -0.11,-0.07 -0.08,-0.15 0.13,-0.06 0.12,-0.04 0.25,0 -0.02,0.11 -0.04,0.17 -0.17,0.15zm1.1 -0.44c0.09,-0.08 0.31,0 0.34,0.12 0.05,0.16 -0.01,0.1 -0.02,0.12 -0.2,0.08 -0.48,-0.09 -0.32,-0.24zm-1.83 0.14l0 0.59c0.38,0.03 0.87,0.12 1.25,0.13 0.23,0 0.22,-0.24 0.49,-0.04 0.15,0.11 0.01,0.12 0.6,0.14l0 -1.08 -2.34 0.26z"/>
     <path class="fil1" d="M10.65 10.49l1.92 -0.25c0,0 -0.01,-0.04 -0.01,-0.05 -0.03,-0.15 -0.06,-0.05 0,-0.14 0.17,0.04 0.05,0.07 0.11,0.17 0.13,0 0.1,0.02 0.18,-0.04 -0.1,-0.13 -0.39,-0.41 -0.52,-0.45 -0.23,0.16 -0.02,0.13 -0.4,0.21 -0.16,0.02 -1.16,0.45 -1.28,0.55z"/>
    </g>
    <g>
     <path class="fil1" d="M5.64 15.95c0.3,-0.41 1.56,-0.49 2.09,-0.38 0.11,0.02 0.21,0.05 0.31,0.09 0.21,0.07 0.21,0.11 0.26,0.19 -0.98,0.15 -1.63,0.2 -2.66,0.1zm2.74 -1.28c0.05,0.12 0.1,0.22 0.09,0.4 -0.02,0.24 -0.13,0.17 0.04,0.29 -0.2,-0.04 -0.37,-0.13 -0.6,-0.18 -1.18,-0.25 -1.91,0.1 -2.81,0.44 0.05,0.18 0.16,0.31 0.25,0.42 0.05,0 0.15,-0.03 0.26,-0.04l0.91 0.07c0.71,0 1.73,-0.2 2,-0.15 0.08,-0.14 0.11,-0.17 0.19,-0.32 0.29,-0.49 -0.03,-0.82 -0.33,-0.93z"/>
     <path class="fil1" d="M7.18 14.41c0.2,0.45 0.09,0.12 0.17,0.55l0.02 0.08c0.15,0.05 0.41,0.09 0.53,0.05 0.17,-0.51 -0.18,-0.71 -0.72,-0.68z"/>
     <path class="fil1" d="M6.52 14.62c0.13,0.09 0.12,0.14 0.16,0.29l0.04 0.12 0.55 -0.01c0.02,-0.32 -0.01,-0.42 -0.2,-0.62l-0.61 0.07 0.06 0.15z"/>
     <path class="fil1" d="M6.52 14.62c-0.23,-0.14 -0.45,-0.05 -0.67,0.15 0.01,0.01 0.02,0.02 0.03,0.03l0.17 0.24c0.01,0 0.02,0.11 0.05,0.06 0,-0.01 0.01,0.02 0.02,0.03 0.57,-0.08 0.6,0.01 0.4,-0.51z"/>
     <path class="fil1" d="M7.83 14.48c0.14,0.27 0.18,0.3 0.13,0.7 0.2,0.03 0.22,0.08 0.41,0.08 0.04,-0.12 0.06,-0.12 0.06,-0.24 0,-0.42 -0.26,-0.47 -0.6,-0.54z"/>
     <path class="fil1" d="M5.44 15.12c0.12,0.12 0.11,0.17 0.3,0.14 0.16,-0.03 0.24,-0.11 0.28,-0.14 -0.07,-0.22 -0.05,-0.18 -0.24,-0.29 -0.16,0.06 -0.22,0.12 -0.34,0.29z"/>
     <path class="fil1" d="M5.11 15.54c0.17,-0.06 0.36,-0.15 0.45,-0.27l-0.2 -0.07c-0.12,0.09 -0.18,0.18 -0.25,0.34z"/>
    </g>
    <g>
     <path class="fil1" d="M5.88 11.84c0.04,0.05 0.02,0.01 0.02,0.08 -0.09,0.05 -0.06,0.05 -0.15,0 -0.01,-0.11 -0.01,-0.07 0.05,-0.13 0.05,0.01 0.01,-0.06 0.08,0.05zm-0.51 0c0.04,0.05 0.02,0.02 0.02,0.08 -0.08,0.05 -0.08,0.05 -0.15,-0.02 0,-0.09 0,-0.06 0.05,-0.11 0.06,0.01 0.01,-0.06 0.08,0.05zm-0.5 0c0.03,0.06 0.01,0 0.02,0.08 -0.07,0.03 -0.09,0.04 -0.16,-0.02 0,-0.08 0.02,-0.08 0.08,-0.12 0,0.01 0.01,0.01 0.02,0.02l0.04 0.04zm-0.02 -0.16c-0.1,0.04 -0.19,0.07 -0.18,0.19 0.02,0.25 0.15,-0.11 0.11,0.45 -0.1,0 -0.34,-0.04 -0.4,0.03 -0.04,0.05 -0.03,0.42 0.01,0.46 0.21,0.09 0.29,-0.16 0.47,-0.09 0.09,0.03 0.13,0.11 0.21,0.13 0.15,0.04 0.13,-0.04 0.25,-0.04 0.11,0 0.1,0.09 0.26,0.03 0.08,-0.03 0.12,-0.1 0.21,-0.13 0.15,-0.04 0.45,0.32 0.49,-0.02 0.01,-0.09 0.02,-0.31 -0.06,-0.34 0,0 -0.01,-0.01 -0.01,-0.01 -0.01,-0.01 -0.02,-0.01 -0.03,-0.01 -0.1,-0.04 -0.19,0.01 -0.3,-0.03 -0.1,-0.24 0.06,-0.33 0.1,-0.4 -0.05,-0.14 -0.07,-0.05 -0.13,-0.22 -0.12,0.06 -0.18,0.07 -0.17,0.26 0.13,0.1 0.14,-0.02 0.11,0.38 -0.13,0 -0.32,0.02 -0.43,-0.02l-0.01 -0.23c0.05,-0.15 0.13,-0.05 0.11,-0.19 -0.01,-0.11 -0.06,-0.02 -0.11,-0.2 -0.39,0.17 -0.06,0.32 -0.05,0.39l-0.01 0.25c-0.13,0 -0.33,0.02 -0.44,-0.02 -0.01,-0.44 0.02,-0.2 0.12,-0.4 -0.05,-0.12 -0.08,-0.05 -0.12,-0.22z"/>
     <path class="fil1" d="M4.36 12.86c-0.01,0.36 -0.05,0.47 0.14,0.49 0.16,0.01 0.42,-0.01 0.59,-0.01 1.35,0 1.2,0.12 1.18,-0.48 -0.31,0.07 -0.31,-0.14 -0.48,-0.09 -0.09,0.02 -0.11,0.09 -0.21,0.13 -0.16,0.05 -0.16,-0.03 -0.26,-0.03 -0.11,0 -0.12,0.08 -0.27,0.03 -0.08,-0.03 -0.12,-0.1 -0.21,-0.13 -0.16,-0.05 -0.19,0.16 -0.48,0.09z"/>
    </g>
    <g>
     <path class="fil1" d="M13.45 4.38c-0.28,-0.55 -0.42,-0.07 -0.48,-1.27 -0.93,-0.25 -1.92,0.92 -2.07,1.48 -0.33,-0.01 -0.52,-0.21 -0.8,-0.2l0.34 0.9c0.19,-0.17 0.26,-0.43 0.41,-0.65 0.19,0.01 0.12,0.03 0.32,0.11 0.91,0.35 1.55,0.12 2.28,-0.37z"/>
     <path class="fil1" d="M13.47 3.42c-0.11,0.15 -0.09,0.14 -0.23,0.04 -0.02,-0.17 0.11,-0.21 0.23,-0.04zm0.07 0.87c0.25,-0.2 0.58,-0.67 0.59,-0.94 -0.33,-0.14 -0.64,-0.28 -1.06,-0.27 -0.1,0.44 0.04,0.98 0.47,1.21z"/>
    </g>
    <g>
     <path class="fil1" d="M14.71 13.18c-0.08,0.04 -0.11,0.02 -0.21,0.02 -0.03,0 -0.08,0 -0.12,0l-0.05 0.06c0.01,0 0.02,0.01 0.03,0.01l0.42 0.01c0.08,0 0.16,0 0.24,0 0.03,0 0.11,0 0.13,0l0.11 -0.04c-0.12,-0.09 -0.28,0 -0.42,-0.06 0.04,-0.08 -0.04,-0.04 0.12,-0.06 0.52,-0.05 0.65,0.08 0.6,-0.78 -0.37,0.07 -1.24,0.12 -1.59,0 -0.17,0.85 0.23,0.77 0.6,0.78 0.15,0.01 0.1,-0.03 0.14,0.06z"/>
     <path class="fil1" d="M15.09 11.83c-0.11,-0.06 -0.19,-0.18 -0.4,-0.15 -0.07,0.01 -0.14,0.04 -0.19,0.09 -0.06,0.07 -0.05,0.02 -0.04,0.12 0.02,0.1 0.06,-0.06 0.01,0.03 -0.29,-0.14 -0.47,0.09 -0.48,0.37l0.39 0.08 0.66 0c0.04,-0.15 0,-0.09 0,-0.22l0.06 0.23c0.1,-0.03 0.3,-0.05 0.42,-0.08 -0.03,-0.27 -0.17,-0.28 -0.33,-0.36 0,-0.01 -0.01,-0.01 -0.02,-0.02 0.05,-0.07 0.2,-0.22 0.13,-0.3 -0.07,-0.07 -0.14,0.08 -0.21,0.21z"/>
    </g>
    <g>
     <path class="fil1" d="M13.68 9.39l-0.35 0.13c-0.05,0.65 1.13,0.08 1.38,-0.02 0.23,-0.09 0.48,-0.19 0.71,-0.28 0.28,-0.11 0.47,-0.16 0.45,-0.54 -0.17,0.01 -1.71,0.66 -2.19,0.71z"/>
     <path class="fil1" d="M13.65 9.29c-0.11,0.09 -0.22,0.07 -0.34,-0.02 -0.14,-0.11 -0.1,-0.17 -0.34,-0.1 -0.14,0.42 0.48,0.25 0.71,0.22 0.72,-0.42 2.37,-0.5 2.22,-1.23 -0.26,-0.05 -0.31,0.11 -0.49,0.21 -0.25,0.14 -1.33,0.4 -1.59,0.6 0.22,-0.01 0.14,-0.02 0.3,0.06l0.17 0.03c0.07,0.01 0.02,-0.01 0.06,0.01 -0.33,0.12 -0.17,-0.15 -0.51,-0.05 -0.14,0.13 0.01,0.18 -0.19,0.27z"/>
     <path class="fil1" d="M13.24 9.09c0.15,0.03 1.72,-0.62 2.03,-0.72 0.3,-0.11 0.22,-0.07 0.25,-0.18 -0.34,-0.14 -0.99,0.17 -1.27,0.28 -0.2,0.09 -0.38,0.17 -0.57,0.25 -0.18,0.08 -0.49,0.16 -0.44,0.37z"/>
     <path class="fil1" d="M13.65 9.29c0.06,-0.09 0.1,-0.21 0.15,-0.32l-0.55 0.22c0.15,0.09 0.15,0.12 0.4,0.1z"/>
    </g>
   </g>
  </g>
  <polygon class="fil2" points="0,0 16.75,0 16.75,16.75 0,16.75 "/>
 </g>
</svg>
