<?xml version="1.0" encoding="UTF-8"?>
<!DOCTYPE svg PUBLIC "-//W3C//DTD SVG 1.1//EN" "http://www.w3.org/Graphics/SVG/1.1/DTD/svg11.dtd">
<!-- Creator: CorelDRAW 2021.5 -->
<svg xmlns="http://www.w3.org/2000/svg" xml:space="preserve" width="1000px" height="1000px" version="1.1" style="shape-rendering:geometricPrecision; text-rendering:geometricPrecision; image-rendering:optimizeQuality; fill-rule:evenodd; clip-rule:evenodd"
viewBox="0 0 768.69 768.69"
 xmlns:xlink="http://www.w3.org/1999/xlink"
 xmlns:xodm="http://www.corel.com/coreldraw/odm/2003">
 <defs>
  <style type="text/css">
   <![CDATA[
    .fil1 {fill:none}
    .fil0 {fill:#7D3C98}
   ]]>
  </style>
   <clipPath id="id0">
    <path d="M0 0l768.69 0 0 768.69 -768.69 0 0 -768.69z"/>
   </clipPath>
 </defs>
 <g id="Camada_x0020_1">
  <metadata id="CorelCorpID_0Corel-Layer"/>
  <g>
  </g>
  <g style="clip-path:url(#id0)">
   <g id="_2180374969840">
    <path class="fil0" d="M218.72 433.55c0.81,23.32 0.07,48 0.07,71.47 0,21.01 3.65,49.32 -8.77,62.74 -11.34,12.24 -30.96,17.29 -52.94,18.51 -14.35,0.79 -19.82,0.01 -27.62,8.64 -10.27,11.36 -7.98,39.3 22.42,38.8 48.73,-0.8 97.03,-16.26 110.75,-67.97 5.23,-19.7 3.43,-46.81 3.43,-68.42 0,-23.84 -0.01,-47.69 0,-71.54 0.01,-13.82 -1.25,-20.85 -9.5,-26.98 -12.45,-9.25 -63.84,-6.58 -107.53,-70.93 -26.35,-38.8 -24.84,-74.45 -24.84,-118.24 0,-23.85 0,-47.69 0,-71.54 0,-23.24 -0.93,-48.45 0.1,-71.57l307.31 0.27c1.38,47.08 0.06,96.3 0.06,143.61 0,51.05 -0.2,80.55 -25.11,117.74 -17.89,26.72 -43.21,49.52 -81.09,61.98 -24.35,8.01 -35.74,4.34 -35.72,35.66 0.01,23.85 0,47.7 0,71.54 0,44.3 -5.13,81.67 31.45,112.24 21.57,18.04 54.19,23.84 83.77,24.17 28.28,0.32 32.37,-27.01 21.14,-39.09 -8.13,-8.73 -12.91,-7.63 -27.18,-8.36 -20.84,-1.08 -42.82,-6.61 -53.1,-18.28 -12.21,-13.87 -8.77,-41.01 -8.77,-62.98 0,-23.29 -0.94,-48.55 0.09,-71.59 20.04,-4.47 49.24,-21.96 62.57,-32.13 18.34,-13.98 32.41,-28.49 46.03,-48.57 35.91,-52.9 33.19,-95.83 33.19,-156.18l0 -142.3c0,-17.13 -1.25,-27.3 -14.11,-32.94 -9.37,-4.12 -77.1,-2.03 -92.94,-2.03l-236.15 0c-10.32,0 -38.01,-1.68 -45.4,1.89 -13.42,6.47 -13.42,16.82 -13.42,34.62l0 141.53c0,60.32 -2.6,103.08 33.58,156.02 23.28,34.05 58.57,64.31 108.23,80.21zm-104.91 281.19c0,-3.15 -1.52,-4.73 -4.56,-4.73 -3.04,0 -5.55,1.14 -7.53,3.41l-6.16 35.07 -18.69 0 9.35 -52.88 17.37 0 -1.21 6.49c4.32,-5.35 9.78,-8.03 16.38,-8.03 6.6,0 10.88,1.61 12.86,4.84 1.25,2.05 1.87,4.4 1.87,7.03 0,2.64 -0.18,5.1 -0.55,7.37l-2.97 16.93c-0.07,0.44 -0.11,0.84 -0.11,1.21 0,1.98 1.1,2.97 3.3,2.97 1.69,0 3.19,-0.37 4.51,-1.1l-0.55 12.42c-3.44,2.86 -7.37,4.29 -11.76,4.29 -9.97,0 -14.96,-4.18 -14.96,-12.53 0,-1.47 0.15,-3.04 0.44,-4.73l2.64 -14.62c0.22,-1.32 0.33,-2.46 0.33,-3.41zm75.68 16.82c0,1.91 0.98,2.86 2.92,2.86 1.94,0 3.57,-0.37 4.89,-1.1l-0.55 12.42c-3.52,2.86 -7.48,4.29 -11.87,4.29 -8.29,0 -12.79,-3.19 -13.53,-9.56 -4.39,6.37 -10.31,9.56 -17.75,9.56 -7.44,0 -12.26,-1.68 -14.46,-5.06 -1.47,-2.12 -2.2,-4.54 -2.2,-7.25 0,-2.71 0.22,-5.21 0.66,-7.48l6.16 -34.63 18.69 0 -5.17 29.24c-0.22,1.32 -0.33,2.64 -0.33,3.96 0,3.52 1.98,5.28 5.94,5.28 3.3,0 5.93,-1.14 7.91,-3.41l6.27 -35.07 18.69 0 -6.16 34.63c-0.07,0.44 -0.11,0.88 -0.11,1.32zm98 2.86c1.69,0 3.19,-0.37 4.51,-1.1l-0.55 12.42c-3.44,2.86 -7.36,4.29 -11.76,4.29 -9.97,0 -14.95,-4.18 -14.95,-12.53 0,-1.47 0.14,-3.04 0.44,-4.73l2.3 -13.52c0.22,-1.32 0.33,-2.64 0.33,-3.96 0,-3.52 -1.92,-5.28 -5.77,-5.28 -3.85,0 -6.87,1.5 -9.07,4.51l-5.94 33.97 -18.69 0 5.17 -29.24c0.22,-1.32 0.33,-2.64 0.33,-3.96 0,-3.52 -1.98,-5.28 -5.93,-5.28 -3.16,0 -5.87,1.21 -8.14,3.63l-6.16 34.85 -18.69 0 9.35 -52.88 17.37 0 -1.21 6.6c4.4,-5.43 9.97,-8.14 16.71,-8.14 9.53,0 14.95,3.15 16.27,9.46 4.4,-6.31 10.28,-9.46 17.65,-9.46 7.36,0 12.15,1.65 14.35,4.95 1.46,2.27 2.19,4.76 2.19,7.47 0,2.72 -0.18,5.17 -0.55,7.37l-2.74 16.38c-0.08,0.44 -0.11,0.84 -0.11,1.21 0,1.98 1.1,2.97 3.29,2.97zm58.21 14.07l-55.2 0 13.97 -79.16 55.19 0 -3.08 17.15 -35.4 0 -2.53 14.85 29.24 0 -3.07 17.15 -29.25 0 -2.2 12.86 35.4 0 -3.07 17.15zm-4.07 -88.72l-16.27 0 18.03 -26.28 19.79 0 -21.55 26.28zm64.35 47.27c0,2.42 -0.73,4.66 -2.19,6.71l-18.03 0c0.58,-0.44 0.88,-1.17 0.88,-2.2 0,-1.02 -0.59,-1.85 -1.76,-2.47 -1.18,-0.63 -2.68,-0.94 -4.51,-0.94 -5.5,0 -8.25,1.69 -8.25,5.06 0,1.32 1.03,2.27 3.08,2.86 2.05,0.59 4.55,1.06 7.48,1.43 2.93,0.36 5.86,0.9 8.79,1.59 2.93,0.7 5.43,2.07 7.48,4.13 2.05,2.05 3.08,4.8 3.08,8.24 0,6.08 -2.44,10.7 -7.31,13.85 -4.88,3.16 -11.97,4.73 -21.28,4.73 -9.31,0 -15.83,-1.5 -19.57,-4.51 -2.93,-2.34 -4.4,-5.57 -4.4,-9.67 0,-1.17 0.11,-2.38 0.33,-3.63l18.36 -0.22c-0.14,1.03 0.46,1.92 1.82,2.69 1.35,0.77 3.35,1.16 5.99,1.16 2.64,0 4.55,-0.28 5.72,-0.83 1.17,-0.55 1.76,-1.59 1.76,-3.13 0,-1.02 -1.03,-1.74 -3.08,-2.14 -2.05,-0.41 -4.56,-0.75 -7.53,-1.05 -2.97,-0.29 -5.94,-0.77 -8.91,-1.43 -2.97,-0.66 -5.48,-2.05 -7.53,-4.17 -2.05,-2.13 -3.08,-4.92 -3.08,-8.36 0,-6.67 2.59,-11.8 7.75,-15.39 5.17,-3.59 12.63,-5.39 22.38,-5.39 15.02,0 22.53,4.36 22.53,13.08zm30.61 -12.97c7.92,0 13.89,1.72 17.92,5.17 3.15,2.71 4.73,6.48 4.73,11.32 0,1.61 -0.18,3.37 -0.55,5.28l-2.31 12.86c-1.39,7.77 -4.64,13.27 -9.73,16.49 -5.09,3.23 -11.89,4.84 -20.39,4.84 -8.51,0 -14.74,-1.61 -18.69,-4.84 -2.94,-2.42 -4.4,-6.04 -4.4,-10.88 0,-1.69 0.18,-3.55 0.55,-5.61l2.31 -12.86c2.56,-14.51 12.75,-21.77 30.56,-21.77zm2.97 23.97c0.15,-0.73 0.22,-1.67 0.22,-2.81 0,-1.13 -0.48,-2.4 -1.43,-3.79 -0.95,-1.39 -2.62,-2.09 -5,-2.09 -2.39,0 -4.38,0.79 -5.99,2.37 -1.62,1.57 -2.64,3.68 -3.08,6.32l-1.43 8.24c-0.15,0.74 -0.22,1.67 -0.22,2.81 0,1.13 0.47,2.36 1.43,3.68 0.95,1.32 2.62,1.98 5,1.98 2.38,0 4.38,-0.83 5.99,-2.47 1.61,-1.65 2.64,-3.65 3.08,-6l1.43 -8.24zm4.4 -32l-16.28 0 18.04 -26.27 19.79 0 -21.55 26.27zm50.94 38.38l-13.08 0 -4.29 24.07 -19.79 0 13.96 -79.16 33.54 0c8.28,0 14.18,1.91 17.7,5.72 2.56,2.93 3.84,6.67 3.84,11.21 0,1.54 -0.14,3.16 -0.43,4.84l-2.2 12.43c-1.1,6.08 -4.33,11.08 -9.68,15 -5.35,3.92 -11.87,5.89 -19.57,5.89zm3.41 -37.94l-9.89 0 -3.63 20.78 9.78 0c6.01,0 9.49,-2.67 10.45,-8.02l0.77 -4.51c0.14,-0.66 0.22,-1.54 0.22,-2.64 0,-1.1 -0.55,-2.31 -1.65,-3.63 -1.1,-1.32 -3.12,-1.98 -6.05,-1.98zm73.26 45.08c0,1.91 0.97,2.86 2.92,2.86 1.94,0 3.57,-0.37 4.89,-1.1l-0.55 12.42c-3.52,2.86 -7.48,4.29 -11.87,4.29 -8.07,0 -12.54,-2.93 -13.42,-8.79 -3.66,5.86 -9.05,8.79 -16.16,8.79 -12.02,0 -18.03,-5.17 -18.03,-15.5 0,-1.76 0.18,-3.7 0.55,-5.83l2.31 -12.86c1.17,-6.6 3.86,-11.86 8.08,-15.78 4.21,-3.92 9.71,-5.88 16.49,-5.88 6.78,0 11.38,1.58 13.8,4.73l0.55 -3.3 16.71 0 -6.16 34.63c-0.07,0.44 -0.11,0.88 -0.11,1.32zm-32.54 -5.28c-0.15,0.66 -0.22,1.58 -0.22,2.75 0,1.18 0.55,2.33 1.65,3.47 1.1,1.13 2.95,1.7 5.55,1.7 2.6,0 4.86,-1.03 6.76,-3.08l3.3 -18.47c-0.81,-1.83 -2.71,-2.75 -5.72,-2.75 -5.64,0 -8.94,2.71 -9.89,8.14l-1.43 8.24zm95.25 -30.67c1.03,3.08 1.54,7.16 1.54,12.26 0,5.09 -0.62,9.98 -1.87,14.68 -1.24,4.69 -3.13,9.14 -5.66,13.35 -2.53,4.22 -6.05,7.63 -10.56,10.23 -4.5,2.6 -9.69,3.9 -15.55,3.9 -9.16,0 -15.5,-1.87 -19.02,-5.61 -2.35,-2.49 -3.52,-6.3 -3.52,-11.43 0,-2.42 0.29,-5.17 0.88,-8.25l5.17 -29.13 18.69 0 -5.17 29.24c-0.22,1.1 -0.33,2.09 -0.33,2.97 0,4.18 2.16,6.27 6.49,6.27 7.62,0 11.43,-7.99 11.43,-23.97 0,-3.74 -0.29,-7.88 -0.88,-12.42l-0.33 -2.09 18.69 0zm22.25 54.42c-15.24,0 -22.87,-5.28 -22.87,-15.83 0,-1.47 0.15,-3.04 0.44,-4.73l2.31 -13.63c1.25,-7.04 4.49,-12.44 9.73,-16.22 5.24,-3.77 12.19,-5.66 20.84,-5.66 14.73,0 22.09,5.57 22.09,16.71 0,1.61 -0.14,3.37 -0.44,5.28l-1.31 7.81 -33.54 0 -0.44 2.52c-0.14,0.88 -0.22,1.69 -0.22,2.42 0,4.03 2.39,6.05 7.15,6.05 1.76,0 3.26,-0.55 4.51,-1.65 1.24,-1.1 1.98,-2.38 2.2,-3.85l18.25 0.22c-2.42,13.71 -11.99,20.56 -28.7,20.56zm13.19 -32.98c0.3,-1.25 0.44,-2.4 0.44,-3.46 0,-1.07 -0.47,-2.15 -1.43,-3.25 -0.95,-1.1 -2.47,-1.65 -4.56,-1.65 -2.09,0 -3.99,0.7 -5.71,2.09 -1.73,1.39 -2.92,3.48 -3.58,6.27l14.84 0zm-8.68 -31.01l-15.72 0 17.92 -26.27 19.9 0 8.68 26.27 -15.72 0 -5.28 -12.97 -9.78 12.97zm-142.42 -665.98c-19.74,6.77 -16,26.82 -16,48.8l0 129.23c0,11.58 -0.48,19.02 6.02,26.32 4.87,5.46 14.22,10.11 24.79,6.77 19.99,-6.33 16.39,-26.03 16.39,-48.47l0 -129.23c0,-12.25 0.7,-18.92 -5.61,-26.95 -4.19,-5.34 -15.47,-9.94 -25.59,-6.47zm70.86 0.07c-19.8,7.22 -15.96,26.58 -15.96,48.73l0 130c0,11.63 -0.56,18.69 6.4,25.81 14.23,14.55 36.23,6.8 40.25,-10.6 1.73,-7.5 0.69,-143.04 0.69,-161.36 0,-11.19 0.96,-18.88 -5.95,-26.1 -2.27,-2.37 -5.25,-5.45 -9.48,-6.72 -4.15,-1.25 -12.26,-1.1 -15.95,0.24zm31.41 325.43c24.03,-5.09 44.5,-23.19 54.5,-37.81 16.69,-24.39 16.41,-41.02 16.41,-75.04 0,-61.03 -0.05,-122.05 0,-183.08 0,-8.2 0.52,-13.2 -3.35,-19.65 -11.02,-18.32 -36.88,-12.78 -42.77,5.01 -2.6,7.86 -1.22,160.06 -1.22,181.56 0,31.94 4.09,58.88 -16.58,75.23 -14.92,11.8 -21.3,9.21 -34.71,11.44 -12.61,2.1 -19.63,12.27 -19.66,26.4l0.01 274.63c-0.06,39.26 38.11,35.39 45.83,14.37 3.04,-8.28 1.51,-75.26 1.51,-89.76 0,-60.9 -0.91,-122.48 0.03,-183.3z"/>
   </g>
  </g>
  <polygon class="fil1" points="0,0 768.69,0 768.69,768.69 0,768.69 "/>
 </g>
</svg>
