<?xml version="1.0" encoding="UTF-8"?>
<!DOCTYPE svg PUBLIC "-//W3C//DTD SVG 1.1//EN" "http://www.w3.org/Graphics/SVG/1.1/DTD/svg11.dtd">
<svg xmlns="http://www.w3.org/2000/svg" version="1.1" width="1000px" height="1000px" style="shape-rendering:geometricPrecision; text-rendering:geometricPrecision; image-rendering:optimizeQuality; fill-rule:evenodd; clip-rule:evenodd" xmlns:xlink="http://www.w3.org/1999/xlink">
<g><path style="opacity:0.992" fill="#7c3b98" d="M 131.5,23.5 C 281.166,24.5628 430.832,24.7295 580.5,24C 588.957,24.1184 597.29,25.1184 605.5,27C 615.255,31.7682 620.755,39.6015 622,50.5C 622.333,55.8333 622.667,61.1667 623,66.5C 623.667,144.833 623.667,223.167 623,301.5C 625.351,395.956 588.851,471.122 513.5,527C 496.435,538.536 478.435,548.536 459.5,557C 452.705,559.877 445.705,562.043 438.5,563.5C 438.691,605.13 438.358,646.796 437.5,688.5C 437.828,699.265 438.995,709.932 441,720.5C 444.907,735.407 454.074,745.574 468.5,751C 490.74,759.157 513.74,763.157 537.5,763C 556.368,768.907 564.201,781.74 561,801.5C 556.812,815.019 547.645,822.519 533.5,824C 501.31,825.469 470.31,820.135 440.5,808C 397.635,785.731 376.135,750.231 376,701.5C 375.333,651.167 375.333,600.833 376,550.5C 374.736,537.746 378.57,526.913 387.5,518C 389.5,517 391.5,516 393.5,515C 465.948,499.535 517.115,458.035 547,390.5C 555.324,367.236 559.657,343.236 560,318.5C 561.155,241.164 561.322,163.83 560.5,86.5C 427.5,86.5 294.5,86.5 161.5,86.5C 161.333,163.834 161.5,241.167 162,318.5C 164.318,390.321 195.152,446.154 254.5,486C 277.812,498.995 302.479,508.662 328.5,515C 340.927,521.676 346.76,532.176 346,546.5C 346.667,599.167 346.667,651.833 346,704.5C 344.285,758.159 318.451,794.326 268.5,813C 240.825,822.168 212.492,825.501 183.5,823C 168.527,818.897 160.86,809.063 160.5,793.5C 161.004,776.836 169.337,766.669 185.5,763C 205.169,762.625 224.502,759.958 243.5,755C 255.895,751.054 266.395,744.221 275,734.5C 280.81,723.927 283.81,712.593 284,700.5C 283.656,654.84 283.49,609.174 283.5,563.5C 197.721,534.888 139.888,477.888 110,392.5C 104.339,371.873 101.006,350.873 100,329.5C 99.3333,236.167 99.3333,142.833 100,49.5C 103.456,32.2049 113.956,23.5382 131.5,23.5 Z"/></g>
<g><path style="opacity:0.978" fill="#7d3b98" d="M 678.5,23.5 C 699.811,21.883 711.978,31.5497 715,52.5C 715.667,125.833 715.667,199.167 715,272.5C 710.788,296.864 696.621,306.031 672.5,300C 659.656,294.468 653.156,284.635 653,270.5C 652.333,198.5 652.333,126.5 653,54.5C 654.115,37.9012 662.615,27.5679 678.5,23.5 Z"/></g>
<g><path style="opacity:0.993" fill="#7c3b97" d="M 772.5,23.5 C 784.013,22.1676 793.513,25.8343 801,34.5C 803.81,38.4535 805.81,42.7868 807,47.5C 808.463,123.837 808.463,200.17 807,276.5C 800.494,298.006 786.327,305.839 764.5,300C 755.088,295.591 748.922,288.424 746,278.5C 745.578,204.494 745.245,130.494 745,56.5C 745.421,37.9322 754.588,26.9322 772.5,23.5 Z"/></g>
<g><path style="opacity:0.993" fill="#7c3b98" d="M 862.5,23.5 C 881.063,21.1905 893.23,28.8572 899,46.5C 899.98,148.521 899.646,250.521 898,352.5C 889.099,395.071 864.932,425.571 825.5,444C 819.859,445.936 814.192,447.769 808.5,449.5C 807.225,548.501 807.225,647.501 808.5,746.5C 808.282,763.175 807.782,779.842 807,796.5C 805.597,811.127 797.764,820.294 783.5,824C 761.986,827.156 749.486,817.989 746,796.5C 745.333,670.5 745.333,544.5 746,418.5C 748.658,405.844 756.158,397.677 768.5,394C 791.318,394.667 810.151,386.5 825,369.5C 832.213,359.006 836.213,347.34 837,334.5C 837.678,272.831 837.511,211.165 836.5,149.5C 836.729,114.478 837.562,79.4777 839,44.5C 843.572,33.7568 851.405,26.7568 862.5,23.5 Z"/></g>
<g><path style="opacity:0.95" fill="#7c3b98" d="M 445.5,823.5 C 454.506,823.334 463.506,823.5 472.5,824C 463.167,835.333 453.833,846.667 444.5,858C 437.144,858.831 429.811,858.665 422.5,857.5C 430.177,846.138 437.843,834.805 445.5,823.5 Z"/></g>
<g><path style="opacity:0.959" fill="#7c3b98" d="M 578.5,857.5 C 587.506,857.334 596.506,857.5 605.5,858C 596.406,869.517 587.072,880.851 577.5,892C 570.144,892.831 562.811,892.665 555.5,891.5C 563.192,880.149 570.859,868.815 578.5,857.5 Z"/></g>
<g><path style="opacity:0.97" fill="#7c3b98" d="M 861.5,857.5 C 870.506,857.334 879.506,857.5 888.5,858C 892.872,869.282 896.539,880.782 899.5,892.5C 892.492,892.666 885.492,892.5 878.5,892C 876.338,886.85 874.171,881.684 872,876.5C 868.167,881.667 864.333,886.833 860.5,892C 853.144,892.831 845.811,892.665 838.5,891.5C 846.192,880.149 853.859,868.815 861.5,857.5 Z"/></g>
<g><path style="opacity:0.975" fill="#7c3b98" d="M 395.5,869.5 C 419.5,869.5 443.5,869.5 467.5,869.5C 466.864,877.482 465.531,885.316 463.5,893C 448.17,893.5 432.837,893.667 417.5,893.5C 416.823,899.227 415.823,904.894 414.5,910.5C 427.149,911.499 439.816,911.832 452.5,911.5C 451.552,918.906 450.219,926.24 448.5,933.5C 435.851,934.499 423.184,934.832 410.5,934.5C 409.765,939.746 408.765,944.912 407.5,950C 423.238,949.856 438.738,950.69 454,952.5C 462.088,951.352 470.254,951.185 478.5,952C 483.869,956.791 489.869,957.624 496.5,954.5C 497.747,952.994 497.747,951.494 496.5,950C 488.5,948.667 480.5,947.333 472.5,946C 463.776,943.615 459.11,937.948 458.5,929C 460.301,914.197 468.634,905.53 483.5,903C 496.958,900.314 509.958,901.647 522.5,907C 528.945,913.225 529.945,920.225 525.5,928C 517.167,928.667 508.833,928.667 500.5,928C 501.833,926.333 501.833,924.667 500.5,923C 495.833,921 491.167,921 486.5,923C 483.363,927.095 484.363,929.762 489.5,931C 497.638,932.028 505.638,933.694 513.5,936C 520.087,939.086 523.087,944.253 522.5,951.5C 522.7,961.586 518.033,968.42 508.5,972C 493.161,976.638 477.827,976.638 462.5,972C 456.122,968.418 452.956,962.918 453,955.5C 451.989,961.406 450.823,967.239 449.5,973C 424.791,973.823 400.124,973.657 375.5,972.5C 366.422,976.614 357.422,976.447 348.5,972C 346.106,970.048 344.606,967.548 344,964.5C 343.904,953.231 345.071,942.064 347.5,931C 347.684,925.851 345.184,923.351 340,923.5C 335.465,923.934 331.798,925.934 329,929.5C 326.433,944.167 323.933,958.834 321.5,973.5C 313.167,973.5 304.833,973.5 296.5,973.5C 298.453,959.284 300.786,945.117 303.5,931C 301.636,923.903 297.303,921.903 290.5,925C 288.714,925.785 287.214,926.951 286,928.5C 283.415,943.422 280.582,958.256 277.5,973C 268.921,973.816 260.421,973.649 252,972.5C 243.94,976.3 235.774,976.467 227.5,973C 224.533,970.9 222.7,968.066 222,964.5C 212.352,975.403 200.519,978.569 186.5,974C 183.063,972.895 180.563,970.728 179,967.5C 176.971,971.836 173.471,974.336 168.5,975C 160.287,976.634 152.787,975.134 146,970.5C 143.718,966.821 142.551,962.821 142.5,958.5C 143.783,948.756 145.449,939.089 147.5,929.5C 144.841,922.992 140.508,921.825 134.5,926C 133.299,926.903 132.465,928.069 132,929.5C 129.39,944.16 126.89,958.826 124.5,973.5C 116.167,973.5 107.833,973.5 99.5,973.5C 102.791,950.754 106.624,928.088 111,905.5C 118.558,903.553 126.391,902.886 134.5,903.5C 134.373,905.915 134.207,908.249 134,910.5C 143.483,901.951 154.317,899.785 166.5,904C 172.102,907.778 174.435,913.111 173.5,920C 172.6,930.491 170.934,940.825 168.5,951C 171.292,955.46 174.292,955.627 177.5,951.5C 180.333,935.835 183.166,920.168 186,904.5C 194.415,903.517 202.915,903.183 211.5,903.5C 208.952,917.454 206.619,931.454 204.5,945.5C 203.753,951.253 206.253,953.919 212,953.5C 215.735,953.799 218.735,952.466 221,949.5C 223.943,934.176 226.776,918.843 229.5,903.5C 237.833,903.5 246.167,903.5 254.5,903.5C 252.213,919.054 249.547,934.554 246.5,950C 246.439,951.711 247.106,953.044 248.5,954C 251.192,954.43 253.859,954.263 256.5,953.5C 259.037,936.814 261.704,920.147 264.5,903.5C 272.5,903.5 280.5,903.5 288.5,903.5C 287.833,905.819 287.666,908.153 288,910.5C 296.39,902.581 306.223,900.081 317.5,903C 323.141,904.145 327.141,907.312 329.5,912.5C 340.447,901.624 353.114,899.124 367.5,905C 372.354,908.543 374.687,913.376 374.5,919.5C 373.32,930.081 371.653,940.581 369.5,951C 371.373,954.584 374.207,955.418 378,953.5C 378.945,953.905 379.612,954.572 380,955.5C 384.983,926.755 390.15,898.088 395.5,869.5 Z"/></g>
<g><path style="opacity:0.978" fill="#7c3b98" d="M 680.5,921.5 C 679.662,921.842 679.328,922.508 679.5,923.5C 672.617,934.454 662.617,940.621 649.5,942C 641.841,942.5 634.174,942.666 626.5,942.5C 624.941,952.852 623.275,963.185 621.5,973.5C 612.5,973.5 603.5,973.5 594.5,973.5C 600.5,938.833 606.5,904.167 612.5,869.5C 629.17,869.333 645.837,869.5 662.5,870C 676.524,870.822 684.19,878.156 685.5,892C 684.282,901.923 682.615,911.757 680.5,921.5 Z M 635.5,893.5 C 656.872,889.677 662.539,897.177 652.5,916C 645.513,919.263 638.18,920.263 630.5,919C 632.218,910.532 633.884,902.032 635.5,893.5 Z"/></g>
<g><path style="opacity:0.976" fill="#7c3b98" d="M 565.5,901.5 C 574.491,901.331 582.824,903.497 590.5,908C 596.688,913.9 598.854,921.067 597,929.5C 595.642,938.982 593.642,948.315 591,957.5C 587.536,965.319 581.703,970.486 573.5,973C 560.82,976.303 548.153,976.303 535.5,973C 525.174,968.073 521.341,959.906 524,948.5C 524.983,936.909 527.983,925.909 533,915.5C 541.831,906.06 552.665,901.394 565.5,901.5 Z M 561.5,922.5 C 566.894,922.559 570.228,925.225 571.5,930.5C 570.528,936.191 569.362,941.857 568,947.5C 564.96,953.603 560.126,955.769 553.5,954C 551.274,952.38 549.94,950.214 549.5,947.5C 550.271,940.194 552.104,933.194 555,926.5C 557.013,924.752 559.18,923.418 561.5,922.5 Z"/></g>
<g><path style="opacity:0.976" fill="#7c3b98" d="M 679.5,923.5 C 680.338,923.158 680.672,922.492 680.5,921.5C 688.785,905.101 702.118,898.934 720.5,903C 723.112,903.639 725.446,904.806 727.5,906.5C 728.287,905.758 728.953,904.925 729.5,904C 736.826,903.5 744.159,903.334 751.5,903.5C 749.159,919.212 746.492,934.878 743.5,950.5C 743.529,952.029 744.196,953.196 745.5,954C 748.192,954.43 750.859,954.263 753.5,953.5C 755.313,936.766 757.647,920.099 760.5,903.5C 769.167,903.5 777.833,903.5 786.5,903.5C 783.093,919.026 780.926,934.692 780,950.5C 783.257,953.428 787.091,954.262 791.5,953C 796.205,949.774 799.038,945.274 800,939.5C 802.084,927.781 801.918,916.115 799.5,904.5C 808.141,903.502 816.808,903.169 825.5,903.5C 826.496,910.805 827.33,918.138 828,925.5C 831.901,914.599 839.401,907.432 850.5,904C 863.093,900.267 875.426,900.933 887.5,906C 891.938,909.033 894.771,913.2 896,918.5C 896.398,926.217 895.898,933.884 894.5,941.5C 879.833,941.5 865.167,941.5 850.5,941.5C 848.028,951.191 851.695,955.358 861.5,954C 864.033,952.967 865.699,951.133 866.5,948.5C 874.725,947.185 882.892,947.185 891,948.5C 889.43,962.09 881.93,970.59 868.5,974C 857.408,976.228 846.408,975.895 835.5,973C 829.269,971.037 825.436,966.87 824,960.5C 823.594,954.472 823.594,948.472 824,942.5C 813.833,971.002 794,981.169 764.5,973C 759.243,970.744 755.743,966.91 754,961.5C 754.674,969.167 751.174,973.667 743.5,975C 737.747,975.851 732.08,975.517 726.5,974C 722.942,972.108 720.442,969.275 719,965.5C 716.708,969.788 713.208,972.622 708.5,974C 698.752,976.662 689.419,975.662 680.5,971C 675.208,964.78 673.375,957.613 675,949.5C 676.438,940.81 677.938,932.143 679.5,923.5 Z M 862.5,921.5 C 868.517,922.181 871.183,925.514 870.5,931.5C 864.463,931.829 858.463,931.496 852.5,930.5C 854.634,926.026 857.968,923.026 862.5,921.5 Z M 711.5,923.5 C 716.06,922.658 719.727,923.991 722.5,927.5C 720.81,935.116 719.31,942.782 718,950.5C 710.885,956.51 705.051,955.51 700.5,947.5C 701.665,941.845 702.832,936.179 704,930.5C 705.767,927.228 708.267,924.895 711.5,923.5 Z"/></g>
</svg>
